<svg width="296" height="283" viewBox="0 0 296 283" fill="none" xmlns="http://www.w3.org/2000/svg">
<path d="M39.5757 248.937V254.068H77.9909V248.937H39.5757Z" fill="#E0E0E0"/>
<path d="M44.816 249.141C44.9456 249.141 45.0548 250.219 45.0548 251.55C45.0548 252.88 44.9456 253.952 44.816 253.952C44.6863 253.952 44.5703 252.874 44.5703 251.55C44.5703 250.226 44.6795 249.141 44.816 249.141Z" fill="#FAFAFA"/>
<path d="M43.9766 249.039C44.1131 249.039 44.2154 250.117 44.2154 251.441C44.2154 252.764 44.1131 253.849 43.9766 253.849C43.8401 253.849 43.7378 252.771 43.7378 251.441C43.7378 250.11 43.8401 249.039 43.9766 249.039Z" fill="#FAFAFA"/>
<path d="M75.023 249.141C75.1595 249.141 75.2686 250.219 75.2686 251.55C75.2686 252.88 75.1595 253.952 75.023 253.952C74.8865 253.952 74.7842 252.874 74.7842 251.55C74.7842 250.226 74.8934 249.141 75.023 249.141Z" fill="#FAFAFA"/>
<path d="M74.1905 249.039C74.3201 249.039 74.4293 250.117 74.4293 251.441C74.4293 252.764 74.3201 253.849 74.1905 253.849C74.0608 253.849 73.9448 252.771 73.9448 251.441C73.9448 250.11 74.054 249.039 74.1905 249.039Z" fill="#FAFAFA"/>
<path d="M69.1682 251.652C69.1682 251.789 64.7672 251.891 59.3427 251.891C53.9181 251.891 49.5171 251.789 49.5171 251.652C49.5171 251.516 53.9181 251.413 59.3427 251.413C64.7672 251.413 69.1682 251.516 69.1682 251.652Z" fill="#FAFAFA"/>
<path d="M39.4121 272.04V282.303H77.8274V272.04H39.4121Z" fill="#E0E0E0"/>
<path d="M78.3183 279.416C78.3183 279.416 78.2569 279.464 78.1136 279.532C77.9703 279.601 77.7588 279.703 77.4722 279.826C76.6372 280.18 75.7618 280.43 74.8657 280.569C73.4299 280.83 71.9484 280.619 70.6421 279.969C69.834 279.539 69.1449 278.915 68.636 278.154C68.0519 277.287 67.8089 276.235 67.9537 275.2C68.0376 274.637 68.2736 274.109 68.636 273.671C68.8302 273.432 69.0773 273.24 69.3579 273.112C69.6385 272.984 69.945 272.924 70.2532 272.934C70.5704 272.96 70.8788 273.051 71.1594 273.201C71.4399 273.352 71.6866 273.558 71.8839 273.808C72.3041 274.303 72.5635 274.915 72.6277 275.561C72.68 276.227 72.5889 276.896 72.3606 277.523C72.1322 278.151 71.7719 278.722 71.304 279.198C70.3317 280.226 69.0208 280.868 67.6125 281.006C66.1624 281.146 64.6995 280.964 63.3275 280.474C61.8613 280.015 60.5599 279.141 59.5815 277.956C59.0769 277.32 58.7729 276.548 58.7081 275.739C58.6673 275.318 58.7195 274.893 58.861 274.494C59.0025 274.096 59.2298 273.733 59.5269 273.432C59.8521 273.12 60.2778 272.934 60.7278 272.907C61.1726 272.895 61.6106 273.019 61.9833 273.262C62.7034 273.733 63.2103 274.468 63.3957 275.309C63.5564 276.129 63.5013 276.978 63.2357 277.771C62.9702 278.564 62.5034 279.274 61.881 279.833C60.6614 280.862 59.1468 281.478 57.555 281.593C56.0461 281.766 54.5177 281.615 53.0721 281.149C51.6531 280.703 50.4421 279.761 49.6604 278.495C49.2717 277.895 49.0307 277.211 48.9572 276.499C48.8836 275.787 48.9797 275.069 49.2374 274.401C49.365 274.067 49.5752 273.77 49.8484 273.538C50.1216 273.307 50.4489 273.148 50.7999 273.077C51.1374 273.017 51.4839 273.027 51.8174 273.107C52.1509 273.186 52.4642 273.335 52.7377 273.541C53.2166 273.962 53.5594 274.516 53.7222 275.132C53.8851 275.748 53.8606 276.399 53.652 277.001C53.2785 278.076 52.6064 279.023 51.7142 279.73C50.2364 280.982 48.3819 281.703 46.4466 281.777C45.2687 281.819 44.0951 281.613 43.0019 281.172C41.9088 280.731 40.9204 280.066 40.1009 279.218C39.9369 279.049 39.782 278.872 39.637 278.686C39.5857 278.624 39.5401 278.558 39.5005 278.488C40.3116 279.383 41.2808 280.121 42.3595 280.665C43.6304 281.289 45.0391 281.58 46.4534 281.511C48.3205 281.405 50.1003 280.686 51.5163 279.464C52.3475 278.791 52.9719 277.897 53.3177 276.885C53.4984 276.357 53.5191 275.788 53.377 275.249C53.235 274.71 52.9365 274.225 52.5194 273.855C52.2901 273.685 52.0284 273.563 51.7503 273.497C51.4722 273.431 51.1836 273.423 50.9022 273.473C50.6169 273.532 50.3516 273.664 50.1317 273.855C49.9119 274.046 49.7449 274.291 49.6468 274.565C49.4224 275.168 49.3432 275.815 49.4155 276.454C49.4878 277.093 49.7096 277.705 50.063 278.243C50.7956 279.412 51.9241 280.279 53.2426 280.685C54.6258 281.124 56.0865 281.264 57.5277 281.095C59.0174 280.984 60.4349 280.409 61.5807 279.45C62.1428 278.944 62.564 278.301 62.8031 277.583C63.0423 276.866 63.0913 276.099 62.9454 275.356C62.7916 274.635 62.3634 274.001 61.7513 273.589C61.4752 273.385 61.1362 273.284 60.7933 273.304C60.4504 273.324 60.1254 273.463 59.8749 273.698C59.6268 273.949 59.437 274.252 59.3191 274.584C59.2012 274.917 59.158 275.271 59.1926 275.623C59.25 276.339 59.5183 277.023 59.9636 277.588C60.8832 278.698 62.1032 279.52 63.4776 279.955C64.7877 280.427 66.185 280.606 67.5716 280.481C68.8695 280.356 70.0798 279.77 70.9833 278.83C71.4139 278.398 71.7471 277.88 71.9601 277.309C72.1732 276.738 72.2612 276.128 72.2183 275.52C72.1952 274.968 71.9857 274.44 71.6238 274.022C71.2619 273.605 70.7691 273.322 70.2259 273.221C69.973 273.213 69.7216 273.263 69.491 273.367C69.2603 273.471 69.0566 273.626 68.8953 273.821C68.5625 274.209 68.343 274.681 68.2608 275.186C68.1212 276.141 68.3425 277.114 68.8817 277.915C69.3548 278.644 69.999 279.246 70.7581 279.669C72.0188 280.316 73.4532 280.543 74.8521 280.317C75.7374 280.196 76.6068 279.979 77.4449 279.669C78.0181 279.526 78.3115 279.396 78.3183 279.416Z" fill="#FAFAFA"/>
<path d="M42.8442 254.211V272.02H77.8274V254.211H42.8442Z" fill="#EBEBEB"/>
<path d="M48.6573 254.825C48.7869 254.825 48.8961 258.68 48.8961 263.443C48.8961 268.206 48.7869 272.061 48.6573 272.061C48.5276 272.061 48.4116 268.206 48.4116 263.443C48.4116 258.68 48.5208 254.825 48.6573 254.825Z" fill="#E0E0E0"/>
<path d="M51.3116 254.6C51.4412 254.6 51.5504 258.414 51.5504 263.109C51.5504 267.803 51.4412 271.617 51.3116 271.617C51.1819 271.617 51.0659 267.81 51.0659 263.109C51.0659 258.407 51.1751 254.6 51.3116 254.6Z" fill="#E0E0E0"/>
<path d="M73.8765 254.054C74.0061 254.054 74.1153 258.066 74.1153 263.02C74.1153 267.974 74.0061 271.979 73.8765 271.979C73.7469 271.979 73.6309 267.967 73.6309 263.02C73.6309 258.073 73.74 254.054 73.8765 254.054Z" fill="#E0E0E0"/>
<path d="M70.7583 254.272C70.888 254.272 70.9971 258.175 70.9971 262.999C70.9971 267.824 70.888 271.726 70.7583 271.726C70.6287 271.726 70.5127 267.824 70.5127 262.999C70.5127 258.175 70.6219 254.272 70.7583 254.272Z" fill="#E0E0E0"/>
<path d="M259.075 215.339C262.705 213.462 266.97 213.223 271.002 213.885C273.165 214.247 275.417 214.888 276.891 216.519C278.364 218.15 278.637 221.002 276.952 222.394C275.942 223.226 274.543 223.356 273.233 223.336C270.081 223.301 266.587 222.749 264.07 224.646C262.63 225.724 261.675 227.525 259.976 228.057C258.277 228.589 256.4 227.586 255.513 226.072C254.693 224.492 254.512 222.657 255.008 220.947C255.209 219.763 255.681 218.64 256.386 217.668C257.091 216.695 258.011 215.898 259.075 215.339Z" fill="#EBEBEB"/>
<path d="M250.764 199.297C252.981 202.463 257.294 201.412 259.293 199.481C261.292 197.55 262.138 194.746 262.902 192.071C264.663 185.971 266.43 179.564 265.127 173.348C264.814 171.462 263.985 169.7 262.732 168.258C262.098 167.546 261.289 167.014 260.385 166.712C259.481 166.41 258.514 166.35 257.58 166.538C255.41 167.118 254.059 169.268 253.084 171.267C250.208 177.247 248.7 183.792 248.669 190.427C248.669 193.511 249.024 196.745 250.764 199.297Z" fill="#EBEBEB"/>
<path d="M244.698 203.841C247.107 200.982 247.564 196.813 246.493 193.238C245.421 189.662 242.999 186.606 240.208 184.122C236.925 181.199 233.103 178.944 228.957 177.483C227.353 176.837 225.628 176.544 223.901 176.623C223.037 176.673 222.199 176.934 221.459 177.382C220.719 177.83 220.1 178.453 219.657 179.195C218.469 181.454 219.609 184.19 220.837 186.428C223.001 190.363 225.47 194.123 228.22 197.673C230.437 200.532 232.996 203.35 236.346 204.64C239.697 205.929 243.231 205.772 245.019 203.432" fill="#EBEBEB"/>
<path d="M250.614 247.074C250.731 246.602 250.8 246.12 250.819 245.634C250.921 244.59 251.044 243.273 251.201 241.711C251.396 239.775 251.69 237.851 252.081 235.945C252.594 233.618 253.295 231.336 254.176 229.122C255.04 226.922 256.209 224.855 257.649 222.981C258.822 221.453 260.321 220.206 262.036 219.33C263.202 218.758 264.449 218.369 265.734 218.177C266.218 218.162 266.699 218.094 267.167 217.972C266.682 217.919 266.192 217.919 265.707 217.972C264.372 218.074 263.067 218.414 261.852 218.975C260.047 219.829 258.464 221.087 257.226 222.653C255.721 224.556 254.506 226.671 253.623 228.931C252.742 231.171 252.057 233.484 251.576 235.843C251.204 237.77 250.947 239.718 250.805 241.677C250.682 243.341 250.634 244.692 250.614 245.627C250.563 246.108 250.563 246.593 250.614 247.074Z" fill="#E0E0E0"/>
<path d="M250.887 244.051C250.928 243.826 250.942 243.597 250.928 243.369C250.928 242.871 250.928 242.236 250.928 241.458C250.928 239.807 250.928 237.405 251.01 234.444C251.16 228.521 251.692 222.162 252.654 213.155C253.589 204.708 254.837 194.869 256.161 188.475C256.441 187.022 256.728 185.712 257 184.565C257.273 183.419 257.471 182.43 257.683 181.631C257.894 180.833 258.01 180.267 258.126 179.775C258.188 179.552 258.229 179.324 258.249 179.093C258.145 179.291 258.067 179.502 258.017 179.721C257.867 180.199 257.683 180.806 257.458 181.55C257.232 182.293 256.959 183.324 256.673 184.47C256.386 185.616 256.059 186.919 255.752 188.373C254.113 195.934 252.88 203.578 252.06 211.272C251.078 220.279 250.634 228.48 250.593 234.417C250.559 237.385 250.593 239.787 250.696 241.445C250.743 242.222 250.784 242.857 250.812 243.355C250.808 243.589 250.833 243.823 250.887 244.051Z" fill="#E0E0E0"/>
<path d="M250.928 228.235C250.98 227.572 250.98 226.905 250.928 226.242C250.853 224.959 250.675 223.104 250.314 220.838C249.879 218.182 249.293 215.553 248.56 212.964C247.7 209.778 246.598 206.662 245.265 203.643C242.982 198.079 239.705 192.976 235.596 188.584C234.879 187.834 234.118 187.128 233.317 186.469C232.969 186.176 232.635 185.882 232.348 185.65L231.468 185.043C230.937 184.638 230.373 184.277 229.782 183.965C229.687 184.095 232.164 185.548 235.289 188.878C239.264 193.308 242.453 198.385 244.719 203.889C246.022 206.887 247.123 209.969 248.014 213.114C248.881 216.007 249.454 218.668 249.891 220.906C250.327 223.144 250.539 225 250.682 226.263C250.711 226.926 250.793 227.585 250.928 228.235Z" fill="#E0E0E0"/>
<path d="M234.579 253.733L236.169 275.445H264.056L265.646 253.733H234.579Z" fill="#EBEBEB"/>
<path d="M268.969 245.177H231.884V253.733H268.969V245.177Z" fill="#EBEBEB"/>
<path d="M231.884 274.613V276.987H233.631H268.361V274.613H231.884Z" fill="#E0E0E0"/>
<path d="M235.336 280.897L233.63 276.728H267.03L265.038 280.897H235.336Z" fill="#E0E0E0"/>
<path d="M265.127 260.83C265.093 260.901 265.049 260.968 264.997 261.027C264.881 261.178 264.745 261.355 264.581 261.58L262.95 263.661L262.882 263.757L262.814 263.654C261.79 262.242 260.426 260.359 258.822 258.134H259.027L255.097 263.702L254.974 263.873L254.837 263.709L250.198 258.148H250.464L250.211 258.469L246.063 263.709L245.919 263.886L245.797 263.702C244.377 261.703 243.067 259.827 241.859 258.141H242.091L237.247 263.661L237.165 263.757L237.097 263.648L235.582 261.103C235.418 260.823 235.295 260.598 235.193 260.42C235.143 260.346 235.102 260.266 235.07 260.181C235.133 260.245 235.188 260.316 235.234 260.393L235.664 261.075L237.254 263.579H237.104L241.88 257.991L241.996 257.855L242.105 258.005L246.076 263.545H245.803L249.966 258.312L250.218 257.984L250.355 257.821L250.491 257.984L255.138 263.538H254.878L258.85 257.998L258.966 257.834L259.075 257.998L262.984 263.579H262.841C263.558 262.72 264.117 262.044 264.533 261.532L264.984 261.007C265.066 260.877 265.12 260.823 265.127 260.83Z" fill="#F5F5F5"/>
<path d="M266.035 253.59C266.035 253.686 259.041 253.761 250.423 253.761C241.805 253.761 234.811 253.686 234.811 253.59C234.811 253.495 241.798 253.419 250.423 253.419C259.047 253.419 266.035 253.495 266.035 253.59Z" fill="#F5F5F5"/>
<path d="M107.011 27.4109C107.011 27.4109 106.949 27.4109 106.847 27.3631L106.396 27.1857L104.677 26.4693L98.3654 23.74L77.6225 14.7059L76.8993 14.3852H77.0494L56.7227 23.1122L50.5817 25.6914L48.9032 26.3737C48.7119 26.4616 48.5133 26.5323 48.3096 26.5853C48.4907 26.4773 48.6801 26.3837 48.8759 26.3055L50.5271 25.555L56.6681 22.8597L76.947 14.0645H77.0221H77.0971L77.8204 14.3784L98.5223 23.5216L104.779 26.326L106.471 27.1107L106.908 27.3222C106.946 27.3477 106.98 27.3774 107.011 27.4109Z" fill="#E0E0E0"/>
<path d="M139.367 24.4359H6.11426V124.213H139.367V24.4359Z" fill="#E0E0E0"/>
<path d="M135.211 29.0758H10.7744V120.112H135.211V29.0758Z" fill="#FAFAFA"/>
<path d="M38.2588 68.8489C38.2588 68.8489 38.3884 84.1263 39.1663 88.7934L58.333 87.8859C58.333 87.8859 56.6544 72.8746 57.3027 68.8489H38.2588Z" fill="#E0E0E0"/>
<path d="M47.7021 71.0051H47.9818C48.2486 70.9952 48.5158 71.0089 48.7802 71.046C49.2001 71.1083 49.6091 71.2301 49.9947 71.4076C50.5052 71.6605 50.9564 72.0186 51.3184 72.4584C51.7635 72.9932 52.0788 73.6238 52.2396 74.3007C52.3895 75.0933 52.3211 75.9117 52.0417 76.6684C51.8989 77.0799 51.7185 77.4773 51.5027 77.8557C51.2737 78.2407 51.0686 78.6395 50.8886 79.0497C50.5064 79.9199 50.2447 80.8382 50.1107 81.7791V81.8405H50.0493H48.1593H46.1737H46.0986V81.7722C46.0135 80.836 45.697 79.9356 45.1775 79.1521C44.9455 78.7563 44.693 78.3947 44.4951 78.0194C44.2474 77.6662 44.0196 77.2995 43.8128 76.9209C43.4628 76.196 43.3575 75.3771 43.5126 74.5873C43.624 73.9054 43.8774 73.2545 44.2563 72.6768C44.5799 72.2125 45.0045 71.8276 45.4982 71.5509C46.1076 71.2276 46.7759 71.0304 47.4633 70.9709H47.7362C47.7362 70.9709 47.7362 70.9709 47.668 70.9709H47.4633C47.2029 71.0017 46.9451 71.0518 46.6922 71.121C46.2888 71.2264 45.901 71.3847 45.5391 71.5919C45.0563 71.8647 44.643 72.2453 44.3314 72.7041C43.9789 73.2767 43.7468 73.9152 43.649 74.5805C43.5002 75.3459 43.6056 76.139 43.9493 76.839C44.1582 77.2119 44.3859 77.574 44.6316 77.9239C44.8704 78.2855 45.1229 78.6608 45.3549 79.0566C45.8935 79.858 46.2198 80.783 46.3033 81.745L46.2283 81.6699H48.2138H50.1107L50.0357 81.7381C50.1721 80.7852 50.4384 79.8554 50.8272 78.9747C51.0145 78.5611 51.224 78.1579 51.4549 77.767C51.6668 77.3971 51.845 77.0089 51.9871 76.607C52.2634 75.8735 52.3364 75.0791 52.1987 74.3075C52.0431 73.647 51.7424 73.0293 51.3184 72.4994C50.9664 72.0649 50.5271 71.7092 50.0288 71.4554C49.6512 71.2728 49.2489 71.1464 48.8348 71.0801C48.575 71.0403 48.3129 71.0175 48.0501 71.0119H47.8386C47.7294 71.0119 47.7021 71.0119 47.7021 71.0051Z" fill="white"/>
<path d="M48.6847 81.6562C48.6833 81.6358 48.6833 81.6153 48.6847 81.5948V81.4174C48.6847 81.2605 48.6233 81.0285 48.5824 80.7351C48.4937 80.1346 48.364 79.2749 48.2821 78.2036C48.2821 77.9375 48.2412 77.6578 48.2344 77.3644C48.2172 77.0576 48.2172 76.75 48.2344 76.4432C48.2417 76.114 48.3136 75.7895 48.4459 75.488C48.5934 75.1622 48.8557 74.9023 49.1828 74.7579C49.357 74.6847 49.5489 74.6644 49.7346 74.6996C49.9202 74.7348 50.0914 74.8239 50.2268 74.9558C50.2988 75.0225 50.3556 75.1039 50.3933 75.1946C50.431 75.2853 50.4487 75.383 50.4451 75.4811C50.4412 75.6788 50.3743 75.87 50.2541 76.027C50.1307 76.1865 49.9718 76.315 49.7901 76.4023C49.6097 76.4871 49.4195 76.549 49.2237 76.5865C48.4244 76.75 47.6032 76.7777 46.7946 76.6684C46.5946 76.6411 46.3994 76.586 46.2147 76.5046C46.0345 76.4236 45.8721 76.3076 45.737 76.1635C45.5986 76.0191 45.5019 75.8399 45.4573 75.6449C45.4144 75.4539 45.4384 75.2539 45.5255 75.0786C45.6045 74.9019 45.7488 74.7625 45.9281 74.6896C46.0132 74.653 46.1049 74.6341 46.1976 74.6341C46.2903 74.6341 46.382 74.653 46.4671 74.6896C46.6319 74.7644 46.7733 74.8822 46.8765 75.0308C46.9726 75.1766 47.042 75.3383 47.0812 75.5084C47.1391 75.8329 47.171 76.1615 47.1768 76.491L47.2723 78.2446C47.32 79.3158 47.3678 80.1824 47.3951 80.7897C47.3951 81.0831 47.3951 81.3151 47.3951 81.472V81.7108C47.3966 81.6904 47.3966 81.6699 47.3951 81.6494C47.3951 81.6085 47.3951 81.5471 47.3951 81.472C47.3951 81.397 47.3951 81.0763 47.3542 80.7897C47.3542 80.1824 47.2655 79.3158 47.204 78.2446C47.204 77.7124 47.1426 77.1256 47.1085 76.491C47.1041 76.1656 47.0699 75.8412 47.0062 75.5221C46.9728 75.3587 46.9079 75.2034 46.8151 75.0649C46.7138 74.9259 46.5804 74.8136 46.4262 74.7374C46.3475 74.7038 46.2627 74.6865 46.1771 74.6865C46.0915 74.6865 46.0068 74.7038 45.9281 74.7374C45.762 74.8066 45.6281 74.9357 45.5528 75.099C45.4742 75.2648 45.4527 75.4519 45.4914 75.6313C45.5374 75.8128 45.629 75.9795 45.7575 76.1157C46.0345 76.3889 46.3947 76.5618 46.781 76.607C47.1813 76.6595 47.5853 76.6778 47.9887 76.6616C48.3922 76.651 48.794 76.6053 49.1896 76.5251C49.3812 76.4885 49.5671 76.4266 49.7423 76.3409C49.9152 76.2578 50.0669 76.1365 50.1858 75.9861C50.2985 75.8385 50.3629 75.6598 50.3701 75.4743C50.3697 75.384 50.3514 75.2947 50.3163 75.2116C50.2811 75.1284 50.2298 75.0531 50.1654 74.9899C50.037 74.8674 49.8762 74.7844 49.7021 74.7505C49.5279 74.7166 49.3477 74.7334 49.1828 74.7988C48.8799 74.9356 48.6372 75.1782 48.5005 75.4811C48.3707 75.7787 48.2989 76.0983 48.289 76.4228C48.289 76.7366 48.289 77.0369 48.289 77.3303C48.289 77.6237 48.289 77.9034 48.3367 78.1764C48.4186 79.2476 48.5414 80.1074 48.6165 80.701C48.6574 81.0012 48.6915 81.2264 48.712 81.3833V81.5607C48.7067 81.5935 48.6975 81.6256 48.6847 81.6562Z" fill="white"/>
<path d="M46.1396 81.7586C46.1707 81.9688 46.189 82.1807 46.1942 82.3932C46.1942 82.848 46.2215 83.4007 46.2761 84.0512V84.0103L47.5725 85.5182H47.5043L48.9986 85.4364H48.9372L49.6741 84.5357L50.0494 84.0785V84.1399C50.0494 83.2597 50.0085 82.4341 49.9948 81.6835L50.0767 81.7586H47.286H46.1396C46.2279 81.746 46.3175 81.746 46.4058 81.7586L47.1904 81.7176L50.0289 81.6085H50.1108V81.6904C50.1108 82.4477 50.1586 83.2734 50.1859 84.1467V84.1536C50.0631 84.3037 49.9402 84.4606 49.8106 84.6107L49.0669 85.5182H49.0259L47.5316 85.5933H47.5043L46.2352 84.0853C46.2352 83.403 46.2352 82.8571 46.2352 82.3795C46.1911 82.1746 46.1592 81.9673 46.1396 81.7586Z" fill="white"/>
<path d="M50.0155 83.9147C50.0155 83.9147 49.9609 83.9147 49.8722 83.8533C49.7453 83.7965 49.6154 83.7464 49.4833 83.7032C49.0452 83.5503 48.5823 83.4809 48.1186 83.4985C47.6499 83.5088 47.1872 83.6059 46.7539 83.7851L46.3787 83.9625L46.2422 84.0307C46.2774 83.9939 46.319 83.9638 46.365 83.942C46.486 83.8685 46.6113 83.8024 46.7403 83.7442C47.1706 83.5531 47.6343 83.4488 48.1049 83.4371C48.5703 83.4199 49.0344 83.4965 49.4696 83.6623C49.6012 83.7093 49.7289 83.7663 49.8517 83.8329L50.0155 83.9147Z" fill="white"/>
<path d="M50.0087 83.3211L49.8722 83.2597L49.4833 83.1028C49.0442 82.9539 48.582 82.8846 48.1186 82.8981C47.6507 82.9149 47.1891 83.0118 46.7539 83.1846C46.5902 83.2529 46.4674 83.3143 46.3787 83.362L46.2422 83.4303L46.365 83.3416C46.4849 83.2681 46.6103 83.2042 46.7403 83.1505C47.17 82.957 47.6338 82.8503 48.1049 82.8367C48.5699 82.8262 49.0327 82.9026 49.4696 83.0618C49.6334 83.1301 49.763 83.1915 49.8517 83.2392C49.9404 83.287 50.0155 83.3143 50.0087 83.3211Z" fill="white"/>
<path d="M49.9745 82.7479L49.838 82.6934C49.7425 82.6524 49.6128 82.591 49.4491 82.5364C49.0099 82.3878 48.5478 82.3185 48.0844 82.3317C47.6156 82.341 47.1527 82.4382 46.7198 82.6183C46.556 82.6865 46.4332 82.7479 46.3445 82.7957L46.208 82.8639L46.3308 82.7752C46.451 82.7003 46.5764 82.6342 46.7061 82.5774C47.1375 82.3898 47.6006 82.2856 48.0708 82.2703C48.5357 82.2605 48.9983 82.3368 49.4354 82.4955C49.5668 82.5457 49.6944 82.605 49.8175 82.6729C49.8743 82.6873 49.9276 82.7128 49.9745 82.7479Z" fill="white"/>
<path d="M16.9155 43.896C16.9155 43.896 17.0452 59.1802 17.823 63.8405L36.9897 62.933C36.9897 62.933 35.3044 47.9218 35.9526 43.896H16.9155Z" fill="#EBEBEB"/>
<path d="M33.066 50.2826C30.9387 50.5976 28.7948 50.7889 26.6453 50.8558C24.502 51.0534 22.3486 51.1195 20.1973 51.0537C22.3251 50.7428 24.4687 50.5515 26.618 50.4805C28.7618 50.2911 30.9147 50.225 33.066 50.2826Z" fill="white"/>
<path d="M33.066 53.5169C30.9392 53.8372 28.7952 54.0309 26.6453 54.0969C24.5038 54.2863 22.3532 54.3524 20.2041 54.2947C22.3314 53.9794 24.4753 53.788 26.6248 53.7216C28.7661 53.5281 30.9168 53.4598 33.066 53.5169Z" fill="white"/>
<path d="M29.8116 56.6965C28.6094 56.9558 27.3841 57.093 26.1543 57.1059C24.9338 57.2301 23.7039 57.2301 22.4834 57.1059C23.6833 56.8469 24.9064 56.7098 26.1339 56.6965C27.3566 56.5722 28.5889 56.5722 29.8116 56.6965Z" fill="white"/>
<path d="M16.0078 88.8275C16.0078 88.8275 16.1375 104.105 16.9153 108.772L36.082 107.865C36.082 107.865 34.3966 92.8533 35.0449 88.8275H16.0078Z" fill="#EBEBEB"/>
<path d="M32.1588 95.2415C30.0318 95.5609 27.8879 95.7545 25.7381 95.8214C23.5966 96.0108 21.446 96.0769 19.2969 96.0193C21.4219 95.7037 23.5635 95.5123 25.7108 95.4462C27.8543 95.2527 30.0073 95.1843 32.1588 95.2415Z" fill="white"/>
<path d="M32.1588 98.4825C30.0315 98.7983 27.8877 98.9897 25.7381 99.0557C23.5966 99.2451 21.446 99.3111 19.2969 99.2535C21.4242 98.9382 23.5681 98.7468 25.7176 98.6804C27.8591 98.491 30.0097 98.4249 32.1588 98.4825Z" fill="white"/>
<path d="M28.9039 101.662C27.7041 101.921 26.4808 102.056 25.2534 102.065C24.0318 102.2 22.7996 102.212 21.5757 102.099C22.7756 101.84 23.9987 101.703 25.2262 101.689C26.4479 101.554 27.6803 101.545 28.9039 101.662Z" fill="white"/>
<path d="M68.3906 47.915L70.2875 91.9936L125.311 92.6554L122.841 48.4949L68.3906 47.915Z" fill="#EBEBEB"/>
<path d="M122.411 47.6011H67.749V88.8753H122.411V47.6011Z" fill="#F5F5F5"/>
<path d="M122.411 88.8753C122.411 88.8753 122.411 88.6092 122.411 88.1042C122.411 87.5993 122.411 86.8624 122.411 85.9071C122.411 83.9693 122.411 81.1308 122.37 77.5554C122.37 70.3568 122.322 60.0604 122.288 47.6011L122.445 47.7512H67.7901L67.9811 47.5669C67.9811 62.4076 67.9811 76.4637 67.9811 88.8412L67.8105 88.6706L107.236 88.7525L118.453 88.8002H121.435H122.206H122.472H121.469L118.467 88.9299L107.297 88.9776L67.7219 89.0595H67.5513V88.8957C67.5513 76.5183 67.5513 62.4622 67.5513 47.6215V47.4305H67.7423H122.397H122.561V47.5874C122.561 60.0809 122.499 70.4182 122.479 77.61C122.479 81.1922 122.479 83.9966 122.438 85.9276C122.438 86.8692 122.438 87.5925 122.438 88.0974C122.424 88.6296 122.411 88.8753 122.411 88.8753Z" fill="#E0E0E0"/>
<path d="M96.5025 56.3417H74.3472V84.2286H96.5025V56.3417Z" fill="#F5F5F5"/>
<path d="M96.5027 84.2286C96.4952 84.1811 96.4952 84.1328 96.5027 84.0853V83.6896C96.5027 83.3211 96.5027 82.8162 96.5027 82.168C96.5027 80.8033 96.5027 78.886 96.4618 76.4432C96.4618 71.5372 96.4072 64.5911 96.3731 56.3417L96.5436 56.5123H74.3883C74.3406 56.5123 74.7432 56.1575 74.5726 56.3281V63.9088C74.5726 66.3856 74.5726 68.8011 74.5726 71.1415C74.5726 75.8291 74.5726 80.2165 74.5726 84.2013L74.4225 84.0444L90.4641 84.1263L94.9606 84.1672H96.1547H96.5778C96.4483 84.1766 96.3183 84.1766 96.1888 84.1672H95.0289L90.5596 84.2081L74.4225 84.29H74.2655V84.1331C74.2655 80.1483 74.2655 75.7609 74.2655 71.0733C74.2655 68.7329 74.2655 66.2969 74.2655 63.8405V56.3554C74.095 56.5191 74.4907 56.1166 74.4566 56.1643H96.6119H96.7825V56.3349C96.7484 64.6252 96.7142 71.6123 96.6938 76.5456L96.6528 82.2294C96.6528 82.8662 96.6528 83.3643 96.6528 83.7237C96.6528 83.8738 96.6528 83.9966 96.6528 84.099C96.6081 84.148 96.5577 84.1915 96.5027 84.2286Z" fill="#E0E0E0"/>
<path d="M117.655 49.9619H75.1934V53.9809H117.655V49.9619Z" fill="#F5F5F5"/>
<path d="M117.655 53.9809C117.655 53.9809 117.655 53.8785 117.655 53.7079C117.655 53.5374 117.655 53.2508 117.655 52.9233C117.655 52.2409 117.655 51.2379 117.607 49.9619L117.682 50.037C110.525 50.1052 94.2033 50.153 75.2209 50.153C75.5961 49.7709 75.3232 50.0438 75.4119 49.9619V53.9672L75.2277 53.7762L105.325 53.8581L114.359 53.9126H116.816H117.464C117.539 53.9071 117.614 53.9071 117.689 53.9126H117.491H116.87H114.455L105.462 53.974L75.2277 54.0491H75.0435V53.8649C75.0435 53.2235 75.0435 52.5616 75.0435 51.8929V49.8459L75.2345 49.6549C94.217 49.6549 110.538 49.7027 117.696 49.7709H117.778V49.8459C117.778 51.1356 117.778 52.1454 117.737 52.855C117.737 53.1757 117.737 53.4214 117.737 53.6124C117.731 53.7391 117.704 53.8638 117.655 53.9809Z" fill="#E0E0E0"/>
<path d="M117.655 56.3417H99.2114V73.1476H117.655V56.3417Z" fill="#F5F5F5"/>
<path d="M117.655 73.1476C117.655 73.1476 117.655 73.0316 117.655 72.8269V71.9125C117.655 71.0937 117.655 69.9406 117.614 68.5009C117.614 65.5396 117.566 61.3705 117.532 56.3554L117.689 56.5191H99.2657L99.45 56.3349V60.8451C99.45 62.319 99.45 63.7655 99.45 65.1779C99.45 67.996 99.45 70.6366 99.45 73.1339L99.2794 72.9701L112.585 73.052L116.358 73.0998H117.368C117.486 73.0898 117.605 73.0898 117.723 73.0998C117.616 73.1096 117.509 73.1096 117.402 73.0998H116.426L112.694 73.1407L99.2794 73.2226H99.1156V73.052C99.1156 70.5888 99.1156 67.9141 99.1156 65.0961C99.1156 63.6836 99.1156 62.2371 99.1156 60.7632V56.253C98.945 56.4168 99.3408 56.021 99.3067 56.062H117.73H117.893V56.2189C117.859 61.275 117.832 65.485 117.812 68.5009C117.812 69.9338 117.777 71.0733 117.771 71.9125C117.771 72.2719 117.771 72.5653 117.771 72.7927C117.748 72.9158 117.709 73.0352 117.655 73.1476Z" fill="#E0E0E0"/>
<path d="M117.655 75.7813H99.2114V84.2286H117.655V75.7813Z" fill="#F5F5F5"/>
<path d="M117.655 84.2286C117.655 84.2286 117.655 84.0103 117.655 83.6145L117.621 81.9223C117.621 80.428 117.58 78.3469 117.545 75.7813L117.682 75.9178L99.259 75.9724C99.0884 76.143 99.4842 75.7404 99.4432 75.7882V80.1346C99.4432 81.547 99.4432 82.9185 99.4432 84.2286L99.259 84.0512L112.448 84.1331L116.297 84.1877H117.334H117.702C117.593 84.1977 117.484 84.1977 117.375 84.1877H116.372L112.571 84.2423L99.259 84.3241H99.0816V84.1467C99.0816 82.8367 99.0816 81.4652 99.0816 80.0527V75.7063C99.0407 75.7063 99.4364 75.3447 99.2727 75.5152L117.696 75.563H117.784V75.6995C117.784 78.2992 117.73 80.4144 117.716 81.9223C117.716 82.6047 117.716 83.171 117.716 83.5872C117.716 83.8025 117.696 84.0173 117.655 84.2286Z" fill="#E0E0E0"/>
<path d="M95.9498 56.3895C89.0855 65.8671 81.1978 74.751 74.3403 84.2286L95.9498 56.3895Z" fill="white"/>
<path d="M74.3472 84.2286C74.3472 84.2286 74.3949 84.1126 74.5246 83.9147L75.1046 83.0686C75.6095 82.3317 76.3669 81.2878 77.3221 80.0118C79.2258 77.4462 81.9483 73.98 85.0052 70.193C88.062 66.4061 90.8118 62.9672 92.7633 60.4494L95.0764 57.4676L95.711 56.6556C95.8611 56.4782 95.943 56.3827 95.9566 56.3895C95.9071 56.5007 95.8454 56.606 95.7724 56.7034L95.1924 57.5495C94.6875 58.2864 93.9301 59.3303 92.9748 60.6131C91.0711 63.1719 88.3486 66.6381 85.2918 70.425C82.2349 74.212 79.4919 77.6509 77.5337 80.1687L75.2206 83.1573L74.586 83.9625C74.517 84.0602 74.4369 84.1495 74.3472 84.2286Z" fill="#E0E0E0"/>
<path d="M96.5024 84.2286C96.4205 84.29 91.3917 78.0876 85.278 70.4046C79.1644 62.7215 74.2652 56.41 74.3607 56.3417C74.4563 56.2735 79.4646 62.4827 85.5851 70.1726C91.7056 77.8625 96.5843 84.1536 96.5024 84.2286Z" fill="#E0E0E0"/>
<path d="M70.2875 56.4032C70.2875 57.0887 70.0842 57.7589 69.7033 58.3289C69.3224 58.8989 68.7811 59.3432 68.1477 59.6056C67.5143 59.8679 66.8174 59.9366 66.145 59.8028C65.4726 59.6691 64.855 59.3389 64.3702 58.8542C63.8855 58.3694 63.5553 57.7518 63.4216 57.0794C63.2878 56.407 63.3565 55.7101 63.6188 55.0767C63.8812 54.4433 64.3255 53.902 64.8955 53.5211C65.4655 53.1402 66.1357 52.9369 66.8212 52.9369C67.74 52.9387 68.6206 53.3045 69.2702 53.9541C69.9199 54.6038 70.2857 55.4844 70.2875 56.4032Z" fill="#E0E0E0"/>
<path d="M126.982 47.99C126.982 48.6756 126.779 49.3457 126.398 49.9157C126.017 50.4858 125.476 50.93 124.843 51.1924C124.209 51.4547 123.512 51.5234 122.84 51.3896C122.167 51.2559 121.55 50.9258 121.065 50.441C120.58 49.9562 120.25 49.3386 120.116 48.6662C119.983 47.9938 120.051 47.2969 120.314 46.6635C120.576 46.0302 121.02 45.4888 121.59 45.1079C122.16 44.727 122.83 44.5238 123.516 44.5238C124.435 44.5256 125.315 44.8913 125.965 45.541C126.615 46.1906 126.98 47.0713 126.982 47.99Z" fill="#E0E0E0"/>
<path d="M262.575 72.1309H222.631V130.034H262.575V72.1309Z" fill="#E0E0E0"/>
<path d="M260.576 72.1309H220.632V130.034H260.576V72.1309Z" fill="#F5F5F5"/>
<path d="M255.615 78.4015H225.593V123.763H255.615V78.4015Z" fill="white"/>
<path d="M255.615 123.763C255.615 123.763 255.615 123.681 255.615 123.538C255.615 123.394 255.615 123.176 255.615 122.896C255.615 122.323 255.615 121.491 255.615 120.406C255.615 118.236 255.615 115.063 255.615 111.065C255.615 103.068 255.615 91.7411 255.567 78.4015L255.67 78.5038H225.593L225.702 78.3947C225.702 95.5075 225.702 111.283 225.702 123.756L225.613 123.667L247.448 123.715H253.486H255.069H255.622H255.09H253.52H247.502L225.599 123.756H225.511V123.674C225.511 111.201 225.511 95.4257 225.511 78.3128V78.2036H225.593H255.615H255.711V78.2991C255.711 91.666 255.677 103.013 255.663 111.051C255.663 115.043 255.663 118.202 255.663 120.372C255.663 121.443 255.663 122.269 255.663 122.835C255.663 123.115 255.663 123.319 255.663 123.469L255.615 123.763Z" fill="#E0E0E0"/>
<path d="M260.685 72.1309C260.493 72.4983 260.264 72.8458 260.003 73.168C259.539 73.7889 258.877 74.6282 258.127 75.5425C257.376 76.4569 256.673 77.262 256.155 77.842C255.89 78.1668 255.595 78.466 255.274 78.7359C255.502 78.3838 255.758 78.0507 256.039 77.7397L257.963 75.4061L259.88 73.0725C260.125 72.7394 260.394 72.4247 260.685 72.1309Z" fill="#E0E0E0"/>
<path d="M255.766 123.613C257.256 125.988 259.012 128.185 260.999 130.163L255.766 123.613Z" fill="white"/>
<path d="M260.999 130.163C260.667 129.92 260.362 129.641 260.092 129.331C259.394 128.624 258.733 127.882 258.113 127.106C257.493 126.331 256.912 125.525 256.373 124.691C256.133 124.354 255.929 123.993 255.766 123.613C256.034 123.925 256.28 124.256 256.503 124.602C256.939 125.223 257.56 126.062 258.283 126.97C259.007 127.877 259.696 128.662 260.201 129.228C260.491 129.519 260.758 129.831 260.999 130.163Z" fill="#E0E0E0"/>
<path d="M220.625 129.986L225.859 123.531L220.625 129.986Z" fill="white"/>
<path d="M225.859 123.531C225.9 123.531 224.767 125.046 223.327 126.827C222.474 127.927 221.563 128.982 220.598 129.986C222.228 127.744 223.975 125.589 225.832 123.531H225.859Z" fill="#E0E0E0"/>
<path d="M220.632 72.1309C221.529 73.0998 222.376 74.1132 223.171 75.1673C224.018 76.1804 224.808 77.2396 225.538 78.3401C224.639 77.3666 223.792 76.3462 223 75.2833C222.151 74.2788 221.36 73.2263 220.632 72.1309Z" fill="#E0E0E0"/>
<path d="M246.261 87.613H236.21V116.155H246.261V87.613Z" fill="#E0E0E0"/>
<path d="M253.369 10.6063L247.651 10.6373L247.805 39.0901L253.523 39.0591L253.369 10.6063Z" fill="#E0E0E0"/>
<path d="M212.922 10.6821L198.116 10.7622L198.201 26.4692L213.007 26.3891L212.922 10.6821Z" fill="#EBEBEB"/>
<path d="M227.653 10.6092L212.846 10.6893L212.931 26.3963L227.738 26.3162L227.653 10.6092Z" fill="#F5F5F5"/>
<path d="M198.136 15.1153C207.975 15.1971 217.842 15.1153 227.681 14.9788C227.723 14.9788 227.762 14.9623 227.792 14.9328C227.821 14.9034 227.838 14.8635 227.838 14.8219C227.838 14.7802 227.821 14.7403 227.792 14.7109C227.762 14.6815 227.723 14.6649 227.681 14.6649C217.833 14.6103 207.984 14.6695 198.136 14.8423C198.1 14.8423 198.065 14.8567 198.039 14.8823C198.014 14.9079 198 14.9426 198 14.9788C198 15.015 198.014 15.0497 198.039 15.0753C198.065 15.1009 198.1 15.1153 198.136 15.1153Z" fill="#E0E0E0"/>
<path d="M215.783 26.1349L188.879 26.2804L188.948 39.0808L215.852 38.9352L215.783 26.1349Z" fill="#EBEBEB"/>
<path d="M242.563 25.99L215.659 26.1355L215.728 38.9359L242.632 38.7903L242.563 25.99Z" fill="#F5F5F5"/>
<path d="M188.897 29.8468C206.774 30.0515 224.705 29.8468 242.576 29.5807C242.617 29.5807 242.657 29.5642 242.687 29.5347C242.716 29.5053 242.733 29.4654 242.733 29.4238C242.733 29.3821 242.716 29.3422 242.687 29.3128C242.657 29.2834 242.617 29.2668 242.576 29.2668C224.699 29.1713 206.767 29.185 188.897 29.5739C188.861 29.5739 188.826 29.5883 188.8 29.6139C188.775 29.6394 188.76 29.6742 188.76 29.7103C188.76 29.7465 188.775 29.7813 188.8 29.8068C188.826 29.8324 188.861 29.8468 188.897 29.8468Z" fill="#E0E0E0"/>
<path d="M283.072 39.0856H178.839V43.6709H283.072V39.0856Z" fill="#E0E0E0"/>
<path d="M200.135 41.2895H195.904V56.9354H200.135V41.2895Z" fill="#E0E0E0"/>
<path d="M263.298 41.2895H259.068V56.9354H263.298V41.2895Z" fill="#E0E0E0"/>
<path d="M258.948 -7.31554e-06L253.23 0.0309296L253.442 39.1621L259.16 39.1311L258.948 -7.31554e-06Z" fill="#EBEBEB"/>
<path d="M267.885 7.28676L259.001 7.33482L259.173 39.0491L268.056 39.001L267.885 7.28676Z" fill="#F5F5F5"/>
<path d="M267.822 13.4026C264.869 13.6112 261.905 13.6112 258.952 13.4026C261.906 13.2031 264.869 13.2031 267.822 13.4026Z" fill="#E0E0E0"/>
<path d="M267.822 12.0721C264.869 12.2807 261.905 12.2807 258.952 12.0721C261.906 11.8725 264.869 11.8725 267.822 12.0721Z" fill="#E0E0E0"/>
<path d="M267.822 34.2342C264.869 34.4428 261.905 34.4428 258.952 34.2342C261.906 34.0347 264.869 34.0347 267.822 34.2342Z" fill="#E0E0E0"/>
<path d="M267.822 32.9036C264.869 33.1122 261.905 33.1122 258.952 32.9036C261.906 32.7041 264.869 32.7041 267.822 32.9036Z" fill="#E0E0E0"/>
<path d="M263.524 29.9969C263.435 29.9969 263.367 26.7968 263.367 22.8529C263.367 18.909 263.435 15.7089 263.524 15.7089C263.612 15.7089 263.674 18.909 263.674 22.8529C263.674 26.7968 263.606 29.9969 263.524 29.9969Z" fill="#E0E0E0"/>
<path d="M277.587 15.0812H267.918V39.0173H277.587V15.0812Z" fill="#EBEBEB"/>
<path d="M273.028 32.8149C272.741 32.8317 272.452 32.7875 272.183 32.6852C271.913 32.5828 271.668 32.4247 271.464 32.2211C271.26 32.0176 271.101 31.7732 270.998 31.5039C270.895 31.2347 270.85 30.9467 270.865 30.6588C270.85 30.345 270.914 30.0324 271.051 29.7497C271.188 29.4671 271.394 29.2236 271.65 29.0417L271.868 29.3487C271.663 29.4984 271.498 29.6961 271.388 29.9246C271.277 30.153 271.224 30.4051 271.234 30.6588C271.234 31.1347 271.423 31.5912 271.759 31.9277C272.096 32.2642 272.552 32.4533 273.028 32.4533C273.504 32.4533 273.961 32.2642 274.297 31.9277C274.634 31.5912 274.823 31.1347 274.823 30.6588C274.833 30.4043 274.78 30.1514 274.668 29.9227C274.556 29.694 274.389 29.4968 274.182 29.3487L274.407 29.0417C274.66 29.2261 274.863 29.4702 274.999 29.7524C275.135 30.0346 275.198 30.346 275.185 30.6588C275.2 30.9461 275.155 31.2335 275.053 31.5022C274.95 31.771 274.792 32.015 274.588 32.2185C274.385 32.4219 274.141 32.5802 273.872 32.683C273.603 32.7858 273.316 32.8307 273.028 32.8149Z" fill="#FAFAFA"/>
<path d="M274.639 28.448L274.318 28.2638C274.654 27.8226 274.833 27.2828 274.83 26.7286C274.83 25.8347 274.509 25.4731 274.032 25.4731C272.79 25.4731 273.704 28.2979 272.032 28.2979C271.391 28.2979 270.866 27.7589 270.866 26.6808C270.857 26.1637 271.002 25.6556 271.282 25.2206L271.609 25.4117C271.352 25.7868 271.219 26.2329 271.227 26.6876C271.227 27.5201 271.568 27.8885 272.026 27.8885C273.301 27.8885 272.401 25.0637 274.025 25.0637C274.707 25.0637 275.185 25.6641 275.185 26.749C275.205 27.3616 275.012 27.9622 274.639 28.448Z" fill="#FAFAFA"/>
<path d="M274.639 24.5519L274.318 24.3677C274.654 23.9264 274.833 23.3866 274.83 22.8324C274.83 21.9386 274.509 21.577 274.032 21.577C272.79 21.577 273.704 24.395 272.032 24.395C271.391 24.395 270.866 23.8628 270.866 22.7847C270.857 22.2675 271.002 21.7595 271.282 21.3245L271.609 21.5087C271.353 21.8868 271.219 22.3348 271.227 22.7915C271.227 23.6239 271.568 23.9924 272.026 23.9924C273.301 23.9924 272.401 21.1676 274.025 21.1676C274.707 21.1676 275.185 21.7612 275.185 22.8461C275.206 23.4609 275.013 24.064 274.639 24.5519Z" fill="#FAFAFA"/>
<path d="M256.004 8.33974C256.912 8.33974 257.649 7.60351 257.649 6.69532C257.649 5.78713 256.912 5.0509 256.004 5.0509C255.096 5.0509 254.36 5.78713 254.36 6.69532C254.36 7.60351 255.096 8.33974 256.004 8.33974Z" fill="#E0E0E0"/>
<path d="M256.509 11.2123H255.493V34.4935H256.509V11.2123Z" fill="#E0E0E0"/>
<path d="M295.061 282.03C295.061 282.125 229.154 282.207 147.875 282.207C66.5958 282.207 0.675781 282.139 0.675781 282.03C0.675781 281.92 66.5685 281.852 147.875 281.852C229.182 281.852 295.061 281.948 295.061 282.03Z" fill="#263238"/>
<path d="M80.3788 47.4714C69.4273 64.6935 70.1438 88.5751 82.1119 105.108C90.0883 116.134 102.05 123.531 111.548 133.261C121.046 142.991 128.265 157.354 123.25 170.004C118.146 182.88 103.196 188.114 92.0057 196.274C79.6592 205.267 71.2775 218.693 68.6209 233.735C65.9643 248.776 69.2395 264.262 77.7586 276.939H194.042C194.042 276.939 214.471 238.012 188.208 208.338C161.945 178.663 147.841 178.186 148.81 158.726C149.779 139.265 163.398 132.954 171.183 125.653C178.969 118.352 216.9 101.341 194.526 47.4646L80.3788 47.4714Z" fill="#FAFAFA"/>
<path d="M80.379 47.4714H82.3783H88.2736H110.968L194.526 47.41H194.615V47.4919C196.328 51.5713 197.786 55.7529 198.982 60.0127C200.237 64.4726 201.065 69.0422 201.452 73.6593C201.854 78.4856 201.607 83.344 200.715 88.1043C199.736 93.0387 197.961 97.7813 195.461 102.147C194.166 104.373 192.701 106.497 191.08 108.499C189.426 110.528 187.637 112.443 185.724 114.231C183.787 116.051 181.758 117.77 179.645 119.382C177.529 121.02 175.319 122.562 173.162 124.2C172.084 125.012 171.115 125.926 170.065 126.84C169.014 127.755 167.97 128.607 166.892 129.467C164.743 131.187 162.573 132.879 160.526 134.783C156.253 138.486 152.97 143.194 150.973 148.484C150.013 151.197 149.408 154.022 149.172 156.89C149.11 157.572 149.015 158.323 148.987 159.046C148.96 159.77 148.933 160.493 148.987 161.216C149.003 162.668 149.149 164.116 149.424 165.542C149.965 168.432 151.145 171.164 152.877 173.539C154.659 175.914 156.678 178.102 158.902 180.069C163.316 184.101 168.004 187.957 172.487 192.119C176.97 196.281 181.357 200.621 185.588 205.213C187.746 207.486 189.765 209.887 191.633 212.405C193.513 214.953 195.146 217.674 196.512 220.531C199.273 226.322 200.97 232.562 201.52 238.954C202.077 245.434 201.695 251.961 200.387 258.332C199.752 261.551 198.918 264.728 197.89 267.844C196.88 270.986 195.649 274.053 194.206 277.021L194.158 277.117H77.6634L77.6156 277.042C72.1626 268.831 68.8182 259.403 67.8787 249.592C66.9336 240.167 68.3159 230.655 71.9045 221.889C75.3152 213.51 80.5668 206.006 87.2706 199.932C90.5238 197.06 94.037 194.497 97.7649 192.276C101.395 190.024 105.059 187.936 108.518 185.657C111.981 183.493 115.162 180.907 117.989 177.961C120.689 175.066 122.691 171.594 123.844 167.807C124.854 164.113 125.012 160.238 124.308 156.474C123.634 152.841 122.422 149.329 120.712 146.055C119.075 142.902 117.113 139.929 114.857 137.184C112.68 134.552 110.313 132.082 107.775 129.795C102.855 125.264 97.8126 121.3 93.2819 117.226C91.0098 115.179 88.8604 113.132 86.8748 111.037C84.9504 108.987 83.1763 106.8 81.5663 104.494C78.6558 100.265 76.4121 95.6141 74.9136 90.704C73.601 86.4637 72.8396 82.072 72.6482 77.6373C72.5527 76.6275 72.5937 75.6313 72.5937 74.6555C72.5937 73.6798 72.5936 72.7314 72.6823 71.8102C72.7711 70.8891 72.8188 69.9884 72.887 69.0809C72.9553 68.1734 73.1395 67.3614 73.2555 66.5358C74.0094 61.5097 75.5474 56.6331 77.8135 52.084C78.1204 51.3803 78.4714 50.6966 78.8643 50.037L79.7035 48.6109C80.1471 47.8536 80.3859 47.4714 80.3859 47.4714L79.7035 48.6314L78.8916 50.037C78.508 50.6995 78.1618 51.3829 77.8544 52.084C75.6088 56.6441 74.0894 61.5271 73.351 66.5563C73.235 67.3751 73.0986 68.2211 72.9962 69.0877C72.8939 69.9543 72.8598 70.8618 72.7915 71.7829C72.7233 72.7041 72.7233 73.6525 72.7165 74.6214C72.7096 75.5903 72.6823 76.5865 72.7779 77.5964C72.9753 82.0164 73.7436 86.3923 75.0637 90.6153C76.5604 95.5079 78.802 100.141 81.7096 104.351C83.3155 106.647 85.0875 108.823 87.0113 110.86C88.9901 112.962 91.1394 115.009 93.4116 117.001C97.9423 121.095 102.964 125.018 107.918 129.556C110.475 131.86 112.861 134.348 115.055 137C117.324 139.764 119.297 142.758 120.944 145.932C122.671 149.227 123.894 152.762 124.574 156.419C125.288 160.224 125.13 164.141 124.11 167.876C122.952 171.706 120.931 175.219 118.201 178.145C115.36 181.109 112.165 183.712 108.689 185.896C105.216 188.182 101.552 190.27 97.9286 192.521C94.2165 194.737 90.7172 197.29 87.4753 200.15C80.8127 206.193 75.5919 213.655 72.1979 221.985C68.631 230.706 67.2603 240.169 68.2063 249.544C69.1458 259.299 72.4735 268.673 77.8954 276.837L77.7589 276.762H194.042L193.885 276.858C195.326 273.897 196.552 270.837 197.556 267.701C198.578 264.598 199.408 261.435 200.039 258.23C201.341 251.89 201.721 245.396 201.165 238.947C200.626 232.59 198.94 226.384 196.191 220.627C194.835 217.79 193.215 215.088 191.353 212.555C189.49 210.051 187.48 207.658 185.335 205.39C181.128 200.809 176.767 196.452 172.255 192.317C167.779 188.161 163.105 184.313 158.677 180.26C156.435 178.276 154.398 176.073 152.597 173.682C150.831 171.278 149.622 168.512 149.056 165.583C148.782 164.136 148.634 162.668 148.612 161.196C148.578 160.466 148.612 159.735 148.612 159.005C148.612 158.275 148.735 157.552 148.79 156.829C149.04 153.944 149.659 151.102 150.632 148.375C152.646 143.039 155.96 138.29 160.273 134.557C162.32 132.661 164.511 130.941 166.66 129.228C167.738 128.369 168.796 127.502 169.826 126.615C170.856 125.728 171.873 124.773 172.937 123.954C175.107 122.316 177.311 120.774 179.419 119.144C181.526 117.539 183.551 115.828 185.485 114.019C187.385 112.24 189.166 110.336 190.814 108.322C192.422 106.326 193.879 104.214 195.174 102.003C197.661 97.6682 199.426 92.9579 200.401 88.0565C201.289 83.3349 201.539 78.5156 201.145 73.7276C200.764 69.1112 199.943 64.5417 198.695 60.0809C197.516 55.8094 196.076 51.6143 194.383 47.5192L194.499 47.5943L110.988 47.5329H88.2804H82.3715L80.379 47.4714Z" fill="#263238"/>
<path d="M189.886 79.0566C207.013 81.8746 180.013 112.211 164.722 124.179C155.852 131.105 146.367 138.624 142.164 149.05C137.388 160.882 140.929 174.174 138.623 186.073C138.549 186.484 138.322 186.851 137.988 187.101C137.654 187.351 137.238 187.465 136.824 187.421C136.409 187.377 136.026 187.178 135.752 186.863C135.479 186.549 135.334 186.142 135.348 185.725C135.457 177.913 135.252 170.107 133.983 162.417C132.147 151.5 127.958 140.726 120.336 132.736C114.093 126.206 105.912 121.873 99.2591 115.773C89.5427 106.868 79.5602 95.3847 78.5845 82.243C78.5845 82.243 97.2394 67.2317 107.597 69.1082C119.702 71.3257 131.615 90.0011 150.366 87.8655C163.412 86.3711 170.024 75.795 189.886 79.0566Z" fill="#4FAD39"/>
<path d="M191.408 241.417C190.978 237.132 189.832 232.288 186.031 230.268C183.732 229.04 180.927 229.176 178.403 229.838C175.878 230.5 173.51 231.653 171.013 232.397C166.049 233.857 160.747 233.687 155.886 231.912C151.239 230.207 147.254 227.136 142.922 224.693C138.589 222.251 133.56 220.463 128.756 221.657C120.473 223.704 116.16 233.693 107.973 236.102C104.329 237.166 100.419 236.566 96.7209 235.733C93.0226 234.901 89.3039 233.816 85.517 233.959C82.542 234.069 79.4511 235.099 77.3699 237.132L77.3154 237.194C76.9689 237.533 76.6537 237.903 76.3737 238.299C73.8355 241.711 73.4261 246.235 74.2108 250.369C75.0841 255.003 77.2471 259.281 79.5671 263.382C82.2964 268.212 85.4078 273.016 89.9248 276.237C95.5063 280.215 102.514 277.472 109.344 278.011C125.263 279.266 142.389 280.119 158.315 278.891C166.728 278.209 174.609 279.15 181.282 273.985C185.977 270.355 189.033 264.883 190.507 259.137C191.981 253.392 192.002 247.319 191.408 241.417Z" fill="#4FAD39"/>
<g opacity="0.24">
<path d="M161.358 233.216C160.464 234.58 160.075 236.436 160.942 237.828C161.808 239.22 162.989 240.496 163.357 242.1C163.951 244.611 162.436 247.067 161.31 249.394C159.226 253.554 158.439 258.244 159.052 262.856C159.697 267.484 162.087 271.689 165.732 274.613C167.349 275.861 169.45 276.83 171.402 276.216C173.237 275.643 174.418 273.78 174.813 271.89C175.209 270 174.875 268.056 174.636 266.152C173.525 257.279 173.755 248.29 175.318 239.486C175.578 238.019 175.823 236.341 174.895 235.174C174.226 234.495 173.376 234.021 172.446 233.809C168.898 232.629 165.07 233.939 161.392 233.243" fill="black"/>
</g>
<path d="M69.223 282.221C69.223 282.221 68.9023 276.885 75.8621 273.91H198.17C198.17 273.91 204.55 277.144 205.334 282.098L69.223 282.221Z" fill="#263238"/>
<path d="M195.57 48.1197L195.372 48.2084L80.3652 47.4714C80.3652 47.4714 79.9558 47.2122 79.3485 46.7277C78.6316 46.1661 78.1085 45.394 77.8527 44.5199C77.597 43.6458 77.6213 42.7136 77.9224 41.8541C78.2234 40.9945 78.7861 40.2508 79.5314 39.7274C80.2767 39.2039 81.1672 38.927 82.0779 38.9355L193.707 39.8362C198.299 39.8771 199.746 46.1545 195.57 48.1197Z" fill="#263238"/>
<g opacity="0.24">
<path d="M177.147 91.9936C177.379 92.4371 176.512 93.3582 174.868 94.8594C173.224 96.3605 170.774 98.3324 167.731 100.809C164.077 103.828 160.199 106.565 156.131 108.997C153.604 110.461 150.945 111.683 148.189 112.648C146.695 113.164 145.171 113.586 143.624 113.91C141.999 114.255 140.35 114.47 138.691 114.551C135.329 114.734 131.964 114.271 128.777 113.187C125.959 112.162 123.281 110.786 120.807 109.093C118.514 107.578 116.542 106.077 114.666 104.637C112.79 103.197 111.118 101.812 109.603 100.502C103.564 95.2688 100.385 91.4204 100.999 90.6767C101.613 89.9329 105.912 92.3552 112.599 96.4492L118.057 99.7926C120.015 100.98 122.11 102.297 124.253 103.511C126.379 104.759 128.632 105.777 130.974 106.548C133.37 107.265 135.873 107.561 138.37 107.421C143.61 107.148 148.694 105.306 153.095 103.177C157.496 101.048 161.481 98.5644 164.933 96.6266C167.666 95.0142 170.522 93.6224 173.476 92.4644C175.639 91.707 176.949 91.5637 177.147 91.9936Z" fill="black"/>
</g>
<path d="M135.429 200.327C135.913 200.135 136.453 200.141 136.932 200.343C137.411 200.546 137.791 200.93 137.99 201.41C138.188 201.891 138.19 202.431 137.993 202.913C137.797 203.395 137.419 203.78 136.94 203.985C136.462 204.19 135.922 204.198 135.438 204.008C134.954 203.818 134.564 203.445 134.353 202.969C134.141 202.494 134.126 201.954 134.31 201.467C134.493 200.981 134.861 200.586 135.334 200.368" fill="#4FAD39"/>
<path d="M94.2982 111.024C94.1486 110.901 94.0115 110.764 93.8888 110.614L92.7766 109.4C92.3058 108.861 91.6849 108.233 91.0503 107.435L88.8805 104.705C88.1367 103.655 87.2975 102.522 86.4514 101.294L85.2027 99.3081C84.9912 98.967 84.766 98.6258 84.5613 98.2642L83.9609 97.1588C82.1449 93.9405 80.7223 90.5157 79.7236 86.9579C78.72 83.4031 78.1788 79.7338 78.1133 76.0406C78.1133 75.1877 78.161 74.3621 78.1747 73.5501C78.1747 73.1476 78.1747 72.7518 78.2293 72.3629C78.2839 71.9739 78.3112 71.5918 78.3521 71.2166C78.4408 70.466 78.4954 69.7359 78.5977 69.0399C78.7001 68.3439 78.8434 67.6753 78.9594 67.0543C79.1504 65.7784 79.4916 64.6662 79.7304 63.6427C79.86 63.1514 79.9624 62.6874 80.092 62.278L80.4673 61.1385L80.9927 59.576C81.0429 59.39 81.1115 59.2094 81.1974 59.0369C81.1694 59.2273 81.1237 59.4146 81.0609 59.5964C80.945 59.9922 80.7948 60.5176 80.597 61.1795L80.2558 62.319C80.1398 62.7352 80.0443 63.1992 79.9215 63.6836C79.7031 64.673 79.3824 65.792 79.2391 67.0953C79.13 67.723 79.0208 68.3849 78.9048 69.074C78.7888 69.7632 78.7615 70.4865 78.6796 71.237C78.6796 71.6123 78.6046 71.9876 78.5636 72.3765C78.5227 72.7655 78.5636 73.1612 78.5227 73.557C78.5227 74.3621 78.4681 75.1809 78.4749 76.027C78.5415 79.6985 79.0758 83.3465 80.0647 86.8829C81.0581 90.4145 82.4619 93.8175 84.2474 97.0223C84.4453 97.3908 84.6432 97.7592 84.8342 98.1277C85.0253 98.4962 85.2641 98.81 85.4688 99.1648L86.697 101.15C87.5295 102.406 88.3551 103.539 89.0783 104.562L91.2072 107.291C91.8213 108.103 92.4286 108.738 92.8789 109.297L93.9434 110.56C94.0713 110.707 94.1898 110.862 94.2982 111.024Z" fill="#263238"/>
<path d="M87.8232 212.391C87.857 212.312 87.8981 212.237 87.9461 212.166L88.3555 211.524C88.5397 211.238 88.7649 210.897 89.0378 210.487L89.4677 209.805C89.6382 209.58 89.8361 209.355 90.034 209.123L91.3987 207.485C91.9241 206.919 92.5245 206.332 93.1591 205.69C94.6304 204.274 96.1941 202.956 97.8399 201.747C101.463 199.017 106.137 196.288 111.2 193.088C113.862 191.447 116.421 189.645 118.862 187.691C121.482 185.604 123.795 183.16 125.734 180.431C129.283 174.978 131.211 168.629 131.295 162.124C131.381 156.821 130.493 151.548 128.674 146.566C127.47 143.205 125.958 139.961 124.157 136.877C123.523 135.779 123.004 134.946 122.649 134.38L122.247 133.739C122.158 133.595 122.117 133.513 122.117 133.513C122.178 133.575 122.231 133.643 122.274 133.718L122.711 134.346C123.086 134.892 123.625 135.711 124.273 136.809C126.13 139.876 127.683 143.117 128.913 146.485C130.781 151.487 131.706 156.791 131.643 162.13C131.614 163.67 131.488 165.206 131.267 166.729C131.046 168.323 130.711 169.899 130.264 171.444C129.332 174.717 127.883 177.82 125.972 180.635C124.013 183.395 121.675 185.864 119.026 187.97C116.57 189.926 113.998 191.731 111.323 193.374C106.239 196.547 101.559 199.249 97.9354 201.958C96.29 203.152 94.7221 204.448 93.241 205.841C92.6064 206.475 91.9991 207.048 91.4669 207.608L90.1022 209.211C89.8975 209.457 89.6997 209.682 89.5291 209.894L89.0856 210.542L88.4032 211.558L87.9665 212.179C87.9245 212.254 87.8766 212.324 87.8232 212.391Z" fill="#263238"/>
<path d="M81.4772 224.448C81.436 224.559 81.3858 224.666 81.3271 224.768L80.8358 225.635C80.6175 226.003 80.3582 226.467 80.0921 227C79.8259 227.532 79.4848 228.16 79.1982 228.876C79.0481 229.231 78.8843 229.599 78.7206 229.981C78.5568 230.364 78.4204 230.787 78.2566 231.21C77.9291 232.056 77.6698 232.984 77.3696 233.939C76.1827 238.216 75.7737 242.672 76.1618 247.094C76.2778 248.104 76.3597 249.073 76.5371 249.96C76.6122 250.404 76.6736 250.84 76.7623 251.25C76.851 251.659 76.9465 252.055 77.0352 252.43C77.1853 253.188 77.4105 253.849 77.5743 254.436C77.738 255.023 77.9018 255.528 78.0519 255.937L78.3726 256.879C78.4186 256.985 78.4485 257.098 78.4613 257.213C78.3955 257.118 78.3428 257.015 78.3044 256.906C78.202 256.654 78.0792 256.354 77.9222 255.985C77.716 255.499 77.5361 255.003 77.3832 254.498C77.199 253.911 76.9602 253.249 76.7896 252.492C76.694 252.116 76.5985 251.721 76.4962 251.311C76.3938 250.902 76.3324 250.458 76.2437 250.015C76.0527 249.114 75.9571 248.145 75.8343 247.128C75.4072 242.679 75.8192 238.189 77.0489 233.891C77.3559 232.909 77.6288 231.974 77.9768 231.128C78.1474 230.705 78.2839 230.288 78.4613 229.9L78.9662 228.787C79.2664 228.105 79.6485 227.47 79.9147 226.925C80.1551 226.455 80.4216 226 80.713 225.56L81.2588 224.721C81.3953 224.536 81.4635 224.441 81.4772 224.448Z" fill="#263238"/>
<path d="M165.834 240.851L165.698 240.946L165.275 241.213L163.617 242.209L162.416 242.891C161.965 243.144 161.467 243.376 160.935 243.642C159.857 244.16 158.67 244.822 157.264 245.354L155.081 246.248C154.323 246.548 153.498 246.787 152.665 247.074C151.007 247.681 149.165 248.118 147.247 248.616C138.829 250.588 130.096 250.82 121.585 249.298C119.634 248.902 117.778 248.561 116.085 248.043C115.239 247.797 114.407 247.606 113.629 247.36L111.405 246.548C109.979 246.091 108.75 245.498 107.652 245.034C107.106 244.795 106.594 244.583 106.137 244.351L104.895 243.703L103.189 242.796L102.753 242.55L102.609 242.461C102.609 242.461 102.671 242.461 102.773 242.523L103.223 242.734L104.957 243.58L106.205 244.194C106.669 244.413 107.188 244.611 107.734 244.843C108.832 245.279 110.06 245.859 111.493 246.296L113.69 247.094C114.468 247.354 115.301 247.538 116.147 247.777C117.832 248.282 119.681 248.602 121.605 248.991C130.078 250.458 138.757 250.226 147.138 248.309C149.049 247.818 150.884 247.401 152.542 246.808C153.375 246.528 154.194 246.303 154.951 246.003L157.134 245.136C158.54 244.617 159.734 243.976 160.812 243.478C161.344 243.219 161.849 242.993 162.3 242.796L163.514 242.113L165.2 241.172L165.643 240.94C165.78 240.865 165.834 240.844 165.834 240.851Z" fill="#263238"/>
<path d="M172.951 96.4355C172.909 96.4849 172.861 96.5286 172.807 96.5652L172.357 96.9336C171.941 97.268 171.361 97.7388 170.617 98.2983C169.102 99.4992 166.905 101.239 164.128 103.313C160.896 105.787 157.507 108.048 153.982 110.082C151.885 111.255 149.7 112.262 147.445 113.091C145.013 113.976 142.476 114.54 139.899 114.77C134.887 115.051 129.889 114.011 125.406 111.754C123.467 110.769 121.596 109.657 119.804 108.424C118.139 107.25 116.617 106.111 115.273 105.012C112.544 102.843 110.456 101.007 108.982 99.7516L107.297 98.2915L106.867 97.9094L106.724 97.7661C106.724 97.7661 106.785 97.7661 106.887 97.8752L107.345 98.2369L109.071 99.6425C110.572 100.871 112.715 102.672 115.43 104.815C116.795 105.886 118.303 107.012 119.975 108.172C121.76 109.383 123.622 110.477 125.549 111.447C129.988 113.659 134.926 114.678 139.878 114.401C142.425 114.175 144.932 113.62 147.336 112.75C149.575 111.931 151.747 110.939 153.832 109.782C157.352 107.785 160.745 105.572 163.992 103.156C166.776 101.109 168.993 99.4037 170.542 98.2369L172.323 96.8722L172.794 96.531C172.841 96.4915 172.894 96.4593 172.951 96.4355Z" fill="#263238"/>
<g opacity="0.24">
<path d="M111.411 246.583C114.645 244.085 119.19 244.686 123.188 245.532C127.187 246.378 131.212 247.736 135.259 247.169C138.309 246.739 141.106 245.245 144.129 244.59C147.152 243.935 150.788 244.42 152.46 247.006C139.099 251.311 124.701 251.162 111.432 246.583" fill="black"/>
</g>
<path d="M224.228 228.064L209.558 211.613L209.408 231.612L213.829 244.44L169.874 252.062L168.011 217.379L164.845 190.768C164.657 189.181 164.999 187.577 165.819 186.206C166.638 184.834 167.889 183.773 169.375 183.187L181.473 178.411L198.531 181.536L205.389 184.142C208.264 185.237 210.827 187.02 212.854 189.335L233.487 212.93" fill="#4FAD39"/>
<path d="M208.535 207.656C209.363 207.644 210.19 207.585 211.012 207.478C212.991 207.176 214.834 206.29 216.307 204.933C217.779 203.577 218.812 201.811 219.275 199.863C219.444 199.05 219.57 198.227 219.65 197.4C219.705 197.623 219.726 197.853 219.711 198.082C219.716 198.702 219.652 199.32 219.52 199.925C219.107 201.951 218.067 203.796 216.547 205.198C215.028 206.6 213.105 207.488 211.052 207.737C210.439 207.817 209.819 207.83 209.203 207.778C208.975 207.774 208.75 207.732 208.535 207.656Z" fill="white"/>
<path d="M209.81 230.759C209.913 230.759 209.94 223.827 209.872 215.284C209.804 206.741 209.66 199.816 209.558 199.816C209.456 199.816 209.428 206.741 209.497 215.291C209.565 223.84 209.708 230.759 209.81 230.759Z" fill="#263238"/>
<path d="M208.2 235.843L181.644 225.15C180.594 224.728 179.683 224.02 179.014 223.108C178.345 222.195 177.944 221.114 177.857 219.985L175.912 194.521C175.912 194.521 176.144 183.685 169.375 183.16L165.548 184.675C160.573 187.315 159.345 194.562 160.021 200.15C160.983 208.092 161.385 219.337 162.457 226.229C163.344 231.871 166.551 236.832 172.091 238.285L204.802 245.368L208.2 235.843Z" fill="#4FAD39"/>
<path d="M176.295 198.403C176.339 198.594 176.366 198.788 176.376 198.983C176.417 199.399 176.479 199.959 176.547 200.662C176.683 202.156 176.875 204.257 177.107 206.837C177.339 209.416 177.598 212.561 177.898 216C177.966 216.867 178.041 217.747 178.116 218.648C178.169 219.564 178.283 220.476 178.458 221.377C178.643 222.288 179.105 223.12 179.781 223.759C180.509 224.398 181.336 224.915 182.231 225.287C189.552 228.453 196.301 231.073 201.2 232.909L207.02 235.051L208.603 235.631C208.788 235.692 208.968 235.768 209.142 235.856C208.949 235.821 208.759 235.769 208.576 235.699L206.972 235.181C205.608 234.717 203.561 234.028 201.118 233.134C196.185 231.36 189.429 228.78 182.081 225.628C181.151 225.238 180.292 224.698 179.536 224.031C178.81 223.343 178.314 222.447 178.116 221.466C177.94 220.551 177.829 219.626 177.782 218.696C177.707 217.788 177.639 216.908 177.571 216.041C177.304 212.63 177.059 209.491 176.888 206.871C176.718 204.251 176.547 202.183 176.438 200.689C176.39 200.007 176.356 199.42 176.335 199.004C176.304 198.805 176.291 198.604 176.295 198.403Z" fill="#263238"/>
<path d="M161.078 212.248C161.106 212.359 161.122 212.474 161.126 212.589L161.215 213.571C161.297 214.479 161.399 215.7 161.529 217.188C161.658 218.675 161.863 220.524 162.129 222.53C162.39 224.703 162.789 226.856 163.323 228.978C163.574 230.071 164.013 231.112 164.62 232.056C165.212 232.922 165.876 233.737 166.605 234.492C167.847 235.769 169.281 236.844 170.856 237.678C172.324 238.424 173.898 238.94 175.523 239.207C175.408 239.221 175.291 239.221 175.175 239.207C174.845 239.185 174.517 239.141 174.193 239.077C172.992 238.853 171.83 238.46 170.74 237.91C169.121 237.095 167.646 236.021 166.373 234.73C165.619 233.967 164.934 233.138 164.326 232.254C163.689 231.284 163.227 230.21 162.961 229.081C162.42 226.943 162.026 224.77 161.781 222.578C161.535 220.531 161.372 218.743 161.262 217.215C161.153 215.687 161.092 214.445 161.058 213.585C161.058 213.189 161.058 212.862 161.058 212.596C161.046 212.479 161.053 212.362 161.078 212.248Z" fill="#263238"/>
<path d="M172.433 230.063C172.502 229.566 172.667 229.086 172.917 228.651C173.464 227.563 174.223 226.596 175.148 225.805C176.074 225.014 177.148 224.416 178.308 224.045C178.778 223.866 179.278 223.78 179.781 223.793C179.335 223.979 178.879 224.143 178.417 224.284C177.32 224.708 176.302 225.315 175.408 226.078C174.515 226.844 173.756 227.752 173.163 228.767C172.685 229.552 172.487 230.084 172.433 230.063Z" fill="#263238"/>
<path d="M177.659 210.699C177.717 210.716 177.772 210.741 177.823 210.774L178.301 211.026C178.916 211.33 179.55 211.596 180.197 211.825C182.585 212.662 185.146 212.883 187.642 212.466C191.349 211.805 194.661 209.746 196.894 206.714C198.229 204.963 199.066 202.883 199.316 200.696C199.44 199.546 199.319 198.383 198.962 197.284C198.584 196.162 197.927 195.154 197.051 194.357C196.188 193.549 195.101 193.021 193.933 192.842C193.379 192.743 192.81 192.771 192.269 192.923C191.728 193.076 191.228 193.349 190.808 193.722C190.427 194.095 190.207 194.602 190.194 195.135C190.205 195.664 190.387 196.176 190.712 196.595C191.051 196.999 191.467 197.332 191.935 197.575C192.404 197.817 192.916 197.964 193.442 198.007C195.289 198.238 197.165 198 198.897 197.317C200.63 196.634 202.163 195.527 203.356 194.098C204.26 192.985 204.941 191.709 205.362 190.338C205.675 189.299 205.845 188.223 205.867 187.138C205.874 186.452 205.824 185.768 205.717 185.091C205.676 184.879 205.642 184.702 205.621 184.565C205.615 184.504 205.615 184.442 205.621 184.381C205.903 185.263 206.041 186.185 206.031 187.111C206.037 188.211 205.886 189.308 205.58 190.365C204.82 192.914 203.181 195.111 200.953 196.564C198.725 198.018 196.053 198.633 193.414 198.301C192.851 198.251 192.303 198.09 191.801 197.828C191.3 197.566 190.856 197.207 190.494 196.772C190.123 196.295 189.917 195.711 189.907 195.107C189.908 194.487 190.153 193.891 190.589 193.449C191.048 193.04 191.593 192.739 192.183 192.569C192.774 192.399 193.395 192.364 194.001 192.467C195.242 192.651 196.397 193.21 197.31 194.07C198.234 194.905 198.925 195.965 199.316 197.148C199.688 198.291 199.813 199.5 199.685 200.696C199.419 202.931 198.553 205.053 197.181 206.837C195.287 209.421 192.598 211.315 189.526 212.226C186.454 213.138 183.168 213.019 180.17 211.886C179.285 211.602 178.44 211.203 177.659 210.699Z" fill="white"/>
<path d="M160.26 203.91C160.375 203.705 160.522 203.521 160.696 203.364C161.133 202.902 161.612 202.484 162.129 202.115C163.871 200.918 165.897 200.2 168.004 200.034C169.16 199.904 170.329 199.952 171.47 200.177C172.398 200.37 173.295 200.687 174.138 201.119C174.704 201.404 175.247 201.732 175.762 202.101C175.962 202.223 176.141 202.375 176.295 202.552C176.254 202.606 175.462 202.006 174.029 201.344C172.161 200.478 170.09 200.147 168.045 200.389C165.992 200.551 164.01 201.214 162.273 202.32C160.956 203.2 160.308 203.957 160.26 203.91Z" fill="white"/>
<path d="M164.51 185.698C165.158 186.308 165.88 186.833 166.66 187.261C167.511 187.697 168.437 187.97 169.389 188.066C170.548 188.182 171.718 188.018 172.801 187.588C173.862 187.136 174.798 186.433 175.53 185.541C176.134 184.797 176.596 183.948 176.895 183.037C177.14 182.182 177.28 181.299 177.311 180.41C177.377 180.645 177.407 180.889 177.399 181.133C177.411 181.803 177.321 182.47 177.133 183.112C176.855 184.071 176.392 184.966 175.769 185.746C175.021 186.724 174.027 187.487 172.888 187.957C171.75 188.427 170.507 188.587 169.287 188.421C168.297 188.309 167.34 188.002 166.469 187.52C165.882 187.198 165.348 186.788 164.886 186.305C164.724 186.128 164.597 185.922 164.51 185.698Z" fill="white"/>
<path d="M187.655 227.573C187.656 227.403 187.675 227.234 187.71 227.068C187.805 226.594 187.964 226.135 188.181 225.703C189.048 224.114 190.457 222.889 192.152 222.251C194.646 221.259 197.406 221.16 199.965 221.971C201.37 222.387 202.98 222.906 204.059 224.277C204.33 224.627 204.501 225.045 204.554 225.484C204.607 225.924 204.539 226.37 204.359 226.774C203.947 227.564 203.281 228.191 202.469 228.555C201.684 228.944 200.826 229.158 199.951 229.183C199.082 229.225 198.227 228.959 197.535 228.433C197.216 228.16 196.956 227.825 196.77 227.449C196.585 227.072 196.479 226.661 196.457 226.242C196.413 225.459 196.536 224.675 196.819 223.943C197.847 221.455 199.806 219.467 202.278 218.402C203.918 217.671 205.714 217.362 207.504 217.502C208.156 217.551 208.798 217.686 209.415 217.904C209.415 217.952 208.732 217.727 207.491 217.638C206.008 217.558 204.524 217.781 203.13 218.293C201.736 218.806 200.462 219.598 199.385 220.62C198.384 221.578 197.604 222.742 197.099 224.031C196.834 224.72 196.72 225.458 196.764 226.194C196.784 226.568 196.88 226.933 197.047 227.267C197.214 227.602 197.447 227.899 197.733 228.139C198.357 228.618 199.131 228.86 199.917 228.821C200.737 228.8 201.543 228.6 202.278 228.235C203.019 227.904 203.629 227.335 204.011 226.618C204.164 226.269 204.221 225.885 204.176 225.507C204.13 225.129 203.984 224.77 203.751 224.468C203.275 223.867 202.666 223.386 201.971 223.063C201.297 222.74 200.596 222.478 199.876 222.278C197.385 221.472 194.693 221.542 192.247 222.476C190.59 223.076 189.194 224.237 188.303 225.758C188.008 226.331 187.79 226.942 187.655 227.573Z" fill="white"/>
<path d="M169.969 237.16C169.969 237.091 170.979 237.009 172.514 236.477C174.519 235.771 176.314 234.575 177.737 232.997C179.16 231.419 180.166 229.509 180.661 227.443C181.05 225.86 181.037 224.83 181.105 224.837C181.153 225.072 181.164 225.314 181.139 225.553C181.123 226.207 181.046 226.858 180.907 227.498C180.465 229.631 179.461 231.607 178 233.222C176.54 234.838 174.674 236.035 172.596 236.689C171.974 236.891 171.335 237.035 170.686 237.119C170.45 237.167 170.209 237.181 169.969 237.16Z" fill="white"/>
<path d="M161.358 217.365C161.459 217.308 161.567 217.265 161.679 217.235C161.897 217.167 162.211 217.072 162.628 216.963C163.809 216.652 165.031 216.527 166.251 216.594C167.098 216.658 167.928 216.863 168.707 217.201C169.615 217.593 170.405 218.214 171 219.003C171.653 219.898 171.97 220.995 171.894 222.1C171.85 222.689 171.67 223.259 171.368 223.765C171.063 224.3 170.58 224.71 170.004 224.925C169.7 225.029 169.374 225.051 169.059 224.988C168.744 224.926 168.451 224.782 168.209 224.571C167.799 224.119 167.577 223.529 167.588 222.919C167.553 221.832 167.768 220.751 168.216 219.76C168.839 218.348 169.915 217.184 171.275 216.453C172.635 215.722 174.2 215.467 175.721 215.727C176.049 215.778 176.371 215.858 176.684 215.966C176.895 216.048 177.004 216.096 176.997 216.11C176.991 216.123 176.54 215.966 175.701 215.864C174.515 215.72 173.312 215.875 172.201 216.314C170.555 216.975 169.237 218.26 168.537 219.89C168.12 220.837 167.922 221.865 167.957 222.899C167.942 223.421 168.128 223.928 168.475 224.318C168.671 224.485 168.906 224.597 169.159 224.645C169.411 224.693 169.672 224.674 169.915 224.591C170.42 224.404 170.845 224.047 171.116 223.581C171.387 223.121 171.551 222.606 171.593 222.073C171.665 221.048 171.378 220.03 170.781 219.194C170.227 218.443 169.486 217.85 168.632 217.474C167.885 217.135 167.088 216.923 166.271 216.847C165.078 216.758 163.878 216.843 162.709 217.099C161.829 217.27 161.372 217.392 161.358 217.365Z" fill="white"/>
<g opacity="0.3">
<path d="M200.565 232.806C197.727 231.203 194.95 229.968 191.981 228.624C189.013 227.279 186.1 225.539 184.155 222.919C180.491 217.979 180.907 210.849 177.161 205.977C177.407 209.252 177.65 212.53 177.891 215.809C178.116 218.812 177.659 221.787 179.59 223.827C181.221 225.546 184.401 226.863 186.652 227.607C191.176 229.101 196.048 231.319 200.565 232.806Z" fill="black"/>
</g>
<path d="M246.745 270.232C246.745 270.232 268.969 276.373 269.863 276.701C271.227 277.171 270.975 282.077 268.894 281.996C267.904 281.961 251.836 282.596 249.789 282.473C247.742 282.35 241.601 279.928 241.601 279.928L246.745 270.232Z" fill="#4FAD39"/>
<path d="M255.977 278.714C256.252 277.897 256.58 277.099 256.96 276.325C257.438 275.61 257.962 274.926 258.529 274.278C257.738 274.711 257.082 275.353 256.632 276.135C256.182 276.916 255.955 277.805 255.977 278.707V278.714Z" fill="#263238"/>
<path d="M253.657 277.663C253.766 277.663 253.992 276.632 254.585 275.472C255.179 274.312 255.875 273.501 255.8 273.425C255.151 273.931 254.623 274.573 254.252 275.307C253.882 276.041 253.678 276.848 253.657 277.67V277.663Z" fill="#263238"/>
<path d="M251.522 277.083C251.631 276.288 251.804 275.503 252.04 274.736C252.389 274.012 252.792 273.316 253.248 272.654C252.543 273.129 252 273.807 251.692 274.598C251.383 275.39 251.324 276.257 251.522 277.083Z" fill="#263238"/>
<path d="M251.883 274.21C252.079 273.683 252.16 273.12 252.122 272.559C252.115 271.947 252.039 271.339 251.897 270.744C251.811 270.393 251.699 270.048 251.562 269.714C251.498 269.502 251.375 269.313 251.207 269.168C251.095 269.085 250.957 269.043 250.818 269.051C250.679 269.058 250.546 269.114 250.443 269.209C250.271 269.374 250.166 269.598 250.15 269.836C250.133 270.032 250.133 270.228 250.15 270.423C250.152 270.789 250.198 271.153 250.286 271.508C250.434 272.103 250.664 272.675 250.969 273.207C251.213 273.72 251.551 274.183 251.965 274.572C252.019 274.572 251.644 274.019 251.201 273.112C250.941 272.587 250.747 272.032 250.621 271.46C250.549 271.126 250.512 270.785 250.511 270.444C250.511 270.102 250.511 269.679 250.716 269.516C250.756 269.479 250.809 269.459 250.863 269.459C250.917 269.459 250.969 269.479 251.01 269.516C251.12 269.625 251.205 269.758 251.255 269.905C251.386 270.225 251.498 270.553 251.59 270.887C251.746 271.453 251.844 272.034 251.883 272.62C251.924 273.576 251.822 274.203 251.883 274.21Z" fill="#263238"/>
<path d="M251.856 273.985C251.403 273.796 250.912 273.716 250.423 273.753C249.892 273.753 249.362 273.817 248.847 273.944C248.529 274.016 248.222 274.128 247.932 274.278C247.75 274.371 247.603 274.52 247.514 274.703C247.424 274.887 247.396 275.094 247.434 275.295C247.485 275.487 247.586 275.661 247.726 275.801C247.866 275.942 248.041 276.042 248.233 276.093C248.56 276.175 248.902 276.175 249.229 276.093C249.755 275.973 250.248 275.74 250.675 275.411C251.08 275.14 251.429 274.795 251.706 274.394C251.295 274.634 250.901 274.901 250.525 275.193C250.113 275.476 249.649 275.677 249.161 275.786C248.89 275.854 248.606 275.854 248.335 275.786C248.207 275.754 248.089 275.688 247.995 275.596C247.9 275.504 247.832 275.388 247.796 275.261C247.775 275.136 247.796 275.007 247.855 274.895C247.914 274.783 248.009 274.693 248.123 274.64C248.377 274.5 248.648 274.395 248.929 274.326C249.418 274.186 249.922 274.1 250.43 274.067C251.296 273.958 251.842 274.046 251.856 273.985Z" fill="#263238"/>
<path d="M259.389 278.952C259.484 278.273 259.632 277.602 259.832 276.946C260.144 276.337 260.507 275.755 260.917 275.206C260.27 275.559 259.764 276.125 259.486 276.807C259.207 277.49 259.173 278.247 259.389 278.952Z" fill="#263238"/>
<path d="M243.886 279.983C244.155 280.153 244.444 280.29 244.746 280.392C245.553 280.698 246.377 280.953 247.216 281.156C250.003 281.764 252.853 282.035 255.704 281.961C259.034 281.92 262.036 281.77 264.213 281.682L266.785 281.545C267.101 281.54 267.416 281.508 267.727 281.45C267.413 281.4 267.095 281.384 266.778 281.402H264.206L255.704 281.566C252.879 281.638 250.054 281.409 247.277 280.883C245.149 280.453 243.914 279.908 243.886 279.983Z" fill="#263238"/>
<path d="M243.231 280.488C243.231 280.535 243.866 280.181 244.896 279.73C246.205 279.112 247.662 278.875 249.099 279.048C250.513 279.354 251.789 280.111 252.736 281.204C253.131 281.67 253.557 282.108 254.012 282.514C253.719 281.972 253.355 281.471 252.927 281.027C252.489 280.517 251.995 280.06 251.454 279.662C250.775 279.16 249.987 278.828 249.154 278.693C247.646 278.51 246.118 278.799 244.78 279.519C244.215 279.756 243.692 280.083 243.231 280.488Z" fill="#263238"/>
<path d="M223.13 264.098C223.13 264.098 202.1 277.867 201.35 278.427C200.217 279.28 201.513 283.353 203.478 282.651C204.406 282.316 222.052 277.403 223.948 276.667C225.845 275.93 230.956 271.795 230.956 271.795L223.13 264.098Z" fill="#4FAD39"/>
<path d="M216.886 274.988C216.632 274.122 216.146 273.343 215.479 272.735C214.812 272.127 213.991 271.715 213.106 271.542C213.845 271.986 214.554 272.478 215.228 273.016C215.821 273.638 216.375 274.297 216.886 274.988Z" fill="#263238"/>
<path d="M218.77 273.282C218.502 272.503 218.065 271.793 217.491 271.204C216.916 270.614 216.218 270.158 215.447 269.87C215.392 269.966 216.313 270.553 217.221 271.453C218.128 272.354 218.674 273.337 218.77 273.282Z" fill="#263238"/>
<path d="M220.666 272.068C220.664 271.209 220.337 270.383 219.752 269.754C219.263 269.061 218.533 268.574 217.705 268.39C218.338 268.884 218.933 269.424 219.486 270.007C219.933 270.661 220.328 271.351 220.666 272.068Z" fill="#263238"/>
<path d="M219.452 269.454C219.507 269.454 219.22 268.861 218.981 267.878C218.838 267.308 218.753 266.725 218.729 266.138C218.705 265.793 218.705 265.446 218.729 265.101C218.726 264.945 218.766 264.792 218.845 264.657C218.874 264.611 218.921 264.578 218.974 264.565C219.028 264.553 219.084 264.561 219.131 264.589C219.37 264.685 219.493 265.094 219.609 265.422C219.709 265.746 219.778 266.08 219.814 266.418C219.866 267.002 219.848 267.591 219.759 268.171C219.616 269.168 219.418 269.775 219.472 269.795C219.754 269.307 219.939 268.77 220.018 268.212C220.149 267.615 220.195 267.001 220.155 266.391C220.127 266.025 220.061 265.664 219.957 265.313C219.901 265.124 219.832 264.939 219.752 264.76C219.661 264.536 219.491 264.354 219.275 264.248C219.148 264.189 219.005 264.177 218.87 264.213C218.735 264.249 218.618 264.332 218.538 264.446C218.425 264.636 218.366 264.853 218.367 265.074C218.292 266.046 218.403 267.023 218.695 267.953C218.838 268.501 219.096 269.013 219.452 269.454Z" fill="#263238"/>
<path d="M219.377 269.229C219.377 269.284 219.896 269.038 220.742 268.827C221.236 268.708 221.741 268.639 222.25 268.622C222.54 268.602 222.831 268.62 223.116 268.676C223.242 268.694 223.358 268.751 223.449 268.839C223.54 268.927 223.6 269.043 223.621 269.168C223.627 269.303 223.596 269.438 223.533 269.558C223.469 269.678 223.375 269.779 223.259 269.85C223.025 269.998 222.758 270.087 222.482 270.109C221.983 270.158 221.48 270.107 221.001 269.959C220.556 269.793 220.1 269.658 219.636 269.557C220.021 269.864 220.461 270.096 220.933 270.239C221.439 270.433 221.981 270.514 222.522 270.478C222.859 270.46 223.186 270.357 223.471 270.178C223.64 270.074 223.778 269.927 223.87 269.751C223.962 269.576 224.006 269.379 223.996 269.181C223.972 268.978 223.883 268.788 223.741 268.641C223.599 268.493 223.414 268.395 223.212 268.363C222.892 268.306 222.566 268.292 222.243 268.322C221.712 268.357 221.188 268.456 220.68 268.615C220.204 268.717 219.758 268.927 219.377 269.229Z" fill="#263238"/>
<path d="M206.153 281.893C206.153 281.927 206.508 281.682 206.672 281.081C206.835 280.297 206.694 279.479 206.276 278.795C206.074 278.429 205.846 278.078 205.594 277.745C205.388 277.46 205.148 277.203 204.877 276.98C204.683 276.82 204.445 276.723 204.195 276.701C204.017 276.701 203.929 276.735 203.929 276.755C203.929 276.776 204.304 276.789 204.693 277.185C204.922 277.417 205.126 277.673 205.3 277.949C205.545 278.279 205.773 278.62 205.983 278.973C206.359 279.585 206.523 280.305 206.447 281.02C206.366 281.317 206.268 281.608 206.153 281.893Z" fill="#263238"/>
<path d="M213.707 276.25C213.735 275.881 213.683 275.51 213.555 275.163C213.426 274.815 213.224 274.5 212.963 274.237C212.753 273.932 212.478 273.677 212.159 273.49C211.839 273.302 211.483 273.187 211.114 273.152C211.671 273.548 212.194 273.991 212.676 274.476C213.069 275.038 213.414 275.631 213.707 276.25Z" fill="#263238"/>
<path d="M228.793 272.525C228.466 272.707 228.156 272.917 227.865 273.152C227.032 273.731 226.166 274.262 225.272 274.742C223.95 275.444 222.582 276.057 221.178 276.578C219.582 277.171 217.767 277.731 215.911 278.277C212.124 279.369 208.698 280.365 206.228 281.108L203.288 282.03C202.925 282.126 202.571 282.254 202.23 282.412C202.602 282.361 202.969 282.281 203.329 282.173L206.283 281.347C208.774 280.665 212.206 279.71 215.993 278.618C217.883 278.065 219.677 277.492 221.274 276.878C222.695 276.338 224.075 275.695 225.402 274.954C226.293 274.449 227.146 273.879 227.954 273.248C228.253 273.031 228.534 272.789 228.793 272.525Z" fill="#263238"/>
<path d="M229.571 272.805C229.005 272.555 228.405 272.394 227.79 272.327C226.295 272.05 224.751 272.241 223.369 272.873C222.621 273.264 221.98 273.831 221.499 274.524C221.103 275.071 220.771 275.662 220.51 276.284C220.236 276.837 220.041 277.425 219.93 278.031C220.239 277.504 220.512 276.957 220.748 276.394C221.317 275.061 222.304 273.95 223.56 273.228C224.88 272.633 226.342 272.423 227.776 272.62C228.868 272.709 229.557 272.859 229.571 272.805Z" fill="#263238"/>
<path d="M266.833 230.52C266.833 230.52 273.145 232.772 273.165 239.848C273.22 253.392 245.79 268.328 245.79 268.328L209.285 244.147L207 243.219C207 243.219 256.298 224.714 266.833 230.52Z" fill="#263238"/>
<path d="M227.776 256.36C228.112 256.174 228.432 255.96 228.732 255.719C229.325 255.282 230.178 254.641 231.222 253.829C233.317 252.219 236.155 249.926 239.219 247.299C242.283 244.672 244.971 242.209 246.882 240.387C247.837 239.479 248.601 238.729 249.126 238.203C249.41 237.947 249.671 237.667 249.904 237.364C249.59 237.584 249.296 237.831 249.024 238.101L246.704 240.196C244.746 241.963 242.03 244.399 238.973 247.019C235.917 249.639 233.105 251.959 231.065 253.624L228.643 255.603C228.334 255.832 228.045 256.085 227.776 256.36Z" fill="#455A64"/>
<path d="M256.53 235.583C254.143 235.331 251.753 236.035 249.884 237.542C249.945 237.644 251.248 236.791 253.118 236.259C254.988 235.727 256.53 235.699 256.53 235.583Z" fill="#455A64"/>
<path d="M253.384 233.448C252.539 233.806 251.796 234.367 251.22 235.081C250.644 235.795 250.253 236.64 250.082 237.542C250.191 237.542 250.586 236.443 251.508 235.317C252.429 234.191 253.445 233.543 253.384 233.448Z" fill="#455A64"/>
<path d="M268.839 276.353C268.839 276.312 268.402 276.223 267.897 276.639C267.302 277.194 266.929 277.945 266.847 278.754C266.727 279.55 266.841 280.363 267.174 281.095C267.433 281.648 267.72 281.907 267.754 281.88C267.664 281.576 267.552 281.28 267.42 280.992C267.181 280.291 267.111 279.543 267.215 278.809C267.296 278.078 267.596 277.388 268.075 276.83C268.464 276.428 268.846 276.414 268.839 276.353Z" fill="#263238"/>
<path d="M258.433 208.379L245.435 241.335L189.463 242.25L188.426 239.22L208.043 238.511L217.473 209.273L258.433 208.379Z" fill="#455A64"/>
<path d="M232.293 222.667C232.723 222.451 233.206 222.364 233.684 222.416C234.162 222.468 234.615 222.657 234.988 222.96C235.305 223.258 235.525 223.645 235.619 224.07C235.712 224.495 235.676 224.938 235.514 225.342C235.339 225.745 235.054 226.091 234.692 226.34C234.33 226.59 233.906 226.733 233.467 226.754C233.005 226.784 232.546 226.662 232.159 226.407C231.772 226.152 231.479 225.778 231.324 225.342C231.178 224.853 231.191 224.332 231.36 223.851C231.529 223.37 231.846 222.956 232.266 222.667" fill="#EBEBEB"/>
<path d="M249.242 269.98C249.242 269.98 197.672 236.15 195.57 235.447C193.469 234.744 188.351 231.401 183.254 232.806C178.157 234.212 173.572 238.79 171.286 245.477C169.976 249.298 169.362 255.814 169.068 260.707C168.677 266.557 170.573 272.33 174.357 276.81C176.032 278.9 178.258 280.481 180.784 281.375C181.323 281.545 181.883 281.688 182.456 281.811C192.206 283.927 202.243 279.546 207.702 271.208L208.903 269.379C208.903 269.379 242.644 281.77 243.17 281.6L249.242 269.98Z" fill="#263238"/>
<path d="M185.444 260.666C185.535 260.712 185.629 260.753 185.724 260.789L186.57 261.123L189.839 262.385L201.991 266.964C207.149 268.888 213.331 271.181 220.271 273.705C227.21 276.23 234.893 278.993 243.108 281.77L243.251 281.825L243.326 281.682L247.359 273.985L249.406 270.062L249.481 269.911L249.338 269.823L210.001 244.849L198.183 237.398L194.977 235.392L194.137 234.881C193.946 234.765 193.844 234.717 193.844 234.717L194.117 234.915L194.936 235.454L198.108 237.501L209.899 245.068L249.174 270.137L249.106 269.891C248.458 271.14 247.741 272.47 247.059 273.814L243.033 281.511L243.258 281.422C235.07 278.652 227.36 275.895 220.414 273.391L202.107 266.732L189.886 262.242L186.597 261.041L185.738 260.741L185.444 260.666Z" fill="#455A64"/>
<path d="M190.794 140.541C191.674 138.16 193.619 137.13 196.082 136.536C197.321 136.248 198.611 136.263 199.843 136.58C201.075 136.897 202.212 137.507 203.158 138.358C204.407 139.497 205.321 141.087 206.863 141.77C209.408 142.923 212.663 141.237 215.051 142.65C215.768 143.072 216.317 143.73 216.604 144.512C216.891 145.294 216.899 146.151 216.625 146.937C216.352 147.723 215.815 148.391 215.105 148.826C214.395 149.261 213.556 149.437 212.731 149.323C214.389 150.101 214.696 152.598 213.557 154.031C212.417 155.464 210.309 155.853 208.542 155.355C206.8 154.755 205.254 153.691 204.072 152.278C202.83 150.913 201.739 149.446 200.388 148.184C199.091 146.866 197.37 146.049 195.529 145.877C193.053 145.782 190.753 147.453 189.464 149.562C188.174 151.67 187.676 154.174 187.314 156.631C186.953 159.087 186.68 161.585 185.731 163.877C185.622 164.15 185.458 164.443 185.178 164.505C184.762 164.594 184.462 164.136 184.298 163.747C182.431 159.365 181.444 154.659 181.392 149.896C181.357 147.167 181.671 144.554 183.384 142.391C185.097 140.228 189.047 138.883 190.774 140.507" fill="#263238"/>
<path d="M184.98 151.547L181.187 179.1C181.035 180.213 181.11 181.345 181.41 182.427C181.709 183.509 182.226 184.519 182.928 185.396C183.63 186.272 184.503 186.997 185.494 187.525C186.485 188.053 187.573 188.374 188.692 188.468C190.811 188.653 192.919 188.015 194.58 186.688C196.242 185.36 197.329 183.445 197.617 181.338C197.897 179.291 198.136 177.537 198.183 177.326C198.183 177.326 205.287 177.633 206.747 170.762C207.429 167.439 208.35 160.479 209.094 154.174C209.469 150.912 208.604 147.627 206.67 144.973C204.736 142.319 201.875 140.488 198.654 139.845L197.972 139.716C190.705 138.679 185.792 144.274 184.98 151.547Z" fill="#FFBE9D"/>
<path d="M198.177 177.23C194.983 176.644 192.036 175.122 189.709 172.857C189.709 172.857 190.842 178.233 197.836 178.998L198.177 177.23Z" fill="#EB996E"/>
<path d="M206.126 158.391C206.078 158.648 205.93 158.876 205.716 159.025C205.502 159.174 205.237 159.233 204.979 159.19C204.853 159.175 204.73 159.136 204.619 159.073C204.507 159.01 204.41 158.926 204.332 158.824C204.254 158.723 204.198 158.607 204.166 158.483C204.134 158.36 204.128 158.231 204.147 158.105C204.194 157.847 204.34 157.617 204.555 157.467C204.769 157.316 205.035 157.256 205.293 157.299C205.42 157.315 205.543 157.355 205.655 157.418C205.766 157.482 205.863 157.567 205.941 157.669C206.019 157.771 206.075 157.887 206.107 158.011C206.138 158.135 206.145 158.265 206.126 158.391Z" fill="#263238"/>
<path d="M206.904 157.259C206.754 157.368 206.119 156.665 205.061 156.453C204.004 156.242 203.117 156.624 203.014 156.453C202.912 156.283 203.144 156.18 203.533 156.003C204.051 155.772 204.63 155.713 205.184 155.832C205.735 155.938 206.238 156.218 206.617 156.631C206.911 156.958 206.972 157.218 206.904 157.259Z" fill="#263238"/>
<path d="M195.673 156.672C195.626 156.93 195.479 157.159 195.265 157.31C195.05 157.461 194.785 157.521 194.526 157.477C194.399 157.461 194.277 157.42 194.166 157.356C194.054 157.293 193.957 157.208 193.879 157.106C193.801 157.005 193.744 156.889 193.711 156.765C193.678 156.641 193.67 156.512 193.687 156.385C193.738 156.13 193.886 155.903 194.099 155.754C194.313 155.604 194.576 155.542 194.833 155.58C194.961 155.595 195.084 155.635 195.195 155.699C195.307 155.762 195.405 155.847 195.483 155.949C195.561 156.051 195.618 156.167 195.651 156.291C195.683 156.415 195.691 156.545 195.673 156.672Z" fill="#263238"/>
<path d="M196.457 155.382C196.307 155.484 195.673 154.782 194.615 154.57C193.558 154.359 192.67 154.741 192.568 154.57C192.466 154.4 192.698 154.297 193.087 154.12C193.606 153.893 194.183 153.833 194.738 153.949C195.289 154.061 195.791 154.34 196.178 154.748C196.464 155.116 196.526 155.334 196.457 155.382Z" fill="#263238"/>
<path d="M198.729 163.986C199.322 163.92 199.921 163.932 200.51 164.02C200.79 164.02 201.056 164.02 201.138 163.863C201.225 163.593 201.225 163.302 201.138 163.031C201.015 162.349 200.886 161.584 200.749 160.807C200.224 157.654 199.903 155.089 200.026 155.068C200.149 155.048 200.708 157.586 201.206 160.738C201.329 161.516 201.452 162.253 201.561 162.963C201.668 163.324 201.641 163.711 201.486 164.055C201.428 164.141 201.351 164.213 201.262 164.265C201.172 164.317 201.071 164.347 200.968 164.355C200.811 164.377 200.653 164.377 200.497 164.355C199.895 164.306 199.301 164.182 198.729 163.986Z" fill="#263238"/>
<path d="M195.468 164.109C195.646 164.109 195.414 165.283 196.232 166.293C197.051 167.302 198.279 167.425 198.279 167.589C198.279 167.753 197.966 167.753 197.447 167.664C196.771 167.539 196.16 167.182 195.721 166.654C195.304 166.143 195.101 165.49 195.154 164.832C195.209 164.341 195.393 164.082 195.468 164.109Z" fill="#263238"/>
<path d="M197.556 151.281C197.399 151.554 196.369 151.206 195.093 151.104C193.817 151.002 192.753 151.145 192.637 150.851C192.589 150.715 192.821 150.483 193.278 150.285C193.885 150.046 194.539 149.952 195.188 150.012C195.842 150.062 196.474 150.268 197.031 150.613C197.447 150.886 197.618 151.158 197.556 151.281Z" fill="#263238"/>
<path d="M207.122 154.12C206.89 154.325 206.215 153.929 205.335 153.738C204.454 153.547 203.683 153.581 203.567 153.294C203.513 153.158 203.677 152.939 204.052 152.776C204.541 152.583 205.077 152.547 205.587 152.673C206.102 152.782 206.568 153.052 206.918 153.444C207.17 153.751 207.231 154.017 207.122 154.12Z" fill="#263238"/>
<path d="M184.523 156.76C184.414 156.685 180.068 154.413 179.276 159.155C178.485 163.898 183.411 163.713 183.438 163.577C183.466 163.44 184.523 156.76 184.523 156.76Z" fill="#FFBE9D"/>
<path d="M182.292 161.537C182.292 161.537 182.204 161.585 182.053 161.625C181.843 161.676 181.621 161.644 181.433 161.537C181.156 161.293 180.951 160.979 180.838 160.629C180.725 160.278 180.709 159.903 180.791 159.544C180.846 159.135 180.993 158.743 181.221 158.398C181.286 158.257 181.383 158.133 181.505 158.036C181.628 157.94 181.771 157.875 181.924 157.845C182.024 157.837 182.123 157.864 182.206 157.921C182.288 157.978 182.347 158.063 182.374 158.159C182.415 158.296 182.374 158.391 182.374 158.398C182.374 158.405 182.49 158.337 182.483 158.139C182.476 158.017 182.428 157.902 182.347 157.811C182.292 157.75 182.224 157.701 182.149 157.667C182.074 157.633 181.993 157.615 181.91 157.613C181.71 157.619 181.515 157.676 181.343 157.779C181.171 157.882 181.028 158.027 180.928 158.2C180.657 158.578 180.481 159.016 180.416 159.476C180.286 160.438 180.627 161.414 181.282 161.721C181.404 161.78 181.537 161.81 181.671 161.81C181.806 161.81 181.939 161.78 182.06 161.721C182.265 161.653 182.306 161.55 182.292 161.537Z" fill="#EB996E"/>
<path d="M210.8 153.069C209.196 153.155 207.595 152.86 206.128 152.208C204.661 151.556 203.369 150.565 202.359 149.316C200.995 147.556 200.087 145.256 198.115 144.192C197.436 143.858 196.697 143.662 195.942 143.615C195.187 143.568 194.429 143.671 193.714 143.919C192.291 144.428 190.986 145.222 189.879 146.253C190.507 150.019 188.836 153.758 187.205 157.17C187.064 157.572 186.793 157.916 186.434 158.146C185.792 158.466 185.028 157.961 184.639 157.354C184.094 156.336 183.857 155.181 183.957 154.031C183.971 151.41 184.505 148.817 185.526 146.403C186.563 143.981 188.288 141.917 190.487 140.466C193.307 138.744 196.685 138.184 199.91 138.904C203.116 139.65 206.007 141.385 208.173 143.864C209.228 144.963 209.995 146.307 210.404 147.774" fill="#263238"/>
<path d="M19.8427 264.187C19.8726 264.087 19.9138 263.991 19.9656 263.9L20.3477 263.074C20.8182 262.007 21.1993 260.902 21.4872 259.772C22.2377 256.838 22.497 252.355 21.3848 247.033C20.7865 244.13 19.9978 241.269 19.0239 238.47C18.0209 235.433 16.861 232.213 15.9125 228.726C14.8417 225.089 14.3241 221.313 14.3773 217.522C14.5206 213.558 15.6942 209.6 16.9838 205.663C18.2734 201.726 19.6039 197.864 19.9997 193.988C20.4469 190.259 19.6991 186.485 17.864 183.208C16.1513 180.055 14.0088 177.367 12.4053 174.576C10.9024 171.992 9.7939 169.198 9.1165 166.286C8.14997 162.065 8.08023 157.687 8.9118 153.437C9.21769 151.884 9.67475 150.364 10.2765 148.9C10.2605 149.004 10.2353 149.107 10.2014 149.207L9.92847 150.074C8.32303 155.314 8.15104 160.888 9.43037 166.218C10.1141 169.096 11.225 171.856 12.726 174.406C14.3295 177.135 16.4857 179.864 18.2256 183.023C20.0892 186.365 20.8509 190.209 20.4023 194.009C19.9997 197.953 18.6555 201.835 17.3727 205.772C16.0899 209.709 14.9231 213.619 14.7798 217.515C14.7204 221.267 15.2241 225.007 16.2742 228.61C17.2089 232.076 18.3621 235.297 19.3446 238.347C20.3103 241.162 21.0876 244.039 21.6714 246.958C22.7563 252.321 22.4424 256.852 21.6714 259.792C21.3706 260.927 20.964 262.03 20.4568 263.088C20.2794 263.429 20.1361 263.695 20.0338 263.9C19.9795 264.002 19.9155 264.098 19.8427 264.187Z" fill="#263238"/>
<path d="M14.5819 177.326C14.5819 177.326 11.3135 166.886 17.1748 160.773C17.2202 160.723 17.2783 160.688 17.3428 160.67C17.4072 160.652 17.4755 160.652 17.5398 160.67C17.6042 160.689 17.6622 160.724 17.7074 160.774C17.7525 160.823 17.7831 160.884 17.7957 160.95C18.1095 162.676 18.4985 167.93 14.5819 177.326Z" fill="#4FAD39"/>
<path d="M16.54 164.252C16.5291 164.9 16.4537 165.544 16.3149 166.177C16.1033 167.541 15.8509 169.063 15.5711 170.782C15.2914 172.502 15.0526 174.064 14.841 175.388C14.7858 176.035 14.6693 176.674 14.493 177.299C14.4379 176.65 14.4585 175.998 14.5544 175.354C14.6636 174.16 14.8751 172.522 15.1685 170.721C15.462 168.92 15.7758 167.309 16.0351 166.129C16.1308 165.486 16.3002 164.856 16.54 164.252Z" fill="#263238"/>
<path d="M18.4165 201.958C18.4165 201.958 20.4157 191.198 28.4536 188.55C28.517 188.528 28.5852 188.524 28.6507 188.539C28.7162 188.553 28.7764 188.585 28.8246 188.632C28.8727 188.679 28.9069 188.738 28.9234 188.803C28.9398 188.868 28.9378 188.937 28.9176 189.001C28.399 190.652 26.277 195.483 18.4165 201.958Z" fill="#4FAD39"/>
<path d="M26.2632 191.314C25.9511 191.881 25.583 192.416 25.1646 192.91C24.3594 193.988 23.4042 195.244 22.3534 196.636L19.5285 200.368C19.1759 200.911 18.7739 201.421 18.3276 201.89C18.5813 201.29 18.9042 200.722 19.2897 200.198C19.9721 199.195 20.8932 197.844 22.0191 196.39C23.1449 194.937 24.1616 193.661 24.9326 192.733C25.3199 192.21 25.7664 191.734 26.2632 191.314Z" fill="#263238"/>
<path d="M16.2466 228.944C16.2466 228.944 15.032 218.068 21.9509 213.182C22.0053 213.143 22.0697 213.12 22.1367 213.115C22.2037 213.11 22.2707 213.124 22.3302 213.155C22.3898 213.187 22.4394 213.234 22.4736 213.291C22.5079 213.349 22.5253 213.415 22.524 213.483C22.5035 215.229 21.8826 220.463 16.2466 228.944Z" fill="#4FAD39"/>
<path d="M20.6617 216.478C20.5319 217.113 20.3352 217.733 20.0748 218.327C19.6109 219.59 19.0718 221.057 18.4645 222.708L16.8747 227.088C16.7056 227.711 16.4771 228.317 16.1924 228.897C16.2646 228.25 16.4088 227.614 16.6223 227C16.9566 225.846 17.4752 224.27 18.1097 222.564C18.7443 220.859 19.3652 219.323 19.836 218.225C20.0442 217.613 20.3212 217.027 20.6617 216.478Z" fill="#263238"/>
<path d="M22.299 256.101C22.299 256.101 21.4734 245.184 28.5628 240.558C28.6182 240.519 28.6832 240.497 28.7504 240.494C28.8175 240.491 28.8843 240.507 28.9432 240.539C29.002 240.572 29.0506 240.62 29.0834 240.679C29.1163 240.738 29.1321 240.804 29.1291 240.871C29.0404 242.611 28.2353 247.818 22.299 256.101Z" fill="#4FAD39"/>
<path d="M27.157 243.819C26.9932 244.451 26.7646 245.063 26.4746 245.648C25.9629 246.89 25.3692 248.377 24.7074 249.96L22.9538 254.286C22.775 254.888 22.542 255.473 22.2578 256.033C22.3495 255.39 22.5167 254.76 22.7559 254.156C23.1244 253.017 23.7044 251.468 24.4003 249.783C25.0963 248.097 25.765 246.583 26.2767 245.504C26.5073 244.912 26.8025 244.347 27.157 243.819Z" fill="#263238"/>
<path d="M9.88733 168.155C9.88733 168.155 0.191407 163.092 0.000353791 154.625C-0.00262077 154.558 0.0132086 154.491 0.0460631 154.432C0.0789176 154.373 0.127494 154.325 0.186333 154.292C0.245172 154.26 0.311939 154.244 0.379131 154.248C0.446323 154.251 0.511276 154.273 0.566687 154.311C2.00641 155.307 5.99805 158.739 9.88733 168.155Z" fill="#4FAD39"/>
<path d="M2.01318 157.531C2.46641 157.994 2.87109 158.501 3.22091 159.046L5.95023 162.826L8.67956 166.6C9.09534 167.095 9.46532 167.627 9.78494 168.189C9.27185 167.779 8.81326 167.304 8.42027 166.777C7.64924 165.863 6.63257 164.553 5.56813 163.072C4.50369 161.591 3.57572 160.22 2.92751 159.21C2.5597 158.687 2.25293 158.124 2.01318 157.531Z" fill="#263238"/>
<path d="M20.2999 190.597C20.2999 190.597 10.3174 186.135 9.60776 177.694C9.6021 177.628 9.61485 177.561 9.6446 177.502C9.67436 177.442 9.71997 177.392 9.77641 177.357C9.83286 177.322 9.89794 177.303 9.96449 177.302C10.031 177.301 10.0965 177.319 10.1536 177.353C11.6547 178.233 15.8511 181.42 20.2999 190.597Z" fill="#4FAD39"/>
<path d="M11.7979 180.458C12.2769 180.893 12.7113 181.376 13.0943 181.898L16.0556 185.507L19.0237 189.103C19.4667 189.562 19.8643 190.062 20.211 190.597C19.6907 190.197 19.2169 189.739 18.7986 189.233C17.973 188.359 16.8812 187.117 15.7281 185.705C14.5749 184.293 13.5651 182.976 12.8623 182.014C12.4498 181.537 12.0927 181.015 11.7979 180.458Z" fill="#263238"/>
<path d="M14.5544 215.598C14.5544 215.598 7.69698 207.069 10.9176 199.222C10.9421 199.16 10.9832 199.106 11.0365 199.066C11.0898 199.026 11.1531 199.001 11.2195 198.995C11.2858 198.988 11.3527 199.001 11.4126 199.03C11.4725 199.059 11.5232 199.104 11.559 199.161C12.4801 200.668 14.7523 205.411 14.5544 215.598Z" fill="#4FAD39"/>
<path d="M11.5933 202.709C11.8228 203.313 11.9897 203.94 12.0914 204.578C12.378 205.895 12.7123 207.437 13.0876 209.143C13.4629 210.849 13.7699 212.384 14.0906 213.694C14.2732 214.316 14.3988 214.953 14.4659 215.598C14.1629 215.019 13.9337 214.405 13.7836 213.769C13.4424 212.616 13.0399 211.04 12.6577 209.225C12.2756 207.41 11.9754 205.813 11.7844 204.64C11.6503 204.005 11.5862 203.357 11.5933 202.709Z" fill="#263238"/>
<path d="M21.3505 245.034C21.3505 245.034 11.4363 240.407 10.8767 231.947C10.8724 231.881 10.8862 231.815 10.9165 231.757C10.9468 231.698 10.9925 231.649 11.0487 231.615C11.1049 231.58 11.1694 231.562 11.2353 231.561C11.3012 231.561 11.366 231.578 11.4226 231.612C12.9101 232.547 17.0518 235.802 21.3505 245.034Z" fill="#4FAD39"/>
<path d="M13.0122 234.765C13.486 235.207 13.9135 235.696 14.2882 236.225C15.1206 237.282 16.1032 238.517 17.1881 239.882L20.0948 243.533C20.5319 244.01 20.9247 244.526 21.2684 245.075C20.7608 244.676 20.3026 244.218 19.9038 243.71C19.0986 242.83 18.0273 241.567 16.9015 240.135C15.7756 238.702 14.7522 237.378 14.0698 236.402C13.6597 235.896 13.3051 235.347 13.0122 234.765Z" fill="#263238"/>
<path d="M41.0905 202.013C41.1 202.094 41.1 202.177 41.0905 202.258C41.0905 202.449 41.0905 202.675 41.0905 202.941C41.0905 203.623 41.0222 204.49 40.9745 205.595C40.8448 207.928 40.6674 211.176 40.4559 215.072C39.7736 219.03 37.7266 223.417 34.9972 227.675C33.0117 230.814 30.9033 233.673 29.136 236.327C27.5022 238.644 26.0316 241.072 24.735 243.594C23.8872 245.305 23.2019 247.091 22.688 248.93C22.5106 249.578 22.3809 250.09 22.3059 250.438C22.2758 250.617 22.2278 250.793 22.1626 250.963C22.1648 250.782 22.1854 250.601 22.224 250.424C22.2718 250.069 22.3809 249.551 22.5311 248.889C22.9941 247.008 23.648 245.179 24.4825 243.43C25.7507 240.878 27.2034 238.422 28.829 236.081C30.6099 233.407 32.6841 230.548 34.6629 227.43C37.3922 223.185 39.3573 218.866 40.1216 214.97C40.3945 211.088 40.6197 207.84 40.8039 205.506C40.8926 204.401 40.9676 203.514 41.0154 202.859C41.0154 202.586 41.07 202.354 41.0905 202.176C41.0846 202.122 41.0846 202.067 41.0905 202.013Z" fill="#263238"/>
<path d="M35.2222 226.897C35.2222 226.897 39.4185 216.792 34.1373 210.173C34.0963 210.12 34.0414 210.08 33.9787 210.056C33.916 210.032 33.8479 210.026 33.7821 210.039C33.7163 210.052 33.6553 210.083 33.6059 210.128C33.5566 210.173 33.5208 210.232 33.5027 210.296C33.0046 211.988 32.138 217.208 35.2222 226.897Z" fill="#4FAD39"/>
<path d="M34.4239 213.701C34.6048 214.324 34.7169 214.964 34.7582 215.612C34.9083 216.799 35.0721 218.443 35.2017 220.265C35.3314 222.087 35.3928 223.738 35.3928 224.932C35.4348 225.58 35.3958 226.231 35.2768 226.87C35.1582 226.236 35.101 225.591 35.1062 224.946C35.0175 223.581 34.9083 222.032 34.7923 220.292C34.6763 218.552 34.5603 216.976 34.4716 215.639C34.392 214.996 34.376 214.347 34.4239 213.701Z" fill="#263238"/>
<g opacity="0.3">
<path d="M35.2222 226.897C35.2222 226.897 39.4185 216.792 34.1373 210.173C34.0963 210.12 34.0414 210.08 33.9787 210.056C33.916 210.032 33.8479 210.026 33.7821 210.039C33.7163 210.052 33.6553 210.083 33.6059 210.128C33.5566 210.173 33.5208 210.232 33.5027 210.296C33.0046 211.988 32.138 217.208 35.2222 226.897Z" fill="black"/>
</g>
<path d="M22.1898 251.243C22.1898 251.243 25.5537 240.837 19.7539 234.669C19.709 234.62 19.6513 234.584 19.5873 234.566C19.5234 234.547 19.4555 234.547 19.3913 234.564C19.3271 234.582 19.269 234.617 19.2234 234.666C19.1778 234.714 19.1465 234.774 19.133 234.84C18.7987 236.559 18.362 241.806 22.1898 251.243Z" fill="#4FAD39"/>
<path d="M20.3545 238.149C20.5863 238.756 20.7489 239.388 20.8389 240.032C21.0846 241.199 21.3848 242.823 21.6646 244.631C21.9443 246.439 22.1354 248.077 22.2309 249.271C22.3236 249.915 22.3374 250.568 22.2718 251.216C22.1057 250.59 21.9961 249.95 21.9443 249.305C21.7464 247.94 21.5145 246.419 21.262 244.692C21.0095 242.966 20.7639 241.41 20.5797 240.08C20.4413 239.445 20.3659 238.798 20.3545 238.149Z" fill="#263238"/>
<g opacity="0.3">
<path d="M22.1898 251.243C22.1898 251.243 25.5537 240.837 19.7539 234.669C19.709 234.62 19.6513 234.584 19.5873 234.566C19.5234 234.547 19.4555 234.547 19.3913 234.564C19.3271 234.582 19.269 234.617 19.2234 234.666C19.1778 234.714 19.1465 234.774 19.133 234.84C18.7987 236.559 18.362 241.806 22.1898 251.243Z" fill="black"/>
</g>
<path d="M40.5308 214.554C40.5308 214.554 49.4966 208.276 48.5891 199.856C48.5832 199.79 48.559 199.726 48.5189 199.672C48.4789 199.618 48.4248 199.577 48.3625 199.552C48.3002 199.527 48.2323 199.52 48.1663 199.532C48.1002 199.543 48.0387 199.573 47.9886 199.618C46.6922 200.832 43.1714 204.715 40.5308 214.554Z" fill="#4FAD39"/>
<g opacity="0.3">
<path d="M40.5308 214.554C40.5308 214.554 49.4966 208.276 48.5891 199.856C48.5832 199.79 48.559 199.726 48.5189 199.672C48.4789 199.618 48.4248 199.577 48.3625 199.552C48.3002 199.527 48.2323 199.52 48.1663 199.532C48.1002 199.543 48.0387 199.573 47.9886 199.618C46.6922 200.832 43.1714 204.715 40.5308 214.554Z" fill="black"/>
</g>
<path d="M46.9721 203.002C46.791 203.624 46.5416 204.223 46.2284 204.79C45.7166 205.875 44.9729 207.348 44.1063 208.959C43.2398 210.569 42.4073 211.995 41.7591 213.005C41.4492 213.575 41.0661 214.103 40.6196 214.574C40.8658 213.976 41.1649 213.4 41.5135 212.855L43.7447 208.761L45.9691 204.667C46.2452 204.079 46.5814 203.521 46.9721 203.002Z" fill="#263238"/>
<path d="M25.7993 240.926C25.7993 240.926 36.587 239.241 39.5073 231.285C39.5315 231.222 39.5377 231.154 39.5252 231.088C39.5127 231.022 39.4821 230.96 39.4367 230.911C39.3914 230.861 39.3331 230.825 39.2684 230.807C39.2038 230.789 39.1353 230.789 39.0707 230.807C37.3853 231.285 32.493 233.257 25.7993 240.926Z" fill="#4FAD39"/>
<g opacity="0.3">
<path d="M25.7993 240.926C25.7993 240.926 36.587 239.241 39.5073 231.285C39.5315 231.222 39.5377 231.154 39.5252 231.088C39.5127 231.022 39.4821 230.96 39.4367 230.911C39.3914 230.861 39.3331 230.825 39.2684 230.807C39.2038 230.789 39.1353 230.789 39.0707 230.807C37.3853 231.285 32.493 233.257 25.7993 240.926Z" fill="black"/>
</g>
<path d="M36.669 233.393C36.2332 233.868 35.7483 234.296 35.2225 234.669C34.2877 235.42 32.9708 236.416 31.4833 237.473C29.9958 238.531 28.6175 239.452 27.6008 240.08C27.0663 240.451 26.489 240.755 25.8813 240.987C26.3639 240.557 26.8846 240.171 27.4371 239.834L31.2513 237.146L35.0519 234.417C35.554 234.02 36.0959 233.677 36.669 233.393Z" fill="#263238"/>
<path d="M15.4893 260.823L12.3369 282.043H31.9881L29.4361 260.823H15.4893Z" fill="#455A64"/>
<path d="M30.2275 267.394C30.2275 267.51 26.6794 267.598 22.2988 267.598C17.9183 267.598 14.377 267.51 14.377 267.394C17.0124 267.192 19.6564 267.123 22.2988 267.189C24.9435 267.123 27.5898 267.191 30.2275 267.394Z" fill="#263238"/>
<path d="M30.6167 269.065C30.6167 269.175 26.9526 269.27 22.4287 269.27C17.9048 269.27 14.2407 269.175 14.2407 269.065C14.2407 268.956 17.9048 268.861 22.4287 268.861C26.9526 268.861 30.6167 268.97 30.6167 269.065Z" fill="#263238"/>
</svg>
