<svg width="42" height="7" viewBox="0 0 42 7" fill="none" xmlns="http://www.w3.org/2000/svg">
<path d="M4.185 3.778C4.539 3.844 4.83 4.021 5.058 4.309C5.286 4.597 5.4 4.927 5.4 5.299C5.4 5.635 5.316 5.932 5.148 6.19C4.986 6.442 4.749 6.64 4.437 6.784C4.125 6.928 3.756 7 3.33 7H0.621V0.718H3.213C3.639 0.718 4.005 0.787 4.311 0.925C4.623 1.063 4.857 1.255 5.013 1.501C5.175 1.747 5.256 2.026 5.256 2.338C5.256 2.704 5.157 3.01 4.959 3.256C4.767 3.502 4.509 3.676 4.185 3.778ZM1.881 3.31H3.033C3.333 3.31 3.564 3.244 3.726 3.112C3.888 2.974 3.969 2.779 3.969 2.527C3.969 2.275 3.888 2.08 3.726 1.942C3.564 1.804 3.333 1.735 3.033 1.735H1.881V3.31ZM3.15 5.974C3.456 5.974 3.693 5.902 3.861 5.758C4.035 5.614 4.122 5.41 4.122 5.146C4.122 4.876 4.032 4.666 3.852 4.516C3.672 4.36 3.429 4.282 3.123 4.282H1.881V5.974H3.15ZM10.4562 5.803H7.9542L7.5402 7H6.2172L8.4762 0.708999H9.9432L12.2022 7H10.8702L10.4562 5.803ZM10.1142 4.795L9.2052 2.167L8.2962 4.795H10.1142ZM18.6196 7H17.3596L14.5066 2.689V7H13.2466V0.708999H14.5066L17.3596 5.029V0.708999H18.6196V7ZM23.6108 7L21.3248 4.201V7H20.0648V0.718H21.3248V3.535L23.6108 0.718H25.1318L22.5398 3.832L25.2038 7H23.6108ZM32.1411 3.778C32.4951 3.844 32.7861 4.021 33.0141 4.309C33.2421 4.597 33.3561 4.927 33.3561 5.299C33.3561 5.635 33.2721 5.932 33.1041 6.19C32.9421 6.442 32.7051 6.64 32.3931 6.784C32.0811 6.928 31.7121 7 31.2861 7H28.5771V0.718H31.1691C31.5951 0.718 31.9611 0.787 32.2671 0.925C32.5791 1.063 32.8131 1.255 32.9691 1.501C33.1311 1.747 33.2121 2.026 33.2121 2.338C33.2121 2.704 33.1131 3.01 32.9151 3.256C32.7231 3.502 32.4651 3.676 32.1411 3.778ZM29.8371 3.31H30.9891C31.2891 3.31 31.5201 3.244 31.6821 3.112C31.8441 2.974 31.9251 2.779 31.9251 2.527C31.9251 2.275 31.8441 2.08 31.6821 1.942C31.5201 1.804 31.2891 1.735 30.9891 1.735H29.8371V3.31ZM31.1061 5.974C31.4121 5.974 31.6491 5.902 31.8171 5.758C31.9911 5.614 32.0781 5.41 32.0781 5.146C32.0781 4.876 31.9881 4.666 31.8081 4.516C31.6281 4.36 31.3851 4.282 31.0791 4.282H29.8371V5.974H31.1061ZM37.8003 7L36.4143 4.552H35.8203V7H34.5603V0.718H36.9183C37.4043 0.718 37.8183 0.805 38.1603 0.979C38.5023 1.147 38.7573 1.378 38.9253 1.672C39.0993 1.96 39.1863 2.284 39.1863 2.644C39.1863 3.058 39.0663 3.433 38.8263 3.769C38.5863 4.099 38.2293 4.327 37.7553 4.453L39.2583 7H37.8003ZM35.8203 3.607H36.8733C37.2153 3.607 37.4703 3.526 37.6383 3.364C37.8063 3.196 37.8903 2.965 37.8903 2.671C37.8903 2.383 37.8063 2.161 37.6383 2.005C37.4703 1.843 37.2153 1.762 36.8733 1.762H35.8203V3.607ZM41.7859 0.718V7H40.5259V0.718H41.7859Z" fill="#1F4396"/>
</svg>
