<svg width="61" height="19" viewBox="0 0 61 19" fill="none" xmlns="http://www.w3.org/2000/svg">
<g clip-path="url(#clip0_238_1142)">
<path fill-rule="evenodd" clip-rule="evenodd" d="M10.5638 0.649963C10.5439 0.649963 10.5243 0.649963 10.5047 0.649963C7.8699 0.649963 5.33373 1.24238 2.87658 2.43723C1.87988 4.73089 1.3175 7.06281 1.2878 9.44276C1.24829 11.8032 1.75155 14.2211 2.86677 16.6871C5.43237 17.7669 7.99797 18.3213 10.5638 18.3501C13.1294 18.3213 15.6953 17.7669 18.2609 16.6871C19.3761 14.2211 19.8794 11.8032 19.8399 9.44276C19.8102 7.06281 19.2478 4.73089 18.2511 2.43723C15.7939 1.24238 13.2578 0.649963 10.623 0.649963C10.6033 0.649963 10.5837 0.649963 10.5638 0.649963Z" fill="#FEFEFE"/>
<path d="M2.46215 1.91156C5.04764 0.630677 7.73176 0 10.5047 0C10.5243 0 10.5439 0 10.5638 0C10.5837 0 10.6033 0 10.623 0C13.3959 0 16.08 0.630677 18.6655 1.91156L18.8236 2.07384C19.8794 4.48229 20.4813 6.9385 20.511 9.43297C20.511 9.48074 20.511 9.519 20.511 9.56676V9.73881C20.5012 12.1378 19.9682 14.5845 18.8236 17.0694L18.6459 17.2317C15.952 18.3883 13.2578 18.9712 10.5638 19C7.8699 18.9712 5.1757 18.3883 2.48177 17.2317L2.30412 17.0694C1.15946 14.5845 0.626508 12.1378 0.616699 9.73881V9.56676C0.616699 9.519 0.616699 9.48074 0.616699 9.43297C0.646399 6.9385 1.24829 4.48229 2.30412 2.07384L2.46215 1.91156ZM10.5638 0.64994C10.5439 0.64994 10.5243 0.64994 10.5047 0.64994C7.8699 0.64994 5.33373 1.24235 2.87658 2.43721C1.87988 4.73087 1.3175 7.06279 1.2878 9.44274C1.24829 11.8032 1.75155 14.2211 2.86677 16.6871C5.43237 17.7669 7.99797 18.3213 10.5638 18.3501C13.1294 18.3213 15.6953 17.7669 18.2609 16.6871C19.3761 14.2211 19.8794 11.8032 19.8399 9.44274C19.8102 7.06279 19.2478 4.73087 18.2511 2.43721C15.7939 1.24235 13.2578 0.64994 10.623 0.64994C10.6033 0.64994 10.5837 0.64994 10.5638 0.64994Z" fill="#003399"/>
<path fill-rule="evenodd" clip-rule="evenodd" d="M10.7415 14.8043C10.6034 12.9788 10.6922 11.077 10.1295 9.33747C9.60666 7.71275 7.62306 6.78574 7.58355 4.99847C7.54404 3.60306 8.63965 1.98784 10.6922 1.98784C12.6164 1.97834 13.8104 3.33549 13.9485 4.84568C14.1163 6.59469 11.9257 7.77002 11.3532 9.433C10.7611 11.1342 10.929 13.017 10.7415 14.8043Z" fill="#003399"/>
<path fill-rule="evenodd" clip-rule="evenodd" d="M11.5011 14.3647C11.4221 12.7782 11.4221 11.2585 11.876 9.91089C12.3793 8.38169 13.4253 7.09158 15.0239 6.67095C16.1192 6.38437 17.7279 7.62673 17.4712 8.89784C17.2541 9.92039 16.1982 11.1247 14.501 11.2585C13.7114 11.3256 13.376 11.937 12.8825 12.2908C15.0931 12.0805 16.5239 11.2393 17.5206 10.36C17.6685 11.1055 17.7671 12.3576 17.1652 12.7877C15.9811 13.6 14.8857 12.9405 13.4942 13.3229C12.7147 13.5427 12.2313 14.0206 11.5011 14.3647Z" fill="#003399"/>
<path fill-rule="evenodd" clip-rule="evenodd" d="M9.99151 14.3647C10.0803 12.7782 10.0705 11.2585 9.6264 9.91089C9.12314 8.38169 8.07712 7.09158 6.47853 6.67095C5.38319 6.38437 3.76471 7.62673 4.03118 8.89784C4.24834 9.92039 5.30417 11.1247 7.00167 11.2585C7.78122 11.3256 8.12644 11.937 8.61988 12.2908C6.39951 12.0805 4.97857 11.2393 3.98187 10.36C3.83391 11.1055 3.73528 12.3576 4.33717 12.7877C5.52133 13.6 6.61667 12.9405 8.00818 13.3229C8.78773 13.5427 9.26128 14.0206 9.99151 14.3647Z" fill="#003399"/>
<path fill-rule="evenodd" clip-rule="evenodd" d="M15.2509 16.7253V16.4672L15.4481 16.4195L15.2509 16.1326V15.6548L16.1391 16.8496L15.8233 16.9259L15.6062 16.6295L15.2509 16.7253ZM15.2509 15.6548V16.1326L15.1127 15.9416L15.0536 16.515L15.2509 16.4672V16.7253L15.0239 16.7731L14.9844 17.1267L14.6686 17.2032L14.8759 15.6453L15.1917 15.5687L15.2509 15.6548ZM12.3101 17.5568V17.3082H12.3793C12.4877 17.2987 12.5569 17.2892 12.5864 17.2795C12.6259 17.27 12.6654 17.2412 12.6853 17.2127C12.7147 17.1744 12.7248 17.1362 12.7248 17.0884C12.7147 17.0407 12.7049 17.0024 12.6752 16.9736C12.6556 16.9451 12.6161 16.9259 12.5766 16.9164C12.5371 16.9069 12.4482 16.9069 12.3101 16.9164V16.6678C12.3891 16.6678 12.4384 16.6583 12.4583 16.6583C12.5076 16.6488 12.5471 16.62 12.5766 16.5915C12.6063 16.5628 12.6161 16.5245 12.6063 16.4767C12.6063 16.429 12.5864 16.3907 12.5569 16.3717C12.5371 16.343 12.4975 16.324 12.4384 16.324C12.4188 16.324 12.3793 16.324 12.3101 16.3335V16.0849C12.4188 16.0754 12.4975 16.0754 12.5471 16.0849C12.6063 16.0849 12.6654 16.1041 12.7147 16.1326C12.764 16.1519 12.8035 16.1899 12.843 16.2379C12.8727 16.2857 12.8924 16.343 12.9022 16.4097C12.9122 16.4767 12.8924 16.5438 12.8627 16.601C12.8332 16.6583 12.7839 16.7061 12.7147 16.7443C12.8133 16.7636 12.8924 16.8016 12.9417 16.8591C13.0011 16.9164 13.0305 16.9834 13.0403 17.0694C13.0403 17.1362 13.0305 17.2032 13.0109 17.27C12.9812 17.337 12.9417 17.3848 12.8924 17.4325C12.8332 17.4708 12.7741 17.4993 12.6951 17.5185C12.6458 17.528 12.5174 17.5375 12.33 17.5568H12.3101ZM14.1752 16.7538L14.4811 16.7921C14.4615 16.9546 14.4122 17.0884 14.3234 17.1839C14.2346 17.27 14.1062 17.337 13.9482 17.3655C13.7509 17.3943 13.5733 17.356 13.4253 17.251C13.2673 17.1362 13.1784 16.9736 13.1291 16.7443C13.0899 16.5055 13.1193 16.3047 13.228 16.1519C13.3267 15.9989 13.4844 15.9033 13.6918 15.8651C13.8792 15.8363 14.0272 15.8651 14.1653 15.9511C14.2444 15.9989 14.3133 16.0754 14.3626 16.1899L14.0765 16.3047C14.0471 16.2379 13.9975 16.1804 13.9384 16.1519C13.8694 16.1136 13.8002 16.1041 13.7212 16.1136C13.6128 16.1326 13.5338 16.1899 13.4746 16.2762C13.4155 16.3717 13.4054 16.496 13.4351 16.6678C13.4746 16.8496 13.5338 16.9736 13.6128 17.0407C13.6918 17.1077 13.7904 17.1362 13.8989 17.1172C13.9779 17.0979 14.037 17.0597 14.0863 17.0024C14.1359 16.9451 14.1653 16.8591 14.1752 16.7538ZM12.3101 16.0849V16.3335C12.2708 16.3335 12.2313 16.343 12.182 16.343L12.0044 16.3622L12.0338 16.6966L12.2411 16.6776C12.2608 16.6776 12.2905 16.6776 12.3101 16.6678V16.9164C12.3101 16.9164 12.3101 16.9164 12.3003 16.9164L12.0635 16.9356L12.0932 17.3272L12.3101 17.3082V17.5568L11.8166 17.6046L11.6785 16.1421L12.2807 16.0944C12.2905 16.0849 12.3003 16.0849 12.3101 16.0849ZM10.4055 17.0502V16.8016C10.4747 16.8016 10.5142 16.7921 10.5436 16.7826C10.5832 16.7731 10.6129 16.7443 10.6426 16.7158C10.6622 16.6776 10.672 16.6393 10.672 16.601C10.6821 16.5438 10.6622 16.5055 10.6325 16.4672C10.603 16.429 10.5635 16.4097 10.5142 16.4002C10.4845 16.4002 10.4548 16.3907 10.4055 16.3907V16.1421C10.5537 16.1421 10.6426 16.1519 10.6919 16.1709C10.7807 16.1899 10.8496 16.2379 10.9088 16.3142C10.9682 16.3907 10.9976 16.4862 10.9878 16.601C10.9878 16.6871 10.9682 16.7636 10.9385 16.8303C10.8989 16.8879 10.8594 16.9356 10.8101 16.9736C10.751 17.0024 10.7017 17.0214 10.6426 17.0407C10.5832 17.0502 10.5044 17.0502 10.4055 17.0502ZM10.4055 16.1421V16.3907C10.3761 16.3907 10.3366 16.3907 10.2873 16.3907L10.1393 16.3812V16.8016H10.2971C10.3366 16.8016 10.3761 16.8016 10.4055 16.8016V17.0502C10.3859 17.0502 10.3562 17.0502 10.3268 17.0502H10.1292L10.1194 17.6046L9.81342 17.5948L9.84312 16.1326L10.3268 16.1421C10.3562 16.1421 10.3859 16.1421 10.4055 16.1421ZM7.55381 16.9069V16.4577C7.64264 16.4767 7.70177 16.4767 7.73147 16.4767C7.77097 16.4672 7.8004 16.4577 7.8301 16.429C7.84972 16.4002 7.86961 16.3717 7.87942 16.324C7.88923 16.2762 7.87942 16.2379 7.85953 16.1997C7.83991 16.1614 7.8004 16.1421 7.75108 16.1231C7.73147 16.1136 7.66226 16.1041 7.55381 16.0849V15.8363L7.68215 15.8556C7.83991 15.8843 7.94835 15.9128 8.01756 15.9511C8.0865 15.9894 8.13609 16.0466 8.16551 16.1231C8.19521 16.1899 8.20502 16.2762 8.1854 16.3622C8.16551 16.4672 8.1162 16.5533 8.03718 16.6105C7.96824 16.6678 7.85953 16.6966 7.72138 16.6966C7.78078 16.7443 7.8301 16.7921 7.85953 16.8398C7.89903 16.8974 7.93854 16.9834 7.98786 17.1077L8.1162 17.423L7.76089 17.356L7.60313 17.0024C7.58324 16.9736 7.57343 16.9356 7.55381 16.9069ZM8.42218 15.9989L8.71809 16.0276L8.64915 16.8208C8.63934 16.9451 8.63934 17.0312 8.63934 17.0597C8.64915 17.1267 8.67858 17.1744 8.71809 17.2127C8.7674 17.2605 8.8268 17.2795 8.91563 17.2892C9.00445 17.2987 9.07339 17.2795 9.1129 17.251C9.16221 17.2222 9.19191 17.1839 9.21153 17.1362C9.22134 17.0884 9.23142 17.0024 9.24123 16.8879L9.31017 16.0754L9.61615 16.1041L9.54722 16.8686C9.53714 17.0502 9.51752 17.1744 9.48782 17.2412C9.4682 17.3082 9.42869 17.375 9.38918 17.4133C9.33987 17.4613 9.27093 17.4993 9.19191 17.5185C9.12271 17.5473 9.02407 17.5473 8.90555 17.5375C8.75759 17.528 8.64915 17.4993 8.57994 17.4613C8.51101 17.423 8.45161 17.375 8.41237 17.3272C8.37286 17.27 8.35297 17.2127 8.34316 17.1554C8.33335 17.0694 8.33335 16.9451 8.34316 16.7826L8.42218 15.9989ZM6.02416 16.429L6.08328 16.1899L6.72495 16.3525L6.56692 16.9164C6.4879 16.9641 6.38927 16.9929 6.25113 17.0024C6.12279 17.0119 6.00454 17.0024 5.88601 16.9736C5.72825 16.9356 5.59992 16.8686 5.51109 16.7826C5.41246 16.6871 5.35306 16.5723 5.32363 16.448C5.30374 16.3142 5.30374 16.1804 5.34325 16.0466C5.38276 15.9033 5.45169 15.779 5.5506 15.674C5.63943 15.5782 5.75768 15.521 5.89582 15.4925C6.00454 15.4637 6.1326 15.4732 6.27102 15.5115C6.4484 15.5592 6.58654 15.6263 6.66556 15.7313C6.74457 15.8268 6.78408 15.9511 6.77427 16.0849L6.46829 16.0659C6.46829 15.9894 6.4484 15.9223 6.39908 15.8651C6.34976 15.8173 6.29063 15.7695 6.20181 15.7505C6.07347 15.7218 5.96503 15.7313 5.8664 15.7885C5.76749 15.8461 5.69855 15.9606 5.64924 16.1136C5.59992 16.2857 5.60973 16.4195 5.65904 16.5245C5.71817 16.6295 5.807 16.6966 5.92552 16.7253C5.99446 16.7443 6.05386 16.7443 6.12279 16.7443C6.192 16.7348 6.25113 16.7158 6.31025 16.6966L6.35957 16.515L6.02416 16.429ZM7.55381 15.8363L7.04048 15.7505L6.78408 17.1934L7.07999 17.2412L7.1887 16.6393L7.25764 16.6488C7.32684 16.6583 7.37616 16.6776 7.40559 16.6871C7.43529 16.7061 7.45491 16.7348 7.48461 16.7636C7.49441 16.7921 7.52411 16.8398 7.55381 16.9069V16.4577C7.52411 16.4577 7.49441 16.448 7.45491 16.448L7.23802 16.4097L7.29715 16.0466L7.53392 16.0849C7.54373 16.0849 7.55381 16.0849 7.55381 16.0849V15.8363Z" fill="#003399"/>
<path fill-rule="evenodd" clip-rule="evenodd" d="M54.5852 14.0493V11.354H55.8089V6.61366L54.5852 8.98385V3.06789H59.3911L60.6147 16.6966H55.8089V14.0493H54.5852ZM54.5852 3.06789V8.98385L53.3615 11.354H54.5852V14.0493H52.2763L51.3289 16.5533H48.3486V13.4376L51.6741 6.48937H50.9932L52.888 3.06789H54.5852ZM48.3486 7.6077L49.8388 4.18595L48.3486 3.38323V7.6077ZM36.4969 6.29832C36.5661 5.90646 36.5661 5.5241 36.4969 5.161V6.29832ZM48.3486 3.38323V7.6077L48.1513 8.06633C45.2105 6.03075 40.8687 7.88478 40.6218 10.0351C40.3753 12.281 42.1417 14.0971 46.6514 12.7399L45.1021 16.7538C39.1516 17.3943 36.8424 15.1101 36.4969 12.4436V10.9337C36.5857 10.236 36.7735 9.55726 37.0299 8.92658C39.9608 1.8733 44.7171 3.45975 46.523 3.32596L46.7895 2.54224L48.3486 3.38323ZM48.3486 13.4376L46.8585 16.5533H48.3486V13.4376ZM31.1485 16.4673C34.3359 15.8556 37.4642 12.1473 34.3261 9.19416C35.5498 8.56322 36.3094 7.42615 36.4969 6.29832V5.161C36.28 3.9854 35.3424 3.02963 33.576 3.00086L31.1485 2.9531V5.57186H32.1551C33.2308 5.57186 33.0926 8.26714 31.7504 8.26714H31.1485V10.3315C32.5992 10.5991 32.0859 12.5486 31.1485 13.1508V16.4673ZM36.4969 10.9337V12.4436C36.4378 11.9467 36.4378 11.4401 36.4969 10.9337ZM26.9446 2.86707L24.9809 6.5564L25.859 6.48937L23.4907 16.5533H30.2701C30.5663 16.5533 30.8524 16.5245 31.1485 16.4673V13.1508C30.9807 13.2656 30.7932 13.3323 30.6058 13.3323H28.1682L28.9775 10.3027H30.8031C30.9314 10.3027 31.0499 10.3122 31.1485 10.3315V8.26714H29.451L30.132 5.57186H31.1485V2.9531L26.9446 2.86707Z" fill="#003399"/>
</g>
<defs>
<clipPath id="clip0_238_1142">
<rect width="60" height="19" fill="white" transform="translate(0.615723)"/>
</clipPath>
</defs>
</svg>
