<svg width="320" height="311" viewBox="0 0 320 311" fill="none" xmlns="http://www.w3.org/2000/svg">
<path d="M73.4871 90.6565L5.59033 129.666V51.3201L73.4871 12.3174V90.6565Z" fill="white"/>
<path d="M4.25586 130.431L5.58292 131.223L74.8138 91.4489L73.4867 90.6565L4.25586 130.431Z" fill="#FAFAFA"/>
<path d="M77.3289 7.20837L3.07617 49.8743V135.554L77.3289 92.8879V7.20837ZM74.8144 91.449L5.59061 131.223V51.3202L74.8144 11.5389V91.449Z" fill="#F0F0F0"/>
<path d="M74.8134 91.449L73.4863 90.6565V12.3174L74.8134 11.5389V91.449Z" fill="#E0E0E0"/>
<path d="M77.3289 7.20835L75.9739 6.44373L1.72119 49.1027L3.07619 49.8743L77.3289 7.20835Z" fill="#FAFAFA"/>
<path d="M1.72119 49.1028L3.07619 49.8743V135.554L1.72119 134.782V49.1028Z" fill="#E0E0E0"/>
<path d="M6.69385 88.4808V90.0379L74.8141 50.8405L73.4871 50.0481L6.69385 88.4808Z" fill="#FAFAFA"/>
<path d="M38.0615 32.6703L39.4095 31.8918V111.802L38.0615 111.03V32.6703Z" fill="#E0E0E0"/>
<path d="M41.9231 30.4529L39.4087 31.8918V111.802L41.9231 110.356V30.4529Z" fill="#F0F0F0"/>
<path d="M74.8143 50.8405V53.7252L5.5625 93.6664V90.7816L74.8143 50.8405Z" fill="#F0F0F0"/>
<path d="M39.4092 71.2629L38.0611 70.4357L5.58301 89.1134V90.7817L39.4092 71.2629Z" fill="#FAFAFA"/>
<path d="M87.6929 36.7297L88.8174 37.397L111.852 24.1621L110.728 23.4948L87.6929 36.7297Z" fill="#FAFAFA"/>
<path d="M110.727 23.4948L88.8169 36.0833V17.5377L110.727 4.95621V23.4948Z" fill="white"/>
<path d="M113.969 0.646515L86.729 16.3213V41.0464L113.969 25.3786V0.646515ZM111.873 24.1621L88.8244 37.3693V17.5377L111.873 4.33061V24.1621Z" fill="#F0F0F0"/>
<path d="M111.853 24.1621L110.729 23.4948V4.95614L111.853 4.30273V24.1621Z" fill="#E0E0E0"/>
<path d="M113.97 0.646454L112.831 0L85.5566 15.6678L86.6951 16.3212L113.97 0.646454Z" fill="#FAFAFA"/>
<path d="M85.5566 15.6678L86.6951 16.3213V41.0464L85.5566 40.3999V15.6678Z" fill="#E0E0E0"/>
<path d="M109.876 22.8066L89.6694 34.422V32.9066L94.7193 21.2983L97.8693 24.2038L97.4293 26.8939L103.715 14.222L109.876 21.2983V22.8066Z" fill="#F0F0F0"/>
<path d="M97.6822 15.6956C97.2465 15.9762 96.8839 16.3556 96.6241 16.8027C96.3643 17.2498 96.2146 17.7518 96.1875 18.2675C96.1875 19.2198 96.851 19.6021 97.6822 19.1295C98.1176 18.8469 98.4799 18.4662 98.7396 18.0181C98.9994 17.5699 99.1492 17.0672 99.1769 16.5506C99.1769 15.6053 98.5064 15.2229 97.6822 15.6956Z" fill="#F0F0F0"/>
<path d="M87.854 75.2181L88.9785 75.8854L112.021 62.6505L110.896 61.9832L87.854 75.2181Z" fill="#FAFAFA"/>
<path d="M110.896 61.9832L88.9785 74.5717V56.0261L110.896 43.4445V61.9832Z" fill="white"/>
<path d="M114.137 39.1349L86.897 54.8097V79.5348L114.137 63.867V39.1349ZM112.041 62.6505L88.9923 75.8577V56.0261L112.041 42.819V62.6505Z" fill="#F0F0F0"/>
<path d="M112.02 62.6505L110.896 61.9831V43.4445L112.02 42.7911V62.6505Z" fill="#E0E0E0"/>
<path d="M114.138 39.1349L112.999 38.4884L85.7246 54.1632L86.8631 54.8096L114.138 39.1349Z" fill="#FAFAFA"/>
<path d="M85.7246 54.1631L86.8631 54.8096V79.5347L85.7246 78.8883V54.1631Z" fill="#E0E0E0"/>
<path d="M110.037 61.3019L89.8374 72.9103V71.395L94.8872 59.7866L98.0303 62.6922L97.5972 65.3822L103.876 52.7104L110.037 59.7866V61.3019Z" fill="#F0F0F0"/>
<path d="M97.8423 54.184C97.4069 54.4665 97.0446 54.8473 96.7849 55.2954C96.5252 55.7435 96.3754 56.2463 96.3477 56.7628C96.3477 57.7082 97.0461 58.0905 97.8423 57.6178C98.2769 57.336 98.6386 56.9563 98.8982 56.5095C99.1579 56.0627 99.3082 55.5613 99.337 55.0459C99.337 54.0936 98.6665 53.7113 97.8423 54.184Z" fill="#F0F0F0"/>
<path d="M204.908 88.307L203.358 89.2315L179.198 75.3501L180.749 74.4256L204.908 88.307Z" fill="#FAFAFA"/>
<path d="M180.749 74.4256L203.358 87.4103V29.146L180.749 16.1683V74.4256Z" fill="white"/>
<path d="M176.271 77.0322L206.305 94.278V27.4569L176.271 10.2112V77.0322ZM179.177 15.2646L203.337 29.1669V89.2523L179.177 75.3501V15.2646Z" fill="#F0F0F0"/>
<path d="M179.198 75.35L180.749 74.4255V16.1682L179.198 15.2646V75.35Z" fill="#E0E0E0"/>
<path d="M176.265 10.2112L177.843 9.31448L207.863 26.5602L206.284 27.4569L176.265 10.2112Z" fill="#FAFAFA"/>
<path d="M207.863 26.5602L206.284 27.4569V94.2849L207.863 93.3813V26.5602Z" fill="#E0E0E0"/>
<path d="M183.025 72.6253L201.094 83.0033V31.8778L183.025 21.4928V72.6253Z" fill="#F0F0F0"/>
<path d="M183.025 72.6253L201.094 83.0033V31.8778L183.025 21.4928V72.6253Z" fill="#F0F0F0"/>
<path d="M201.094 65.3127C200.256 65.6026 199.39 65.8053 198.51 65.9174C195.569 66.3362 192.573 66.1445 189.71 65.3544C187.523 64.7427 185.337 63.7973 183.025 64.27V72.6113L185.47 74.0016C186.331 72.6201 187.476 71.4356 188.83 70.526C192.322 68.3781 195.877 69.9908 199.453 69.6919C200.007 69.6404 200.556 69.5451 201.094 69.4069V65.3127Z" fill="#FAFAFA"/>
<path d="M201.094 56.8114C197.05 56.1163 192.901 55.7062 190.017 52.2029C187.691 49.3807 186.601 44.9459 185.826 40.5319C185.051 36.118 184.534 31.4955 183.067 27.5959C183.067 27.5542 183.032 27.5194 183.018 27.4777V54.1283C183.242 54.5523 183.472 54.9763 183.717 55.3795C186.371 59.8352 190.282 63.1439 194.752 62.3793C196.847 62.0178 199.013 60.7944 201.094 60.294V56.8114Z" fill="#FAFAFA"/>
<path d="M201.094 45.9747C197.993 42.8536 196.331 37.0286 197.092 31.0436C197.148 30.5988 197.218 30.1539 197.295 29.716L190.352 25.6982C190.352 26.3447 190.401 26.9842 190.415 27.6307C190.485 31.3773 190.415 35.2143 190.981 38.7524C191.972 44.6748 194.948 49.4016 198.901 51.3409C199.602 51.6799 200.341 51.9366 201.101 52.1055L201.094 45.9747Z" fill="#FAFAFA"/>
<path d="M235.103 234.065L306.366 274.965V194.284L235.103 234.065Z" fill="#E0E0E0"/>
<g opacity="0.15">
<path opacity="0.15" d="M235.103 234.065L306.366 274.965V194.284L235.103 234.065Z" fill="black"/>
</g>
<path d="M238.476 30.9394V232.181L309.718 273.075V71.8328L238.476 30.9394ZM268.579 137.25L247.088 124.884V44.2091L268.579 56.5751V137.25ZM299.8 155.177L278.232 142.825V62.143L299.8 74.4743V155.177Z" fill="#455A64"/>
<path d="M278.232 142.852L275.906 144.194L299.8 157.888V155.177L278.232 142.852Z" fill="#263238"/>
<path d="M247.087 124.919L244.754 126.26L268.579 139.961L270.905 138.619L247.087 124.919Z" fill="#263238"/>
<path d="M247.087 124.919V44.2092L244.748 42.8676L244.755 126.26L247.087 124.919Z" fill="#37474F"/>
<path d="M275.905 144.194L268.579 139.961V56.603L275.905 60.8362V144.194Z" fill="#455A64"/>
<path d="M275.906 144.194L278.232 142.852V62.1431L275.906 60.8362V144.194Z" fill="#37474F"/>
<path opacity="0.1" d="M275.906 155.337L299.8 169.023V254.967L275.906 241.273V155.337Z" fill="black"/>
<path d="M277.546 160.745L296.027 171.324V248.329L277.546 237.749V160.745Z" fill="#455A64"/>
<path d="M299.8 169.023L296.028 171.324V248.329L299.8 254.967V169.023Z" fill="#37474F"/>
<path d="M275.906 155.337L277.548 160.745V237.749L275.906 241.273V155.337Z" fill="#37474F"/>
<path d="M275.906 241.273L277.548 237.749L296.029 248.329L299.8 254.967L275.906 241.273Z" fill="#263238"/>
<path opacity="0.1" d="M244.748 137.396L268.579 151.096L268.572 237.04L244.748 223.339V137.396Z" fill="black"/>
<path d="M246.39 142.804L264.808 153.397V230.402L246.39 219.815V142.804Z" fill="#455A64"/>
<path d="M268.579 151.096L264.808 153.397V230.402L268.572 237.04L268.579 151.096Z" fill="#37474F"/>
<path d="M244.748 137.396L246.389 142.804V219.815L244.748 223.339V137.396Z" fill="#37474F"/>
<path d="M244.748 223.339L246.389 219.815L264.807 230.402L268.572 237.04L244.748 223.339Z" fill="#263238"/>
<path d="M307.56 160.307L306.366 160.995L306.359 180.722L307.56 180.034V160.307Z" fill="#E0E0E0"/>
<path d="M306.366 160.995L299.926 157.297V177.024L306.359 180.722L306.366 160.995Z" fill="#FAFAFA"/>
<path opacity="0.05" d="M299.926 162.753L302.72 164.373V167.578C302.72 167.644 302.702 167.71 302.669 167.768C302.635 167.826 302.587 167.874 302.529 167.908C302.472 167.942 302.406 167.96 302.339 167.96C302.271 167.961 302.205 167.944 302.147 167.911L299.905 166.618L299.926 162.753Z" fill="black"/>
<path d="M299.926 157.297L301.121 156.609L307.56 160.307L306.366 160.995L299.926 157.297Z" fill="#EBEBEB"/>
<path d="M303.893 163.685L300.938 165.381L299.758 163.337L302.712 161.641C302.808 161.6 302.913 161.584 303.017 161.595C303.121 161.606 303.221 161.643 303.306 161.704C303.548 161.862 303.75 162.074 303.894 162.324C304.039 162.574 304.122 162.855 304.137 163.143C304.148 163.247 304.131 163.351 304.088 163.447C304.045 163.542 303.978 163.624 303.893 163.685Z" fill="#E0E0E0"/>
<path opacity="0.1" d="M302.74 164.345L301.671 164.964V163.56L300.526 162.899L301.602 162.281L302.74 162.941V164.345Z" fill="black"/>
<path d="M301.316 163.775L301.309 166.862L289.505 160.077V156.998L301.316 163.775Z" fill="#FAFAFA"/>
<path d="M301.315 163.775L302.384 163.164V166.243L301.308 166.862L301.315 163.775Z" fill="#E0E0E0"/>
<path d="M289.505 156.998L290.581 156.379L302.384 163.164L301.316 163.775L289.505 156.998Z" fill="#EBEBEB"/>
<path d="M304.2 172.374C304.179 172 304.071 171.635 303.883 171.31C303.695 170.986 303.433 170.709 303.117 170.504C302.517 170.156 302.028 170.434 302.028 171.123C302.06 171.691 302.292 172.23 302.684 172.645V174.661C302.692 174.787 302.729 174.909 302.793 175.018C302.858 175.127 302.947 175.219 303.055 175.286L303.18 175.363C303.383 175.481 303.543 175.363 303.543 175.154V173.138C303.956 173.18 304.2 172.881 304.2 172.374Z" fill="#455A64"/>
<path d="M247.086 44.2091L268.578 56.603V137.278L247.086 124.919V44.2091Z" fill="#2C96CA"/>
<path opacity="0.4" d="M247.086 44.2091L268.578 56.603V137.278L247.086 124.919V44.2091Z" fill="white"/>
<path d="M278.231 62.143L299.8 74.4952V155.177L278.231 142.859V62.143Z" fill="#2C96CA"/>
<path opacity="0.4" d="M278.231 62.143L299.8 74.4952V155.177L278.231 142.859V62.143Z" fill="white"/>
<path opacity="0.2" d="M262.802 53.2734L247.086 68.9134V73.0215L265.414 54.7818L262.802 53.2734ZM253.317 47.8029L247.086 54.0033V62.4767L258.709 50.91L253.317 47.8029ZM261.698 133.302L268.578 126.469V122.361L259.079 131.814L261.698 133.302ZM278.237 62.1222V62.3376L278.377 62.2056L278.237 62.1222ZM255.636 129.812L268.578 116.953V112.844L253.016 128.332L255.636 129.812ZM284.056 65.4517L278.237 71.242V75.3571L286.675 66.9532L284.056 65.4517ZM293.834 71.0126L278.272 86.4997V94.9732L299.226 74.1198L293.834 71.0126ZM247.128 93.3188L268.578 71.9719V61.2672L247.086 82.6558L247.128 93.3188ZM278.272 140.718L299.841 119.253V108.583L278.231 130.083L278.272 140.718ZM284.384 146.279L299.841 130.897V126.788L281.758 144.778L284.384 146.279ZM278.231 116.876L299.799 95.3972V91.2891L278.231 112.754V116.876ZM247.086 124.932L247.785 125.336L268.578 104.621V96.1479L247.086 117.571V124.932ZM294.358 152.084L299.799 146.669V138.181L288.952 148.976L294.358 152.084ZM247.086 106.387L268.578 84.9844V80.8763L247.086 102.279V106.387ZM278.231 103.252V107.36L299.799 85.895V81.773L278.231 103.252Z" fill="white"/>
<path d="M313.126 271.121L309.732 273.075V71.8329L313.126 69.8866V271.121Z" fill="#263238"/>
<path d="M241.864 28.9861L313.127 69.8865L309.732 71.8328L238.476 30.9394L241.864 28.9861Z" fill="#37474F"/>
<path d="M238.477 232.181L235.103 234.065V29.0001L238.47 30.9325L238.477 232.181Z" fill="#E0E0E0"/>
<path d="M235.103 234.065L224.793 228.136V11.226L316.689 63.9711V280.867L306.366 274.965V69.9004L235.11 29L235.103 234.065Z" fill="#F5F5F5"/>
<path d="M225.492 12.4286L315.991 64.3743V279.671L307.064 274.562V69.5042L306.715 69.3026L235.473 28.4022L234.425 27.8044V232.862L225.513 227.739V12.4286H225.492ZM224.814 11.226V228.143L235.124 234.065V29.007L306.366 69.9074V274.965L316.689 280.867V63.992L224.793 11.2191L224.814 11.226Z" fill="#E0E0E0"/>
<path d="M224.793 11.226L316.689 63.9711L320 62.0596L228.104 9.31448L224.793 11.226Z" fill="#FAFAFA"/>
<path d="M316.689 280.867V63.9712L320 62.0596V278.969L316.689 280.867Z" fill="#E0E0E0"/>
<path d="M193.362 227.399C188.348 222.248 185.4 209.291 190.289 205.204H215.189C220.078 209.291 217.138 222.234 212.123 227.392L211.99 227.531L211.816 227.705C211.676 227.844 211.522 227.976 211.362 228.108L211.243 228.205C211.117 228.303 210.998 228.4 210.866 228.49C210.657 228.641 210.44 228.781 210.216 228.907C206.088 231.305 199.397 231.305 195.269 228.907C195.042 228.782 194.822 228.643 194.613 228.49L194.263 228.219L194.117 228.101C193.956 227.976 193.816 227.844 193.677 227.712L193.481 227.517L193.362 227.399Z" fill="#EBEBEB"/>
<path d="M213.031 203.591C218.71 206.886 218.71 212.239 213.031 215.54C207.353 218.842 198.133 218.842 192.455 215.54C186.776 212.239 186.776 206.886 192.455 203.591C198.133 200.296 207.346 200.29 213.031 203.591Z" fill="#FAFAFA"/>
<path d="M210.293 205.155C214.483 207.581 214.483 211.509 210.293 213.935C206.102 216.361 199.362 216.361 195.185 213.935C191.008 211.509 190.994 207.581 195.185 205.155C199.376 202.729 206.123 202.75 210.293 205.155Z" fill="#E0E0E0"/>
<path d="M195.185 209.326C199.376 206.907 206.123 206.907 210.292 209.326C211.305 209.878 212.164 210.671 212.793 211.634C212.164 212.597 211.305 213.39 210.292 213.942C206.102 216.367 199.362 216.367 195.185 213.942C194.173 213.392 193.316 212.598 192.691 211.634C193.316 210.669 194.173 209.876 195.185 209.326Z" fill="#EBEBEB"/>
<path d="M201.067 176.294C199.161 178.38 193.859 178.922 191.659 173.361C189.599 168.148 187.378 163.205 186.77 161.287C186.681 161.037 186.643 160.772 186.659 160.507C186.675 160.242 186.744 159.983 186.863 159.746C186.981 159.509 187.147 159.297 187.349 159.125C187.552 158.953 187.787 158.823 188.041 158.743C188.041 158.743 188.195 155.879 193.07 157.818C197.945 159.758 201.389 162.684 203.547 167.473C205.705 172.263 204.322 175.655 201.067 176.294Z" fill="#E0E0E0"/>
<path opacity="0.45" d="M201.067 176.294C199.161 178.38 193.859 178.922 191.659 173.361C189.599 168.148 187.378 163.205 186.77 161.287C186.681 161.037 186.643 160.772 186.659 160.507C186.675 160.242 186.744 159.983 186.863 159.746C186.981 159.509 187.147 159.297 187.349 159.125C187.552 158.953 187.787 158.823 188.041 158.743C188.041 158.743 188.195 155.879 193.07 157.818C197.945 159.758 201.389 162.684 203.547 167.473C205.705 172.263 204.322 175.655 201.067 176.294Z" fill="white"/>
<path d="M203.176 183.649C203.093 182.675 202.953 181.707 202.757 180.75C202.354 178.848 201.812 176.978 201.137 175.154C199.766 171.44 197.863 167.942 195.487 164.769C194.167 162.962 192.68 161.282 191.044 159.751C190.995 159.709 190.954 159.82 190.988 159.855C196.458 165.531 200.256 172.593 201.968 180.27C202.213 181.327 202.436 182.39 202.632 183.454C202.827 184.517 202.946 185.63 203.128 186.714C203.128 186.825 203.316 186.888 203.323 186.714C203.353 185.69 203.304 184.665 203.176 183.649Z" fill="#E0E0E0"/>
<path opacity="0.1" d="M203.176 183.649C203.093 182.675 202.953 181.707 202.757 180.75C202.354 178.848 201.812 176.978 201.137 175.154C199.766 171.44 197.863 167.942 195.487 164.769C194.167 162.962 192.68 161.282 191.044 159.751C190.995 159.709 190.954 159.82 190.988 159.855C196.458 165.531 200.256 172.593 201.968 180.27C202.213 181.327 202.436 182.39 202.632 183.454C202.827 184.517 202.946 185.63 203.128 186.714C203.128 186.825 203.316 186.888 203.323 186.714C203.353 185.69 203.304 184.665 203.176 183.649Z" fill="black"/>
<path d="M204.811 174.855C200.424 176.204 197.17 172.77 198.301 167.466C199.433 162.163 205.062 156.199 207.186 157.79C208.52 156.47 211.446 156.942 212.822 161.266C214.198 165.59 212.948 176.746 204.811 174.855Z" fill="#E0E0E0"/>
<path opacity="0.25" d="M204.811 174.855C200.424 176.204 197.17 172.77 198.301 167.466C199.433 162.163 205.062 156.199 207.186 157.79C208.52 156.47 211.446 156.942 212.822 161.266C214.198 165.59 212.948 176.746 204.811 174.855Z" fill="white"/>
<path d="M207.381 161.037C206.135 164.145 205.161 167.354 204.468 170.629C203.72 173.944 203.156 177.297 202.778 180.673C202.069 187.208 201.776 193.781 201.898 200.352C201.898 202.166 201.933 203.981 201.968 205.795C202.003 207.609 201.968 209.555 202.136 211.418C202.199 212.113 203.218 211.94 203.232 211.286C203.295 208.019 203.113 204.731 203.079 201.464C203.044 198.197 203.079 195 203.141 191.767C203.253 185.183 203.846 178.615 204.916 172.117C205.23 170.302 205.579 168.495 205.998 166.709C206.417 164.922 206.99 162.976 207.486 161.113C207.507 161.037 207.423 160.939 207.381 161.037Z" fill="#E0E0E0"/>
<path opacity="0.1" d="M207.381 161.037C206.135 164.145 205.161 167.354 204.468 170.629C203.72 173.944 203.156 177.297 202.778 180.673C202.069 187.208 201.776 193.781 201.898 200.352C201.898 202.166 201.933 203.981 201.968 205.795C202.003 207.609 201.968 209.555 202.136 211.418C202.199 212.113 203.218 211.94 203.232 211.286C203.295 208.019 203.113 204.731 203.079 201.464C203.044 198.197 203.079 195 203.141 191.767C203.253 185.183 203.846 178.615 204.916 172.117C205.23 170.302 205.579 168.495 205.998 166.709C206.417 164.922 206.99 162.976 207.486 161.113C207.507 161.037 207.423 160.939 207.381 161.037Z" fill="black"/>
<path d="M197.68 190.509C195.766 192.664 191.394 192.476 188.439 188.626C185.485 184.775 183.725 170.302 187.867 171.248C188.747 169.315 200.187 173.959 201.654 183.398C202.723 190.245 197.68 190.509 197.68 190.509Z" fill="#E0E0E0"/>
<path opacity="0.25" d="M197.68 190.509C195.766 192.664 191.394 192.476 188.439 188.626C185.485 184.775 183.725 170.302 187.867 171.248C188.747 169.315 200.187 173.959 201.654 183.398C202.723 190.245 197.68 190.509 197.68 190.509Z" fill="white"/>
<path d="M201.101 197.342C200.972 196.453 200.783 195.572 200.536 194.708C200.058 192.935 199.49 191.188 198.831 189.474C197.475 185.979 195.762 182.631 193.719 179.485C192.62 177.71 191.409 176.005 190.094 174.383C190.059 174.341 190.024 174.438 190.045 174.473C191.065 175.954 192.098 177.42 193.02 178.97C193.942 180.521 194.829 182.244 195.612 183.934C197.132 187.198 198.396 190.574 199.39 194.033C199.67 195.014 199.9 196.008 200.186 196.988C200.473 197.968 200.885 198.997 201.129 200.025C201.164 200.171 201.36 200.227 201.339 200.025C201.248 199.115 201.22 198.204 201.101 197.342Z" fill="#E0E0E0"/>
<path opacity="0.1" d="M201.101 197.342C200.972 196.453 200.783 195.572 200.536 194.708C200.058 192.935 199.49 191.188 198.831 189.474C197.475 185.979 195.762 182.631 193.719 179.485C192.62 177.71 191.409 176.005 190.094 174.383C190.059 174.341 190.024 174.438 190.045 174.473C191.065 175.954 192.098 177.42 193.02 178.97C193.942 180.521 194.829 182.244 195.612 183.934C197.132 187.198 198.396 190.574 199.39 194.033C199.67 195.014 199.9 196.008 200.186 196.988C200.473 197.968 200.885 198.997 201.129 200.025C201.164 200.171 201.36 200.227 201.339 200.025C201.248 199.115 201.22 198.204 201.101 197.342Z" fill="black"/>
<path d="M204.684 188.368C202.177 187.798 202.051 184.809 205.187 181.132C208.323 177.455 216.202 175.856 216.579 177.406C218.332 177.406 218.332 182.87 214.449 187.889C210.565 192.907 204.915 191.74 204.684 188.368Z" fill="#E0E0E0"/>
<path opacity="0.25" d="M204.684 188.368C202.177 187.798 202.051 184.809 205.187 181.132C208.323 177.455 216.202 175.856 216.579 177.406C218.332 177.406 218.332 182.87 214.449 187.889C210.565 192.907 204.915 191.74 204.684 188.368Z" fill="white"/>
<path d="M209.588 183.03C206.277 185.325 203.749 188.572 202.345 192.337C202.261 192.553 202.632 192.866 202.722 192.629C204.143 188.905 206.515 185.614 209.602 183.079C209.602 183.079 209.623 183.002 209.588 183.03Z" fill="#E0E0E0"/>
<path opacity="0.1" d="M209.588 183.03C206.277 185.325 203.749 188.572 202.345 192.337C202.261 192.553 202.632 192.866 202.722 192.629C204.143 188.905 206.515 185.614 209.602 183.079C209.602 183.079 209.623 183.002 209.588 183.03Z" fill="black"/>
<path d="M207.541 206.601C204.049 207.991 205.564 212.106 208.938 215.234C211.862 217.76 215.628 219.109 219.498 219.016C221.824 218.849 222.425 218.529 222.425 218.529C222.633 216.63 222.633 214.714 222.425 212.815C222.052 210.728 221.082 208.791 219.631 207.238C218.181 205.684 216.311 204.58 214.246 204.057C208.84 202.597 207.541 204.551 207.541 206.601Z" fill="#E0E0E0"/>
<path opacity="0.45" d="M207.541 206.601C204.049 207.991 205.564 212.106 208.938 215.234C211.862 217.76 215.628 219.109 219.498 219.016C221.824 218.849 222.425 218.529 222.425 218.529C222.633 216.63 222.633 214.714 222.425 212.815C222.052 210.728 221.082 208.791 219.631 207.238C218.181 205.684 216.311 204.58 214.246 204.057C208.84 202.597 207.541 204.551 207.541 206.601Z" fill="white"/>
<path d="M217.145 212.669C215.593 210.827 213.809 209.192 211.837 207.804C209.86 206.511 207.227 205.406 204.852 206.212C203.937 206.525 202.506 207.435 202.68 208.568C202.68 208.68 202.897 208.958 203.029 208.805C203.396 208.28 203.815 207.793 204.28 207.352C204.826 206.955 205.471 206.715 206.144 206.657C207.848 206.531 209.55 206.914 211.034 207.755C213.38 208.992 215.273 210.918 217.138 212.753C217.138 212.746 217.166 212.69 217.145 212.669Z" fill="#E0E0E0"/>
<path opacity="0.1" d="M217.145 212.669C215.593 210.827 213.809 209.192 211.837 207.804C209.86 206.511 207.227 205.406 204.852 206.212C203.937 206.525 202.506 207.435 202.68 208.568C202.68 208.68 202.897 208.958 203.029 208.805C203.396 208.28 203.815 207.793 204.28 207.352C204.826 206.955 205.471 206.715 206.144 206.657C207.848 206.531 209.55 206.914 211.034 207.755C213.38 208.992 215.273 210.918 217.138 212.753C217.138 212.746 217.166 212.69 217.145 212.669Z" fill="black"/>
<path d="M194.341 188.924C194.669 187.353 192.385 183.593 185.261 182.87C178.137 182.147 172.821 185.15 171.746 186.519C170.67 187.889 170.132 189.335 171.425 189.696C172.717 190.057 177.152 190.481 180.071 191.823C182.991 193.165 188.921 197.106 192.965 195.931C197.009 194.756 196.352 190.488 194.341 188.924Z" fill="#E0E0E0"/>
<path opacity="0.45" d="M194.341 188.924C194.669 187.353 192.385 183.593 185.261 182.87C178.137 182.147 172.821 185.15 171.746 186.519C170.67 187.889 170.132 189.335 171.425 189.696C172.717 190.057 177.152 190.481 180.071 191.823C182.991 193.165 188.921 197.106 192.965 195.931C197.009 194.756 196.352 190.488 194.341 188.924Z" fill="white"/>
<path d="M199.747 194.402C196.743 188.236 189.012 186.387 182.67 186.387C180.591 186.393 178.521 186.659 176.509 187.18C176.509 187.18 176.474 187.256 176.509 187.256C179.914 186.679 183.389 186.644 186.804 187.152C190.185 187.591 193.41 188.827 196.213 190.76C197.572 191.776 198.715 193.052 199.572 194.513C199.691 194.673 199.803 194.534 199.747 194.402Z" fill="#E0E0E0"/>
<path opacity="0.1" d="M199.747 194.402C196.743 188.236 189.012 186.387 182.67 186.387C180.591 186.393 178.521 186.659 176.509 187.18C176.509 187.18 176.474 187.256 176.509 187.256C179.914 186.679 183.389 186.644 186.804 187.152C190.185 187.591 193.41 188.827 196.213 190.76C197.572 191.776 198.715 193.052 199.572 194.513C199.691 194.673 199.803 194.534 199.747 194.402Z" fill="black"/>
<path d="M210.909 180.667C210.818 183.141 214.317 184.58 217.705 182.439C221.092 180.298 224.64 178.213 227.783 177.406C230.926 176.6 232.407 174.049 231.415 172.819C230.423 171.588 228.845 168.474 220.596 169.489C212.347 170.504 209.421 174.209 208.289 176.823C207.158 179.436 209.665 181.382 210.909 180.667Z" fill="#E0E0E0"/>
<path opacity="0.45" d="M210.909 180.667C210.818 183.141 214.317 184.58 217.705 182.439C221.092 180.298 224.64 178.213 227.783 177.406C230.926 176.6 232.407 174.049 231.415 172.819C230.423 171.588 228.845 168.474 220.596 169.489C212.347 170.504 209.421 174.209 208.289 176.823C207.158 179.436 209.665 181.382 210.909 180.667Z" fill="white"/>
<path d="M224.338 172.812C223.145 172.694 221.94 172.82 220.797 173.18C219.756 173.445 218.741 173.806 217.766 174.258C215.824 175.159 214.072 176.421 212.604 177.976C212.188 178.414 211.801 178.879 211.445 179.367C211.081 179.801 210.783 180.286 210.558 180.806C210.502 180.965 210.747 181.23 210.886 181.063C211.298 180.597 211.585 180.02 211.99 179.527C212.4 178.997 212.843 178.493 213.317 178.018C214.271 177.061 215.338 176.223 216.495 175.523C217.599 174.841 218.769 174.27 219.987 173.82C220.686 173.576 221.349 173.375 222.041 173.201C222.769 172.981 223.528 172.878 224.29 172.895C224.352 172.902 224.373 172.812 224.338 172.812Z" fill="#E0E0E0"/>
<path opacity="0.1" d="M224.338 172.812C223.145 172.694 221.94 172.82 220.797 173.18C219.756 173.445 218.741 173.806 217.766 174.258C215.824 175.159 214.072 176.421 212.604 177.976C212.188 178.414 211.801 178.879 211.445 179.367C211.081 179.801 210.783 180.286 210.558 180.806C210.502 180.965 210.747 181.23 210.886 181.063C211.298 180.597 211.585 180.02 211.99 179.527C212.4 178.997 212.843 178.493 213.317 178.018C214.271 177.061 215.338 176.223 216.495 175.523C217.599 174.841 218.769 174.27 219.987 173.82C220.686 173.576 221.349 173.375 222.041 173.201C222.769 172.981 223.528 172.878 224.29 172.895C224.352 172.902 224.373 172.812 224.338 172.812Z" fill="black"/>
<path d="M205.021 194.033C203.862 192.88 200.725 193.151 199.238 196.55C197.75 199.949 200.872 203.675 201.221 204.717C202.653 203.897 203.771 204.384 206.292 203.897C207.699 203.567 208.948 202.764 209.829 201.625C210.711 200.486 211.171 199.079 211.132 197.641C210.93 194.52 209.61 192.463 205.021 194.033Z" fill="#E0E0E0"/>
<path opacity="0.45" d="M205.021 194.033C203.862 192.88 200.725 193.151 199.238 196.55C197.75 199.949 200.872 203.675 201.221 204.717C202.653 203.897 203.771 204.384 206.292 203.897C207.699 203.567 208.948 202.764 209.829 201.625C210.711 200.486 211.171 199.079 211.132 197.641C210.93 194.52 209.61 192.463 205.021 194.033Z" fill="white"/>
<path d="M204.942 193.686C204.311 194.083 203.785 194.624 203.406 195.264C202.999 195.856 202.666 196.496 202.414 197.168C201.874 198.545 201.724 200.043 201.981 201.499C201.981 201.555 202.037 201.499 202.03 201.499C201.906 200.036 202.146 198.566 202.728 197.217C203.007 196.606 203.356 196.03 203.769 195.5C203.983 195.216 204.216 194.946 204.467 194.694C204.712 194.486 204.935 194.253 205.131 193.999C205.25 193.881 205.117 193.596 204.942 193.686Z" fill="#E0E0E0"/>
<path opacity="0.1" d="M204.942 193.686C204.311 194.083 203.785 194.624 203.406 195.264C202.999 195.856 202.666 196.496 202.414 197.168C201.874 198.545 201.724 200.043 201.981 201.499C201.981 201.555 202.037 201.499 202.03 201.499C201.906 200.036 202.146 198.566 202.728 197.217C203.007 196.606 203.356 196.03 203.769 195.5C203.983 195.216 204.216 194.946 204.467 194.694C204.712 194.486 204.935 194.253 205.131 193.999C205.25 193.881 205.117 193.596 204.942 193.686Z" fill="black"/>
<path d="M199.544 200.915C199.439 198.385 196.68 196.383 192.755 195.222C190.829 194.621 188.771 194.575 186.821 195.091C184.87 195.606 183.106 196.662 181.733 198.135C178.87 201.235 177.389 203.869 178.555 204.613C179.722 205.357 184.911 207.248 188.334 208.304C191.756 209.361 196.177 209.694 199.572 207.672C202.966 205.649 202.722 202.18 199.544 200.915Z" fill="#E0E0E0"/>
<path opacity="0.25" d="M199.544 200.915C199.439 198.385 196.68 196.383 192.755 195.222C190.829 194.621 188.771 194.575 186.821 195.091C184.87 195.606 183.106 196.662 181.733 198.135C178.87 201.235 177.389 203.869 178.555 204.613C179.722 205.357 184.911 207.248 188.334 208.304C191.756 209.361 196.177 209.694 199.572 207.672C202.966 205.649 202.722 202.18 199.544 200.915Z" fill="white"/>
<path d="M199.761 200.63C198.434 199.965 196.983 199.58 195.5 199.497C194.08 199.363 192.649 199.381 191.232 199.553C189.735 199.737 188.256 200.049 186.811 200.484C186.057 200.7 185.31 200.95 184.569 201.221C183.864 201.448 183.177 201.729 182.516 202.062C182.516 202.062 182.474 202.159 182.516 202.145C183.214 201.999 183.913 201.721 184.611 201.506C185.31 201.29 186.127 201.054 186.895 200.853C188.323 200.472 189.777 200.198 191.246 200.032C192.718 199.865 194.203 199.865 195.675 200.032C197.037 200.255 198.38 200.582 199.691 201.012C199.998 201.103 199.914 200.72 199.761 200.63Z" fill="#E0E0E0"/>
<path opacity="0.1" d="M199.761 200.63C198.434 199.965 196.983 199.58 195.5 199.497C194.08 199.363 192.649 199.381 191.232 199.553C189.735 199.737 188.256 200.049 186.811 200.484C186.057 200.7 185.31 200.95 184.569 201.221C183.864 201.448 183.177 201.729 182.516 202.062C182.516 202.062 182.474 202.159 182.516 202.145C183.214 201.999 183.913 201.721 184.611 201.506C185.31 201.29 186.127 201.054 186.895 200.853C188.323 200.472 189.777 200.198 191.246 200.032C192.718 199.865 194.203 199.865 195.675 200.032C197.037 200.255 198.38 200.582 199.691 201.012C199.998 201.103 199.914 200.72 199.761 200.63Z" fill="black"/>
<path d="M207.632 197.148C204.838 194.93 205.767 189.613 215.58 189.328C225.394 189.043 232.399 191.594 232.085 194.736C233.663 196.307 232.867 200.707 224.919 202.083C216.97 203.459 205.613 202.771 207.632 197.148Z" fill="#E0E0E0"/>
<path opacity="0.25" d="M207.632 197.148C204.838 194.93 205.767 189.613 215.58 189.328C225.394 189.043 232.399 191.594 232.085 194.736C233.663 196.307 232.867 200.707 224.919 202.083C216.97 203.459 205.613 202.771 207.632 197.148Z" fill="white"/>
<path d="M227.468 194.77C224.572 194.295 221.634 194.125 218.702 194.263C215.976 194.242 213.257 194.553 210.607 195.187C209.928 195.36 209.267 195.593 208.63 195.883C208.335 196.019 208.048 196.172 207.771 196.341C207.548 196.473 207.303 196.592 207.219 196.849C207.211 196.89 207.213 196.932 207.225 196.972C207.236 197.012 207.257 197.049 207.286 197.08C207.314 197.11 207.35 197.134 207.389 197.148C207.429 197.162 207.471 197.167 207.513 197.162C208.109 196.93 208.684 196.646 209.231 196.314C209.782 196.07 210.349 195.866 210.928 195.702C212.043 195.376 213.183 195.144 214.337 195.007C217.082 194.672 219.847 194.521 222.613 194.555C224.227 194.555 225.833 194.701 227.447 194.826C227.502 194.889 227.516 194.777 227.468 194.77Z" fill="#E0E0E0"/>
<path opacity="0.1" d="M227.468 194.77C224.572 194.295 221.634 194.125 218.702 194.263C215.976 194.242 213.257 194.553 210.607 195.187C209.928 195.36 209.267 195.593 208.63 195.883C208.335 196.019 208.048 196.172 207.771 196.341C207.548 196.473 207.303 196.592 207.219 196.849C207.211 196.89 207.213 196.932 207.225 196.972C207.236 197.012 207.257 197.049 207.286 197.08C207.314 197.11 207.35 197.134 207.389 197.148C207.429 197.162 207.471 197.167 207.513 197.162C208.109 196.93 208.684 196.646 209.231 196.314C209.782 196.07 210.349 195.866 210.928 195.702C212.043 195.376 213.183 195.144 214.337 195.007C217.082 194.672 219.847 194.521 222.613 194.555C224.227 194.555 225.833 194.701 227.447 194.826C227.502 194.889 227.516 194.777 227.468 194.77Z" fill="black"/>
<path d="M132.436 219.753C132.305 219.754 132.176 219.728 132.055 219.676C131.935 219.625 131.827 219.549 131.738 219.454L96.6263 182.481L61.5779 219.322C61.4028 219.506 61.1614 219.614 60.9066 219.621C60.6518 219.628 60.4046 219.534 60.2194 219.36C60.0342 219.186 59.926 218.945 59.9188 218.692C59.9116 218.438 60.0059 218.192 60.181 218.008L95.9279 180.472C96.0181 180.378 96.1265 180.303 96.2465 180.252C96.3665 180.2 96.4957 180.173 96.6263 180.173C96.757 180.173 96.8862 180.2 97.0062 180.252C97.1262 180.303 97.2346 180.378 97.3248 180.472L133.128 218.182C133.216 218.27 133.287 218.374 133.335 218.489C133.383 218.604 133.408 218.728 133.408 218.852C133.408 218.977 133.383 219.101 133.335 219.216C133.287 219.331 133.216 219.435 133.128 219.523C132.936 219.686 132.688 219.768 132.436 219.753Z" fill="#263238"/>
<path d="M96.6263 247.773C96.3725 247.773 96.1291 247.672 95.9497 247.494C95.7702 247.315 95.6694 247.073 95.6694 246.82V185.581C95.6694 185.328 95.7702 185.086 95.9497 184.908C96.1291 184.729 96.3725 184.629 96.6263 184.629C96.8801 184.629 97.1235 184.729 97.3029 184.908C97.4824 185.086 97.5832 185.328 97.5832 185.581V246.82C97.5832 247.073 97.4824 247.315 97.3029 247.494C97.1235 247.672 96.8801 247.773 96.6263 247.773Z" fill="#37474F"/>
<path d="M134.7 225.48C134.509 225.48 134.323 225.423 134.164 225.317C134.006 225.21 133.884 225.059 133.813 224.883L114.92 177.351C114.87 177.234 114.844 177.108 114.844 176.981C114.844 176.854 114.87 176.728 114.919 176.61C114.969 176.493 115.042 176.387 115.133 176.298C115.224 176.21 115.333 176.14 115.452 176.094C115.571 176.047 115.698 176.025 115.826 176.028C115.953 176.031 116.079 176.06 116.195 176.112C116.312 176.165 116.416 176.24 116.503 176.333C116.59 176.426 116.657 176.536 116.701 176.656L135.559 224.187C135.651 224.423 135.645 224.686 135.543 224.918C135.441 225.149 135.251 225.332 135.014 225.425C134.913 225.46 134.807 225.479 134.7 225.48Z" fill="#37474F"/>
<path d="M58.5541 225.48C58.435 225.479 58.3169 225.458 58.2049 225.418C57.9698 225.323 57.7815 225.141 57.6808 224.909C57.5801 224.677 57.5752 224.416 57.6671 224.18L76.5254 176.649C76.5631 176.522 76.6269 176.405 76.7126 176.304C76.7984 176.203 76.9042 176.122 77.0234 176.064C77.1426 176.006 77.2726 175.973 77.4051 175.968C77.5377 175.963 77.6698 175.985 77.7932 176.034C77.9166 176.082 78.0286 176.155 78.122 176.249C78.2154 176.343 78.2882 176.455 78.3358 176.578C78.3834 176.701 78.4048 176.833 78.3985 176.965C78.3922 177.097 78.3585 177.226 78.2995 177.344L59.4412 224.876C59.3704 225.053 59.2482 225.205 59.0903 225.312C58.9323 225.42 58.7456 225.479 58.5541 225.48Z" fill="#37474F"/>
<path d="M133.4 218.307L135.894 224.855C135.9 224.91 135.9 224.966 135.894 225.022C135.901 225.063 135.901 225.105 135.894 225.147C135.824 225.326 135.69 225.472 135.517 225.557C135.282 225.677 135.022 225.74 134.759 225.74C134.495 225.74 134.235 225.677 134.001 225.557C133.871 225.491 133.768 225.383 133.708 225.251V225.161L131.389 219.016L133.4 218.307Z" fill="#E0E0E0"/>
<path d="M59.8604 218.307L57.3669 224.855C57.3569 224.91 57.3569 224.966 57.3669 225.022V225.147C57.4414 225.323 57.5746 225.468 57.7441 225.557C57.9785 225.677 58.2383 225.74 58.5019 225.74C58.7656 225.74 59.0254 225.677 59.2598 225.557C59.3897 225.489 59.4948 225.382 59.5601 225.251V225.161L61.872 219.016L59.8604 218.307Z" fill="#E0E0E0"/>
<path d="M97.7306 242.08V247.502C97.7215 247.597 97.687 247.689 97.6305 247.767C97.5741 247.845 97.4977 247.907 97.4093 247.946C97.1683 248.07 96.9014 248.134 96.6305 248.134C96.3596 248.134 96.0926 248.07 95.8517 247.946C95.7624 247.908 95.685 247.846 95.6273 247.768C95.5697 247.69 95.5338 247.598 95.5234 247.502V242.08C95.8627 241.898 96.2419 241.803 96.627 241.803C97.0121 241.803 97.3913 241.898 97.7306 242.08Z" fill="#E0E0E0"/>
<path d="M132.471 180.236C132.471 178.915 131.298 177.49 128.825 175.898C124.257 172.944 107.746 163.386 101.348 159.834C101.345 159.821 101.338 159.809 101.328 159.801C101.318 159.792 101.305 159.786 101.292 159.785C96.368 156.81 93.4904 133.99 90.0819 123.236C89.8843 122.564 89.6511 121.903 89.3835 121.255C89.3835 121.207 89.3416 121.158 89.3276 121.109C89.3136 121.061 89.1949 120.824 89.132 120.671C89.0692 120.518 89.0622 120.525 89.0343 120.456C88.4952 119.23 87.7218 118.121 86.7573 117.189C86.4288 116.873 86.0545 116.608 85.6467 116.403L83.6352 115.284C80.2896 113.289 72.3971 117.529 66.9282 120.512C63.5267 122.367 60.6421 124.571 58.861 128.679C57.9051 131.039 57.3345 133.536 57.1707 136.075C56.6888 141.747 58.5677 162.712 59.6922 170.921C61.3615 184.643 63.4219 184.663 66.4043 186.957C71.5449 190.912 86.3243 198.656 91.2064 200.568C100.049 204.043 107.271 198.691 112.67 196.042C118.774 192.921 124.714 189.492 130.467 185.769C131.808 184.795 132.513 183.808 132.499 182.766C132.464 182.356 132.471 180.673 132.471 180.236Z" fill="#E0E0E0"/>
<path d="M112.642 193.491C118.746 190.37 124.685 186.941 130.438 183.218C133.504 181 133.232 178.734 128.825 175.898C122.72 171.957 97.8343 157.902 97.8343 157.902C97.8343 157.902 62.8557 178.234 64.2107 181.647C65.5657 185.06 85.0387 195.611 91.1781 198.016C100.021 201.478 107.236 196.119 112.642 193.491Z" fill="#F5F5F5"/>
<path d="M85.6187 116.403C82.3081 114.68 74.4924 118.878 69.1632 121.784C65.7547 123.646 62.8771 125.85 61.082 129.972L58.833 128.693C60.6001 124.585 63.4987 122.381 66.9002 120.525C72.3691 117.543 80.2616 113.303 83.6072 115.298L85.6187 116.403Z" fill="#F5F5F5"/>
<path d="M90.082 123.236C90.0051 123.007 88.8666 119.066 86.7294 117.189C85.7402 116.292 84.4495 115.796 83.1114 115.799C80.2198 115.799 73.2352 119.552 69.1423 121.77L68.1365 122.34L67.7593 122.562L67.3123 122.847L66.9771 123.063C66.2598 123.532 65.576 124.05 64.9306 124.613C64.8258 124.703 64.7211 124.793 64.6233 124.891C64.2118 125.269 63.8224 125.671 63.4569 126.093L63.2613 126.323L63.0308 126.608L62.8073 126.9L62.5908 127.205C62.2974 127.621 62.0269 128.053 61.7806 128.498L61.6828 128.672C61.613 128.791 61.5501 128.914 61.4942 129.041C61.4034 129.221 61.3126 129.402 61.2288 129.583C60.1733 132.042 59.5496 134.664 59.3849 137.333C58.5956 146.655 61.7177 180.041 64.9725 182.696C64.9725 182.696 65.671 179.916 70.9513 175.627C76.0659 171.584 81.5119 167.976 87.2323 164.839C97.9885 158.805 101.292 159.758 101.292 159.758C96.368 156.81 93.4904 133.99 90.082 123.236Z" fill="#EBEBEB"/>
<path d="M75.3516 253.16C75.221 253.159 75.0919 253.132 74.9719 253.081C74.852 253.029 74.7436 252.954 74.6531 252.861L39.5418 215.881L4.50031 252.722C4.41409 252.813 4.31065 252.887 4.19589 252.938C4.08113 252.99 3.95731 253.018 3.83148 253.022C3.70566 253.026 3.5803 253.005 3.46257 252.961C3.34483 252.916 3.23702 252.849 3.1453 252.763C3.05358 252.678 2.97974 252.575 2.92799 252.461C2.87625 252.346 2.84761 252.223 2.84372 252.098C2.83983 251.973 2.86076 251.848 2.90531 251.731C2.94987 251.614 3.01718 251.506 3.1034 251.415L38.8433 213.879C38.9325 213.784 39.0407 213.708 39.1609 213.656C39.2812 213.605 39.4109 213.579 39.5418 213.58C39.6727 213.579 39.8024 213.605 39.9226 213.656C40.0429 213.708 40.151 213.784 40.2402 213.879L76.05 251.589C76.1752 251.725 76.2581 251.895 76.2887 252.077C76.3193 252.26 76.2963 252.447 76.2225 252.616C76.1487 252.786 76.0273 252.931 75.8728 253.033C75.7183 253.136 75.5373 253.192 75.3516 253.194V253.16Z" fill="#263238"/>
<path d="M39.5492 281.159C39.299 281.159 39.0587 281.061 38.8799 280.887C38.701 280.713 38.5978 280.476 38.5923 280.227V218.988C38.5923 218.863 38.617 218.739 38.6651 218.624C38.7132 218.508 38.7837 218.403 38.8725 218.315C38.9614 218.226 39.0669 218.156 39.183 218.108C39.2991 218.06 39.4235 218.036 39.5492 218.036C39.6748 218.036 39.7993 218.06 39.9153 218.108C40.0314 218.156 40.1369 218.226 40.2258 218.315C40.3146 218.403 40.3851 218.508 40.4332 218.624C40.4813 218.739 40.506 218.863 40.506 218.988V280.227C40.5006 280.476 40.3973 280.713 40.2185 280.887C40.0396 281.061 39.7994 281.159 39.5492 281.159Z" fill="#37474F"/>
<path d="M77.6218 258.867C77.4289 258.867 77.2403 258.81 77.0808 258.702C76.9212 258.594 76.7982 258.441 76.7278 258.262L57.8695 210.73C57.8236 210.614 57.8012 210.49 57.8034 210.366C57.8056 210.241 57.8324 210.118 57.8824 210.004C57.9323 209.89 58.0044 209.786 58.0944 209.7C58.1845 209.613 58.2908 209.545 58.4073 209.5C58.5238 209.454 58.6482 209.432 58.7733 209.434C58.8985 209.436 59.022 209.463 59.1368 209.513C59.2516 209.562 59.3555 209.634 59.4424 209.724C59.5293 209.813 59.5977 209.919 59.6436 210.035L78.5018 257.567C78.5482 257.683 78.571 257.806 78.569 257.931C78.567 258.056 78.5403 258.179 78.4903 258.293C78.4403 258.408 78.3681 258.511 78.2777 258.597C78.1874 258.684 78.0808 258.752 77.964 258.797C77.8555 258.842 77.7393 258.865 77.6218 258.867Z" fill="#37474F"/>
<path d="M1.4754 258.867C1.35541 258.868 1.23649 258.844 1.12618 258.797C0.890266 258.705 0.700459 258.525 0.598343 258.294C0.496226 258.063 0.490126 257.802 0.581381 257.567L19.4397 210.035C19.5368 209.806 19.7198 209.624 19.9497 209.528C20.1796 209.432 20.4382 209.428 20.6704 209.519C20.9027 209.61 21.0902 209.787 21.193 210.013C21.2957 210.239 21.3057 210.497 21.2207 210.73L2.36244 258.262C2.29247 258.439 2.1705 258.592 2.01234 258.7C1.85418 258.808 1.66712 258.866 1.4754 258.867Z" fill="#37474F"/>
<path d="M76.3156 251.728L78.8091 258.276C78.8192 258.331 78.8192 258.387 78.8091 258.443V258.561C78.7376 258.74 78.6038 258.888 78.4319 258.978C78.1963 259.098 77.9353 259.161 77.6706 259.161C77.4059 259.161 77.1449 259.098 76.9093 258.978C76.7809 258.907 76.6782 258.797 76.6159 258.665V258.575L74.311 252.423L76.3156 251.728Z" fill="#E0E0E0"/>
<path d="M2.77553 251.728L0.282044 258.276C0.275315 258.331 0.275315 258.387 0.282044 258.443C0.275126 258.482 0.275126 258.522 0.282044 258.561C0.348874 258.743 0.484046 258.892 0.659209 258.978C0.893588 259.098 1.1534 259.161 1.41703 259.161C1.68066 259.161 1.94048 259.098 2.17486 258.978C2.30548 258.91 2.40893 258.799 2.46821 258.665V258.575L4.78708 252.423L2.77553 251.728Z" fill="#E0E0E0"/>
<path d="M40.6529 275.466V280.881C40.6437 280.978 40.6084 281.072 40.5507 281.151C40.493 281.231 40.4149 281.293 40.3246 281.333C40.0827 281.453 39.8161 281.515 39.5459 281.515C39.2756 281.515 39.009 281.453 38.7671 281.333C38.6777 281.293 38.6007 281.23 38.5441 281.151C38.4876 281.071 38.4536 280.978 38.4458 280.881V275.466C38.7851 275.285 39.1642 275.19 39.5494 275.19C39.9345 275.19 40.3136 275.285 40.6529 275.466Z" fill="#E0E0E0"/>
<path d="M75.3937 213.621C75.3937 212.301 74.2203 210.876 71.7408 209.284C67.1729 206.33 50.6614 196.772 44.2636 193.22C44.261 193.206 44.2543 193.193 44.2443 193.184C44.2343 193.174 44.2215 193.167 44.2077 193.164C39.3185 190.196 36.4059 167.376 32.9975 156.622C32.7981 155.951 32.565 155.29 32.299 154.641L32.2362 154.495L32.0406 154.057C32.0406 153.988 31.9777 153.911 31.9428 153.842C31.4039 152.614 30.6306 151.502 29.6659 150.568C29.3296 150.26 28.9538 149.998 28.5483 149.789C27.9965 149.477 26.8301 148.837 26.5438 148.663C23.1982 146.675 15.2986 150.915 9.83673 153.897C6.43526 155.753 3.55064 157.957 1.76958 162.065C0.810438 164.424 0.239696 166.921 0.079321 169.461C-0.409597 175.133 1.47623 196.098 2.60074 204.307C4.27703 218.028 6.33049 218.056 9.31988 220.35C14.4605 224.305 29.2328 232.049 34.115 233.96C42.9644 237.436 50.1795 232.084 55.5855 229.428C61.6876 226.311 67.6253 222.884 73.3751 219.162C74.7232 218.188 75.4216 217.201 75.4076 216.159C75.3797 215.742 75.3937 214.059 75.3937 213.621Z" fill="#E0E0E0"/>
<path d="M55.5505 226.871C61.6511 223.75 67.5887 220.323 73.3401 216.604C76.4063 214.386 76.1339 212.12 71.7267 209.284C65.6222 205.343 40.7363 191.288 40.7363 191.288C40.7363 191.288 5.77861 211.62 7.13361 215.026C8.48861 218.432 27.9615 228.998 34.094 231.403C42.9783 234.864 50.1724 229.526 55.5505 226.871Z" fill="#F5F5F5"/>
<path d="M28.5343 149.79C25.2236 148.059 17.4079 152.264 12.0857 155.17C8.67026 157.026 5.76469 159.236 4.00459 163.358L1.76953 162.058C3.53662 157.95 6.43521 155.747 9.83668 153.891C15.2986 150.909 23.1981 146.669 26.5437 148.657C26.8161 148.851 27.9825 149.477 28.5343 149.79Z" fill="#F5F5F5"/>
<path d="M32.9971 156.623C32.9273 156.393 31.7888 152.452 29.6515 150.568C28.6559 149.677 27.3655 149.182 26.0266 149.178C23.135 149.178 16.1504 152.931 12.0575 155.149C11.7152 155.337 11.359 155.524 11.0517 155.719C10.919 155.788 10.7933 155.865 10.6675 155.941L10.2205 156.226C10.1069 156.292 9.99732 156.364 9.89226 156.442C9.17403 156.91 8.48802 157.426 7.8388 157.985C7.73404 158.075 7.63625 158.166 7.53148 158.27C7.12057 158.647 6.73336 159.048 6.37205 159.472L6.17648 159.702C6.09965 159.792 6.01584 159.89 5.94599 159.987C5.87615 160.084 5.79932 160.182 5.72249 160.279C5.64566 160.376 5.57581 160.473 5.50597 160.578C5.21022 160.996 4.93743 161.43 4.68877 161.878C4.65205 161.933 4.61937 161.991 4.59099 162.051L4.40241 162.413C4.31161 162.594 4.22779 162.781 4.13699 162.962C3.0798 165.421 2.45604 168.043 2.29307 170.712C1.50382 180.034 4.62591 213.42 7.88071 216.075C7.88071 216.075 8.57917 213.295 13.8665 209.006C18.9832 204.964 24.4343 201.36 30.1614 198.232C40.9106 192.198 44.2143 193.144 44.2143 193.144C39.2902 190.196 36.4056 167.376 32.9971 156.623Z" fill="#EBEBEB"/>
<path d="M159.761 311C191.504 311 217.237 296.214 217.237 277.975C217.237 259.736 191.504 244.95 159.761 244.95C128.018 244.95 102.285 259.736 102.285 277.975C102.285 296.214 128.018 311 159.761 311Z" fill="#E0E0E0"/>
<path d="M69.374 300.518L52.213 290.654C49.2096 288.93 49.2096 286.136 52.213 284.398L105.051 254.036C106.735 253.186 108.597 252.743 110.485 252.743C112.373 252.743 114.235 253.186 115.919 254.036L133.08 263.913C136.083 265.637 136.083 268.431 133.08 270.169L80.2419 300.532C78.5568 301.379 76.6946 301.82 74.8063 301.818C72.918 301.815 71.0569 301.37 69.374 300.518Z" fill="#E0E0E0"/>
<path d="M122.414 198.858L109.276 191.309H109.227L109.129 191.253C102.648 187.597 93.7633 188.16 83.8941 193.818C64.0859 205.155 48.0215 232.862 48.0215 255.62C48.0215 266.937 51.9957 274.896 58.4145 278.656L58.5123 278.712H58.5612L71.6991 286.261L73.983 280.29C77.4665 279.397 80.8056 278.019 83.9011 276.196C103.709 264.817 119.767 237.137 119.767 214.372C119.795 210.819 119.325 207.279 118.37 203.855L122.414 198.858Z" fill="#2C96CA"/>
<path opacity="0.4" d="M122.414 198.858L109.276 191.309H109.227L109.129 191.253C102.648 187.597 93.7633 188.16 83.8941 193.818C64.0859 205.155 48.0215 232.862 48.0215 255.62C48.0215 266.937 51.9957 274.896 58.4145 278.656L58.5123 278.712H58.5612L71.6991 286.261L73.983 280.29C77.4665 279.397 80.8056 278.019 83.9011 276.196C103.709 264.817 119.767 237.137 119.767 214.372C119.795 210.819 119.325 207.279 118.37 203.855L122.414 198.858Z" fill="white"/>
<path opacity="0.4" d="M48.3358 250.06C48.1352 251.907 48.0303 253.763 48.0215 255.62C48.0215 266.937 51.9957 274.896 58.4145 278.656L58.5123 278.712H58.5612L71.6991 286.261L73.983 280.29C74.7234 280.102 75.4777 279.887 76.246 279.637L79.6335 268L48.3358 250.06Z" fill="#2C96CA"/>
<path d="M122.542 257.221C136.549 233.078 136.548 206.981 122.54 198.932C108.533 190.884 85.8234 203.932 71.8169 228.075C57.8105 252.219 57.8113 278.316 71.8186 286.365C85.826 294.413 108.536 281.365 122.542 257.221Z" fill="#2C96CA"/>
<path d="M81.1558 283.126C72.2575 283.126 66.9492 275.695 66.9492 263.26C66.9492 242.67 82.0847 216.583 99.9931 206.295C104.694 203.598 109.255 202.173 113.194 202.173C122.092 202.173 127.4 209.597 127.4 222.04C127.4 242.622 112.265 268.709 94.3566 279.004C89.663 281.701 85.0951 283.126 81.1558 283.126Z" fill="#2C96CA"/>
<path opacity="0.15" d="M81.1558 283.126C72.2575 283.126 66.9492 275.695 66.9492 263.26C66.9492 242.67 82.0847 216.583 99.9931 206.295C104.694 203.598 109.255 202.173 113.194 202.173C122.092 202.173 127.4 209.597 127.4 222.04C127.4 242.622 112.265 268.709 94.3566 279.004C89.663 281.701 85.0951 283.126 81.1558 283.126Z" fill="black"/>
<path d="M124.097 220.086C124.097 212.162 121.939 206.288 118.076 203.056C116.517 202.457 114.858 202.158 113.187 202.173C109.248 202.173 104.687 203.598 99.9861 206.295C82.0917 216.583 66.9492 242.691 66.9492 263.26C66.9492 271.177 69.1074 277.058 72.9699 280.29C74.5303 280.884 76.1884 281.184 77.8591 281.173C81.7984 281.173 86.3593 279.748 91.0529 277.051C108.968 266.756 124.097 240.669 124.097 220.086Z" fill="#FAFAFA"/>
<path d="M106.42 247.105C106.228 247.105 106.039 247.07 105.861 247.001L91.5425 241.517L105.84 214.831C105.929 214.639 106.057 214.468 106.216 214.327C106.374 214.186 106.56 214.078 106.761 214.011C106.963 213.944 107.176 213.918 107.388 213.935C107.6 213.953 107.806 214.013 107.993 214.112C108.181 214.212 108.346 214.348 108.479 214.513C108.612 214.678 108.71 214.868 108.767 215.072C108.823 215.276 108.838 215.489 108.809 215.699C108.78 215.908 108.708 216.11 108.599 216.291L96.0266 239.876L106.985 244.082C107.326 244.212 107.611 244.458 107.789 244.776C107.967 245.093 108.028 245.463 107.96 245.821C107.893 246.178 107.702 246.501 107.421 246.733C107.139 246.965 106.785 247.092 106.42 247.091V247.105Z" fill="#37474F"/>
<path d="M93.8744 246.57C95.3628 245.604 96.6015 244.303 97.4898 242.772C98.3781 241.24 98.8911 239.522 98.9871 237.756C98.9871 234.51 96.6962 233.196 93.8744 234.816C92.3854 235.783 91.1465 237.085 90.2582 238.618C89.3699 240.15 88.8572 241.87 88.7617 243.637C88.7617 246.862 91.0526 248.197 93.8744 246.57Z" fill="#455A64"/>
<path d="M93.8751 271.886C93.456 272.129 93.1138 271.886 93.1138 271.392V265.401C93.121 265.125 93.1937 264.856 93.3261 264.614C93.4585 264.372 93.6466 264.166 93.8751 264.01C94.2942 263.774 94.6364 264.01 94.6364 264.511V270.496C94.6298 270.771 94.5572 271.041 94.4248 271.283C94.2924 271.524 94.104 271.731 93.8751 271.886Z" fill="#2C96CA"/>
<path d="M93.8119 219.488C93.3929 219.732 93.0576 219.488 93.0576 218.995V212.996C93.0635 212.721 93.1349 212.452 93.2661 212.21C93.3973 211.969 93.5844 211.761 93.8119 211.606C94.231 211.37 94.5733 211.606 94.5733 212.106V218.098C94.5661 218.373 94.4933 218.643 94.3609 218.885C94.2286 219.126 94.0404 219.333 93.8119 219.488Z" fill="#2C96CA"/>
<path d="M68.3458 256.684C68.3662 256.413 68.4509 256.151 68.593 255.919C68.735 255.687 68.9304 255.492 69.163 255.349L74.4084 252.353C74.8624 252.096 75.2186 252.277 75.2186 252.757C75.1966 253.027 75.1112 253.289 74.9693 253.52C74.8274 253.752 74.6329 253.948 74.4014 254.091L69.1909 257.087C68.702 257.351 68.3388 257.171 68.3458 256.684Z" fill="#2C96CA"/>
<path d="M113.689 230.569C113.711 230.298 113.797 230.036 113.939 229.805C114.081 229.573 114.275 229.377 114.507 229.234L119.724 226.231C120.171 225.974 120.534 226.155 120.527 226.641C120.507 226.912 120.422 227.174 120.28 227.406C120.138 227.638 119.943 227.834 119.71 227.976L114.5 230.972C114.053 231.229 113.689 231.048 113.689 230.569Z" fill="#2C96CA"/>
<path d="M130.229 265.554C130.928 256.128 129.782 245.771 130.565 231.062C130.635 227.295 130.774 223.256 131.026 219.662C131.885 207.595 133.757 203.466 133.924 201.137C133.924 201.137 134.846 177.997 135.635 151.583C136.013 139.154 139.631 135.394 142.522 128.797H176.886C180.728 145.07 181.817 180.569 181.706 197.342C181.643 205.892 178.178 251.644 178.109 252.694C177.864 256.427 178.192 257.9 179.659 259.471C182.739 262.759 187.202 265.894 191.058 268.758C190.499 270.225 185.861 270.148 183.563 269.057C180.551 267.496 177.681 265.678 174.986 263.621C171.815 261.286 167.764 259.409 167.709 255.857C167.694 255.643 167.659 255.431 167.604 255.224C167.548 253.139 162.715 222.554 162.282 215.443C161.932 209.333 162.68 198.976 162.68 198.976L158.719 173.111C158.719 173.111 155.681 192.748 153.216 203.188C151.204 211.682 147.886 226.182 145.63 236.637C143.458 248.69 140.336 260.396 139.784 266.429C139.624 267.868 137.982 282 137.305 285.239C136.627 288.478 129.587 288.569 129.098 283.008C128.798 279.289 130.104 267.326 130.229 265.554Z" fill="#9E6767"/>
<path d="M197.623 272.512C197.818 272.512 198.14 274.659 197.085 275.584C195.863 276.654 192.273 278.427 187.495 277.864C182.718 277.301 180.12 275.862 178.192 274.291C176.264 272.72 173.568 270.503 171.403 270.058C169.391 269.634 167.212 268.758 166.556 268.146C165.899 267.535 165.969 264.796 165.969 264.796L197.623 272.512Z" fill="#263238"/>
<path d="M167.52 254.216C167.52 254.216 167.157 254.216 167.045 254.87C166.905 255.627 166.772 257.824 166.465 259.04C165.998 261.23 165.864 263.477 166.067 265.706C166.346 267.097 169.629 268.049 171.724 268.821C174.193 269.861 176.489 271.267 178.534 272.991C180.797 274.812 185.519 276.606 188.641 276.62C193.391 276.62 196.45 275.32 197.386 273.617C198.538 271.531 197.602 270.294 192.119 267.833C191.079 267.368 187.433 265.275 186.189 264.511C184.869 263.711 183.617 262.804 182.446 261.8C181.854 261.292 181.292 260.752 180.762 260.18C180.212 259.672 179.741 259.084 179.366 258.436C179.303 258.297 179.261 258.13 179.205 257.977C179.044 257.567 178.92 257.144 178.835 256.712C178.744 256.26 178.681 255.606 178.241 255.321C177.623 255.075 176.949 255.003 176.292 255.113C175.587 255.171 174.887 255.278 174.197 255.433C173.394 255.62 172.472 255.704 172.004 256.454C171.69 257.064 171.541 257.744 171.571 258.429C171.571 258.748 171.571 259.068 171.571 259.381C171.571 259.52 171.634 259.763 171.445 259.708C171.257 259.652 171.054 259.186 170.984 259.012C170.83 258.665 170.726 258.283 170.558 257.935C170.369 257.53 170.135 257.148 169.86 256.795C169.605 256.472 169.311 256.18 168.987 255.926C168.66 255.75 168.345 255.552 168.044 255.335C167.765 255.02 167.584 254.631 167.52 254.216Z" fill="#37474F"/>
<path d="M193.006 268.278C186.134 268.821 184.017 273.068 183.752 275.681C185.322 276.254 186.971 276.582 188.641 276.654C193.391 276.654 196.645 275.355 197.581 273.652C198.664 271.657 197.896 270.065 193.006 268.278Z" fill="#FAFAFA"/>
<path d="M182.705 268.452C182.626 268.457 182.549 268.432 182.488 268.383C182.454 268.355 182.425 268.321 182.404 268.282C182.382 268.243 182.369 268.2 182.365 268.156C182.36 268.112 182.364 268.068 182.377 268.026C182.39 267.983 182.411 267.944 182.439 267.91C183.231 267.078 184.192 266.424 185.258 265.993C186.324 265.561 187.471 265.362 188.621 265.408C188.667 265.412 188.711 265.425 188.752 265.446C188.793 265.467 188.829 265.496 188.859 265.531C188.888 265.567 188.91 265.607 188.924 265.651C188.938 265.695 188.943 265.741 188.939 265.786C188.934 265.832 188.921 265.876 188.9 265.917C188.879 265.958 188.849 265.994 188.814 266.023C188.779 266.052 188.738 266.075 188.694 266.088C188.65 266.102 188.604 266.107 188.558 266.103C187.52 266.071 186.488 266.255 185.526 266.643C184.564 267.031 183.693 267.614 182.97 268.355C182.936 268.39 182.895 268.417 182.849 268.433C182.803 268.45 182.754 268.457 182.705 268.452Z" fill="#F0F0F0"/>
<path d="M179.721 266.77C179.645 266.772 179.571 266.747 179.512 266.7C179.442 266.645 179.398 266.564 179.387 266.475C179.377 266.387 179.401 266.298 179.456 266.228C180.248 265.395 181.21 264.74 182.277 264.309C183.345 263.877 184.493 263.678 185.644 263.725C185.691 263.725 185.738 263.734 185.781 263.752C185.825 263.771 185.864 263.798 185.896 263.833C185.928 263.867 185.952 263.908 185.967 263.952C185.982 263.997 185.987 264.044 185.983 264.09C185.979 264.137 185.964 264.182 185.941 264.223C185.918 264.264 185.886 264.3 185.848 264.327C185.811 264.355 185.767 264.375 185.721 264.385C185.675 264.395 185.627 264.395 185.581 264.386C184.544 264.357 183.511 264.542 182.549 264.931C181.587 265.32 180.717 265.904 179.994 266.645C179.962 266.686 179.921 266.719 179.873 266.741C179.826 266.763 179.774 266.773 179.721 266.77Z" fill="#F0F0F0"/>
<path d="M176.963 264.838C176.885 264.839 176.808 264.815 176.746 264.768C176.677 264.712 176.632 264.631 176.621 264.543C176.611 264.455 176.636 264.366 176.69 264.295C177.483 263.464 178.446 262.811 179.513 262.379C180.58 261.948 181.728 261.748 182.879 261.793C182.923 261.796 182.966 261.809 183.005 261.829C183.044 261.849 183.079 261.876 183.108 261.91C183.136 261.944 183.158 261.982 183.171 262.024C183.185 262.066 183.19 262.111 183.186 262.154C183.182 262.199 183.17 262.242 183.149 262.281C183.129 262.32 183.1 262.355 183.065 262.383C183.031 262.411 182.991 262.432 182.948 262.444C182.905 262.456 182.86 262.459 182.816 262.453C181.778 262.425 180.746 262.611 179.784 263C178.822 263.389 177.952 263.972 177.228 264.712C177.197 264.753 177.157 264.786 177.111 264.808C177.065 264.83 177.014 264.84 176.963 264.838Z" fill="#F0F0F0"/>
<path d="M174.287 262.905C174.211 262.907 174.137 262.882 174.078 262.836C174.007 262.782 173.962 262.703 173.95 262.616C173.938 262.528 173.961 262.44 174.015 262.37C175.314 260.702 178.275 259.589 180.776 259.826C180.822 259.83 180.866 259.843 180.907 259.864C180.948 259.885 180.984 259.915 181.013 259.95C181.043 259.985 181.065 260.025 181.079 260.069C181.093 260.113 181.098 260.159 181.094 260.205C181.089 260.25 181.076 260.295 181.055 260.335C181.034 260.376 181.004 260.412 180.969 260.441C180.934 260.471 180.893 260.493 180.849 260.506C180.805 260.52 180.759 260.525 180.713 260.521C178.464 260.305 175.698 261.334 174.546 262.815C174.512 262.848 174.471 262.873 174.426 262.889C174.382 262.904 174.334 262.91 174.287 262.905Z" fill="#F0F0F0"/>
<path d="M139.547 287.762C139.358 290.988 138.848 293.129 137.703 295.019C136.557 296.91 134.385 297.501 132.185 296.952C129.985 296.403 127.177 294.915 126.542 292.135C125.906 289.354 125.55 287.443 126.046 284.447L139.547 287.762Z" fill="#263238"/>
<path d="M130.285 264.4C129.384 264.469 129.111 268.8 128.594 273.137C128.036 277.787 126.639 279.713 126.136 283.522C125.563 287.881 126.29 289.82 127.826 292.454C129.363 295.089 134.811 297.675 137.458 293.9C139.637 290.828 139.728 287.415 139.553 283.07C139.436 279.393 139.534 275.712 139.847 272.046C140.021 268.786 140.748 265.498 139.958 265.136C139.895 265.616 139.84 266.221 139.777 266.694C139.746 267.282 139.648 267.865 139.483 268.431C139.393 268.675 139.19 268.932 139.106 268.536C139.064 268.266 139.064 267.992 139.106 267.722C139.239 266.52 138.631 266.422 138.303 266.332C136.918 266.06 135.519 265.862 134.112 265.741C133.414 265.693 131.032 265.588 130.718 265.985C130.516 266.373 130.412 266.805 130.417 267.243C130.341 267.896 130.187 268.376 130.166 268.167C130.124 267.701 130.215 266.478 130.229 266.186C130.243 265.894 130.285 265.491 130.292 265.234C130.299 264.977 130.285 264.678 130.285 264.4Z" fill="#37474F"/>
<path d="M125.906 286.045C125.743 288.375 126.338 290.696 127.604 292.663C129.133 295.297 135 297.89 137.675 294.116C139.009 292.239 139.366 290.021 139.547 287.755C137.969 284.85 128.435 283.571 125.906 286.045Z" fill="#FAFAFA"/>
<path d="M137.57 283.008C137.533 283.014 137.496 283.014 137.459 283.008C137.424 283.008 133.233 281.263 129.154 282.201C129.11 282.216 129.063 282.222 129.016 282.218C128.97 282.214 128.925 282.2 128.884 282.177C128.843 282.155 128.807 282.124 128.779 282.087C128.751 282.05 128.731 282.008 128.72 281.962C128.709 281.917 128.708 281.87 128.717 281.824C128.725 281.779 128.743 281.735 128.77 281.697C128.796 281.659 128.83 281.626 128.87 281.602C128.91 281.577 128.954 281.561 129 281.555C133.317 280.561 137.591 282.327 137.752 282.403C137.831 282.442 137.892 282.511 137.921 282.594C137.95 282.677 137.944 282.769 137.906 282.848C137.873 282.905 137.823 282.951 137.763 282.98C137.703 283.008 137.636 283.018 137.57 283.008Z" fill="#F0F0F0"/>
<path d="M129.356 278.948C129.291 278.942 129.23 278.917 129.179 278.876C129.128 278.835 129.09 278.781 129.07 278.719C129.043 278.635 129.05 278.544 129.089 278.465C129.128 278.386 129.196 278.325 129.28 278.295C133.345 276.905 137.85 278.99 138.017 279.066C138.084 279.114 138.132 279.185 138.151 279.265C138.17 279.345 138.16 279.429 138.121 279.502C138.083 279.574 138.02 279.631 137.943 279.661C137.866 279.691 137.781 279.692 137.703 279.664C137.668 279.664 133.275 277.648 129.496 278.927C129.452 278.945 129.404 278.952 129.356 278.948Z" fill="#F0F0F0"/>
<path d="M129.503 275.883C129.44 275.877 129.38 275.854 129.329 275.815C129.279 275.777 129.24 275.726 129.217 275.667C129.201 275.626 129.194 275.582 129.196 275.537C129.198 275.493 129.209 275.45 129.227 275.41C129.246 275.37 129.273 275.334 129.306 275.304C129.339 275.274 129.377 275.251 129.419 275.236C133.883 273.645 138.164 275.89 138.318 275.987C138.394 276.033 138.448 276.107 138.469 276.193C138.49 276.28 138.476 276.37 138.429 276.446C138.383 276.521 138.309 276.576 138.222 276.597C138.136 276.617 138.044 276.603 137.968 276.557C137.934 276.557 133.778 274.388 129.65 275.862C129.603 275.879 129.553 275.886 129.503 275.883Z" fill="#F0F0F0"/>
<path d="M129.719 272.873C129.658 272.864 129.6 272.84 129.551 272.802C129.502 272.764 129.464 272.715 129.44 272.658C129.424 272.616 129.417 272.573 129.418 272.529C129.419 272.485 129.43 272.442 129.448 272.402C129.466 272.362 129.492 272.326 129.524 272.295C129.556 272.265 129.594 272.242 129.635 272.227C133.826 270.67 138.422 272.97 138.597 273.068C138.674 273.113 138.73 273.186 138.753 273.272C138.777 273.357 138.766 273.449 138.722 273.526C138.7 273.564 138.67 273.598 138.635 273.624C138.6 273.651 138.559 273.67 138.517 273.681C138.474 273.692 138.429 273.694 138.385 273.688C138.341 273.682 138.299 273.667 138.261 273.645C138.219 273.645 133.756 271.399 129.88 272.852C129.828 272.87 129.774 272.877 129.719 272.873Z" fill="#EBEBEB"/>
<path d="M139.016 128.797C135.237 138.056 133.938 143.318 133.526 165.291C133.114 187.263 133.156 196.779 133.065 199.428C132.974 202.076 131.43 206.81 130.068 219.864C128.706 232.918 129.957 248.19 129.957 248.19C129.957 248.19 131.256 250.56 136.243 250.97C140.866 251.387 143.157 249.656 143.157 249.656C143.157 249.656 149.499 224.243 151.259 216.388C153.02 208.533 158.705 178.331 158.705 178.331L161.729 199.288C161.729 199.288 160.332 206.49 161.729 217.938C163.126 229.387 165.627 241.099 165.627 241.099C167.909 241.893 170.312 242.286 172.73 242.26C174.919 242.294 177.076 241.731 178.967 240.634C178.967 240.634 182.892 206.573 182.892 193.616C182.892 180.659 182.732 147.961 178.625 128.762L139.016 128.797Z" fill="#455A64"/>
<path d="M152.524 203.153C152.524 203.153 150.533 200.289 145.644 199.678C140.755 199.066 138.219 201.728 138.219 201.728C138.219 201.728 147.292 200.804 152.524 203.153ZM137.667 203.675C143.954 204.919 146.845 204.662 149.723 204.092C149.723 204.092 140.657 202.952 137.667 203.675Z" fill="#9E6767"/>
<path d="M182.858 197.036L182.9 195.646C178.709 195.09 171.983 196.445 170.181 197.474C174.38 196.896 178.628 196.749 182.858 197.036ZM173.17 199.087C175.964 199.838 182.711 200.178 182.711 200.178L182.781 198.857C182.781 198.857 177.975 198.711 173.17 199.087Z" fill="#9E6767"/>
<path d="M131.187 249.399C131.407 249.564 131.64 249.711 131.885 249.837C130.607 229.331 133.17 217.556 134.875 209.708C135.042 208.951 135.196 208.235 135.343 207.553C136.635 201.416 137.214 189.098 137.194 179.012C137.194 175.974 137.194 172.839 137.194 169.503C137.194 165.603 137.34 161.565 137.661 157.575C144.849 156.72 146.406 149.658 148.369 140.746C148.634 139.523 148.916 138.265 149.214 136.972L148.578 136.826C148.278 138.119 147.999 139.384 147.726 140.607C145.764 149.539 144.318 156.025 137.717 156.894C138.5 147.857 140.378 139.036 144.849 132.683L144.318 132.308C137.661 141.761 136.635 156.414 136.537 169.496C136.537 172.833 136.537 175.974 136.537 179.012C136.537 189.063 135.978 201.353 134.7 207.421L134.239 209.569C132.521 217.389 129.971 229.095 131.187 249.399ZM162.862 153.418L158.734 178.366L161.758 199.323L161.36 178.963L164.154 163.497C164.259 165.033 164.37 166.611 164.475 168.217C165.39 181.48 166.417 196.508 165.725 199.671C163.812 208.339 164.37 213.809 165.39 223.743C165.495 224.75 165.607 225.828 165.718 226.912C166.277 232.522 166.899 238.034 167.318 241.642L168.016 241.795C167.597 238.194 166.962 232.577 166.389 226.85C166.277 225.738 166.172 224.688 166.068 223.68C165.055 213.816 164.496 208.388 166.382 199.81C167.08 196.557 166.11 182.126 165.153 168.175C164.978 165.638 164.81 163.191 164.657 160.856L165.453 156.463C168.596 155.712 175.518 152.077 176.44 147.76C171.578 152.799 162.862 153.418 162.862 153.418Z" fill="#37474F"/>
<path d="M198.539 117.891C198.015 117.606 197.03 118.468 195.745 119.684C195.424 119.985 195.174 120.353 195.014 120.762C194.855 121.171 194.789 121.61 194.823 122.048C195.715 121.883 196.523 121.419 197.114 120.734C197.801 119.907 198.288 118.934 198.539 117.891Z" fill="#263238"/>
<path d="M201.528 127.852C201.025 127.692 200.83 127.477 201.528 126.83C202.227 126.184 204.532 124.522 204.532 124.522L205.111 125.495C205.111 125.495 202.401 128.046 201.528 127.852Z" fill="black"/>
<path d="M216.356 112.087C216.028 110.655 214.449 109.598 211.599 108.02L211.522 107.979L211.124 107.756C206.396 105.351 183.13 94.8758 179.366 93.4369C176.483 92.2261 173.438 91.4416 170.328 91.1083L175.545 109.383C175.545 109.383 192.832 114.77 199.991 116.959C198.028 119.274 196.108 121.512 194.341 122.319L201.325 128.206C202.876 125.822 212.305 121.04 214.393 117.78C215.881 115.389 216.67 113.484 216.356 112.087Z" fill="#9E6767"/>
<path d="M209.392 109.605C204.629 109.098 200.683 113.164 198.825 115.284C198.636 115.5 198.245 115.979 197.931 116.341L199.942 116.959C200.047 116.841 200.843 115.792 201.339 115.131C203.259 112.376 206.122 110.412 209.392 109.605Z" fill="#874C4C"/>
<path d="M200.725 123.007C199.936 122.312 198.008 120.553 196.779 121.068C194.851 121.881 193.943 122.646 191.045 123.994C188.949 124.974 186.4 126.281 185.848 126.927C184.451 128.582 184.926 132.808 185.485 134.574C185.55 134.799 185.663 135.008 185.817 135.186C185.97 135.364 186.161 135.506 186.376 135.603C186.59 135.7 186.824 135.75 187.059 135.749C187.295 135.747 187.528 135.695 187.741 135.595C187.909 135.964 188.377 136.756 189.836 136.457C189.948 137.007 190.793 137.667 192.099 137.403C192.267 138.008 193.44 138.223 194.23 137.862C195.326 137.375 196.465 135.818 197.156 135.227C197.848 134.636 198.176 134.414 198.19 134.045C198.19 133.545 197.652 133.037 196.73 133.121C197.818 132.819 198.79 132.202 199.524 131.348C200.088 130.568 200.557 129.723 200.921 128.832C201.203 128.089 201.633 127.411 202.185 126.837C203.205 125.697 201.682 123.987 200.858 123.188L200.725 123.007Z" fill="#9E6767"/>
<path d="M196.75 133.142C196.433 133.307 196.135 133.507 195.863 133.739C195.734 133.857 195.617 133.988 195.514 134.129C195.402 134.268 195.325 134.421 195.2 134.574L195.137 134.65L195.053 134.608C194.511 134.397 193.927 134.319 193.349 134.379C193.929 134.146 194.577 134.146 195.158 134.379H195.011C195.197 134.068 195.433 133.788 195.709 133.552C196.025 133.347 196.379 133.207 196.75 133.142Z" fill="#874C4C"/>
<path d="M194.724 136.082C194.794 135.797 194.892 135.554 194.948 135.297C195.015 135.034 195.067 134.767 195.101 134.497C195.236 134.762 195.266 135.067 195.185 135.352C195.116 135.639 194.954 135.895 194.724 136.082Z" fill="#874C4C"/>
<path d="M192.121 137.424C191.78 136.732 191.579 135.981 191.527 135.213C191.448 134.446 191.521 133.672 191.743 132.933C191.696 133.686 191.707 134.441 191.778 135.192C191.83 135.944 191.945 136.691 192.121 137.424Z" fill="#874C4C"/>
<path d="M189.857 136.478C189.537 135.613 189.328 134.712 189.235 133.795C189.121 132.868 189.161 131.929 189.354 131.015C189.34 131.927 189.382 132.839 189.48 133.746C189.563 134.678 189.724 135.575 189.857 136.478Z" fill="#874C4C"/>
<path d="M187.741 135.644C186.909 133.909 186.74 131.933 187.266 130.083C187.183 131.008 187.183 131.939 187.266 132.864C187.344 133.802 187.503 134.733 187.741 135.644Z" fill="#874C4C"/>
<path d="M187.391 128.61C187.375 128.372 187.415 128.133 187.51 127.914C187.609 127.7 187.754 127.51 187.936 127.358C188.311 127.095 188.745 126.928 189.2 126.872C189.005 126.99 188.809 127.094 188.621 127.198C188.43 127.295 188.249 127.412 188.083 127.546C187.747 127.821 187.505 128.192 187.391 128.61Z" fill="#874C4C"/>
<path d="M189.557 129.451C189.534 129.213 189.572 128.974 189.669 128.756C189.767 128.539 189.916 128.349 190.102 128.199C190.471 127.932 190.905 127.764 191.359 127.713L190.779 128.033C190.591 128.135 190.411 128.251 190.241 128.38C189.907 128.658 189.668 129.032 189.557 129.451Z" fill="#874C4C"/>
<path d="M192.176 130.632C192.153 130.395 192.191 130.156 192.288 129.937C192.387 129.721 192.535 129.53 192.721 129.381C193.092 129.116 193.524 128.949 193.978 128.895C193.783 129.013 193.587 129.117 193.398 129.221C193.207 129.318 193.027 129.435 192.861 129.569C192.523 129.84 192.283 130.214 192.176 130.632Z" fill="#874C4C"/>
<path d="M203.113 118.496L200.179 117.516C199.845 117.423 199.494 117.41 199.155 117.478C198.815 117.545 198.496 117.692 198.224 117.905L195.898 119.942C195.796 120.014 195.716 120.112 195.666 120.226C195.615 120.34 195.597 120.465 195.611 120.588C195.611 120.734 195.751 121.283 195.786 121.443C195.821 121.561 195.888 121.668 195.979 121.753C196.07 121.837 196.182 121.896 196.303 121.923L199.236 122.91C199.57 123.002 199.921 123.014 200.261 122.947C200.6 122.879 200.919 122.733 201.192 122.52L203.511 120.477C203.61 120.408 203.69 120.315 203.743 120.207C203.796 120.098 203.819 119.978 203.811 119.858C203.811 119.698 203.664 119.163 203.63 118.982C203.595 118.863 203.529 118.754 203.438 118.669C203.347 118.583 203.235 118.523 203.113 118.496Z" fill="#37474F"/>
<path d="M195.898 119.941L198.224 117.905C198.496 117.692 198.815 117.545 199.155 117.478C199.495 117.41 199.846 117.423 200.18 117.516L203.113 118.496C203.24 118.51 203.359 118.565 203.454 118.651C203.548 118.737 203.613 118.851 203.638 118.976C203.664 119.1 203.649 119.23 203.596 119.346C203.543 119.462 203.455 119.559 203.344 119.622L201.018 121.658C200.745 121.872 200.426 122.018 200.087 122.085C199.747 122.153 199.396 122.14 199.062 122.048L196.129 121.068C196.001 121.053 195.882 120.998 195.788 120.912C195.694 120.826 195.629 120.712 195.604 120.588C195.578 120.463 195.593 120.333 195.646 120.217C195.698 120.101 195.787 120.005 195.898 119.941Z" fill="#455A64"/>
<path d="M200.034 121.805C199.745 121.879 199.442 121.879 199.154 121.805L196.22 120.825C196.032 120.762 195.913 120.665 195.892 120.553C195.871 120.442 195.941 120.317 196.094 120.185L198.413 118.148C198.644 117.964 198.918 117.84 199.209 117.787C199.498 117.712 199.801 117.712 200.09 117.787L203.023 118.767C203.212 118.83 203.33 118.927 203.351 119.038C203.372 119.149 203.302 119.274 203.149 119.407L200.83 121.443C200.599 121.627 200.325 121.752 200.034 121.805Z" fill="#263238"/>
<path d="M198.735 122.438H198.686L196.59 121.742C196.578 121.738 196.566 121.732 196.556 121.723C196.546 121.715 196.538 121.704 196.532 121.693C196.526 121.681 196.523 121.668 196.522 121.655C196.521 121.642 196.523 121.629 196.528 121.617C196.536 121.591 196.553 121.57 196.576 121.557C196.6 121.544 196.627 121.541 196.653 121.547L198.749 122.243C198.762 122.246 198.774 122.252 198.785 122.26C198.795 122.268 198.804 122.279 198.81 122.291C198.816 122.303 198.819 122.316 198.819 122.329C198.82 122.343 198.817 122.356 198.811 122.368C198.805 122.385 198.795 122.4 198.782 122.412C198.768 122.424 198.752 122.433 198.735 122.438Z" fill="#455A64"/>
<path d="M201.207 121.985C201.647 122.117 202.603 122.715 203.016 124.46C203.428 126.204 202.506 127.65 201.507 127.852C201.863 128.088 202.708 127.741 203.749 126.962L204.615 126.316C204.96 126.061 205.236 125.725 205.419 125.338C205.601 124.951 205.685 124.525 205.663 124.098C205.648 123.836 205.609 123.575 205.544 123.32C205.439 122.656 205.194 122.022 204.824 121.46C204.455 120.898 203.969 120.421 203.4 120.06L201.207 121.985Z" fill="#263238"/>
<path d="M133.778 144.729C135.384 137.444 137.829 126.705 137.885 125.092C138.122 118.572 136.432 113.713 135.824 109.661C134.497 100.826 137.822 93.4091 139.889 91.6643C139.889 91.6643 142.041 91.1777 144.604 90.566C146.063 90.2135 147.541 89.9489 149.032 89.7736C152.966 89.2253 156.948 89.118 160.906 89.4539C161.87 89.5512 166.431 90.3297 166.431 90.3297C167.827 90.6495 170.335 91.1082 170.342 91.1082C172.787 93.3523 174.83 95.9945 176.384 98.9213C178.633 102.925 179.743 106.276 179.443 114.853C179.359 117.432 179.254 122.041 179.359 125.718C179.576 133.593 180.176 136.84 181.182 143.985C172.109 149.546 149.221 152.111 133.778 144.729Z" fill="#263238"/>
<path d="M149.73 84.9009C150.415 84.7328 151.081 84.5001 151.721 84.2058C152.644 83.7317 153.671 83.4929 154.71 83.5106C155.988 83.6427 157.036 84.4977 158.251 84.8244C158.937 84.9919 159.65 85.0203 160.347 84.9078C160.78 84.8453 161.192 84.7062 161.618 84.6089C162.315 84.4412 163.037 84.4012 163.748 84.4908C164.472 84.6542 165.224 84.6542 165.948 84.4908C167.08 84.1015 167.729 82.892 168.819 82.4054C170.034 81.8493 171.473 82.329 172.786 82.0857C173.375 81.9584 173.93 81.7063 174.412 81.3464C174.894 80.9866 175.292 80.5274 175.58 80.0003C176.143 78.9334 176.362 77.72 176.209 76.5248C176.01 75.7188 176.01 74.877 176.209 74.071C176.465 73.5688 176.811 73.1167 177.228 72.7364C177.99 71.9023 178.625 70.7553 178.269 69.6849C177.962 68.7465 176.949 68.0931 176.872 67.106C176.871 66.8791 176.92 66.6548 177.017 66.4493C177.114 66.2437 177.255 66.0622 177.431 65.9178C177.607 65.7734 177.813 65.6697 178.034 65.6144C178.255 65.559 178.486 65.5533 178.709 65.5976C178.926 65.6678 179.124 65.7841 179.291 65.9384C179.457 66.0927 179.588 66.2814 179.674 66.4912C179.759 66.701 179.798 66.9269 179.787 67.1531C179.776 67.3794 179.716 67.6005 179.61 67.8011C180.092 67.4967 180.501 67.0892 180.805 66.6083C181.11 66.1274 181.303 65.5851 181.37 65.0207C181.297 64.0458 180.84 63.1391 180.099 62.4974C179.401 61.8023 178.618 61.2393 178.004 60.4885C177.677 60.0782 177.439 59.6048 177.305 59.0983C177.241 58.8511 177.215 58.5956 177.228 58.3406C177.228 57.8888 177.438 57.4439 177.508 56.9921C177.63 56.0635 177.416 55.1218 176.904 54.3359C176.392 53.55 175.616 52.9712 174.714 52.7033C173.736 52.4461 172.563 52.5156 171.92 51.751C171.438 51.1949 171.424 50.3608 171.152 49.7074C170.453 47.9765 168.072 47.4552 166.319 48.1364C165.452 48.4701 164.579 49.04 163.678 48.8315C163.07 48.6086 162.522 48.2467 162.079 47.7749C161.26 47.0943 160.309 46.588 159.285 46.2874C158.775 46.1358 158.251 46.0357 157.721 45.9885C157.455 45.9885 157.19 45.9885 156.924 45.9885C156.723 46.0103 156.52 46.0219 156.317 46.0233C156.146 45.9944 155.973 45.9759 155.8 45.9677C155.58 45.9698 155.361 45.986 155.143 46.0163C154.28 46.1307 153.449 46.4168 152.699 46.8574C152.089 47.2113 151.546 47.6676 151.092 48.2059C150.788 48.6208 150.45 49.0091 150.08 49.3667C149.081 50.2078 147.656 50.1939 146.357 50.3538C144.852 50.5062 143.417 51.0584 142.201 51.9526C141.604 52.4082 141.109 52.9831 140.748 53.6403C140.387 54.2974 140.168 55.0224 140.106 55.7687C140.167 56.4366 140.084 57.1099 139.861 57.7428C139.583 58.1823 139.182 58.5323 138.709 58.7508C137.613 59.2462 136.545 59.8008 135.51 60.4121C134.995 60.7255 134.569 61.1644 134.272 61.6875C133.975 62.2105 133.817 62.8003 133.812 63.4011C133.896 64.409 134.595 65.2431 135.209 66.0703C135.824 66.8975 136.334 67.9193 136.027 68.8855C135.744 69.4624 135.407 70.0117 135.021 70.526C134.667 71.2366 134.608 72.0574 134.858 72.8107C135.108 73.564 135.646 74.189 136.355 74.5507C137.256 74.9677 138.534 75.0789 138.792 76.0312C138.829 76.5812 138.751 77.1327 138.562 77.6509C138.283 79.2844 139.861 80.7789 141.516 81.0013C142.445 81.1334 143.493 81.0013 144.24 81.5643C144.876 82.0509 145.079 82.9129 145.526 83.5802C145.976 84.2393 146.659 84.7058 147.439 84.887C147.817 84.9773 148.215 84.9217 148.585 85.019C148.971 85.0616 149.361 85.0213 149.73 84.9009Z" fill="#263238"/>
<path d="M149.466 87.0766C149.466 85.6308 149.284 78.3669 149.284 78.3669C149.222 78.9091 146.567 80.3827 144.207 77.5814C141.846 74.7801 141.692 71.7981 143.117 69.9352C144.689 67.8498 148.795 67.8985 149.187 71.4366C151.226 71.3601 152.211 70.4843 151.401 67.1408C151.582 65.1945 153.496 64.3604 154.041 61.2393C154.222 60.0509 154.806 58.9596 155.695 58.1458C156.584 57.3319 157.725 56.844 158.93 56.7628C159.896 56.6869 160.866 56.8259 161.771 57.1697C162.676 57.5136 163.493 58.0537 164.162 58.7508C164.406 58.276 164.753 57.8613 165.178 57.5366C165.603 57.212 166.096 56.9857 166.62 56.874C167.946 56.6982 169.29 57.0315 170.379 57.8061C171.467 58.5807 172.219 59.7387 172.48 61.0447C173.194 64.3972 173.495 67.824 173.374 71.2489C173.088 78.9577 171.006 82.6766 168.527 83.9695C166.858 84.8314 165.356 85.033 162.457 84.7897L162.583 87.2087C162.639 88.4251 162.527 89.294 163.714 89.718C164.504 89.9822 166.39 90.3436 166.39 90.3436C166.39 90.3436 169.148 95.0843 161.549 95.5083C149.438 96.2034 144.584 90.58 144.584 90.58L147.266 89.7598C149.243 89.1342 149.452 88.5294 149.466 87.0766Z" fill="#9E6767"/>
<path d="M164.14 76.3724C163.942 76.1176 163.668 75.9324 163.358 75.8437C163.08 75.762 162.794 75.7106 162.506 75.6907C162.225 75.6685 161.943 75.6849 161.667 75.7394C161.513 75.7696 161.361 75.8114 161.213 75.8646C161.089 75.9217 160.974 75.9967 160.871 76.0872C160.808 76.1359 160.717 76.4072 160.871 76.4072C161.017 76.4211 161.165 76.4211 161.311 76.4072L161.695 76.3724C161.968 76.3585 162.24 76.3585 162.512 76.3724C162.778 76.3876 163.04 76.4343 163.295 76.5115C163.407 76.5463 163.518 76.5602 163.63 76.588C163.742 76.6158 163.756 76.6228 163.819 76.6298C163.9 76.6367 163.982 76.6367 164.063 76.6298C164.161 76.6159 164.189 76.435 164.14 76.3724Z" fill="#874C4C"/>
<path opacity="0.2" d="M164.14 76.3724C163.942 76.1176 163.668 75.9324 163.358 75.8437C163.08 75.762 162.794 75.7106 162.506 75.6907C162.225 75.6685 161.943 75.6849 161.667 75.7394C161.513 75.7696 161.361 75.8114 161.213 75.8646C161.089 75.9217 160.974 75.9967 160.871 76.0872C160.808 76.1359 160.717 76.4072 160.871 76.4072C161.017 76.4211 161.165 76.4211 161.311 76.4072L161.695 76.3724C161.968 76.3585 162.24 76.3585 162.512 76.3724C162.778 76.3876 163.04 76.4343 163.295 76.5115C163.407 76.5463 163.518 76.5602 163.63 76.588C163.742 76.6158 163.756 76.6228 163.819 76.6298C163.9 76.6367 163.982 76.6367 164.063 76.6298C164.161 76.6159 164.189 76.435 164.14 76.3724Z" fill="black"/>
<path d="M171.124 64.416L168.079 63.2065C168.148 63.0028 168.258 62.8154 168.403 62.6558C168.547 62.4962 168.723 62.3677 168.919 62.2785C169.116 62.1892 169.329 62.141 169.544 62.1368C169.76 62.1326 169.975 62.1726 170.174 62.2542C170.58 62.4254 170.905 62.7449 171.082 63.1469C171.258 63.549 171.274 64.0031 171.124 64.416Z" fill="#263238"/>
<path d="M160.723 63.422L157.475 62.7269C157.419 62.9347 157.406 63.1518 157.437 63.3647C157.469 63.5776 157.543 63.782 157.656 63.9654C157.769 64.1488 157.918 64.3074 158.095 64.4315C158.272 64.5555 158.472 64.6425 158.683 64.6871C159.122 64.778 159.578 64.6972 159.958 64.4615C160.338 64.2259 160.612 63.8536 160.723 63.422Z" fill="#263238"/>
<path d="M167.799 67.3355C167.772 67.6977 167.888 68.0562 168.123 68.3342C168.358 68.6122 168.693 68.7877 169.056 68.823C169.233 68.8432 169.412 68.8278 169.582 68.7778C169.753 68.7279 169.911 68.6444 170.049 68.5322C170.186 68.42 170.3 68.2815 170.382 68.1249C170.465 67.9683 170.515 67.7967 170.53 67.6204C170.557 67.2582 170.441 66.8997 170.206 66.6217C169.971 66.3437 169.636 66.1682 169.273 66.1329C169.096 66.1127 168.917 66.1281 168.747 66.178C168.576 66.228 168.417 66.3115 168.28 66.4237C168.142 66.5359 168.029 66.6744 167.946 66.831C167.864 66.9876 167.814 67.1592 167.799 67.3355Z" fill="#263238"/>
<path d="M157.88 67.5232C157.853 67.8854 157.969 68.2439 158.204 68.522C158.439 68.8 158.774 68.9754 159.138 69.0107C159.314 69.0319 159.493 69.0175 159.663 68.9683C159.833 68.9192 159.992 68.8363 160.13 68.7247C160.267 68.6131 160.381 68.475 160.464 68.3187C160.546 68.1624 160.597 67.9912 160.611 67.8151C160.639 67.4529 160.522 67.0944 160.287 66.8163C160.052 66.5383 159.717 66.3629 159.354 66.3276C159.178 66.3064 158.999 66.3208 158.829 66.37C158.658 66.4191 158.499 66.502 158.362 66.6136C158.224 66.7252 158.111 66.8633 158.028 67.0196C157.945 67.1758 157.895 67.3471 157.88 67.5232Z" fill="#263238"/>
<path d="M169.036 72.0761L164.566 73.7027L163.378 65.9731C165.097 66.0148 167.304 68.7118 169.036 72.0761Z" fill="#874C4C"/>
<path d="M162.456 84.7758C157.253 84.2406 152.273 82.5376 151.113 80.1742C151.322 81.6575 152.067 83.0142 153.209 83.9904C156.701 86.882 162.568 86.604 162.568 86.604L162.456 84.7758Z" fill="#874C4C"/>
<path d="M131.445 156.887C129.252 157.505 126.444 154.801 125.676 153.849C124.908 152.897 125.893 150.659 126.374 148.768C126.856 146.877 126.374 143.673 128.728 144.597C131.082 145.522 136.013 151.785 131.445 156.887Z" fill="#874C4C"/>
<path d="M139.868 91.6644C133.763 92.568 130.935 94.0208 127.575 100.743C123.664 108.569 117.336 119.455 116.358 122.854C115.443 126.017 113.627 128.276 117.105 133.079C120.283 137.479 130.285 149.004 131.773 150.693C133.072 152.188 132.353 156.477 127.882 155.837C127.882 155.837 131.284 158.833 133.149 158.499C134.762 158.214 137.298 156.81 139.623 151.944C141.09 148.872 139.861 146.467 137.633 143.047C134.965 138.967 129.203 127.588 129.203 127.588L139.512 109.383C139.512 109.383 145.064 97.0654 139.868 91.6644Z" fill="#9E6767"/>
<path d="M201.758 271.191C201.686 270.212 201.241 269.297 200.514 268.633C199.884 267.936 199.025 267.486 198.091 267.361C197.93 267.361 197.846 267.59 197.839 267.715C197.828 267.804 197.84 267.895 197.874 267.978C197.908 268.06 197.964 268.133 198.035 268.188C198.725 268.546 199.37 268.985 199.956 269.495C200.191 269.744 200.391 270.025 200.549 270.329C200.591 270.406 200.628 270.485 200.661 270.565V270.607L200.717 270.753C200.78 270.934 200.864 271.114 200.912 271.302C200.971 271.644 201.001 271.991 201.003 272.338C201.002 272.451 201.028 272.564 201.08 272.665C201.262 272.929 201.513 272.449 201.583 272.268C201.714 271.925 201.774 271.558 201.758 271.191Z" fill="#FAFAFA"/>
<path d="M203.155 266.86C202.474 266.063 201.631 265.416 200.683 264.963C199.73 264.419 198.602 264.27 197.54 264.546C197.274 264.643 197.302 265.241 197.54 265.303C198.505 265.51 199.453 265.792 200.376 266.144C201.103 266.472 201.754 266.945 202.289 267.535C203.623 269.001 204.042 271.045 204.049 272.97C204.049 273.109 204.196 273.096 204.245 272.97C205.293 270.968 204.538 268.508 203.155 266.86Z" fill="#FAFAFA"/>
<path d="M60.5101 67.7666C64.3236 75.4685 73.2918 81.9956 88.9791 82.0095C95.9636 82.0095 101.614 80.7027 106.077 78.5826C109.074 82.2528 115.157 83.6152 119.592 81.9052C119.723 81.854 119.834 81.7649 119.913 81.6497C119.992 81.5344 120.034 81.3982 120.034 81.2588C120.034 81.1193 119.992 80.9832 119.913 80.8679C119.834 80.7526 119.723 80.6636 119.592 80.6123C115.115 78.7494 113.823 75.5867 113.474 73.3553C115.078 71.7178 116.417 69.8417 117.441 67.7944C119.498 63.7517 120.431 59.2348 120.143 54.7122C119.854 50.1897 118.354 45.8265 115.8 42.0753C110.743 34.3943 99.6235 29.5633 88.9721 29.5633C78.3207 29.5633 67.2013 34.3874 62.1445 42.0753C59.5974 45.8246 58.103 50.183 57.8157 54.6997C57.5283 59.2164 58.4585 63.7276 60.5101 67.7666Z" fill="white"/>
<path d="M115.472 82.8921C111.875 82.8921 108.166 81.4254 106.008 78.9022C101.237 81.1265 95.5308 82.2595 89.0072 82.2595H88.9583C70.1978 82.2595 62.9409 73.2231 60.2798 67.8846C58.2067 63.8027 57.2671 59.2438 57.5581 54.6793C57.8492 50.1148 59.3603 45.7106 61.9351 41.9222C66.9081 34.3663 77.7761 29.292 88.9793 29.292C100.182 29.292 111.05 34.3594 116.023 41.9153C118.607 45.7004 120.126 50.1044 120.424 54.6708C120.721 59.2371 119.785 63.7994 117.714 67.8846C116.693 69.924 115.37 71.7987 113.788 73.4455C114.173 75.6629 115.528 78.6241 119.732 80.3967C119.91 80.4696 120.061 80.5944 120.165 80.7544C120.27 80.9145 120.324 81.1024 120.319 81.2933C120.322 81.4823 120.265 81.6674 120.158 81.8231C120.05 81.9788 119.897 82.0973 119.718 82.1622C118.361 82.6659 116.92 82.9134 115.472 82.8921ZM106.147 78.2627L106.273 78.4225C109.137 81.8981 115.067 83.3787 119.502 81.6617C119.583 81.6323 119.652 81.578 119.699 81.5068C119.747 81.4356 119.771 81.3511 119.767 81.2655C119.772 81.1771 119.749 81.0894 119.702 81.0146C119.654 80.9398 119.584 80.8817 119.502 80.8485C114.997 78.9717 113.6 75.7603 113.216 73.3969V73.2717L113.306 73.1814C114.898 71.5425 116.222 69.6663 117.232 67.6205C119.26 63.6239 120.18 59.1608 119.897 54.6921C119.613 50.2234 118.136 45.9111 115.618 42.2002C110.813 34.9085 99.8752 29.8134 89.0072 29.8134C78.1393 29.8134 67.2015 34.9085 62.3961 42.2002C59.8696 45.9137 58.3865 50.2317 58.1004 54.7073C57.8142 59.1828 58.7355 63.6531 60.7687 67.6552C63.3739 72.9172 70.5051 81.7382 89.0072 81.7521C95.5378 81.7521 101.251 80.6052 105.994 78.353L106.147 78.2627Z" fill="#455A64"/>
<path d="M95.4753 61.0099C97.3332 63.0466 97.5009 65.5212 97.5009 68.4893H80.4097C80.4097 65.5212 80.5773 63.0466 82.4352 61.0099C84.2931 58.9733 85.7878 58.2712 86.5491 57.5344C86.8372 57.3442 87.0736 57.0859 87.2371 56.7827C87.4006 56.4795 87.4862 56.1407 87.4862 55.7966C87.4862 55.4525 87.4006 55.1137 87.2371 54.8105C87.0736 54.5073 86.8372 54.249 86.5491 54.0588C85.7878 53.322 84.2861 52.613 82.4352 50.5833C80.5843 48.5535 80.4097 46.072 80.4097 43.1039H97.5009C97.5009 46.072 97.3332 48.5535 95.4753 50.5833C93.6174 52.613 92.1228 53.322 91.3614 54.0588C91.0733 54.249 90.8369 54.5073 90.6734 54.8105C90.5099 55.1137 90.4243 55.4525 90.4243 55.7966C90.4243 56.1407 90.5099 56.4795 90.6734 56.7827C90.8369 57.0859 91.0733 57.3442 91.3614 57.5344C91.7735 57.9306 92.4091 58.3268 93.1914 58.9246C94.0147 59.5493 94.7791 60.2473 95.4753 61.0099Z" fill="#2C96CA"/>
<path opacity="0.6" d="M95.4753 61.0099C97.3332 63.0466 97.5009 65.5212 97.5009 68.4893H80.4097C80.4097 65.5212 80.5773 63.0466 82.4352 61.0099C84.2931 58.9733 85.7878 58.2712 86.5491 57.5344C86.8372 57.3442 87.0736 57.0859 87.2371 56.7827C87.4006 56.4795 87.4862 56.1407 87.4862 55.7966C87.4862 55.4525 87.4006 55.1137 87.2371 54.8105C87.0736 54.5073 86.8372 54.249 86.5491 54.0588C85.7878 53.322 84.2861 52.613 82.4352 50.5833C80.5843 48.5535 80.4097 46.072 80.4097 43.1039H97.5009C97.5009 46.072 97.3332 48.5535 95.4753 50.5833C93.6174 52.613 92.1228 53.322 91.3614 54.0588C91.0733 54.249 90.8369 54.5073 90.6734 54.8105C90.5099 55.1137 90.4243 55.4525 90.4243 55.7966C90.4243 56.1407 90.5099 56.4795 90.6734 56.7827C90.8369 57.0859 91.0733 57.3442 91.3614 57.5344C91.7735 57.9306 92.4091 58.3268 93.1914 58.9246C94.0147 59.5493 94.7791 60.2473 95.4753 61.0099Z" fill="white"/>
<path opacity="0.5" d="M80.8914 68.1418C80.8451 68.1418 80.8007 68.1235 80.7679 68.0909C80.7352 68.0583 80.7168 68.0141 80.7168 67.968C80.7168 65.4726 80.8984 63.1022 82.6655 61.1281C83.5744 60.138 84.5938 59.2541 85.7038 58.4936C86.0788 58.2429 86.4359 57.9665 86.7724 57.6665C87.085 57.4501 87.3405 57.1617 87.5169 56.8258C87.6932 56.4899 87.7854 56.1165 87.7854 55.7375C87.7854 55.3585 87.6932 54.9852 87.5169 54.6493C87.3405 54.3134 87.085 54.025 86.7724 53.8086C86.4371 53.5101 86.0824 53.2338 85.7107 52.9814C84.5987 52.2182 83.5771 51.3321 82.6655 50.34C80.8984 48.4006 80.7378 46.0025 80.7168 43.507C80.7168 43.4609 80.7352 43.4167 80.7679 43.3842C80.8007 43.3516 80.8451 43.3333 80.8914 43.3333C80.9359 43.3333 80.9785 43.3508 81.0099 43.3821C81.0414 43.4134 81.059 43.4558 81.059 43.5001C81.059 45.933 81.2336 48.2616 82.9169 50.1175C83.8116 51.0875 84.8145 51.9527 85.9063 52.6964C86.284 52.9618 86.6433 53.252 86.9819 53.5653C87.3254 53.815 87.6049 54.1419 87.7975 54.5194C87.9901 54.8968 88.0905 55.3142 88.0905 55.7375C88.0905 56.1609 87.9901 56.5782 87.7975 56.9557C87.6049 57.3331 87.3254 57.66 86.9819 57.9097C86.6345 58.222 86.2657 58.51 85.8784 58.7717C84.7851 59.516 83.7819 60.3837 82.889 61.3575C81.2057 63.2065 81.0521 65.5282 81.0311 67.968C81.0319 68.0087 81.0184 68.0483 80.9929 68.0801C80.9673 68.1118 80.9314 68.1337 80.8914 68.1418Z" fill="white"/>
<path d="M94.7198 61.6495C96.1167 63.1717 96.4101 65.125 96.459 67.3702H81.498C81.5469 65.0903 81.7914 63.1578 83.2372 61.6495C84.683 60.1411 86.4641 59.4807 88.9785 59.4807C90.0322 59.4448 91.0826 59.6181 92.0683 59.9904C93.054 60.3628 93.9554 60.9268 94.7198 61.6495Z" fill="#FAFAFA"/>
<path d="M96.3889 45.4881C96.3365 47.0793 95.7486 48.6068 94.7196 49.8256C93.846 50.7745 92.8665 51.6211 91.8 52.3489C91.3953 52.6258 91.0103 52.93 90.6476 53.2595C90.2811 53.5653 89.9817 53.9427 89.7679 54.3683C89.554 54.794 89.4303 55.2589 89.4043 55.7341C89.4043 56.5682 89.2646 56.7837 88.9783 56.7837C88.6919 56.7837 88.5522 56.5891 88.5522 55.7341C88.5262 55.2589 88.4025 54.794 88.1887 54.3683C87.9748 53.9427 87.6754 53.5653 87.3089 53.2595C86.9487 52.93 86.566 52.6257 86.1635 52.3489C85.0933 51.6231 84.1113 50.7764 83.237 49.8256C82.9161 49.4733 82.6393 49.0835 82.4128 48.6648C82.3974 48.6342 82.391 48.5998 82.3945 48.5658C82.3979 48.5317 82.411 48.4993 82.4322 48.4723C82.4534 48.4454 82.4819 48.425 82.5143 48.4135C82.5468 48.4021 82.5818 48.4 82.6153 48.4076C83.964 48.7276 85.3516 48.854 86.7362 48.7829C89.4881 48.6161 90.7244 48.1573 92.4496 46.6976C93.4833 45.8357 94.2656 44.6123 94.957 44.3481C95.1289 44.2536 95.3252 44.212 95.5208 44.2286C95.7165 44.2452 95.9028 44.3193 96.0562 44.4414C96.2095 44.5635 96.323 44.7281 96.3822 44.9145C96.4415 45.1008 96.4438 45.3005 96.3889 45.4881Z" fill="#FAFAFA"/>
<path d="M88.9781 58.5083C89.2597 58.5083 89.488 58.2809 89.488 58.0005C89.488 57.72 89.2597 57.4927 88.9781 57.4927C88.6965 57.4927 88.4683 57.72 88.4683 58.0005C88.4683 58.2809 88.6965 58.5083 88.9781 58.5083Z" fill="#FAFAFA"/>
<path opacity="0.3" d="M93.1906 58.9247C94.0139 59.5494 94.7784 60.2474 95.4746 61.01C97.3325 63.0467 97.5001 65.5213 97.5001 68.4894H82.3716C84.6555 68.4894 91.0464 67.4259 93.3303 65.2015C95.747 62.8312 94.5596 60.8223 93.1906 58.9247Z" fill="#2C96CA"/>
<path opacity="0.3" d="M97.5 43.1248C97.5 46.0929 97.3324 48.5744 95.4745 50.6042C93.6166 52.6339 92.1219 53.3429 91.3606 54.0797C91.0724 54.2699 90.836 54.5282 90.6725 54.8314C90.509 55.1346 90.4235 55.4734 90.4235 55.8175C90.4235 56.1616 90.509 56.5004 90.6725 56.8036C90.836 57.1068 91.0724 57.3651 91.3606 57.5553C88.8531 56.0399 89.2652 54.5176 89.7262 53.5028C90.1872 52.4879 93.3162 50.5694 93.1416 47.7612C92.967 44.9529 88.5737 43.1456 84.397 43.1456L97.5 43.1248Z" fill="#2C96CA"/>
<path d="M99.0439 40.8447C99.0439 41.2448 98.8842 41.6284 98.5999 41.9113C98.3157 42.1942 97.9302 42.3531 97.5282 42.3531H80.437C80.0351 42.3531 79.6495 42.1942 79.3653 41.9113C79.0811 41.6284 78.9214 41.2448 78.9214 40.8447H99.0439Z" fill="#2C96CA"/>
<path opacity="0.2" d="M92.1292 40.8447C92.1273 41.2454 91.9661 41.6291 91.6807 41.9117C91.3954 42.1944 91.0091 42.3531 90.6065 42.3531H80.437C80.0351 42.3531 79.6495 42.1942 79.3653 41.9113C79.0811 41.6284 78.9214 41.2448 78.9214 40.8447H92.1292Z" fill="white"/>
<path d="M100.252 38.9749V39.5588C100.252 39.8998 100.116 40.2269 99.8733 40.4681C99.6309 40.7092 99.3023 40.8447 98.9596 40.8447H79.0187C78.676 40.8447 78.3473 40.7092 78.105 40.4681C77.8627 40.2269 77.7266 39.8998 77.7266 39.5588V38.9749C77.7284 38.9042 77.7579 38.837 77.8088 38.7876C77.8597 38.7383 77.9279 38.7107 77.999 38.7107H99.9654C100.002 38.7078 100.039 38.7125 100.073 38.7245C100.108 38.7365 100.14 38.7555 100.167 38.7803C100.194 38.8051 100.215 38.8352 100.23 38.8687C100.244 38.9022 100.252 38.9384 100.252 38.9749Z" fill="#2C96CA"/>
<path opacity="0.15" d="M100.21 38.9749V39.5588C100.21 39.8998 100.074 40.2269 99.8318 40.4681C99.5895 40.7093 99.2608 40.8447 98.9181 40.8447H78.9982C78.6555 40.8447 78.3268 40.7093 78.0845 40.4681C77.8422 40.2269 77.7061 39.8998 77.7061 39.5588V38.9749C77.7061 38.9048 77.734 38.8377 77.7838 38.7881C77.8336 38.7386 77.9011 38.7108 77.9715 38.7108H99.9379C100.009 38.7107 100.077 38.7383 100.128 38.7877C100.179 38.837 100.208 38.9042 100.21 38.9749Z" fill="black"/>
<path d="M94.5034 38.9749V39.5588C94.5034 39.8998 94.3673 40.2269 94.125 40.4681C93.8827 40.7093 93.554 40.8447 93.2113 40.8447H79.0187C78.676 40.8447 78.3473 40.7093 78.105 40.4681C77.8627 40.2269 77.7266 39.8998 77.7266 39.5588V38.9749C77.7284 38.9042 77.7579 38.837 77.8088 38.7877C77.8597 38.7383 77.9279 38.7107 77.999 38.7108H94.238C94.3084 38.7108 94.3759 38.7386 94.4257 38.7881C94.4755 38.8377 94.5034 38.9048 94.5034 38.9749Z" fill="#2C96CA"/>
<path opacity="0.2" d="M81.1494 40.8447C80.8989 40.5451 80.7617 40.1676 80.7617 39.7777C80.7617 39.3879 80.8989 39.0104 81.1494 38.7108H85.7243C85.9787 39.0086 86.1184 39.3868 86.1184 39.7777C86.1184 40.1687 85.9787 40.5469 85.7243 40.8447H81.1494Z" fill="white"/>
<path opacity="0.2" d="M81.9241 42.3531C81.7558 42.1373 81.6646 41.872 81.6646 41.5989C81.6646 41.3258 81.7558 41.0605 81.9241 40.8447H84.9554C85.1236 41.0605 85.2149 41.3258 85.2149 41.5989C85.2149 41.872 85.1236 42.1373 84.9554 42.3531H81.9241Z" fill="white"/>
<path d="M78.9214 70.6234C78.9214 70.2233 79.0811 69.8396 79.3653 69.5568C79.6495 69.2739 80.0351 69.115 80.437 69.115H97.5282C97.9302 69.115 98.3157 69.2739 98.5999 69.5568C98.8842 69.8396 99.0439 70.2233 99.0439 70.6234H78.9214Z" fill="#2C96CA"/>
<path opacity="0.2" d="M85.8359 70.6234C85.8359 70.2233 85.9956 69.8396 86.2799 69.5568C86.5641 69.2739 86.9496 69.115 87.3516 69.115H97.5281C97.93 69.115 98.3155 69.2739 98.5998 69.5568C98.884 69.8396 99.0437 70.2233 99.0437 70.6234H85.8359Z" fill="white"/>
<path d="M77.7266 72.4932V71.9093C77.7266 71.5683 77.8627 71.2412 78.105 71C78.3473 70.7589 78.676 70.6234 79.0187 70.6234H98.9386C99.2813 70.6234 99.61 70.7589 99.8523 71C100.095 71.2412 100.231 71.5683 100.231 71.9093V72.4932C100.232 72.5285 100.226 72.5636 100.213 72.5965C100.2 72.6293 100.18 72.6593 100.156 72.6845C100.131 72.7098 100.101 72.7299 100.069 72.7436C100.036 72.7573 100.001 72.7643 99.9654 72.7643H77.999C77.9267 72.7643 77.8574 72.7358 77.8063 72.6849C77.7553 72.6341 77.7266 72.5651 77.7266 72.4932Z" fill="#2C96CA"/>
<path opacity="0.15" d="M77.7266 72.4932V71.9093C77.7266 71.5683 77.8627 71.2412 78.105 71C78.3473 70.7589 78.676 70.6234 79.0187 70.6234H98.9386C99.2813 70.6234 99.61 70.7589 99.8523 71C100.095 71.2412 100.231 71.5683 100.231 71.9093V72.4932C100.232 72.5285 100.226 72.5636 100.213 72.5965C100.2 72.6293 100.18 72.6593 100.156 72.6845C100.131 72.7098 100.101 72.7299 100.069 72.7436C100.036 72.7573 100.001 72.7643 99.9654 72.7643H77.999C77.9267 72.7643 77.8574 72.7358 77.8063 72.6849C77.7553 72.6341 77.7266 72.5651 77.7266 72.4932Z" fill="black"/>
<path d="M83.4884 72.4932V71.9093C83.4884 71.5683 83.6246 71.2412 83.8669 71C84.1092 70.7589 84.4379 70.6234 84.7806 70.6234H98.9732C99.3159 70.6234 99.6445 70.7589 99.8868 71C100.129 71.2412 100.265 71.5683 100.265 71.9093V72.4932C100.266 72.5285 100.26 72.5636 100.247 72.5965C100.234 72.6293 100.215 72.6593 100.19 72.6845C100.165 72.7098 100.136 72.7299 100.103 72.7436C100.07 72.7573 100.035 72.7643 99.9999 72.7643H83.7259C83.6592 72.7573 83.5977 72.7255 83.5536 72.6752C83.5096 72.6249 83.4863 72.5599 83.4884 72.4932Z" fill="#2C96CA"/>
<path opacity="0.2" d="M96.8086 70.6234C97.0622 70.923 97.2013 71.3021 97.2013 71.6939C97.2013 72.0856 97.0622 72.4647 96.8086 72.7643H92.2337C91.9827 72.4636 91.8452 72.0849 91.8452 71.6939C91.8452 71.3028 91.9827 70.9241 92.2337 70.6234H96.8086Z" fill="white"/>
<path opacity="0.2" d="M96.0616 69.115C96.2298 69.3307 96.3211 69.5961 96.3211 69.8692C96.3211 70.1423 96.2298 70.4076 96.0616 70.6234H93.0233C92.8562 70.4071 92.7656 70.1419 92.7656 69.8692C92.7656 69.5964 92.8562 69.3312 93.0233 69.115H96.0616Z" fill="white"/>
</svg>
