<svg width="61" height="17" viewBox="0 0 61 17" fill="none" xmlns="http://www.w3.org/2000/svg">
<path fill-rule="evenodd" clip-rule="evenodd" d="M21.3364 -6.10352e-05C22.039 0.468193 22.7536 1.17846 22.7536 1.86446V13.9557C22.7536 14.6332 22.0975 15.5912 21.5 15.9734C23.6076 15.9734 25.7154 15.9734 27.8233 15.9734C31.9145 15.8087 34.3959 14.3709 34.6925 11.3563C34.9006 9.2419 33.7529 7.59725 30.9334 6.67014C32.3401 6.14911 33.0965 5.01457 33.1656 3.44937C33.2843 0.757213 30.0658 -6.10352e-05 28.0414 -6.10352e-05H21.3364V-6.10352e-05ZM25.2612 6.47422V1.43291H27.2015C29.4032 1.43291 30.4403 2.48436 30.44 4.06926C30.4397 5.65417 28.9511 6.47422 27.0931 6.47422H25.2612ZM27.3295 14.4342H25.2612V7.90689H27.6053C31.0973 7.90689 32.1534 9.95095 31.9662 11.6217C31.779 13.2924 30.3041 14.4342 27.3295 14.4342ZM40.2604 -6.10352e-05H36.8244C37.5883 0.827573 37.9216 1.26247 37.9216 2.54531V13.5645C37.9216 14.8337 37.3437 15.6125 36.5147 16.1635H41.0869C40.408 15.7605 39.6772 14.9683 39.6772 13.535V3.80056C41.9869 6.80418 44.2964 9.8075 46.6061 12.8111C47.9159 14.4788 49.434 15.8927 51.2042 16.9999V2.48709C51.2042 1.0338 51.8064 0.479718 52.6117 -6.10352e-05H48.1542C48.962 0.583437 49.3904 1.24245 49.3904 2.42916V12.1482L40.2604 -6.10352e-05V-6.10352e-05ZM55.1417 16.1635C56.0664 15.5664 56.5368 14.8655 56.5368 13.9557V2.41369C56.5368 1.04896 56.1321 0.740533 55.3386 -6.10352e-05H60.6155C59.7049 0.499127 59.0659 1.51813 59.0659 2.41369V13.9238C59.0659 14.807 59.6027 15.6161 60.3308 16.1635H55.1417Z" fill="#007697"/>
<path fill-rule="evenodd" clip-rule="evenodd" d="M0.615723 0H5.70973C5.44367 0.444599 5.24211 1.44358 5.75708 3.68811C6.21505 5.68304 7.5391 7.76411 8.92016 9.40906L7.18456 10.7962L0.615723 2.76161V0ZM8.05439 0H17.0221V2.11533C16.3283 1.72077 15.0634 1.33956 13.206 2.06287C10.2093 3.22956 9.95261 6.64685 9.95261 6.64685C8.2949 4.69771 7.20419 1.50151 8.05439 0V0ZM17.0221 4.92122V11.2175C14.9843 11.9702 12.1262 10.0126 11.4081 7.68889C10.3673 4.32044 12.8207 3.10461 14.5759 3.43791C15.8875 3.6872 16.6492 4.44811 17.0221 4.92122ZM17.0221 12.251V15.9713H11.5259L12.6278 15.0909C11.9088 15.1761 10.4966 14.8471 9.80867 14.0058L7.874 11.6393L9.64262 10.2258C10.7296 11.3922 11.7645 12.2301 12.3499 12.4815C13.6029 13.0195 15.0145 13.2794 17.0221 12.251ZM8.4569 15.9713H2.45288L6.19386 12.9819C6.4998 13.3565 6.79545 13.7183 7.07615 14.0616C7.62726 14.7355 8.0899 15.4011 8.4569 15.9713ZM0.70825 15.9713H0.615723V6.15918C2.04445 7.90665 3.86946 10.139 5.50442 12.1388L0.70825 15.9713Z" fill="#EC6722"/>
</svg>
