<svg width="46" height="37" viewBox="0 0 46 37" fill="none" xmlns="http://www.w3.org/2000/svg">
<path fill-rule="evenodd" clip-rule="evenodd" d="M9.71484 3.77579C9.71484 1.69248 11.4586 0.00384521 13.6099 0.00384521H32.9827C35.134 0.00384521 36.8772 1.69248 36.8772 3.77579V22.5368C36.8772 24.6196 35.134 26.3083 32.9827 26.3083H13.6099C11.4586 26.3083 9.71484 24.6196 9.71484 22.5368V3.77579ZM14.4536 23.7311C13.3064 23.7311 12.3766 22.8303 12.3766 21.7192V4.59904C12.3766 3.48801 13.3064 2.58768 14.4536 2.58768H16.823C19.9449 2.58768 22.257 5.65097 20.2601 7.58782L14.4669 13.2057L19.4387 18.2495C21.8495 20.6951 19.0263 23.7311 16.3518 23.7311H14.4536ZM21.972 2.58768H23.9742C27.0961 2.58768 29.4087 5.65097 27.4113 7.58782L21.6181 13.2057L32.2684 23.727L21.0291 23.725C23.4441 23.725 24.9687 19.7906 22.3838 17.1847L18.4373 13.2057L23.0318 8.61919C25.5057 6.14893 23.7105 2.97155 21.972 2.58768ZM34.2133 21.7192L25.589 13.2057L30.1835 8.61919C32.6574 6.14893 30.8617 2.97155 29.1232 2.58768H32.1326C33.2799 2.58768 34.2096 3.48801 34.2096 4.59904L34.2133 21.7192Z" fill="#1F4396"/>
</svg>
