<svg width="20" height="20" viewBox="0 0 20 20" fill="none" xmlns="http://www.w3.org/2000/svg">
<path d="M7.40555 17.7778C8.0959 17.7778 8.65555 17.2181 8.65555 16.5278C8.65555 15.8374 8.0959 15.2778 7.40555 15.2778C6.71519 15.2778 6.15555 15.8374 6.15555 16.5278C6.15555 17.2181 6.71519 17.7778 7.40555 17.7778Z" fill="#444444"/>
<path d="M15 17.7778C15.6904 17.7778 16.25 17.2181 16.25 16.5278C16.25 15.8374 15.6904 15.2778 15 15.2778C14.3096 15.2778 13.75 15.8374 13.75 16.5278C13.75 17.2181 14.3096 17.7778 15 17.7778Z" fill="#444444"/>
<path d="M12.5389 3.88888C12.5136 3.70477 12.5006 3.51917 12.5 3.33333C12.5006 3.14748 12.5136 2.96189 12.5389 2.77777H6.38333L6.74444 3.88888H12.5389Z" fill="#444444"/>
<path d="M16.6667 7.5H16.4333L15.7389 10.5556H7.40555L4.86666 2.51666C4.8392 2.43136 4.79151 2.35397 4.72766 2.29109C4.66382 2.22821 4.58571 2.18171 4.5 2.15555L2.22222 1.45555C2.15218 1.43403 2.07859 1.42651 2.00564 1.43343C1.9327 1.44035 1.86183 1.46157 1.79709 1.49587C1.66634 1.56516 1.56846 1.68355 1.525 1.825C1.48153 1.96645 1.49603 2.11937 1.56532 2.25012C1.6346 2.38088 1.75299 2.47875 1.89444 2.52222L3.88888 3.13333L6.43888 11.1889L5.52777 11.9333L5.45555 12.0056C5.23018 12.2653 5.10244 12.5954 5.09433 12.9392C5.08622 13.283 5.19824 13.6188 5.41111 13.8889C5.56253 14.073 5.75494 14.2192 5.97296 14.3156C6.19098 14.4121 6.42855 14.4562 6.66666 14.4444H15.9389C16.0862 14.4444 16.2275 14.3859 16.3317 14.2817C16.4359 14.1775 16.4944 14.0362 16.4944 13.8889C16.4944 13.7415 16.4359 13.6002 16.3317 13.496C16.2275 13.3919 16.0862 13.3333 15.9389 13.3333H6.57777C6.5138 13.3311 6.45147 13.3125 6.39681 13.2792C6.34214 13.2459 6.29699 13.199 6.26571 13.1432C6.23444 13.0873 6.21809 13.0244 6.21826 12.9604C6.21843 12.8963 6.2351 12.8335 6.26666 12.7778L7.60555 11.6667H16.1833C16.3118 11.6698 16.4373 11.6283 16.5386 11.5493C16.6399 11.4703 16.7107 11.3587 16.7389 11.2333L17.6111 7.39444C17.3013 7.46548 16.9845 7.5009 16.6667 7.5Z" fill="#444444"/>
<path d="M16.6667 6.1111C18.2008 6.1111 19.4444 4.86744 19.4444 3.33332C19.4444 1.7992 18.2008 0.555542 16.6667 0.555542C15.1325 0.555542 13.8889 1.7992 13.8889 3.33332C13.8889 4.86744 15.1325 6.1111 16.6667 6.1111Z" fill="#2C96CA"/>
</svg>
