<svg width="20" height="20" viewBox="0 0 20 20" fill="none" xmlns="http://www.w3.org/2000/svg">
<path d="M5 13.75H2.5V17.5H5V13.75ZM11.25 8.75H8.75V17.5H11.25V8.75ZM17.5 2.5V17.5H15V2.5H17.5ZM15 1.25C14.6685 1.25 14.3505 1.3817 14.1161 1.61612C13.8817 1.85054 13.75 2.16848 13.75 2.5V17.5C13.75 17.8315 13.8817 18.1495 14.1161 18.3839C14.3505 18.6183 14.6685 18.75 15 18.75H17.5C17.8315 18.75 18.1495 18.6183 18.3839 18.3839C18.6183 18.1495 18.75 17.8315 18.75 17.5V2.5C18.75 2.16848 18.6183 1.85054 18.3839 1.61612C18.1495 1.3817 17.8315 1.25 17.5 1.25H15ZM7.5 8.75C7.5 8.41848 7.6317 8.10054 7.86612 7.86612C8.10054 7.6317 8.41848 7.5 8.75 7.5H11.25C11.5815 7.5 11.8995 7.6317 12.1339 7.86612C12.3683 8.10054 12.5 8.41848 12.5 8.75V17.5C12.5 17.8315 12.3683 18.1495 12.1339 18.3839C11.8995 18.6183 11.5815 18.75 11.25 18.75H8.75C8.41848 18.75 8.10054 18.6183 7.86612 18.3839C7.6317 18.1495 7.5 17.8315 7.5 17.5V8.75ZM1.25 13.75C1.25 13.4185 1.3817 13.1005 1.61612 12.8661C1.85054 12.6317 2.16848 12.5 2.5 12.5H5C5.33152 12.5 5.64946 12.6317 5.88388 12.8661C6.1183 13.1005 6.25 13.4185 6.25 13.75V17.5C6.25 17.8315 6.1183 18.1495 5.88388 18.3839C5.64946 18.6183 5.33152 18.75 5 18.75H2.5C2.16848 18.75 1.85054 18.6183 1.61612 18.3839C1.3817 18.1495 1.25 17.8315 1.25 17.5V13.75Z" fill="#4FAD39"/>
</svg>
