<svg width="17" height="17" viewBox="0 0 17 17" fill="none" xmlns="http://www.w3.org/2000/svg">
<path d="M7.08325 1.41675C10.1525 1.41675 16.2916 2.12508 16.2916 8.50008C16.2916 14.8751 10.1525 15.5834 7.08325 15.5834" fill="#EAC55D"/>
<path d="M7.08325 1.41675C10.1525 1.41675 16.2916 2.12508 16.2916 8.50008C16.2916 14.8751 10.1525 15.5834 7.08325 15.5834" stroke="#444444"/>
<path d="M7.43709 15.5834C3.72068 15.5834 0.707927 12.4121 0.707927 8.50008C0.707927 4.58806 3.72068 1.41675 7.43709 1.41675C11.1535 1.41675 14.1663 4.58806 14.1663 8.50008C14.1663 12.4121 11.1535 15.5834 7.43709 15.5834Z" fill="#EAC55D" stroke="#444444" stroke-linecap="round" stroke-linejoin="round"/>
<path d="M9.20801 6.23341C8.75718 5.86784 8.19468 5.66784 7.61426 5.66675C6.1473 5.66675 4.95801 6.93466 4.95801 8.50008C4.95801 10.0655 6.1473 11.3334 7.61426 11.3334C8.21209 11.3334 8.76388 11.1223 9.20801 10.7667" stroke="#444444" stroke-linecap="round" stroke-linejoin="round"/>
</svg>
