<svg width="15" height="18" viewBox="0 0 15 18" fill="none" xmlns="http://www.w3.org/2000/svg">
<mask id="path-1-outside-1_116_1700" maskUnits="userSpaceOnUse" x="0" y="0" width="15" height="18" fill="black">
<rect fill="white" width="15" height="18"/>
<path fill-rule="evenodd" clip-rule="evenodd" d="M12.3211 2H6.17889C5.6537 2 5.22307 2.40487 5.18209 2.91953H4.18048C4.22272 1.85226 5.10128 1 6.17889 1H12.3211C13.4256 1 14.3211 1.89543 14.3211 3V11.4771C14.3211 12.4765 13.5881 13.3047 12.6304 13.4534V12.4284C13.0313 12.2981 13.3211 11.9215 13.3211 11.4771V3C13.3211 2.44772 12.8733 2 12.3211 2ZM3 5.52304H9.14216C9.69444 5.52304 10.1422 5.97076 10.1422 6.52304V15.0002C10.1422 15.5525 9.69444 16.0002 9.14216 16.0002H3C2.44772 16.0002 2 15.5525 2 15.0002V6.52304C2 5.97076 2.44772 5.52304 3 5.52304ZM1 6.52304C1 5.41847 1.89543 4.52304 3 4.52304H9.14216C10.2467 4.52304 11.1422 5.41847 11.1422 6.52304V15.0002C11.1422 16.1048 10.2467 17.0002 9.14216 17.0002H3C1.89543 17.0002 1 16.1048 1 15.0002V6.52304Z"/>
</mask>
<path fill-rule="evenodd" clip-rule="evenodd" d="M12.3211 2H6.17889C5.6537 2 5.22307 2.40487 5.18209 2.91953H4.18048C4.22272 1.85226 5.10128 1 6.17889 1H12.3211C13.4256 1 14.3211 1.89543 14.3211 3V11.4771C14.3211 12.4765 13.5881 13.3047 12.6304 13.4534V12.4284C13.0313 12.2981 13.3211 11.9215 13.3211 11.4771V3C13.3211 2.44772 12.8733 2 12.3211 2ZM3 5.52304H9.14216C9.69444 5.52304 10.1422 5.97076 10.1422 6.52304V15.0002C10.1422 15.5525 9.69444 16.0002 9.14216 16.0002H3C2.44772 16.0002 2 15.5525 2 15.0002V6.52304C2 5.97076 2.44772 5.52304 3 5.52304ZM1 6.52304C1 5.41847 1.89543 4.52304 3 4.52304H9.14216C10.2467 4.52304 11.1422 5.41847 11.1422 6.52304V15.0002C11.1422 16.1048 10.2467 17.0002 9.14216 17.0002H3C1.89543 17.0002 1 16.1048 1 15.0002V6.52304Z" fill="#4FAE3A"/>
<path d="M5.18209 2.91953V3.16953H5.41297L5.4313 2.93937L5.18209 2.91953ZM4.18048 2.91953L3.93068 2.90964L3.92039 3.16953H4.18048V2.91953ZM12.6304 13.4534H12.3804V13.7452L12.6687 13.7004L12.6304 13.4534ZM12.6304 12.4284L12.5531 12.1906L12.3804 12.2468V12.4284H12.6304ZM6.17889 2.25H12.3211V1.75H6.17889V2.25ZM5.4313 2.93937C5.46201 2.55364 5.78512 2.25 6.17889 2.25V1.75C5.52228 1.75 4.98412 2.2561 4.93287 2.89968L5.4313 2.93937ZM4.18048 3.16953H5.18209V2.66953H4.18048V3.16953ZM6.17889 0.75C4.96652 0.75 3.9782 1.70879 3.93068 2.90964L4.43029 2.92941C4.46724 1.99574 5.23604 1.25 6.17889 1.25V0.75ZM12.3211 0.75H6.17889V1.25H12.3211V0.75ZM14.5711 3C14.5711 1.75736 13.5637 0.75 12.3211 0.75V1.25C13.2875 1.25 14.0711 2.0335 14.0711 3H14.5711ZM14.5711 11.4771V3H14.0711V11.4771H14.5711ZM12.6687 13.7004C13.7463 13.5331 14.5711 12.6017 14.5711 11.4771H14.0711C14.0711 12.3514 13.4298 13.0763 12.592 13.2063L12.6687 13.7004ZM12.3804 12.4284V13.4534H12.8804V12.4284H12.3804ZM13.0711 11.4771C13.0711 11.81 12.854 12.0928 12.5531 12.1906L12.7076 12.6662C13.2085 12.5034 13.5711 12.0329 13.5711 11.4771H13.0711ZM13.0711 3V11.4771H13.5711V3H13.0711ZM12.3211 2.25C12.7353 2.25 13.0711 2.58579 13.0711 3H13.5711C13.5711 2.30965 13.0114 1.75 12.3211 1.75V2.25ZM9.14216 5.27304H3V5.77304H9.14216V5.27304ZM10.3922 6.52304C10.3922 5.83269 9.83251 5.27304 9.14216 5.27304V5.77304C9.55637 5.77304 9.89216 6.10883 9.89216 6.52304H10.3922ZM10.3922 15.0002V6.52304H9.89216V15.0002H10.3922ZM9.14216 16.2502C9.83251 16.2502 10.3922 15.6905 10.3922 15.0002H9.89216C9.89216 15.4144 9.55637 15.7502 9.14216 15.7502V16.2502ZM3 16.2502H9.14216V15.7502H3V16.2502ZM1.75 15.0002C1.75 15.6905 2.30965 16.2502 3 16.2502V15.7502C2.58579 15.7502 2.25 15.4144 2.25 15.0002H1.75ZM1.75 6.52304V15.0002H2.25V6.52304H1.75ZM3 5.27304C2.30964 5.27304 1.75 5.83269 1.75 6.52304H2.25C2.25 6.10883 2.58579 5.77304 3 5.77304V5.27304ZM3 4.27304C1.75736 4.27304 0.75 5.2804 0.75 6.52304H1.25C1.25 5.55654 2.0335 4.77304 3 4.77304V4.27304ZM9.14216 4.27304H3V4.77304H9.14216V4.27304ZM11.3922 6.52304C11.3922 5.2804 10.3848 4.27304 9.14216 4.27304V4.77304C10.1087 4.77304 10.8922 5.55654 10.8922 6.52304H11.3922ZM11.3922 15.0002V6.52304H10.8922V15.0002H11.3922ZM9.14216 17.2502C10.3848 17.2502 11.3922 16.2428 11.3922 15.0002H10.8922C10.8922 15.9667 10.1087 16.7502 9.14216 16.7502V17.2502ZM3 17.2502H9.14216V16.7502H3V17.2502ZM0.75 15.0002C0.75 16.2428 1.75736 17.2502 3 17.2502V16.7502C2.0335 16.7502 1.25 15.9667 1.25 15.0002H0.75ZM0.75 6.52304V15.0002H1.25V6.52304H0.75Z" fill="#4FAE3A" mask="url(#path-1-outside-1_116_1700)"/>
</svg>
