<svg width="56" height="18" viewBox="0 0 56 18" fill="none" xmlns="http://www.w3.org/2000/svg">
<g clip-path="url(#clip0_238_1305)">
<path fill-rule="evenodd" clip-rule="evenodd" d="M7.38378 0.0328992C4.6837 0.314399 2.49555 1.8904 1.1666 4.32306C0.303008 5.90372 -0.102933 7.77638 0.0222508 9.69821C0.328559 14.3999 3.99383 18.3805 8.68522 17.9707C12.8945 17.6029 16.3674 13.4287 16.0117 8.29472C15.8813 6.41505 15.2887 4.86589 14.3388 3.46706C13.9086 2.83373 13.8238 2.82339 13.3746 2.30489C12.8177 1.66173 11.6397 0.923397 10.888 0.596731C9.88006 0.158566 8.59662 -0.0936006 7.38378 0.0328992Z" fill="#108DE8"/>
<path fill-rule="evenodd" clip-rule="evenodd" d="M3.37485 6.37726C3.2725 6.7031 3.33343 10.3259 3.33343 10.9979C3.33343 11.7249 3.20325 11.9519 4.23496 12.3409C6.96662 13.3708 9.67153 9.87893 12.3878 11.6066C12.5137 11.6866 12.667 11.8508 12.703 11.5856L12.7041 6.9251C12.7042 6.42376 12.7449 6.26676 12.4433 6.03526C10.0126 4.1686 7.38088 7.36143 4.91455 7.00326C4.00183 6.87076 3.62386 6.35743 3.37485 6.37726Z" fill="white"/>
<path fill-rule="evenodd" clip-rule="evenodd" d="M22.141 13.5617C23.2058 13.6455 24.4462 12.7352 24.8832 12.2139C26.4013 10.4027 26.4379 7.7822 24.9097 5.88569C24.3406 5.17953 23.0084 4.39902 22.1586 4.50836L19.0896 4.51086L19.0889 13.5504L22.141 13.5617ZM20.8128 11.603C21.0389 11.6464 21.9673 11.6302 22.2224 11.6044C24.3189 11.393 25.0594 8.23303 23.2968 6.90936C23.0043 6.68953 22.6788 6.51436 22.2517 6.46203C22.0178 6.4332 21.0188 6.41536 20.8118 6.45653L20.8128 11.603Z" fill="#108DE8"/>
<path fill-rule="evenodd" clip-rule="evenodd" d="M49.021 13.5785L50.7666 13.5777L50.7684 11.6293L54.2323 11.63L54.2424 13.5778L55.9872 13.5782C55.9884 12.4955 55.9877 11.4215 55.9877 10.3477C55.9877 9.38035 56.0615 8.16936 55.845 7.29186C55.4788 5.8067 54.1976 4.48954 52.5116 4.48221C50.8075 4.47488 49.5704 5.7882 49.1755 7.25186C48.9418 8.11802 49.0198 9.35985 49.0198 10.3133C49.0198 11.4 49.0097 12.4925 49.021 13.5785ZM50.7683 9.66918L54.2409 9.67085C54.2494 8.83519 54.3307 8.02302 53.9905 7.38269C53.7471 6.9247 53.2337 6.44537 52.5125 6.44203C51.7769 6.4387 51.2863 6.89886 51.0238 7.37336C50.6799 7.99569 50.7576 8.85252 50.7683 9.66918Z" fill="#108DE8"/>
<path fill-rule="evenodd" clip-rule="evenodd" d="M29.0543 13.5764L30.794 13.5781C30.795 13.1714 30.7472 11.9249 30.8109 11.6294L34.2614 11.6299L34.2737 13.5767L36.0156 13.5786C36.0065 12.4991 36.0149 11.4212 36.0149 10.3477C36.0149 9.42674 36.0923 8.10724 35.8733 7.29075C34.8764 3.57225 30.2353 3.54592 29.2053 7.25358C28.972 8.09324 29.0517 9.37824 29.0517 10.3134C29.0517 11.3926 29.0293 12.5009 29.0543 13.5764ZM30.795 9.66907L34.272 9.67107C34.2792 8.84757 34.3609 8.02008 34.0198 7.38108C33.3957 6.21158 31.8086 6.04325 31.0535 7.37541C30.7084 7.98441 30.7837 8.86724 30.795 9.66907Z" fill="#108DE8"/>
<path fill-rule="evenodd" clip-rule="evenodd" d="M39.0776 8.03906L39.0539 9.38939C39.0539 10.5216 39.0028 12.6336 39.0575 13.5521L40.7636 13.5531C40.8032 12.9092 40.7019 8.31473 40.81 8.1684C40.8105 7.27557 41.6549 6.4454 42.5089 6.4419C43.0336 6.43973 43.4161 6.67507 43.6946 6.9544C43.912 7.17257 44.2445 7.66956 44.2381 8.17306C44.318 8.22256 44.2549 13.0151 44.28 13.5517L45.9879 13.5531L45.9743 8.06656C46.0169 7.63673 45.7821 6.97223 45.6315 6.6349C44.3672 3.80207 40.7383 3.76457 39.4381 6.58607C39.2857 6.9169 39.0417 7.5994 39.0776 8.03906Z" fill="#108DE8"/>
<path fill-rule="evenodd" clip-rule="evenodd" d="M22.1411 13.5618L19.0888 13.5504L19.0896 4.51095L22.1586 4.50845C22.1028 4.42228 20.8224 4.47378 20.6429 4.47378C20.1965 4.47378 19.4916 4.42745 19.0766 4.48111C19.0374 4.62511 19.0214 13.3471 19.0739 13.5821C19.3565 13.6223 21.3259 13.5913 21.9485 13.5929L22.1196 13.5731C22.1251 13.5714 22.134 13.5656 22.1411 13.5618Z" fill="#79BBE7"/>
<path fill-rule="evenodd" clip-rule="evenodd" d="M44.2381 8.17303C44.2564 8.91253 44.2018 13.3189 44.2644 13.583L46.0036 13.5914C46.049 13.3795 46.021 9.9437 46.021 9.42353C46.021 9.17486 46.0815 8.19803 45.9744 8.06653L45.988 13.553L44.28 13.5517C44.2549 13.015 44.318 8.22253 44.2381 8.17303Z" fill="#79BBE7"/>
<path fill-rule="evenodd" clip-rule="evenodd" d="M40.8104 8.1684C40.7023 8.31473 40.8036 12.9092 40.764 13.5531L39.0578 13.5521C39.0031 12.6336 39.0542 10.5216 39.0542 9.3894L39.0779 8.03906C38.9809 8.08556 39.0243 10.4922 39.0243 10.7926C39.0243 11.2299 38.9771 13.3334 39.045 13.5841L40.7832 13.5911L40.8104 8.1684Z" fill="#79BBE7"/>
</g>
<defs>
<clipPath id="clip0_238_1305">
<rect width="56" height="18" fill="white"/>
</clipPath>
</defs>
</svg>
