<svg width="24" height="24" viewBox="0 0 24 24" fill="none" xmlns="http://www.w3.org/2000/svg">
<path fill-rule="evenodd" clip-rule="evenodd" d="M10.8572 6.28574C9.94785 6.28574 9.07578 6.64696 8.43279 7.28994C7.78981 7.93292 7.42859 8.80499 7.42859 9.71431V15.4286C7.42859 16.3379 7.78981 17.21 8.43279 17.853C9.07578 18.4959 9.94785 18.8572 10.8572 18.8572L13.6777 18.856L15.6377 21.6332C15.7299 21.7634 15.8483 21.8728 15.9853 21.9545C16.1222 22.0362 16.2748 22.0883 16.4332 22.1075L16.5714 22.1166C16.8515 22.1165 17.1219 22.0136 17.3311 21.8273C17.5403 21.6411 17.6738 21.3845 17.7063 21.1063L17.7143 20.9737L17.7154 18.856L18.8572 18.8572C19.7665 18.8572 20.6385 18.4959 21.2815 17.853C21.9245 17.21 22.2857 16.3379 22.2857 15.4286V9.71431C22.2857 8.80499 21.9245 7.93292 21.2815 7.28994C20.6385 6.64696 19.7665 6.28574 18.8572 6.28574H10.8572Z" stroke="#2D96CA" stroke-width="2" stroke-linecap="round" stroke-linejoin="round"/>
<path d="M7.42859 15.4286L5.14287 17.7143V13.1429H4.10744C3.50576 13.1429 2.92833 12.9057 2.50042 12.4827C2.07251 12.0597 1.82865 11.4851 1.82173 10.8834L1.74173 4.02629C1.73825 3.72393 1.79481 3.42387 1.90812 3.14351C2.02142 2.86316 2.18924 2.60807 2.40183 2.39303C2.61443 2.17799 2.86758 2.00727 3.14662 1.89076C3.42567 1.77426 3.72505 1.71427 4.02744 1.71429H14.2857C14.8919 1.71429 15.4733 1.95511 15.902 2.38376C16.3306 2.81242 16.5714 3.3938 16.5714 4.00001V6.28572" stroke="#2D96CA" stroke-width="2" stroke-linecap="round" stroke-linejoin="round"/>
</svg>
