<svg width="21" height="21" viewBox="0 0 21 21" fill="none" xmlns="http://www.w3.org/2000/svg">
<path d="M7.63086 13L13.5386 7" stroke="#2C96CA" stroke-width="2" stroke-linecap="round" stroke-linejoin="round"/>
<path d="M8.12317 8C8.39506 8 8.61547 7.77614 8.61547 7.5C8.61547 7.22386 8.39506 7 8.12317 7C7.85127 7 7.63086 7.22386 7.63086 7.5C7.63086 7.77614 7.85127 8 8.12317 8Z" stroke="#2C96CA" stroke-width="2" stroke-linecap="round" stroke-linejoin="round"/>
<path d="M13.046 13C13.3179 13 13.5383 12.7761 13.5383 12.5C13.5383 12.2239 13.3179 12 13.046 12C12.7741 12 12.5537 12.2239 12.5537 12.5C12.5537 12.7761 12.7741 13 13.046 13Z" stroke="#2C96CA" stroke-width="2" stroke-linecap="round" stroke-linejoin="round"/>
<path d="M3.69228 5.19997C3.69228 4.6165 3.9205 4.05692 4.32673 3.64434C4.73296 3.23176 5.28393 2.99997 5.85843 2.99997H6.84305C7.41501 2.99964 7.96363 2.76957 8.3692 2.35997L9.05843 1.65997C9.25973 1.45437 9.49907 1.29121 9.76267 1.17988C10.0263 1.06855 10.3089 1.01123 10.5944 1.01123C10.8799 1.01123 11.1626 1.06855 11.4262 1.17988C11.6898 1.29121 11.9291 1.45437 12.1304 1.65997L12.8197 2.35997C13.2252 2.76957 13.7739 2.99964 14.3458 2.99997H15.3304C15.9049 2.99997 16.4559 3.23176 16.8621 3.64434C17.2684 4.05692 17.4966 4.6165 17.4966 5.19997V6.19997C17.4969 6.78087 17.7234 7.33806 18.1267 7.74997L18.816 8.44997C19.0184 8.65442 19.1791 8.89749 19.2887 9.16521C19.3983 9.43294 19.4547 9.72003 19.4547 10.01C19.4547 10.2999 19.3983 10.587 19.2887 10.8547C19.1791 11.1225 19.0184 11.3655 18.816 11.57L18.1267 12.27C17.7234 12.6819 17.4969 13.2391 17.4966 13.82V14.82C17.4966 15.4034 17.2684 15.963 16.8621 16.3756C16.4559 16.7882 15.9049 17.02 15.3304 17.02H14.3458C13.7739 17.0203 13.2252 17.2504 12.8197 17.66L12.1304 18.36C11.9291 18.5656 11.6898 18.7287 11.4262 18.8401C11.1626 18.9514 10.8799 19.0087 10.5944 19.0087C10.3089 19.0087 10.0263 18.9514 9.76267 18.8401C9.49907 18.7287 9.25973 18.5656 9.05843 18.36L8.3692 17.66C7.96363 17.2504 7.41501 17.0203 6.84305 17.02H5.85843C5.28393 17.02 4.73296 16.7882 4.32673 16.3756C3.9205 15.963 3.69228 15.4034 3.69228 14.82V13.82C3.69195 13.2391 3.46542 12.6819 3.06212 12.27L2.37289 11.57C2.17046 11.3655 2.00981 11.1225 1.90019 10.8547C1.79056 10.587 1.73413 10.2999 1.73413 10.01C1.73413 9.72003 1.79056 9.43294 1.90019 9.16521C2.00981 8.89749 2.17046 8.65442 2.37289 8.44997L3.06212 7.74997C3.46542 7.33806 3.69195 6.78087 3.69228 6.19997V5.19997" stroke="#2C96CA" stroke-width="2" stroke-linecap="round" stroke-linejoin="round"/>
</svg>
