<svg width="18" height="18" viewBox="0 0 18 18" fill="none" xmlns="http://www.w3.org/2000/svg">
<path d="M15.4125 2.75626C15.4125 2.58751 15.3563 2.47501 15.2438 2.36251C15.1313 2.25001 15.0187 2.19376 14.85 2.19376C14.6812 2.19376 14.5688 2.25001 14.4563 2.36251L12.9375 3.88126C11.8125 3.31876 10.5188 2.98126 9 2.81251C6.1875 3.09376 3.9375 4.10626 2.3625 5.90626C0.7875 7.70626 0 8.71876 0 9.00001C0 9.28126 0.84375 10.2938 2.3625 12.0938C2.75625 12.5438 3.15 12.9375 3.65625 13.275L2.1375 14.85C2.025 14.9625 1.96875 15.075 1.96875 15.2438C1.96875 15.4125 2.025 15.525 2.1375 15.6375C2.25 15.75 2.3625 15.8063 2.53125 15.8063C2.7 15.8063 2.8125 15.75 2.925 15.6375L15.3 3.15001C15.3563 3.03751 15.4125 2.92501 15.4125 2.75626V2.75626ZM4.05 12.0375C2.7 10.8 1.8 9.78751 1.35 9.00001C1.85625 8.15626 2.75625 7.14376 4.05 5.96251C5.34375 4.78126 7.03125 4.05001 9 3.93751C10.125 3.99376 11.1937 4.27501 12.0938 4.72501L11.1375 5.68126C10.5187 5.28751 9.84375 5.06251 9 5.06251C7.875 5.06251 6.975 5.45626 6.1875 6.18751C5.4 6.91876 5.0625 7.87501 5.0625 9.00001C5.0625 9.84376 5.2875 10.575 5.68125 11.1938L4.5 12.4313C4.33125 12.3188 4.1625 12.15 4.05 12.0375V12.0375ZM6.525 10.35C6.3 9.95626 6.1875 9.50626 6.1875 9.00001C6.1875 8.21251 6.46875 7.53751 7.03125 7.03126C7.59375 6.52501 8.2125 6.18751 9 6.18751C9.50625 6.18751 9.95625 6.30001 10.2937 6.52501L6.525 10.35ZM15.6375 5.90626C15.4125 5.62501 15.1312 5.40001 14.9062 5.17501L14.0625 6.01876C15.3562 7.20001 16.2562 8.21251 16.7062 9.00001C16.2 9.84376 15.3 10.8563 14.0062 12.0375C12.7125 13.2188 10.9687 13.95 8.99998 14.0625C8.09998 14.0063 7.25623 13.8375 6.52498 13.5563L5.68123 14.4C6.69373 14.7938 7.76248 15.075 8.99998 15.1875C11.8125 14.9063 14.0625 13.8938 15.6375 12.0938C17.2125 10.2938 18 9.28126 18 9.00001C18 8.71876 17.1562 7.70626 15.6375 5.90626V5.90626Z" fill="#828282"/>
<path d="M8.99999 11.8125C8.77499 11.8125 8.54999 11.7563 8.32499 11.7L7.42499 12.6C7.93124 12.825 8.43749 12.9375 8.99999 12.9375C10.125 12.9375 11.025 12.5438 11.8125 11.8125C12.5437 11.0813 12.9375 10.125 12.9375 9C12.9375 8.4375 12.825 7.875 12.6 7.425L11.7 8.325C11.7562 8.55 11.8125 8.775 11.8125 9C11.8125 9.7875 11.5312 10.4625 10.9687 10.9688C10.4062 11.475 9.78749 11.8125 8.99999 11.8125V11.8125Z" fill="#828282"/>
</svg>
