<svg width="18" height="18" viewBox="0 0 18 18" fill="none" xmlns="http://www.w3.org/2000/svg">
<path d="M8.99994 12.2475C7.20744 12.2475 5.75244 10.7925 5.75244 9C5.75244 7.2075 7.20744 5.7525 8.99994 5.7525C10.7924 5.7525 12.2474 7.2075 12.2474 9C12.2474 10.7925 10.7924 12.2475 8.99994 12.2475ZM8.99994 6.8775C7.82994 6.8775 6.87744 7.83 6.87744 9C6.87744 10.17 7.82994 11.1225 8.99994 11.1225C10.1699 11.1225 11.1224 10.17 11.1224 9C11.1224 7.83 10.1699 6.8775 8.99994 6.8775Z" fill="#828282"/>
<path d="M9.00006 15.765C6.18006 15.765 3.51756 14.115 1.68756 11.25C0.892559 10.0125 0.892559 7.995 1.68756 6.75C3.52506 3.885 6.18756 2.235 9.00006 2.235C11.8126 2.235 14.4751 3.885 16.3051 6.75C17.1001 7.9875 17.1001 10.005 16.3051 11.25C14.4751 14.115 11.8126 15.765 9.00006 15.765ZM9.00006 3.36C6.57756 3.36 4.26006 4.815 2.64006 7.3575C2.07756 8.235 2.07756 9.765 2.64006 10.6425C4.26006 13.185 6.57756 14.64 9.00006 14.64C11.4226 14.64 13.7401 13.185 15.3601 10.6425C15.9226 9.765 15.9226 8.235 15.3601 7.3575C13.7401 4.815 11.4226 3.36 9.00006 3.36Z" fill="#828282"/>
</svg>
