<svg width="24" height="24" viewBox="0 0 24 24" fill="none" xmlns="http://www.w3.org/2000/svg">
<path d="M10.1169 17.9866H2.88281" stroke="white" stroke-width="1.5" stroke-linecap="round" stroke-linejoin="round"/>
<path fill-rule="evenodd" clip-rule="evenodd" d="M21.1184 17.9866C21.1184 19.5772 19.829 20.8666 18.2384 20.8666C16.6478 20.8666 15.3584 19.5772 15.3584 17.9866C15.3584 16.3948 16.6478 15.1066 18.2384 15.1066C19.829 15.1066 21.1184 16.3948 21.1184 17.9866Z" stroke="white" stroke-width="1.5" stroke-linecap="round" stroke-linejoin="round"/>
<path d="M13.8828 6.26212H21.1181" stroke="white" stroke-width="1.5" stroke-linecap="round" stroke-linejoin="round"/>
<path fill-rule="evenodd" clip-rule="evenodd" d="M2.88281 6.26211C2.88281 7.85388 4.17222 9.14211 5.76281 9.14211C7.3534 9.14211 8.64281 7.85388 8.64281 6.26211C8.64281 4.67152 7.3534 3.38211 5.76281 3.38211C4.17222 3.38211 2.88281 4.67152 2.88281 6.26211Z" stroke="white" stroke-width="1.5" stroke-linecap="round" stroke-linejoin="round"/>
</svg>
