<svg width="55" height="21" viewBox="0 0 55 21" fill="none" xmlns="http://www.w3.org/2000/svg">
<path d="M29.8858 18.1579C29.8288 19.3913 29.3545 20.2361 28.4452 20.7475C28.1809 20.896 27.9345 20.7786 27.8142 20.4648C27.7215 20.2229 27.8276 19.9476 28.0766 19.8191C28.7205 19.4862 29.0032 18.804 28.9911 18.1612C28.9763 17.3798 28.5723 16.7838 27.937 16.5276C27.3251 16.2808 26.6861 16.5202 26.2347 17.1655C25.888 17.6611 25.8581 18.5168 26.1624 19.0908C26.331 19.409 26.5544 19.6492 26.8475 19.8092C27.1234 19.9601 27.2209 20.2383 27.1093 20.5136C26.9953 20.7947 26.7251 20.8848 26.4539 20.7261C25.7254 20.3001 25.2482 19.6383 25.1023 18.6992C24.8714 17.2147 25.6715 15.8829 26.8245 15.5134C28.1871 15.0767 29.4961 16.0742 29.8006 17.5182C29.8487 17.7463 29.8633 17.9837 29.8858 18.1579Z" fill="#00AA11"/>
<path d="M33.3654 16.6506C33.3726 16.5326 33.3783 16.4383 33.3847 16.331C33.6204 16.331 33.8474 16.331 34.0883 16.331C34.0937 16.3909 34.1031 16.4474 34.1031 16.504C34.1037 17.4678 34.1081 18.4314 34.1016 19.3952C34.0975 19.99 33.8996 20.4786 33.4412 20.7788C32.8668 21.155 31.971 21.0362 31.4576 20.5365C31.4093 20.4894 31.3634 20.4393 31.3068 20.3808C31.4595 20.2067 31.609 20.036 31.7734 19.8486C32.0297 20.087 32.317 20.2067 32.6525 20.1951C33.1699 20.1772 33.4248 19.8486 33.3573 19.2097C32.9243 19.6025 32.4463 19.6172 31.9613 19.4294C31.6719 19.3172 31.443 19.0927 31.2811 18.7798C30.9391 18.1188 31.0271 17.28 31.5008 16.7681C32.0084 16.2194 32.7762 16.163 33.3654 16.6506ZM33.336 17.9311C33.336 17.3729 33.0743 17.0685 32.5983 17.0735C32.1509 17.0782 31.8492 17.418 31.8328 17.8915C31.8113 18.508 32.1574 18.7859 32.6153 18.7785C33.0855 18.7713 33.336 18.4827 33.336 17.9311Z" fill="black"/>
<path d="M45.2967 16.3211C44.8626 16.7955 44.4673 17.2275 44.0664 17.6657C44.4742 18.2943 44.8732 18.9091 45.2993 19.5661C45.0079 19.5661 44.7668 19.5745 44.5267 19.5599C44.4707 19.5566 44.4044 19.4874 44.3662 19.4282C44.1447 19.0849 43.9303 18.7353 43.713 18.3882C43.6764 18.3297 43.6377 18.2733 43.5724 18.174C43.4159 18.3812 43.2167 18.5446 43.149 18.7629C43.0778 18.9914 43.133 19.2725 43.133 19.5665C43.003 19.5665 42.8904 19.5665 42.7778 19.5665C42.6703 19.5665 42.5629 19.5665 42.4378 19.5665C42.4329 19.47 42.4255 19.3915 42.4255 19.3131C42.4247 18.0974 42.4305 16.8816 42.42 15.6658C42.418 15.4323 42.4799 15.3643 42.6708 15.3882C42.8147 15.4063 42.9617 15.3919 43.1302 15.3919C43.1302 16.1303 43.1302 16.8429 43.1302 17.616C43.3508 17.3856 43.534 17.1974 43.7142 17.0051C43.8972 16.8099 44.0756 16.6086 44.2598 16.4148C44.2997 16.3728 44.3554 16.3267 44.4048 16.3251C44.6831 16.3166 44.9618 16.3211 45.2967 16.3211Z" fill="black"/>
<path d="M39.8679 18.2197C39.9115 18.5628 40.1947 18.8247 40.521 18.8551C40.7967 18.8807 41.055 18.8341 41.2804 18.6264C41.3163 18.5932 41.3939 18.5669 41.425 18.5891C41.5756 18.696 41.7169 18.8207 41.8755 18.9507C41.3866 19.5148 40.8306 19.6701 40.1907 19.487C39.6708 19.338 39.2934 18.9999 39.1713 18.3814C38.9057 17.0356 39.8001 16.1463 40.8338 16.3493C41.4335 16.4669 41.8072 16.8744 41.9478 17.5539C41.9897 17.7571 41.9776 17.9755 41.9922 18.2197C41.6169 18.2197 41.2669 18.2197 40.9171 18.2197C40.5724 18.2197 40.2276 18.2197 39.8679 18.2197ZM41.2555 17.5992C41.2067 17.1958 40.9302 17.0031 40.4638 17.0284C40.1298 17.0467 39.9035 17.2668 39.8868 17.5992C40.3397 17.5992 40.792 17.5992 41.2555 17.5992Z" fill="black"/>
<path d="M36.0099 16.2754C36.8367 16.3135 37.4505 16.91 37.5123 17.8386C37.5544 18.4721 37.314 18.9807 36.833 19.3223C36.2823 19.7135 35.4091 19.6089 34.9428 19.0867C34.2439 18.3037 34.4575 16.9223 35.3531 16.4885C35.5613 16.3876 35.7904 16.345 36.0099 16.2754ZM36.7615 17.9453C36.7602 17.4184 36.4699 17.0696 36.0309 17.0735C35.5383 17.0778 35.2811 17.4459 35.2646 17.9475C35.2487 18.4293 35.6054 18.8162 36.023 18.8127C36.4689 18.8088 36.763 18.4635 36.7615 17.9453Z" fill="black"/>
<path d="M37.9459 16.3236C38.1993 16.3236 38.4222 16.3236 38.6756 16.3236C38.6756 16.3955 38.6756 16.4657 38.6756 16.5361C38.6756 17.7081 38.6761 18.8802 38.6751 20.0524C38.6747 20.6438 38.3771 20.9878 37.8669 20.9897C37.6701 20.9907 37.4733 20.9899 37.2554 20.9899C37.2554 20.8509 37.2554 20.7345 37.2554 20.618C37.2554 20.5006 37.2554 20.3829 37.2554 20.2241C37.3872 20.2241 37.5064 20.2295 37.625 20.2229C37.8949 20.2077 37.9459 20.144 37.9459 19.8356C37.9461 18.7524 37.9459 17.6695 37.9459 16.5863C37.9459 16.5062 37.9459 16.4261 37.9459 16.3236Z" fill="black"/>
<path d="M26.5793 18.1707C26.5241 17.6963 27.0426 17.1251 27.4834 17.1585C27.9708 17.1956 28.3746 17.6366 28.3714 18.2007C28.3684 18.7629 27.9473 19.2597 27.4617 19.2447C26.9764 19.2298 26.5506 18.7841 26.5793 18.1707Z" fill="#00AA11"/>
<path d="M9.7002 16.7159H10.4535C10.8634 16.7159 11.1061 16.9843 11.1061 17.4141C11.1061 17.8506 10.8662 18.1059 10.4535 18.1059H9.92904V18.9789H9.7002V16.7159ZM10.4394 17.8539C10.7379 17.8539 10.8746 17.7149 10.8746 17.4141C10.8746 17.1136 10.7323 16.9681 10.4394 16.9681H9.92904V17.8539H10.4394Z" fill="black"/>
<path d="M11.9153 17.2169C12.3337 17.2169 12.6127 17.5823 12.6127 18.1222C12.6127 18.6619 12.3337 19.0273 11.9153 19.0273C11.4997 19.0273 11.2207 18.6619 11.2207 18.1222C11.2207 17.5823 11.4997 17.2169 11.9153 17.2169ZM11.9153 17.453C11.6224 17.453 11.4383 17.7115 11.4383 18.1222C11.4383 18.5326 11.6224 18.7914 11.9153 18.7914C12.2082 18.7914 12.3951 18.5326 12.3951 18.1222C12.3951 17.7115 12.2082 17.453 11.9153 17.453Z" fill="black"/>
<path d="M12.7524 17.2654H12.9672L13.235 18.5974H13.2407L13.6368 17.2654H13.8347L14.2309 18.5974H14.2364L14.5043 17.2654H14.7191L14.3649 18.9789H14.1584L13.74 17.579H13.7344L13.3131 18.9789H13.1066L12.7524 17.2654Z" fill="black"/>
<path d="M15.5453 17.2169C15.9415 17.2169 16.2064 17.5628 16.2064 18.0672V18.1965H15.0823C15.0878 18.5262 15.2692 18.7978 15.5398 18.7978C15.749 18.7978 15.8661 18.7105 15.9916 18.455L16.173 18.5812C16.0475 18.8754 15.8327 19.0273 15.5453 19.0273C15.1353 19.0273 14.8618 18.6619 14.8618 18.1222C14.8618 17.5823 15.1437 17.2169 15.5453 17.2169ZM15.9861 17.9927C15.9832 17.8344 15.9388 17.7051 15.8577 17.6017C15.7769 17.4981 15.6737 17.4465 15.5453 17.4465C15.2943 17.4465 15.0935 17.7051 15.0878 17.9927H15.9861Z" fill="black"/>
<path d="M16.5161 17.2654H16.7225V17.4077H16.728C16.7839 17.3012 16.8926 17.2365 17.0349 17.2365C17.0795 17.2365 17.1299 17.2462 17.1829 17.2623L17.1352 17.524C17.0824 17.5048 17.032 17.495 16.9903 17.495C16.8144 17.495 16.7336 17.6309 16.7336 17.951V18.9789H16.5161V17.2654Z" fill="black"/>
<path d="M17.967 17.2169C18.3633 17.2169 18.6282 17.5628 18.6282 18.0672V18.1965H17.504C17.5095 18.5262 17.6909 18.7978 17.9615 18.7978C18.1707 18.7978 18.288 18.7105 18.4133 18.455L18.5947 18.5812C18.4692 18.8754 18.2544 19.0273 17.967 19.0273C17.557 19.0273 17.2837 18.6619 17.2837 18.1222C17.2837 17.5823 17.5654 17.2169 17.967 17.2169ZM18.408 17.9927C18.4051 17.8344 18.3605 17.7051 18.2796 17.6017C18.1986 17.4981 18.0954 17.4465 17.967 17.4465C17.7161 17.4465 17.5152 17.7051 17.5095 17.9927H18.408Z" fill="black"/>
<path d="M19.5457 17.217C19.7242 17.217 19.8833 17.3043 19.9811 17.4466H19.9864V16.6189H20.2042V18.9789H19.995V18.8074H19.9893C19.8916 18.9466 19.7271 19.0273 19.5457 19.0273C19.1608 19.0273 18.8818 18.6556 18.8818 18.1222C18.8818 17.5887 19.1608 17.217 19.5457 17.217ZM19.9864 17.954C19.9864 17.676 19.7913 17.453 19.5457 17.453C19.2808 17.453 19.0994 17.718 19.0994 18.1222C19.0994 18.5263 19.2808 18.7915 19.5598 18.7915C19.7942 18.7915 19.9864 18.5651 19.9864 18.2871V17.954Z" fill="black"/>
<path d="M21.5354 18.8074V18.9789H21.3262V16.6189H21.5438V17.4466H21.5493C21.6471 17.3043 21.806 17.217 21.9845 17.217C22.3696 17.217 22.6484 17.5887 22.6484 18.1222C22.6484 18.6556 22.3696 19.0273 21.9845 19.0273C21.8032 19.0273 21.6386 18.9466 21.5409 18.8074H21.5354ZM21.9845 17.453C21.7391 17.453 21.5438 17.676 21.5438 17.954V18.2871C21.5438 18.5651 21.7362 18.7915 21.9706 18.7915C22.2496 18.7915 22.431 18.5263 22.431 18.1222C22.431 17.718 22.2496 17.453 21.9845 17.453Z" fill="black"/>
<path d="M23.2903 18.8335L22.7212 17.2654H22.9527L23.4018 18.5424H23.4075L23.8594 17.2654H24.0909L23.2039 19.7063H22.9779L23.2903 18.8335Z" fill="black"/>
<path d="M6.00201 0C9.31586 0 12.0022 3.00433 12.0022 6.71037C12.0022 10.4166 9.31586 13.4209 6.00201 13.4209C2.68833 13.4209 0.00195312 10.4166 0.00195312 6.71037C0.00195312 3.00433 2.68833 0 6.00201 0Z" fill="#00AED6"/>
<path fill-rule="evenodd" clip-rule="evenodd" d="M9.50186 6.50353C9.45622 5.6496 8.8061 4.99476 8.0419 5.03287H4.25191C4.11367 5.03287 4.00176 4.90765 4.00176 4.75327C4.00176 4.5989 4.11367 4.47368 4.25191 4.47368H8.09189C8.06941 3.89487 7.71608 3.3981 7.21679 3.24353C6.09741 3.01974 4.95135 3.01974 3.83181 3.24353C3.19561 3.41832 2.71964 4.01036 2.63173 4.73655C2.45674 6.05265 2.45674 7.39072 2.63173 8.70682C2.76578 9.4752 3.31171 10.07 4.00176 10.2C5.38975 10.3956 6.794 10.3956 8.18182 10.2C8.80023 10.0599 9.26815 9.49154 9.34197 8.79081C9.46897 8.037 9.52249 7.27017 9.50186 6.50353ZM8.25195 7.44302V7.68917C8.25195 7.84355 8.14004 7.96876 8.00197 7.96876C7.86389 7.96876 7.75199 7.84355 7.75199 7.68917V7.44302C7.67112 7.36428 7.62548 7.24976 7.62683 7.12999C7.62683 6.89823 7.79477 6.71041 8.00197 6.71041C8.209 6.71041 8.37694 6.89823 8.37694 7.12999C8.37576 7.24917 8.33047 7.36253 8.25195 7.44302Z" fill="white"/>
<path d="M29.0923 5.95564C29.1005 4.77895 28.2543 3.81769 27.2022 3.80836C26.1502 3.79922 25.2905 4.74551 25.2823 5.9222C25.2741 7.09889 26.1202 8.06015 27.1723 8.06929C27.1824 8.06949 27.1923 8.06949 27.2022 8.06929C28.2004 8.12918 29.053 7.27271 29.1065 6.15629C29.1097 6.08941 29.1099 6.02253 29.1072 5.95564H29.0923ZM23.4321 5.95564C23.4321 3.71872 25.0122 2.01318 27.2022 2.01318C29.3923 2.01318 30.9722 3.73 30.9722 5.95564C30.9722 8.18128 29.4072 9.90355 27.2022 9.90355C24.9971 9.90355 23.4321 8.18692 23.4321 5.95564Z" fill="black"/>
<path d="M20.4322 6.36367C20.4322 7.28643 19.5923 8.0414 18.5273 8.0414C17.5492 8.15184 16.6761 7.35468 16.5772 6.26081C16.5672 6.15018 16.5655 6.03858 16.5722 5.92756C16.5722 4.70848 17.3722 3.86971 18.6023 3.86971C19.6022 3.86971 20.4322 4.63577 20.4322 5.50254V6.36367ZM20.5073 2.00746V2.89114C19.8986 2.27305 19.0927 1.95632 18.2723 2.0131C16.3323 2.03312 14.7742 3.80827 14.7921 5.97792C14.8101 8.14756 16.3972 9.89005 18.3372 9.87002C19.136 9.90988 19.9134 9.57546 20.4822 8.94726V9.70223C20.4822 10.7255 19.6923 11.4748 18.6523 11.4748C17.8579 11.539 17.0755 11.231 16.4922 10.6248L15.2772 11.9335C16.1882 12.9335 17.4265 13.4713 18.7023 13.4209C20.8323 13.4209 22.2923 11.8215 22.2923 9.69095V2.00746H20.5073Z" fill="black"/>
<path d="M32.0723 2.23686H33.8622V2.89656H33.8872C34.4741 2.2983 35.249 1.98468 36.0424 2.02435C37.9906 2.1064 39.5105 3.93909 39.4372 6.11807C39.3675 8.18175 37.8876 9.83693 36.0424 9.91471C35.2844 9.93434 34.5447 9.65514 33.9523 9.1261V12.8617H32.0874L32.0723 2.23686ZM35.7524 3.86968C34.7523 3.86968 33.9372 4.64701 33.9372 5.49123V6.43635C33.9372 7.33676 34.7424 8.08045 35.7624 8.08045C36.8021 8.14034 37.6883 7.24635 37.742 6.08366C37.7955 4.92077 36.9962 3.92957 35.9564 3.86968C35.8918 3.86599 35.827 3.86599 35.7624 3.86968H35.7524Z" fill="black"/>
<path d="M43.0176 5.23429C44.2427 5.04958 44.6076 4.85398 44.6076 4.47368C44.6076 3.98157 44.1427 3.68526 43.4226 3.68526C42.6465 3.6141 41.9399 4.18611 41.7577 5.03286L39.9976 4.62475C40.2477 3.10372 41.6476 2.0188 43.3726 2.0188C45.3227 2.0188 46.5328 3.13716 46.5328 4.94906V9.69666H44.8578V8.86897H44.8328C44.2644 9.58447 43.4314 9.96458 42.5777 9.89789C41.1027 9.89789 40.0776 8.99768 40.0776 7.66117C40.0776 6.32465 40.9176 5.5586 43.0176 5.23429ZM44.7578 6.0227H44.7328C44.5677 6.29102 44.2326 6.44773 43.3077 6.6266C42.2127 6.85584 41.8077 7.09635 41.8077 7.53245C41.8077 7.96875 42.1326 8.18127 42.8376 8.18127C43.9127 8.18127 44.7427 7.62208 44.7427 6.91183L44.7578 6.0227Z" fill="black"/>
<path d="M49.9079 9.27725L46.8228 2.23694H48.8778L50.9028 7.11305H50.9329L52.9329 2.23694H54.998L50.3779 12.8618H48.3228L49.9079 9.27725Z" fill="black"/>
</svg>
