<svg width="20" height="20" viewBox="0 0 20 20" fill="none" xmlns="http://www.w3.org/2000/svg">
<path d="M6.25001 3.33334C3.71876 3.33334 1.66667 5.38543 1.66667 7.91668C1.66667 12.5 7.08334 16.6667 10 17.6358C12.9167 16.6667 18.3333 12.5 18.3333 7.91668C18.3333 5.38543 16.2813 3.33334 13.75 3.33334C12.2 3.33334 10.8292 4.10293 10 5.28084C9.57737 4.67885 9.01591 4.18755 8.36314 3.84855C7.71038 3.50955 6.98555 3.33282 6.25001 3.33334Z" stroke="black" stroke-linecap="round" stroke-linejoin="round"/>
<path d="M17.5 8C18.8807 8 20 6.88071 20 5.5C20 4.11929 18.8807 3 17.5 3C16.1193 3 15 4.11929 15 5.5C15 6.88071 16.1193 8 17.5 8Z" fill="#2C96CA"/>
</svg>
