<svg width="67" height="26" viewBox="0 0 67 26" fill="none" xmlns="http://www.w3.org/2000/svg">
<g clip-path="url(#clip0_238_1133)">
<path d="M51.0057 14.7506H53.3843V25.6828H51.0057V14.7506ZM45.1519 25.6828V18.1442C45.1519 17.5273 45.1438 16.9355 45.1275 16.3662C45.1114 15.7998 45.0897 15.2625 45.0568 14.7506H47.2375L47.3242 16.707C47.5308 16.0356 47.8618 15.5277 48.3154 15.1826C48.7661 14.8378 49.3309 14.6674 50.0044 14.6674H50.0748L50.0667 17.5382C49.9229 17.5237 49.8169 17.5128 49.7462 17.5055C49.6728 17.4983 49.6079 17.4946 49.5508 17.4946C48.9289 17.4946 48.4429 17.6977 48.0928 18.101C47.7398 18.5035 47.5631 19.0663 47.5631 19.7813V25.6828H45.1519ZM41.5557 14.7506H43.9343V25.6828H41.5557V14.7506ZM37.7013 25.6828L37.6228 24.1221C37.3295 24.7103 36.9767 25.1531 36.5638 25.4507C36.1512 25.7482 35.6843 25.8972 35.1627 25.8972C34.1717 25.8972 33.368 25.378 32.7488 24.3401C32.1324 23.3017 31.8231 21.9263 31.8231 20.2205C31.8231 18.5035 32.1245 17.1281 32.7298 16.0974C33.3354 15.0667 34.1364 14.5511 35.1328 14.5511C35.6731 14.5511 36.1458 14.6925 36.5475 14.9722C36.9522 15.252 37.2996 15.6799 37.5904 16.2532V10H39.9526V23.4834C39.9526 24.0352 39.9581 24.485 39.9714 24.8265C39.9853 25.1709 40.007 25.4579 40.0315 25.6828H37.7013ZM34.2339 20.2387C34.2339 21.3675 34.3807 22.2423 34.6713 22.8629C34.9618 23.4834 35.3717 23.7918 35.8957 23.7918C36.4306 23.7918 36.8571 23.4761 37.1694 22.8411C37.4817 22.206 37.6391 21.3384 37.6391 20.2387C37.6391 19.135 37.4817 18.2605 37.1694 17.6254C36.8571 16.9867 36.4306 16.6674 35.8957 16.6674C35.3717 16.6674 34.9618 16.9791 34.6713 17.6073C34.3807 18.2351 34.2339 19.1135 34.2339 20.2387ZM22.993 25.6828V16.8483C22.993 16.5366 22.9876 16.21 22.974 15.8685C22.9607 15.5277 22.9389 15.1539 22.9145 14.7506H25.1791L25.2278 16.3913C25.5346 15.7308 25.9013 15.248 26.3223 14.9431C26.7431 14.6383 27.259 14.4857 27.87 14.4857C28.7713 14.4857 29.4394 14.8272 29.8764 15.5132C30.3135 16.1951 30.5336 17.2403 30.5336 18.6452V25.6828H28.1956V19.0808C28.1956 18.2641 28.0899 17.6799 27.8806 17.3243C27.6716 16.9722 27.3321 16.7942 26.86 16.7942C26.4036 16.7942 26.0342 16.9904 25.7573 17.3856C25.4776 17.7777 25.3392 18.3005 25.3392 18.9537V25.6828H22.993ZM0.446792 25.6828V16.8483C0.446792 16.4563 0.441084 16.0901 0.430484 15.7453C0.41934 15.4005 0.403303 15.0703 0.384277 14.7506H2.63534L2.69785 16.3913C3.00445 15.7308 3.36839 15.248 3.79213 14.9431C4.21288 14.6383 4.72876 14.4857 5.33705 14.4857C5.95323 14.4857 6.47182 14.6674 6.89828 15.034C7.32175 15.4005 7.63133 15.9302 7.82703 16.6238C8.09312 15.887 8.44048 15.346 8.86939 15.0013C9.29856 14.6565 9.84162 14.4857 10.5013 14.4857C11.4029 14.4857 12.0737 14.8272 12.5137 15.5132C12.9535 16.1951 13.1734 17.2403 13.1734 18.6452V25.6828H10.8111V19.0808C10.8111 18.2641 10.7051 17.6799 10.4961 17.3243C10.2868 16.9722 9.94763 16.7942 9.47496 16.7942C9.01888 16.7942 8.65249 16.9904 8.38069 17.3856C8.10644 17.7777 7.97081 18.3005 7.97081 18.9537V25.6828H5.60858V19.0808C5.60858 18.2714 5.5053 17.6905 5.299 17.3315C5.0927 16.9722 4.75866 16.7942 4.29686 16.7942C3.84105 16.7942 3.47983 16.9904 3.21102 17.3787C2.9422 17.7708 2.80902 18.2932 2.80902 18.9537V25.6828H0.446792ZM19.5648 24.541C19.0883 25.0972 18.156 25.6941 17.5151 25.8866C17.2694 25.9637 17.0014 26 16.7117 26C16.0243 26 15.4492 25.6763 14.9857 25.0318C14.5223 24.384 14.2918 23.5593 14.2918 22.5573C14.2918 21.7526 14.4103 21.0983 14.6454 20.5907C14.8827 20.0799 15.2162 19.6788 15.6489 19.3853C16.077 19.0946 16.6106 18.8843 17.2452 18.7608C17.8799 18.6372 18.5385 18.5439 19.2191 18.4872V18.4269C19.2191 15.8125 16.4296 16.1381 15.2369 17.2556L14.824 15.196C15.7563 14.6111 16.6734 14.3139 17.8136 14.3139C19.8135 14.3139 21.5025 15.5956 21.5025 18.6587V25.7065H19.5648V24.541ZM19.3775 22.408V20.3005C19.0171 20.3466 18.6238 20.4084 18.2025 20.4857C17.7815 20.5664 17.4619 20.6594 17.2436 20.7637C16.9772 20.8908 16.7718 21.0801 16.6323 21.3232C16.4899 21.5698 16.419 21.8903 16.419 22.2914C16.419 25.0601 18.8377 24.1613 19.3775 22.408Z" fill="#0061AE"/>
<path fill-rule="evenodd" clip-rule="evenodd" d="M25.9282 7.89817C26.6449 8.98144 27.9784 11.9189 29.557 11.7377C33.2557 11.3123 35.3619 5.90169 39.9281 6.2877C41.804 6.44658 42.6872 10.7028 44.5471 11.0693C47.4789 11.6474 50.2879 5.5489 55.0663 5.8988C57.0306 6.04252 57.8425 10.5074 59.8006 10.7652C61.6261 11.0057 64.4853 7.50458 66.9981 5.68973C66.3583 4.23201 65.1694 1.95568 63.9037 1.8405C61.412 1.61373 59.4187 5.92011 57.2273 5.16831C55.9517 4.73067 54.4988 -0.00937445 52.3977 1.39275e-05C48.5081 0.0173463 45.824 5.22717 42.385 5.63882C40.4336 5.87244 39.4954 0.000736112 36.8823 0.540568C33.3061 1.279 29.6512 5.26545 25.9282 7.89817Z" fill="url(#paint0_linear_238_1133)"/>
</g>
<defs>
<linearGradient id="paint0_linear_238_1133" x1="28.5208" y1="16.0003" x2="66.9547" y2="4.24261" gradientUnits="userSpaceOnUse">
<stop stop-color="#F6AD02"/>
<stop offset="0.2" stop-color="#FFF000"/>
<stop offset="0.411765" stop-color="#F6AD02"/>
<stop offset="0.658824" stop-color="#FFF000"/>
<stop offset="0.788235" stop-color="#F6AD02"/>
<stop offset="1" stop-color="#FFF000"/>
</linearGradient>
<clipPath id="clip0_238_1133">
<rect width="67" height="26" fill="white"/>
</clipPath>
</defs>
</svg>
