<svg width="20" height="20" viewBox="0 0 20 20" fill="none" xmlns="http://www.w3.org/2000/svg">
<path d="M4.375 6.25C4.20924 6.25 4.05027 6.31585 3.93306 6.43306C3.81585 6.55027 3.75 6.70924 3.75 6.875C3.75 7.04076 3.81585 7.19973 3.93306 7.31694C4.05027 7.43415 4.20924 7.5 4.375 7.5H13.125C13.2908 7.5 13.4497 7.43415 13.5669 7.31694C13.6842 7.19973 13.75 7.04076 13.75 6.875C13.75 6.70924 13.6842 6.55027 13.5669 6.43306C13.4497 6.31585 13.2908 6.25 13.125 6.25H4.375ZM4.375 8.75C4.20924 8.75 4.05027 8.81585 3.93306 8.93306C3.81585 9.05027 3.75 9.20924 3.75 9.375V11.875C3.75 12.0408 3.81585 12.1997 3.93306 12.3169C4.05027 12.4342 4.20924 12.5 4.375 12.5H6.875C7.04076 12.5 7.19973 12.4342 7.31694 12.3169C7.43415 12.1997 7.5 12.0408 7.5 11.875V9.375C7.5 9.20924 7.43415 9.05027 7.31694 8.93306C7.19973 8.81585 7.04076 8.75 6.875 8.75H4.375ZM5 11.25V10H6.25V11.25H5ZM9.375 8.75C9.20924 8.75 9.05027 8.81585 8.93306 8.93306C8.81585 9.05027 8.75 9.20924 8.75 9.375C8.75 9.54076 8.81585 9.69973 8.93306 9.81694C9.05027 9.93415 9.20924 10 9.375 10H13.125C13.2908 10 13.4497 9.93415 13.5669 9.81694C13.6842 9.69973 13.75 9.54076 13.75 9.375C13.75 9.20924 13.6842 9.05027 13.5669 8.93306C13.4497 8.81585 13.2908 8.75 13.125 8.75H9.375ZM9.375 11.25C9.20924 11.25 9.05027 11.3158 8.93306 11.4331C8.81585 11.5503 8.75 11.7092 8.75 11.875C8.75 12.0408 8.81585 12.1997 8.93306 12.3169C9.05027 12.4342 9.20924 12.5 9.375 12.5H13.125C13.2908 12.5 13.4497 12.4342 13.5669 12.3169C13.6842 12.1997 13.75 12.0408 13.75 11.875C13.75 11.7092 13.6842 11.5503 13.5669 11.4331C13.4497 11.3158 13.2908 11.25 13.125 11.25H9.375ZM1.25 5C1.25 4.33696 1.51339 3.70107 1.98223 3.23223C2.45107 2.76339 3.08696 2.5 3.75 2.5H13.75C14.413 2.5 15.0489 2.76339 15.5178 3.23223C15.9866 3.70107 16.25 4.33696 16.25 5C16.913 5 17.5489 5.26339 18.0178 5.73223C18.4866 6.20107 18.75 6.83696 18.75 7.5V13.125C18.75 13.9538 18.4208 14.7487 17.8347 15.3347C17.2487 15.9208 16.4538 16.25 15.625 16.25H4.375C3.5462 16.25 2.75134 15.9208 2.16529 15.3347C1.57924 14.7487 1.25 13.9538 1.25 13.125V5ZM15.625 13.125C15.4592 13.125 15.3003 13.0592 15.1831 12.9419C15.0658 12.8247 15 12.6658 15 12.5V5C15 4.66848 14.8683 4.35054 14.6339 4.11612C14.3995 3.8817 14.0815 3.75 13.75 3.75H3.75C3.41848 3.75 3.10054 3.8817 2.86612 4.11612C2.6317 4.35054 2.5 4.66848 2.5 5V13.125C2.5 13.6223 2.69754 14.0992 3.04917 14.4508C3.40081 14.8025 3.87772 15 4.375 15H15.625C16.1223 15 16.5992 14.8025 16.9508 14.4508C17.3025 14.0992 17.5 13.6223 17.5 13.125V7.5C17.5 7.16848 17.3683 6.85054 17.1339 6.61612C16.8995 6.3817 16.5815 6.25 16.25 6.25V12.5C16.25 12.6658 16.1842 12.8247 16.0669 12.9419C15.9497 13.0592 15.7908 13.125 15.625 13.125Z" fill="#4FAD39"/>
<path d="M4.375 6.25C4.20924 6.25 4.05027 6.31585 3.93306 6.43306C3.81585 6.55027 3.75 6.70924 3.75 6.875C3.75 7.04076 3.81585 7.19973 3.93306 7.31694C4.05027 7.43415 4.20924 7.5 4.375 7.5H13.125C13.2908 7.5 13.4497 7.43415 13.5669 7.31694C13.6842 7.19973 13.75 7.04076 13.75 6.875C13.75 6.70924 13.6842 6.55027 13.5669 6.43306C13.4497 6.31585 13.2908 6.25 13.125 6.25H4.375ZM4.375 8.75C4.20924 8.75 4.05027 8.81585 3.93306 8.93306C3.81585 9.05027 3.75 9.20924 3.75 9.375V11.875C3.75 12.0408 3.81585 12.1997 3.93306 12.3169C4.05027 12.4342 4.20924 12.5 4.375 12.5H6.875C7.04076 12.5 7.19973 12.4342 7.31694 12.3169C7.43415 12.1997 7.5 12.0408 7.5 11.875V9.375C7.5 9.20924 7.43415 9.05027 7.31694 8.93306C7.19973 8.81585 7.04076 8.75 6.875 8.75H4.375ZM5 11.25V10H6.25V11.25H5ZM9.375 8.75C9.20924 8.75 9.05027 8.81585 8.93306 8.93306C8.81585 9.05027 8.75 9.20924 8.75 9.375C8.75 9.54076 8.81585 9.69973 8.93306 9.81694C9.05027 9.93415 9.20924 10 9.375 10H13.125C13.2908 10 13.4497 9.93415 13.5669 9.81694C13.6842 9.69973 13.75 9.54076 13.75 9.375C13.75 9.20924 13.6842 9.05027 13.5669 8.93306C13.4497 8.81585 13.2908 8.75 13.125 8.75H9.375ZM9.375 11.25C9.20924 11.25 9.05027 11.3158 8.93306 11.4331C8.81585 11.5503 8.75 11.7092 8.75 11.875C8.75 12.0408 8.81585 12.1997 8.93306 12.3169C9.05027 12.4342 9.20924 12.5 9.375 12.5H13.125C13.2908 12.5 13.4497 12.4342 13.5669 12.3169C13.6842 12.1997 13.75 12.0408 13.75 11.875C13.75 11.7092 13.6842 11.5503 13.5669 11.4331C13.4497 11.3158 13.2908 11.25 13.125 11.25H9.375ZM1.25 5C1.25 4.33696 1.51339 3.70107 1.98223 3.23223C2.45107 2.76339 3.08696 2.5 3.75 2.5H13.75C14.413 2.5 15.0489 2.76339 15.5178 3.23223C15.9866 3.70107 16.25 4.33696 16.25 5C16.913 5 17.5489 5.26339 18.0178 5.73223C18.4866 6.20107 18.75 6.83696 18.75 7.5V13.125C18.75 13.9538 18.4208 14.7487 17.8347 15.3347C17.2487 15.9208 16.4538 16.25 15.625 16.25H4.375C3.5462 16.25 2.75134 15.9208 2.16529 15.3347C1.57924 14.7487 1.25 13.9538 1.25 13.125V5ZM15.625 13.125C15.4592 13.125 15.3003 13.0592 15.1831 12.9419C15.0658 12.8247 15 12.6658 15 12.5V5C15 4.66848 14.8683 4.35054 14.6339 4.11612C14.3995 3.8817 14.0815 3.75 13.75 3.75H3.75C3.41848 3.75 3.10054 3.8817 2.86612 4.11612C2.6317 4.35054 2.5 4.66848 2.5 5V13.125C2.5 13.6223 2.69754 14.0992 3.04917 14.4508C3.40081 14.8025 3.87772 15 4.375 15H15.625C16.1223 15 16.5992 14.8025 16.9508 14.4508C17.3025 14.0992 17.5 13.6223 17.5 13.125V7.5C17.5 7.16848 17.3683 6.85054 17.1339 6.61612C16.8995 6.3817 16.5815 6.25 16.25 6.25V12.5C16.25 12.6658 16.1842 12.8247 16.0669 12.9419C15.9497 13.0592 15.7908 13.125 15.625 13.125Z" fill="url(#paint0_linear_2_1844)" fill-opacity="0.2"/>
<defs>
<linearGradient id="paint0_linear_2_1844" x1="10" y1="8.61875" x2="10" y2="2.5" gradientUnits="userSpaceOnUse">
<stop stop-color="#964B00"/>
<stop offset="1" stop-color="#964B00" stop-opacity="0"/>
</linearGradient>
</defs>
</svg>
