<svg width="20" height="20" viewBox="0 0 20 20" fill="none" xmlns="http://www.w3.org/2000/svg">
<path d="M9.99992 10C12.3011 10 14.1666 8.13452 14.1666 5.83334C14.1666 3.53215 12.3011 1.66667 9.99992 1.66667C7.69873 1.66667 5.83325 3.53215 5.83325 5.83334C5.83325 8.13452 7.69873 10 9.99992 10Z" stroke="#4FAD39" stroke-width="2"/>
<path d="M14.1666 18.3333H4.38822C4.15187 18.3334 3.91822 18.2832 3.70276 18.186C3.4873 18.0889 3.29497 17.947 3.13853 17.7698C2.9821 17.5927 2.86513 17.3843 2.79539 17.1584C2.72566 16.9326 2.70475 16.6945 2.73405 16.46L3.05905 13.8567C3.13463 13.2519 3.42857 12.6955 3.88558 12.2922C4.34259 11.8889 4.9312 11.6664 5.54072 11.6667H5.83322M13.3332 13.3333L15.2082 15L18.3332 11.6667" stroke="#4FAD39" stroke-width="2" stroke-linecap="round" stroke-linejoin="round"/>
</svg>
