<svg width="20" height="20" viewBox="0 0 20 20" fill="none" xmlns="http://www.w3.org/2000/svg">
<path d="M1.66669 18.3333V10H5.00002V6.66666C5.00002 5.27778 5.48613 4.09722 6.45835 3.125C7.43058 2.15278 8.61113 1.66666 10 1.66666H13.3334C14.7222 1.66666 15.9028 2.15278 16.875 3.125C17.8472 4.09722 18.3334 5.27778 18.3334 6.66666V18.3333H16.6667V15.8333H13.3334V18.3333H1.66669ZM13.3334 14.1667H16.6667V6.66666C16.6667 5.75 16.3403 4.96528 15.6875 4.3125C15.0347 3.65972 14.25 3.33333 13.3334 3.33333H10C9.08335 3.33333 8.29863 3.65972 7.64585 4.3125C6.99308 4.96528 6.66669 5.75 6.66669 6.66666V10H13.3334V14.1667ZM8.33335 8.33333V6.66666H15V8.33333H8.33335ZM7.50002 15.5L11.6667 13.125V11.6667L7.50002 14.0417L3.33335 11.6667V13.125L7.50002 15.5Z" fill="#A1A1A1"/>
</svg>
