<svg width="20" height="20" viewBox="0 0 20 20" fill="none" xmlns="http://www.w3.org/2000/svg">
<path d="M1.66666 18.3333V10H4.99999V6.66666C4.99999 5.27778 5.4861 4.09722 6.45832 3.125C7.43055 2.15278 8.6111 1.66666 9.99999 1.66666H13.3333C14.7222 1.66666 15.9028 2.15278 16.875 3.125C17.8472 4.09722 18.3333 5.27778 18.3333 6.66666V18.3333H16.6667V15.8333H13.3333V18.3333H1.66666ZM13.3333 14.1667H16.6667V6.66666C16.6667 5.75 16.3403 4.96528 15.6875 4.3125C15.0347 3.65972 14.25 3.33333 13.3333 3.33333H9.99999C9.08332 3.33333 8.2986 3.65972 7.64582 4.3125C6.99305 4.96528 6.66666 5.75 6.66666 6.66666V10H13.3333V14.1667ZM8.33332 8.33333V6.66666H15V8.33333H8.33332ZM7.49999 15.5L11.6667 13.125V11.6667L7.49999 14.0417L3.33332 11.6667V13.125L7.49999 15.5Z" fill="#4FAD39"/>
<path d="M1.66666 18.3333V10H4.99999V6.66666C4.99999 5.27778 5.4861 4.09722 6.45832 3.125C7.43055 2.15278 8.6111 1.66666 9.99999 1.66666H13.3333C14.7222 1.66666 15.9028 2.15278 16.875 3.125C17.8472 4.09722 18.3333 5.27778 18.3333 6.66666V18.3333H16.6667V15.8333H13.3333V18.3333H1.66666ZM13.3333 14.1667H16.6667V6.66666C16.6667 5.75 16.3403 4.96528 15.6875 4.3125C15.0347 3.65972 14.25 3.33333 13.3333 3.33333H9.99999C9.08332 3.33333 8.2986 3.65972 7.64582 4.3125C6.99305 4.96528 6.66666 5.75 6.66666 6.66666V10H13.3333V14.1667ZM8.33332 8.33333V6.66666H15V8.33333H8.33332ZM7.49999 15.5L11.6667 13.125V11.6667L7.49999 14.0417L3.33332 11.6667V13.125L7.49999 15.5Z" fill="url(#paint0_linear_2_1709)" fill-opacity="0.2"/>
<defs>
<linearGradient id="paint0_linear_2_1709" x1="9.99999" y1="9.08333" x2="9.99999" y2="1.66666" gradientUnits="userSpaceOnUse">
<stop stop-color="#964B00"/>
<stop offset="1" stop-color="#964B00" stop-opacity="0"/>
</linearGradient>
</defs>
</svg>
