<svg width="24" height="24" viewBox="0 0 24 24" fill="none" xmlns="http://www.w3.org/2000/svg">
<path d="M4.37113 14.2152H3.11563V15.6564H4.33382C4.79428 15.6564 5.25466 15.5377 5.25466 14.9361C5.25466 14.364 4.90628 14.2152 4.37113 14.2152Z" fill="#2D97CA"/>
<path d="M23.4284 9.87173H20.7912L13.3576 3.40849C13.3992 3.27359 13.4286 3.13321 13.4286 2.98533C13.4286 2.19628 12.7891 1.5567 12 1.5567C11.2109 1.5567 10.5714 2.19628 10.5714 2.98533C10.5714 3.13321 10.6008 3.27359 10.6424 3.40849L3.20884 9.87173H0.571621C0.256 9.87173 0 10.1277 0 10.4434V21.8717C0 22.1874 0.256 22.4434 0.571621 22.4434H23.4284C23.744 22.4434 24 22.1874 24 21.8717V10.4434C24 10.1277 23.744 9.87173 23.4284 9.87173ZM11.3904 4.27283C11.5761 4.36032 11.7807 4.41396 12 4.41396C12.2193 4.41396 12.424 4.36032 12.6096 4.27283L19.0502 9.87173H4.94973L11.3904 4.27283ZM6.288 17.1494C6.288 17.7663 6.45078 17.9968 6.45078 18.2488C6.45078 18.5311 6.16143 18.7246 5.87916 18.7246C5.2107 18.7246 5.15832 18.0786 5.15832 17.8626C5.15832 16.9264 4.98804 16.5478 4.31924 16.5478H3.11562V18.1154C3.11562 18.4795 2.87815 18.7245 2.50653 18.7245C2.13491 18.7245 1.89743 18.4795 1.89743 18.1154V13.9923C1.89743 13.4502 2.17945 13.2791 2.61069 13.2791H4.63857C6.08674 13.2791 6.47293 14.0741 6.47293 14.765C6.47293 15.3442 6.13154 15.9163 5.55234 16.0504V16.065C6.17634 16.1538 6.288 16.6071 6.288 17.1494ZM11.0641 18.6283H8.14459C7.7136 18.6283 7.43133 18.4572 7.43133 17.915V13.9923C7.43133 13.4502 7.7136 13.2791 8.14459 13.2791H11.0047C11.3609 13.2791 11.6214 13.3832 11.6214 13.7694C11.6214 14.1559 11.361 14.2598 11.0047 14.2598H8.64952V15.4189H10.7146C11.0346 15.4189 11.2867 15.5077 11.2867 15.8869C11.2867 16.2655 11.0346 16.3551 10.7146 16.3551H8.64952V17.6476H11.0641C11.4211 17.6476 11.681 17.7515 11.681 18.1379C11.681 18.5241 11.4211 18.6283 11.0641 18.6283ZM17.1635 17.9666C17.1635 18.4493 16.9552 18.7246 16.4424 18.7246C16.0563 18.7246 15.9297 18.6428 15.774 18.3978L13.6565 15.0548H13.6417V18.1378C13.6417 18.531 13.419 18.7245 13.055 18.7245C12.6909 18.7245 12.4683 18.531 12.4683 18.1378V13.8959C12.4683 13.3907 12.7133 13.1826 13.2332 13.1826C13.4861 13.1826 13.709 13.2791 13.8423 13.502L15.9746 16.9418H15.9891V13.7694C15.9891 13.3754 16.212 13.1827 16.5767 13.1827C16.9407 13.1827 17.1636 13.3755 17.1636 13.7694V17.9666H17.1635ZM21.9471 14.3046H20.7959V18.1155C20.7959 18.4796 20.5576 18.7246 20.1868 18.7246C19.8149 18.7246 19.5774 18.4796 19.5774 18.1155V14.3046H18.4256C18.0769 14.3046 17.7939 14.1256 17.7939 13.7918C17.7939 13.4572 18.0769 13.2791 18.4256 13.2791H21.9472C22.2964 13.2791 22.5788 13.4572 22.5788 13.7918C22.5787 14.1256 22.2964 14.3046 21.9471 14.3046Z" fill="#2D97CA"/>
</svg>
