<svg width="24" height="24" viewBox="0 0 24 24" fill="none" xmlns="http://www.w3.org/2000/svg">
<g clip-path="url(#clip0_244_1764)">
<path d="M23.5856 0.414486C23.31 0.138912 22.9329 -0.0107344 22.5434 0.000668082L13.6292 0.263507C13.2685 0.27416 12.9255 0.422143 12.6704 0.677324L0.41439 12.9334C-0.138171 13.4859 -0.138171 14.3817 0.41439 14.9343L9.06569 23.5856C9.61825 24.1382 10.5141 24.1382 11.0666 23.5856L23.3227 11.3295C23.5778 11.0744 23.7258 10.7315 23.7365 10.3707L23.9994 1.4566C24.0109 1.06709 23.8612 0.690059 23.5856 0.414486ZM20.6269 10.8786L10.2479 21.2574C10.0993 21.406 9.85845 21.406 9.70989 21.2574L2.74257 14.2901C2.59401 14.1415 2.59401 13.9007 2.74257 13.7521L13.1215 3.37321C13.27 3.22465 13.5109 3.22465 13.6595 3.37321L20.6269 10.3406C20.7754 10.4892 20.7754 10.73 20.6269 10.8786ZM21.936 3.9693C21.4099 4.49548 20.5569 4.49548 20.0307 3.9693C19.5045 3.44321 19.5045 2.59019 20.0307 2.06401C20.5568 1.53784 21.4097 1.53784 21.936 2.06401C22.4622 2.59019 22.4622 3.44321 21.936 3.9693Z" fill="#2D96CA"/>
<path d="M8.29773 15.0877C7.84355 15.2921 7.62765 15.364 7.46493 15.2012C7.33243 15.0688 7.34009 14.8341 7.58986 14.5843C7.71121 14.463 7.83348 14.3746 7.94442 14.3098C8.10222 14.2178 8.15657 14.0162 8.06652 13.8572L8.06502 13.8548C8.01974 13.7749 7.94392 13.7168 7.85511 13.6934C7.76631 13.6702 7.67184 13.6838 7.59319 13.7311C7.44746 13.8189 7.29024 13.9375 7.12819 14.0997C6.52627 14.7014 6.49606 15.398 6.93135 15.8333C7.3023 16.2042 7.81333 16.1625 8.38479 15.8863C8.80127 15.6895 9.01317 15.6591 9.17214 15.8181C9.33877 15.9847 9.30847 16.2346 9.04355 16.4994C8.90256 16.6404 8.73793 16.7528 8.57896 16.8373C8.49623 16.8813 8.43514 16.9572 8.41026 17.0475C8.38529 17.1378 8.39869 17.2344 8.44713 17.3145L8.45012 17.3195C8.54525 17.4767 8.74767 17.5301 8.90814 17.4408C9.09365 17.3375 9.30198 17.1874 9.48259 17.0067C10.1827 16.3066 10.1486 15.6138 9.72096 15.1861C9.36124 14.8266 8.91463 14.8039 8.29773 15.0877Z" fill="#2D96CA"/>
<path d="M12.5048 13.1428L9.88243 11.7617C9.75267 11.6933 9.59362 11.7175 9.48992 11.8211L9.08234 12.2288C8.9783 12.3328 8.95442 12.4925 9.0235 12.6224L10.4246 15.257C10.4843 15.3691 10.5935 15.4462 10.719 15.4651C10.8446 15.4838 10.9717 15.4419 11.0615 15.3521C11.1886 15.2249 11.2155 15.0283 11.1269 14.8718L10.8036 14.3003L11.5341 13.5698L12.1121 13.8806C12.2745 13.968 12.475 13.9385 12.6054 13.8081C12.6994 13.7142 12.7431 13.5812 12.7232 13.45C12.7033 13.3186 12.6223 13.2046 12.5048 13.1428ZM10.4554 13.7855C10.4554 13.7855 9.80436 12.6727 9.69075 12.4834L9.69832 12.4758C9.88759 12.5893 11.0193 13.2214 11.0193 13.2214L10.4554 13.7855Z" fill="#2D96CA"/>
<path d="M14.4565 11.1301C14.3656 11.1301 14.2785 11.1662 14.2142 11.2303L13.442 12.0026L11.6649 10.2254C11.5881 10.1486 11.4839 10.1055 11.3753 10.1055C11.2668 10.1055 11.1625 10.1487 11.0858 10.2254C10.9258 10.3854 10.9258 10.6447 11.0858 10.8045L13.1108 12.8297C13.2415 12.9603 13.4533 12.9603 13.584 12.8297L14.6988 11.7148C14.8326 11.5811 14.8326 11.3642 14.6988 11.2303C14.6345 11.1661 14.5474 11.1301 14.4565 11.1301Z" fill="#2D96CA"/>
<path d="M16.1996 9.2676L15.3877 10.0795L14.7821 9.47385L15.4862 8.76989C15.6158 8.64022 15.6158 8.43023 15.4861 8.30056C15.3565 8.17097 15.1463 8.17097 15.0168 8.30056L14.3128 9.00452L13.7829 8.47468L14.5417 7.71587C14.6724 7.5852 14.6724 7.37338 14.5417 7.24263C14.4789 7.17979 14.3939 7.1445 14.3051 7.1445C14.2163 7.1445 14.1312 7.17979 14.0684 7.24254L12.967 8.34392C12.9043 8.40668 12.869 8.49174 12.869 8.58054C12.869 8.66927 12.9043 8.75441 12.9671 8.81717L15.0451 10.8952C15.1758 11.0258 15.3876 11.0258 15.5183 10.8952L16.6727 9.74085C16.8034 9.61018 16.8034 9.39836 16.6727 9.2676C16.542 9.13693 16.3303 9.13693 16.1996 9.2676Z" fill="#2D96CA"/>
</g>
<defs>
<clipPath id="clip0_244_1764">
<rect width="24" height="24" fill="white"/>
</clipPath>
</defs>
</svg>
