<svg width="20" height="20" viewBox="0 0 20 20" fill="none" xmlns="http://www.w3.org/2000/svg">
<path d="M16.9832 2.88333L13.3332 1.66666C13.3332 2.55072 12.9821 3.39857 12.3569 4.02369C11.7318 4.64881 10.884 5 9.99991 5C9.11586 5 8.26801 4.64881 7.64289 4.02369C7.01777 3.39857 6.66658 2.55072 6.66658 1.66666L3.01658 2.88333C2.6394 3.00899 2.31956 3.26534 2.11479 3.60612C1.91002 3.94689 1.83381 4.34963 1.89991 4.74166L2.38324 7.63333C2.41497 7.82909 2.51548 8.00712 2.6667 8.13542C2.81791 8.26373 3.00993 8.3339 3.20824 8.33333H4.99991V16.6667C4.99991 17.5833 5.74991 18.3333 6.66658 18.3333H13.3332C13.7753 18.3333 14.1992 18.1577 14.5118 17.8452C14.8243 17.5326 14.9999 17.1087 14.9999 16.6667V8.33333H16.7916C16.9899 8.3339 17.1819 8.26373 17.3331 8.13542C17.4843 8.00712 17.5848 7.82909 17.6166 7.63333L18.0999 4.74166C18.166 4.34963 18.0898 3.94689 17.885 3.60612C17.6803 3.26534 17.3604 3.00899 16.9832 2.88333V2.88333Z" stroke="#2C96CA" stroke-width="2" stroke-linecap="round" stroke-linejoin="round"/>
</svg>
