<svg width="50" height="20" viewBox="0 0 50 20" fill="none" xmlns="http://www.w3.org/2000/svg">
<path fill-rule="evenodd" clip-rule="evenodd" d="M2.41614 3.20819H18.5358C19.6068 3.20819 20.4831 4.00531 20.4831 4.97958V15.2405C20.4831 16.2148 19.6068 17.0119 18.5358 17.0119H1.94734C0.876302 17.0119 0 16.2148 0 15.2405V2.56524C0 2.10271 0.418317 1.78451 0.923182 1.72547L15.7879 0C16.2963 0 16.711 0.377241 16.711 0.839771V2.27329H1.49296C1.49296 2.87687 1.6913 3.20491 2.42335 3.20491L2.41614 3.20819ZM11.4568 14.45C10.1009 14.6862 8.35912 14.2761 7.4107 13.3478C6.98156 12.9312 7.67395 12.2981 8.10309 12.7212C8.74138 13.3445 9.87733 13.6364 10.8041 13.6168C11.9869 13.5938 13.0399 12.6162 12.3656 11.5239C11.4352 10.0116 9.14527 10.4348 7.96966 9.24732C7.01763 8.28946 7.4684 6.7805 8.58631 6.1113C9.75111 5.41259 11.767 5.43883 12.7226 6.43934C13.1373 6.86907 12.4449 7.49889 12.0302 7.06589C11.2549 6.25892 9.42655 6.36717 8.72696 7.20038C7.73165 8.38787 9.221 9.02754 10.2596 9.31293C11.6876 9.70657 13.2707 10.425 13.5304 11.9143C13.7395 13.1149 12.7154 14.2302 11.4532 14.4532L11.4568 14.45Z" fill="#EE4E2C"/>
<path fill-rule="evenodd" clip-rule="evenodd" d="M11.4567 14.453C10.1007 14.6892 8.35895 14.2791 7.41053 13.3508C6.98139 12.9342 7.67378 12.3011 8.10291 12.7242C8.74121 13.3475 9.87715 13.6395 10.8039 13.6198C11.9868 13.5968 13.0362 12.6193 12.3654 11.5269C11.435 10.0147 9.1451 10.4378 7.96948 9.25034C7.01745 8.29247 7.46823 6.78351 8.58614 6.11432C9.75094 5.4156 11.7632 5.44513 12.7224 6.44235C13.1335 6.87208 12.4448 7.50191 12.03 7.0689C11.2547 6.26193 9.42638 6.37019 8.72678 7.2034C7.73148 8.39089 9.22083 9.03056 10.2594 9.31595C11.6875 9.70959 13.2706 10.428 13.5338 11.9173C13.743 13.1179 12.7188 14.2332 11.4567 14.4563V14.453Z" fill="#FEFEFE"/>
<path d="M39.217 2.57861C38.64 2.57861 38.1207 2.80167 37.7673 3.15267V2.74263C37.7673 2.37195 37.1146 2.37195 37.1146 2.74263V7.58443C37.1146 7.95511 37.7673 7.95511 37.7673 7.58443V5.42924C38.1243 5.78352 38.64 6.0033 39.217 6.0033C40.288 6.0033 41.1571 5.2357 41.1571 4.29096C41.1571 3.34621 40.288 2.57861 39.217 2.57861ZM39.217 5.3866C38.5318 5.3866 37.9764 4.89454 37.9764 4.29424C37.9764 3.7497 38.4272 3.29701 39.0186 3.215C39.0222 3.215 39.0258 3.215 39.0294 3.215C39.0908 3.20844 39.1521 3.20188 39.217 3.20188C39.7218 3.20188 40.1582 3.47087 40.3493 3.85467V3.85795C40.4142 3.99244 40.4539 4.14006 40.4539 4.29424C40.4539 4.89782 39.8985 5.3866 39.217 5.3866ZM34.3991 6.00658C33.3281 6.00658 32.459 5.23898 32.459 4.29424C32.459 3.34949 33.3281 2.58189 34.3991 2.58189C35.4701 2.58189 36.3392 3.34949 36.3392 4.29424C36.3392 5.23898 35.4701 6.00658 34.3991 6.00658ZM34.3991 3.1986C33.7139 3.1986 33.1586 3.69065 33.1586 4.29096C33.1586 4.89454 33.7139 5.38332 34.3991 5.38332C35.0843 5.38332 35.6396 4.89126 35.6396 4.29096C35.6396 3.68737 35.0843 3.1986 34.3991 3.1986ZM49.9958 4.25815C49.9814 3.47087 49.5234 2.75903 48.5786 2.60157C47.7636 2.46708 46.8116 2.84432 46.4654 3.51679C46.1048 4.21551 46.2562 5.17665 46.9667 5.66543C47.7348 6.19356 48.9356 6.02955 49.7254 5.63918C50.0932 5.45876 49.765 4.96015 49.3936 5.14057C48.8924 5.38988 48.2396 5.50797 47.6807 5.34395C47.2624 5.2193 47.028 4.9011 46.9558 4.54354H49.6713C49.8444 4.54354 49.9995 4.41233 49.9995 4.25487L49.9958 4.25815ZM46.9775 3.96948C46.9811 3.94652 46.9883 3.92684 46.9955 3.90715C47.1506 3.43806 47.6879 3.16579 48.2288 3.15267C48.8491 3.13627 49.1989 3.51679 49.3071 3.96948H46.9775ZM45.6504 4.26143C45.636 3.47415 45.178 2.76231 44.2332 2.60485C43.4182 2.47036 42.4661 2.8476 42.1199 3.52007C41.7593 4.21879 41.9108 5.17993 42.6212 5.66871C43.3893 6.19684 44.5902 6.03283 45.3799 5.64246C45.7478 5.46204 45.4196 4.96343 45.0482 5.14385C44.5469 5.39316 43.8942 5.51125 43.3352 5.34723C42.9169 5.22258 42.6825 4.90438 42.6104 4.54682H45.3258C45.4989 4.54682 45.654 4.41561 45.654 4.25815L45.6504 4.26143ZM42.632 3.97276C42.6356 3.9498 42.6428 3.93012 42.6501 3.91044C42.8051 3.44134 43.3424 3.16907 43.8834 3.15595C44.5036 3.13955 44.8534 3.52007 44.9616 3.97276H42.632ZM31.6945 3.70705V5.70807C31.6945 6.08531 31.0418 6.08531 31.0418 5.70807V3.74642C31.0201 3.35934 30.6559 3.17892 30.6451 3.17564C30.1799 2.99194 29.336 3.07722 28.8348 3.65785V5.71135C28.8348 6.08859 28.1821 6.08859 28.1821 5.71135V0.571032C28.1821 0.193791 28.8348 0.193791 28.8348 0.571032V2.8804C29.6353 2.39491 30.6523 2.4474 31.1319 2.74591C31.1319 2.74591 31.7089 3.0313 31.6981 3.71033L31.6945 3.70705ZM27.1074 0.803938C26.4655 0.160988 25.124 0.144586 24.3451 0.593995C23.5986 1.02372 23.2957 1.99143 23.934 2.60813C24.7201 3.37246 26.2491 3.10019 26.8694 4.07117C27.3166 4.77317 26.617 5.39972 25.8272 5.41612C25.207 5.42924 24.4497 5.23898 24.0241 4.83878C23.7356 4.56979 23.2777 4.97327 23.5625 5.24226C24.1936 5.836 25.3584 6.10171 26.2636 5.94754C27.1074 5.80648 27.789 5.08808 27.6519 4.3172C27.4789 3.36262 26.4222 2.90009 25.4666 2.6475C24.7706 2.4638 23.7789 2.05375 24.4424 1.29271C24.9076 0.758013 26.1301 0.689125 26.6458 1.20742C26.9235 1.48625 27.3815 1.07949 27.1074 0.803938Z" fill="#EE4E2C"/>
<path fill-rule="evenodd" clip-rule="evenodd" d="M44.1358 20H42.0622L44.2836 16.185L40.6414 9.92275H42.8916L45.4087 14.2528L47.9259 9.92275H49.9994L44.1358 20ZM23.4688 17.0149H25.2069V14.1249H27.5509C29.9815 14.1249 31.9541 12.5733 31.9541 10.6608C31.9541 8.74839 29.9815 7.19678 27.5509 7.19678H23.4688C23.4688 10.4706 23.4688 13.7444 23.4688 17.0149ZM25.2069 12.5438V8.77791H27.5509C28.8708 8.77791 29.9418 9.62096 29.9418 10.6608C29.9418 11.7007 28.8708 12.5438 27.5509 12.5438H25.2069ZM38.4632 9.98508H39.9887V16.9558H38.4632V16.1718C37.7817 16.7 36.9018 17.0182 35.9389 17.0182C33.786 17.0182 32.0406 15.4305 32.0406 13.4721C32.0406 11.5137 33.786 9.92603 35.9389 9.92603C36.9018 9.92603 37.7853 10.2442 38.4632 10.7724V9.98836V9.98508ZM35.9389 11.4186C37.1831 11.4186 38.1964 12.3371 38.1964 13.4721C38.1964 14.6038 37.1867 15.5256 35.9389 15.5256C34.6948 15.5256 33.6815 14.6071 33.6815 13.4721C33.6815 12.3404 34.6912 11.4186 35.9389 11.4186Z" fill="#EE4E2C"/>
</svg>
