<svg width="90" height="14" viewBox="0 0 90 14" fill="none" xmlns="http://www.w3.org/2000/svg">
<path d="M7.00008 1.16666L8.80258 4.81833L12.8334 5.4075L9.91675 8.24833L10.6051 12.2617L7.00008 10.3658L3.39508 12.2617L4.08341 8.24833L1.16675 5.4075L5.19758 4.81833L7.00008 1.16666Z" fill="#FFC120" stroke="#FFC120" stroke-width="1.5" stroke-linecap="round" stroke-linejoin="round"/>
<path d="M26.0001 1.16666L27.8026 4.81833L31.8334 5.4075L28.9167 8.24833L29.6051 12.2617L26.0001 10.3658L22.3951 12.2617L23.0834 8.24833L20.1667 5.4075L24.1976 4.81833L26.0001 1.16666Z" fill="#FFC120" stroke="#FFC120" stroke-width="1.5" stroke-linecap="round" stroke-linejoin="round"/>
<path d="M45.0001 1.16666L46.8026 4.81833L50.8334 5.4075L47.9167 8.24833L48.6051 12.2617L45.0001 10.3658L41.3951 12.2617L42.0834 8.24833L39.1667 5.4075L43.1976 4.81833L45.0001 1.16666Z" fill="#FFC120" stroke="#FFC120" stroke-width="1.5" stroke-linecap="round" stroke-linejoin="round"/>
<path d="M64.0001 1.16666L65.8026 4.81833L69.8334 5.4075L66.9167 8.24833L67.6051 12.2617L64.0001 10.3658L60.3951 12.2617L61.0834 8.24833L58.1667 5.4075L62.1976 4.81833L64.0001 1.16666Z" fill="#FFC120" stroke="#FFC120" stroke-width="1.5" stroke-linecap="round" stroke-linejoin="round"/>
<path d="M83.0001 1.16666L84.8026 4.81833L88.8334 5.4075L85.9167 8.24833L86.6051 12.2617L83.0001 10.3658L79.3951 12.2617L80.0834 8.24833L77.1667 5.4075L81.1976 4.81833L83.0001 1.16666Z" stroke="#C4C5C4" stroke-width="1.5" stroke-linecap="round" stroke-linejoin="round"/>
</svg>
