<svg width="21" height="20" viewBox="0 0 21 20" fill="none" xmlns="http://www.w3.org/2000/svg">
<g clip-path="url(#clip0_234_934)">
<path d="M0.769043 4.375C0.769043 3.87772 0.963548 3.40081 1.30977 3.04917C1.65599 2.69754 2.12557 2.5 2.6152 2.5H13.6921C14.1818 2.5 14.6513 2.69754 14.9975 3.04917C15.3438 3.40081 15.5383 3.87772 15.5383 4.375V6.25H16.7937C17.0703 6.25025 17.3433 6.31362 17.5925 6.43543C17.8418 6.55724 18.0609 6.73438 18.2337 6.95375L20.0564 9.26625C20.3187 9.59898 20.4615 10.0125 20.4614 10.4387V13.125C20.4614 13.6223 20.2668 14.0992 19.9206 14.4508C19.5744 14.8025 19.1048 15 18.6152 15H17.9998C17.9998 15.663 17.7405 16.2989 17.2788 16.7678C16.8172 17.2366 16.1911 17.5 15.5383 17.5C14.8854 17.5 14.2593 17.2366 13.7977 16.7678C13.3361 16.2989 13.0767 15.663 13.0767 15H6.92289C6.9236 15.3332 6.8587 15.6632 6.73202 15.9706C6.60535 16.278 6.41944 16.5566 6.18523 16.79C5.95102 17.0233 5.67323 17.2068 5.36821 17.3296C5.06318 17.4523 4.73706 17.5119 4.40903 17.5048C4.081 17.4977 3.75768 17.4241 3.45806 17.2883C3.15845 17.1525 2.8886 16.9572 2.66436 16.7139C2.44013 16.4707 2.26605 16.1843 2.15235 15.8717C2.03865 15.5592 1.98762 15.2266 2.00227 14.8938C1.64172 14.7649 1.32944 14.5255 1.10854 14.2087C0.887647 13.8919 0.769022 13.5132 0.769043 13.125L0.769043 4.375ZM2.36166 13.695C2.58418 13.325 2.89767 13.0202 3.27132 12.8105C3.64496 12.6007 4.0659 12.4934 4.49277 12.4989C4.91963 12.5045 5.33773 12.6228 5.70597 12.8421C6.07421 13.0614 6.37992 13.3743 6.59304 13.75H13.4066C13.6231 13.3703 13.9337 13.0549 14.3075 12.835V4.375C14.3075 4.20924 14.2427 4.05027 14.1273 3.93306C14.0119 3.81585 13.8553 3.75 13.6921 3.75H2.6152C2.45199 3.75 2.29546 3.81585 2.18005 3.93306C2.06465 4.05027 1.99981 4.20924 1.99981 4.375V13.125C1.99972 13.2453 2.03381 13.3631 2.09799 13.4642C2.16218 13.5653 2.25373 13.6454 2.36166 13.695ZM15.5383 12.5C15.9704 12.5 16.3948 12.6155 16.769 12.835C17.1432 13.0544 17.4539 13.37 17.67 13.75H18.6152C18.7784 13.75 18.9349 13.6842 19.0503 13.5669C19.1657 13.4497 19.2306 13.2908 19.2306 13.125V10.4375C19.2303 10.2957 19.1826 10.1581 19.0952 10.0475L17.2737 7.735C17.2161 7.6618 17.1431 7.60268 17.06 7.562C16.9769 7.52132 16.8859 7.50013 16.7937 7.5H15.5383V12.5ZM4.46135 13.75C4.13493 13.75 3.82188 13.8817 3.59107 14.1161C3.36025 14.3505 3.23058 14.6685 3.23058 15C3.23058 15.3315 3.36025 15.6495 3.59107 15.8839C3.82188 16.1183 4.13493 16.25 4.46135 16.25C4.78777 16.25 5.10082 16.1183 5.33164 15.8839C5.56245 15.6495 5.69212 15.3315 5.69212 15C5.69212 14.6685 5.56245 14.3505 5.33164 14.1161C5.10082 13.8817 4.78777 13.75 4.46135 13.75ZM15.5383 13.75C15.2119 13.75 14.8988 13.8817 14.668 14.1161C14.4372 14.3505 14.3075 14.6685 14.3075 15C14.3075 15.3315 14.4372 15.6495 14.668 15.8839C14.8988 16.1183 15.2119 16.25 15.5383 16.25C15.8647 16.25 16.1777 16.1183 16.4086 15.8839C16.6394 15.6495 16.769 15.3315 16.769 15C16.769 14.6685 16.6394 14.3505 16.4086 14.1161C16.1777 13.8817 15.8647 13.75 15.5383 13.75Z" fill="#444444"/>
</g>
<defs>
<clipPath id="clip0_234_934">
<rect width="19.6923" height="20" fill="white" transform="translate(0.769043)"/>
</clipPath>
</defs>
</svg>
