<svg width="21" height="20" viewBox="0 0 21 20" fill="none" xmlns="http://www.w3.org/2000/svg">
<path d="M10.4615 12.5C11.8236 12.5 12.9149 11.3833 12.9149 10L12.9231 5C12.9231 3.61667 11.8236 2.5 10.4615 2.5C9.0995 2.5 8.00001 3.61667 8.00001 5V10C8.00001 11.3833 9.0995 12.5 10.4615 12.5ZM9.47693 4.91667C9.47693 4.36667 9.92001 3.91667 10.4615 3.91667C11.0031 3.91667 11.4462 4.36667 11.4462 4.91667L11.438 10.0833C11.438 10.6333 11.0031 11.0833 10.4615 11.0833C9.92001 11.0833 9.47693 10.6333 9.47693 10.0833V4.91667ZM14.8103 10C14.8103 12.5 12.7262 14.25 10.4615 14.25C8.19693 14.25 6.11283 12.5 6.11283 10H4.71796C4.71796 12.8417 6.94975 15.1917 9.64103 15.6V18.3333H11.2821V15.6C13.9733 15.2 16.2051 12.85 16.2051 10H14.8103Z" fill="#9B9B9B"/>
</svg>
