<?xml version="1.0" standalone="yes"?>
<svg xmlns="http://www.w3.org/2000/svg" width="43" height="43">
<path style="fill:#0c0d0b; stroke:none;" d="M0 0L0 43L43 43L43 0L0 0z"/>
<path style="fill:#4d976d; stroke:none;" d="M4 2L4 30L5 30L4 2z"/>
<path style="fill:#eae105; stroke:none;" d="M5 2C5 10.5501 2.16322 25.3297 6.3179 32.9568C12.3189 43.9732 31.1019 42.727 36.5432 31.9961C40.5317 24.1304 38 10.6598 38 2L5 2z"/>
<path style="fill:#becbab; stroke:none;" d="M6 13L12 30C16.4769 30 26.6168 31.9089 29.9252 28.3966C37.8741 19.9577 34.3842 4.40319 21 4.92901C16.0013 5.1254 10.2794 10.6265 6 13z"/>
<path style="fill:#4d976d; stroke:none;" d="M21 5L22 6L21 5M19 6L20 7L19 6z"/>
<path style="fill:#11903b; stroke:none;" d="M17 8L17 9C29.736 6.94318 34.1363 19.6829 24 27C29.7495 29.1823 34.0873 20.2393 33.4722 15.1852C32.696 8.80756 21.7814 5.841 17 8z"/>
<path style="fill:#4d976d; stroke:none;" d="M24 7L25 8L24 7M16 8L11 24L18 27L18 28L13 28L13 29L29 29L29 28L18 26L26 24L26 23L17 22L17 26L16 26L13 20L19 21L18 18C15.4971 18.6088 14.386 19.895 14 17L13 17L13 19L12 19L18 12L16 8M19 8L19 9L30 19L27 20C25.5604 17.3347 24.1202 18.7596 23 21C25.8752 20.8982 27.7852 20.7785 28 24L29 24L28 20L31 21L29 16L30 13L26 12C25.2166 8.33289 22.4883 8.19098 19 8z"/>
<path style="fill:#11903b; stroke:none;" d="M15 9L16 10L15 9z"/>
<path style="fill:#0c0d0b; stroke:none;" d="M17 10L18 12L12 19L13 19L13 17L14 17L15 20L22 10L27 20L30 19C26.8267 13.7192 23.9703 8.1225 17 10z"/>
<path style="fill:#4d976d; stroke:none;" d="M27 9L28 10L27 9z"/>
<path style="fill:#11903b; stroke:none;" d="M11 23L12 23L15 10C7.83553 12.8107 8.86099 16.6502 11 23z"/>
<path style="fill:#becbab; stroke:none;" d="M18 10L19 11L18 10z"/>
<path style="fill:#4d976d; stroke:none;" d="M21 10L22 11L21 10z"/>
<path style="fill:#0c0d0b; stroke:none;" d="M24 10L25 11L24 10z"/>
<path style="fill:#4d976d; stroke:none;" d="M11 11L12 12L11 11z"/>
<path style="fill:#0c0d0b; stroke:none;" d="M15 11L16 12L15 11z"/>
<path style="fill:#eae105; stroke:none;" d="M20 11L20 12L22 12L22 13L17 18L23 14L25 19L26 19L20 11z"/>
<path style="fill:#0c0d0b; stroke:none;" d="M26 11L27 12L26 11z"/>
<path style="fill:#4d976d; stroke:none;" d="M19 12L19 13L22 13L19 12M32 12L33 13L32 12M8 13L9 14L8 13M23 13L24 14L23 13z"/>
<path style="fill:#0c0d0b; stroke:none;" d="M28 13L29 14L28 13z"/>
<path style="fill:#4d976d; stroke:none;" d="M35 13L36 14L35 13z"/>
<path style="fill:#becbab; stroke:none;" d="M23 14C13.9195 16.9506 25.2824 24.9686 23 14z"/>
<path style="fill:#0c0d0b; stroke:none;" d="M29.3333 14.6667L29.6667 15.3333L29.3333 14.6667z"/>
<path style="fill:#4d976d; stroke:none;" d="M34 14L35 15L34 14M17 15L18 16L17 15M21 16L21 19L22 19L21 16M25 16L26 17L25 16z"/>
<path style="fill:#becbab; stroke:none;" d="M16 17L17 18L16 17z"/>
<path style="fill:#4d976d; stroke:none;" d="M9 18L10 19L9 18M32 19L33 20L32 19z"/>
<path style="fill:#0c0d0b; stroke:none;" d="M13 20L17 24L13 20z"/>
<path style="fill:#becbab; stroke:none;" d="M15 20L16 21L15 20z"/>
<path style="fill:#eae105; stroke:none;" d="M14 21L14 22L28 22L14 21z"/>
<path style="fill:#becbab; stroke:none;" d="M26 20L27 21L26 20z"/>
<path style="fill:#0c0d0b; stroke:none;" d="M28 20L30 22L30 20L28 20z"/>
<path style="fill:#4d976d; stroke:none;" d="M10 21L11 22L10 21z"/>
<path style="fill:#0c0d0b; stroke:none;" d="M20 22L21 23L20 22M22.6667 22.3333L23.3333 22.6667L22.6667 22.3333M25 22L28 25L29 22L25 22z"/>
<path style="fill:#4d976d; stroke:none;" d="M31 22L32 23L31 22z"/>
<path style="fill:#11903b; stroke:none;" d="M12 23C12.8272 26.7948 14.1714 27.6956 18 28L18 27L12 23z"/>
<path style="fill:#becbab; stroke:none;" d="M16.3333 24.6667L16.6667 25.3333L16.3333 24.6667z"/>
<path style="fill:#0c0d0b; stroke:none;" d="M18 24L18 25L25 25L18 24z"/>
<path style="fill:#becbab; stroke:none;" d="M25 24L24 27L25 27L25 24z"/>
<path style="fill:#eae105; stroke:none;" d="M26 24L27 25L26 24z"/>
<path style="fill:#4d976d; stroke:none;" d="M30 24L31 25L30 24z"/>
<path style="fill:#eae105; stroke:none;" d="M18 25L19 26L18 25M23 25L24 26L23 25z"/>
<path style="fill:#4d976d; stroke:none;" d="M25 25L25 27L27 25L25 25M12 26L13 27L12 26z"/>
<path style="fill:#eae105; stroke:none;" d="M20 26L21 27L20 26z"/>
<path style="fill:#becbab; stroke:none;" d="M21.6667 26.3333L22.3333 26.6667L21.6667 26.3333z"/>
<path style="fill:#4d976d; stroke:none;" d="M29 27L30 28L29 27M37 30L38 31L37 30M5 32L6 33L5 32M36 32L37 33L36 32z"/>
<path style="fill:#becbab; stroke:none;" d="M6 33L7 34L6 33z"/>
<path style="fill:#4d976d; stroke:none;" d="M11 33L13 35L11 33z"/>
<path style="fill:#becbab; stroke:none;" d="M12 33L13 34L12 33z"/>
<path style="fill:#4d976d; stroke:none;" d="M31 33L32 34L31 33M14 34L15 35L14 34M16.3333 34.6667L16.6667 35.3333L16.3333 34.6667z"/>
<path style="fill:#becbab; stroke:none;" d="M18 34L19 35L18 34M24 34L25 35L24 34M26 34L27 35L26 34z"/>
<path style="fill:#4d976d; stroke:none;" d="M27.3333 34.6667L27.6667 35.3333L27.3333 34.6667M29 34L30 35L29 34M35 34L36 35L35 34z"/>
<path style="fill:#becbab; stroke:none;" d="M14 35L15 36L14 35z"/>
<path style="fill:#4d976d; stroke:none;" d="M18 35L19 36L18 35M20 35L20 36L23 36L20 35M24 35L25 36L24 35M34 35L35 36L34 35M33 36L34 37L33 36M10 37L11 38L10 37z"/>
<path style="fill:#becbab; stroke:none;" d="M12 38L13 39L12 38z"/>
<path style="fill:#4d976d; stroke:none;" d="M30 38L31 39L30 38M14.6667 39.3333L15.3333 39.6667L14.6667 39.3333z"/>
<path style="fill:#becbab; stroke:none;" d="M26 39L27 40L26 39z"/>
<path style="fill:#4d976d; stroke:none;" d="M27 39L28 40L27 39M18 40L19 41L18 40M24 40L25 41L24 40M20 41L21 42L20 41M22 41L23 42L22 41z"/>
</svg>
