<?xml version="1.0" standalone="yes"?>
<svg xmlns="http://www.w3.org/2000/svg" width="37" height="42">
<path style="fill:#dcbf1c; stroke:none;" d="M0 0C4.08984 11.2217 2 25.1691 2 37L18 41.7114L35 37C35 25.1691 32.9101 11.2217 37 0L0 0z"/>
<path style="fill:#d45e4e; stroke:none;" d="M0 1L1 2L0 1z"/>
<path style="fill:#d8d6de; stroke:none;" d="M4 1L4 11L18 5.76929L33 11L33 1L4 1z"/>
<path style="fill:#d45e4e; stroke:none;" d="M36 1L37 2L36 1z"/>
<path style="fill:#0c3d68; stroke:none;" d="M0 2L0 42L16 42L16 41C12.2301 40.1278 6.3697 39.2191 3.6034 36.2978C-3.76365 28.5181 6.61377 10.7299 0 2M36 2C33.4716 10.5539 39.5149 29.8368 33.3966 36.2978C30.8034 39.0363 25.4795 39.8678 22 41L22 42L37 42C37 30.566 40.411 12.512 36 2z"/>
<path style="fill:#d45e4e; stroke:none;" d="M6 3L7 4L6 3M8 3L10 5L10 3L8 3M11.3333 3.66667L11.6667 4.33333L11.3333 3.66667M14 3L16 5L16 3L14 3M20 3L21 4L20 3z"/>
<path style="fill:#dcbf1c; stroke:none;" d="M21 3L22 4L21 3z"/>
<path style="fill:#d45e4e; stroke:none;" d="M22.3333 3.66667L22.6667 4.33333L22.3333 3.66667z"/>
<path style="fill:#dcbf1c; stroke:none;" d="M24 3L25 4L24 3z"/>
<path style="fill:#d45e4e; stroke:none;" d="M25.3333 3.66667L25.6667 4.33333L25.3333 3.66667M27 3L28 4L27 3z"/>
<path style="fill:#dcbf1c; stroke:none;" d="M30 3L31 4L30 3z"/>
<path style="fill:#d45e4e; stroke:none;" d="M31.3333 3.66667L31.6667 4.33333L31.3333 3.66667z"/>
<path style="fill:#dcbf1c; stroke:none;" d="M5 4L6 5L5 4M20 4L21 5L20 4M27 4L28 5L27 4z"/>
<path style="fill:#179453; stroke:none;" d="M18 6L19 7L18 6M16 7L17 8L16 7z"/>
<path style="fill:#0c3d68; stroke:none;" d="M4 13L4 21L5 21L12 12C10.7448 15.671 3.98378 27.1183 11 28L16 32L13 27L17 28L17 27L14 26L14 25L17 25L18 8L19 8C19.3775 12.4925 18.0196 23.9328 23 25L23 26L20 27L20 28L26 28L25 25L28 26L28 30L29 30L27 25L23 12L26 15L27 15L26 12L28 13C21.3875 1.34785 12.3576 12.1455 4 13z"/>
<path style="fill:#179453; stroke:none;" d="M20 7L21 8L20 7M12 8L13 9L12 8z"/>
<path style="fill:#d45e4e; stroke:none;" d="M18.3333 8.66667L18.6667 9.33333L18.3333 8.66667z"/>
<path style="fill:#179453; stroke:none;" d="M24 8L25 9L24 8z"/>
<path style="fill:#d8d6de; stroke:none;" d="M17 10C18.2496 15.2488 19.1806 21.8306 14 25L14 26L16 29L13 27C15.853 30.9559 21.147 30.9559 24 27L21 29L23 26L23 25L20 25L20 10L17 10z"/>
<path style="fill:#d45e4e; stroke:none;" d="M8.33333 11.6667L8.66667 12.3333L8.33333 11.6667z"/>
<path style="fill:#179453; stroke:none;" d="M17 11L18 12L17 11z"/>
<path style="fill:#d45e4e; stroke:none;" d="M28.3333 11.6667L28.6667 12.3333L28.3333 11.6667z"/>
<path style="fill:#179453; stroke:none;" d="M11 12L12 13L11 12z"/>
<path style="fill:#d8d6de; stroke:none;" d="M23.6667 12.3333L24.3333 12.6667L23.6667 12.3333z"/>
<path style="fill:#179453; stroke:none;" d="M26 12L27 15L24 13L27 25L29 30L28 30L25 25L26 29L23 28L24 32L19 36L18 36L17 33L16 33L14 38L14 39L17 38L20 40L19 36L23 39L20 34C23.512 33.1257 29.0221 36.3139 29 32L32 31L32 30L30 31L30 30L33 28L30 27L30 26L33 26L33 21L30 22L32 20L26 12M9 13L10 14L9 13z"/>
<path style="fill:#d8d6de; stroke:none;" d="M28 13L29 14L28 13z"/>
<path style="fill:#0c3d68; stroke:none;" d="M29 13L30 22L33 13L29 13z"/>
<path style="fill:#179453; stroke:none;" d="M11 14L12 15L11 14z"/>
<path style="fill:#d45e4e; stroke:none;" d="M7 15L8 16L7 15z"/>
<path style="fill:#179453; stroke:none;" d="M19 15L19 21L20 21L19 15z"/>
<path style="fill:#d8d6de; stroke:none;" d="M24 15L25 16L24 15z"/>
<path style="fill:#0c3d68; stroke:none;" d="M28.3333 15.6667L28.6667 16.3333L28.3333 15.6667z"/>
<path style="fill:#179453; stroke:none;" d="M6 16L7 17L6 16M17 16L17 22L18 22L17 16z"/>
<path style="fill:#d45e4e; stroke:none;" d="M9 17L10 18L9 17z"/>
<path style="fill:#0c3d68; stroke:none;" d="M30 17L29 19L30 17z"/>
<path style="fill:#179453; stroke:none;" d="M5 18L6 19L5 18z"/>
<path style="fill:#d8d6de; stroke:none;" d="M31 18L32 19L31 18z"/>
<path style="fill:#179453; stroke:none;" d="M8 19L9 20L8 19z"/>
<path style="fill:#d8d6de; stroke:none;" d="M26 19L27 20L26 19z"/>
<path style="fill:#0c3d68; stroke:none;" d="M28 20L29 21L28 20z"/>
<path style="fill:#179453; stroke:none;" d="M4 21L5 22L4 21z"/>
<path style="fill:#0c3d68; stroke:none;" d="M32 22L33 23L32 22z"/>
<path style="fill:#d45e4e; stroke:none;" d="M4.33333 23.6667L4.66667 24.3333L4.33333 23.6667z"/>
<path style="fill:#d8d6de; stroke:none;" d="M27 23L28 24L27 23z"/>
<path style="fill:#0c3d68; stroke:none;" d="M30.3333 23.6667L30.6667 24.3333L30.3333 23.6667z"/>
<path style="fill:#d8d6de; stroke:none;" d="M32 24L33 25L32 24z"/>
<path style="fill:#179453; stroke:none;" d="M4.33333 25.6667L4.66667 26.3333L4.33333 25.6667z"/>
<path style="fill:#0c3d68; stroke:none;" d="M30 26L30 27L33 27L30 26M4 27C4.02943 35.3088 7.96072 37.2981 16 38L14 36L16 33L6 34L6 33L8 32L4 27z"/>
<path style="fill:#179453; stroke:none;" d="M15.3333 27.6667L15.6667 28.3333L15.3333 27.6667z"/>
<path style="fill:#dcbf1c; stroke:none;" d="M18 27L19 28L18 27z"/>
<path style="fill:#179453; stroke:none;" d="M21.3333 27.6667L21.6667 28.3333L21.3333 27.6667z"/>
<path style="fill:#d45e4e; stroke:none;" d="M8 28L9 29L8 28M10 28L11 29L10 28z"/>
<path style="fill:#179453; stroke:none;" d="M13.3333 28.6667L13.6667 29.3333L13.3333 28.6667z"/>
<path style="fill:#d8d6de; stroke:none;" d="M25 28L26 29L25 28z"/>
<path style="fill:#0c3d68; stroke:none;" d="M32 28L32 31L29 32C28.5121 35.7923 24.033 33.0648 21 33L23 35L22 38C27.8124 37.1416 35.0134 35.2385 32 28z"/>
<path style="fill:#179453; stroke:none;" d="M9 29L10 30L9 29z"/>
<path style="fill:#d8d6de; stroke:none;" d="M26 29L27 30L26 29M30.3333 29.6667L30.6667 30.3333L30.3333 29.6667z"/>
<path style="fill:#dcbf1c; stroke:none;" d="M16 30L20 34L21 30L16 30z"/>
<path style="fill:#0c3d68; stroke:none;" d="M18 30L19 31L18 30M21 30L21 32L24 32L24 30L21 30z"/>
<path style="fill:#179453; stroke:none;" d="M6 31L7 32L6 31M11 31L12 32L11 31z"/>
<path style="fill:#d45e4e; stroke:none;" d="M12.6667 31.3333L13.3333 31.6667L12.6667 31.3333z"/>
<path style="fill:#179453; stroke:none;" d="M17 31L18 32L17 31z"/>
<path style="fill:#0c3d68; stroke:none;" d="M19 31L20 32L19 31M25 31L26 32L25 31M27.6667 31.3333L28.3333 31.6667L27.6667 31.3333z"/>
<path style="fill:#179453; stroke:none;" d="M8 32L8 33L11 34L8 32z"/>
<path style="fill:#d45e4e; stroke:none;" d="M14.6667 32.3333L15.3333 32.6667L14.6667 32.3333z"/>
<path style="fill:#179453; stroke:none;" d="M6 33L7 34L6 33z"/>
<path style="fill:#dcbf1c; stroke:none;" d="M7 33L7 34L10 34L7 33z"/>
<path style="fill:#d45e4e; stroke:none;" d="M12 33L10 34L10 35L12 33M16 34L17 35L16 34z"/>
<path style="fill:#0c3d68; stroke:none;" d="M18 34L19 35L18 34z"/>
<path style="fill:#d45e4e; stroke:none;" d="M20 34L21 35L20 34z"/>
<path style="fill:#179453; stroke:none;" d="M5 35L6 36L5 35z"/>
<path style="fill:#d8d6de; stroke:none;" d="M14.6667 35.3333L15.3333 35.6667L14.6667 35.3333M18 35L19 36L18 35M21.6667 35.3333L22.3333 35.6667L21.6667 35.3333z"/>
<path style="fill:#179453; stroke:none;" d="M31 35L32 36L31 35M8 36L9 37L8 36M13 36L14 37L13 36z"/>
<path style="fill:#d8d6de; stroke:none;" d="M16.6667 36.3333L17.3333 36.6667L16.6667 36.3333M19 36L21 38L21 36L19 36z"/>
<path style="fill:#179453; stroke:none;" d="M23 36L24 37L23 36M28 36L29 37L28 36z"/>
<path style="fill:#d45e4e; stroke:none;" d="M4 37L5 38L4 37z"/>
<path style="fill:#179453; stroke:none;" d="M11 37L12 38L11 37M25 37L26 38L25 37z"/>
<path style="fill:#d45e4e; stroke:none;" d="M32 37L33 38L32 37M7 38L8 39L7 38z"/>
<path style="fill:#0c3d68; stroke:none;" d="M16 38L17 39L16 38M20 38L21 39L20 38M18 39L19 40L18 39z"/>
<path style="fill:#d45e4e; stroke:none;" d="M26 39L27 40L26 39M23 40L24 41L23 40M21 41L22 42L21 41z"/>
</svg>
