<?xml version="1.0" standalone="yes"?>
<svg xmlns="http://www.w3.org/2000/svg" width="35" height="45">
<path style="fill:#141308; stroke:none;" d="M0 0L0 45L35 45L35 0L0 0z"/>
<path style="fill:#b43f26; stroke:none;" d="M16 2L17 3L16 2z"/>
<path style="fill:#869033; stroke:none;" d="M17 2L14 4L14 5L17 2z"/>
<path style="fill:#c3ac21; stroke:none;" d="M16 8L19 8L20 4C16.8079 4.13489 16.1349 4.80786 16 8z"/>
<path style="fill:#b43f26; stroke:none;" d="M18 3L19 4L18 3z"/>
<path style="fill:#869033; stroke:none;" d="M20 4L21 5L20 4M19 5L20 6L19 5M13 6L11 9L7 8L3 13C1.65837 17.2667 0.489712 20.6265 5 23L6 13L10 11L14 11L13 6M15 6L15 9L16 9L15 6z"/>
<path style="fill:#141308; stroke:none;" d="M19 6L20 9L21 9L19 6z"/>
<path style="fill:#b43f26; stroke:none;" d="M20.6667 6.33333L21.3333 6.66667L20.6667 6.33333z"/>
<path style="fill:#869033; stroke:none;" d="M22 6L20 10L22 6z"/>
<path style="fill:#bebdb9; stroke:none;" d="M10 7L9 9L10 7M13 7L14 8L13 7z"/>
<path style="fill:#b43f26; stroke:none;" d="M17 7L18 8L17 7M19.3333 7.66667L19.6667 8.33333L19.3333 7.66667z"/>
<path style="fill:#c3ac21; stroke:none;" d="M21 7L22 8L21 7M23 7L21 10L31 18L29 17L29 18L28 32C24.8588 32.946 23.9312 33.7075 24 37L30 34L28 33L28 32L32 31L30 28L33 28L31 25L34 26C33.5976 22.5275 32.0126 7.67452 26 11L25 11L23 7z"/>
<path style="fill:#869033; stroke:none;" d="M24 7L25 8L24 7z"/>
<path style="fill:#c3ac21; stroke:none;" d="M10 8L11 9L10 8z"/>
<path style="fill:#869033; stroke:none;" d="M25 8L25 11L26 11L27 8L25 8z"/>
<path style="fill:#c3ac21; stroke:none;" d="M8 9L9 10L8 9M12 9L13 10L12 9z"/>
<path style="fill:#b43f26; stroke:none;" d="M17 9L18 21L23 15L24 15C24.654 20.3668 28.0055 28.052 20 29L20 22L19 22L19 34C33.8319 31.122 29.103 17.9063 22 10L17 9z"/>
<path style="fill:#869033; stroke:none;" d="M27 9L28 10L27 9z"/>
<path style="fill:#bebdb9; stroke:none;" d="M17 10L17 14L18 14L17 10z"/>
<path style="fill:#869033; stroke:none;" d="M28 10L29 11L28 10z"/>
<path style="fill:#bebdb9; stroke:none;" d="M10 11L11 12L10 11z"/>
<path style="fill:#141308; stroke:none;" d="M12 11L13 12L12 11z"/>
<path style="fill:#b43f26; stroke:none;" d="M15 34L16 11C2.89578 13.6098 2.73388 29.8268 15 34z"/>
<path style="fill:#141308; stroke:none;" d="M22 11L23 12L22 11z"/>
<path style="fill:#869033; stroke:none;" d="M23 11L24 12L23 11M26 11L29 14L26 11M29 11L30 12L29 11z"/>
<path style="fill:#bebdb9; stroke:none;" d="M4 12L5 13L4 12z"/>
<path style="fill:#141308; stroke:none;" d="M10 12L11 13L10 12z"/>
<path style="fill:#869033; stroke:none;" d="M16 12L17 13L16 12z"/>
<path style="fill:#141308; stroke:none;" d="M24 12L25 13L24 12z"/>
<path style="fill:#869033; stroke:none;" d="M30 12L31 13L30 12z"/>
<path style="fill:#c3ac21; stroke:none;" d="M4 13L5 14L4 13z"/>
<path style="fill:#bebdb9; stroke:none;" d="M6 13L8 15L8 13L6 13z"/>
<path style="fill:#141308; stroke:none;" d="M8 13L8 15L10 13L8 13z"/>
<path style="fill:#869033; stroke:none;" d="M31.3333 13.6667L31.6667 14.3333L31.3333 13.6667z"/>
<path style="fill:#c3ac21; stroke:none;" d="M6 14L7 15L6 14z"/>
<path style="fill:#869033; stroke:none;" d="M16 14L16 21L17 21L16 14z"/>
<path style="fill:#c3ac21; stroke:none;" d="M17 14L18 15L17 14z"/>
<path style="fill:#869033; stroke:none;" d="M22 14L23 15L22 14z"/>
<path style="fill:#141308; stroke:none;" d="M26 14L27 15L26 14z"/>
<path style="fill:#bebdb9; stroke:none;" d="M3 15L4 16L3 15z"/>
<path style="fill:#c3ac21; stroke:none;" d="M11 15L9 22L11 15z"/>
<path style="fill:#bebdb9; stroke:none;" d="M17.3333 15.6667L17.6667 16.3333L17.3333 15.6667z"/>
<path style="fill:#869033; stroke:none;" d="M23 15L24 16L23 15M27 15L28 16L27 15z"/>
<path style="fill:#b43f26; stroke:none;" d="M32 15L33 16L32 15z"/>
<path style="fill:#c3ac21; stroke:none;" d="M23.3333 16.6667L23.6667 17.3333L23.3333 16.6667z"/>
<path style="fill:#869033; stroke:none;" d="M28 16L28 17L31 18L28 16M32 16L33 17L32 16z"/>
<path style="fill:#141308; stroke:none;" d="M6 17L7 18L6 17z"/>
<path style="fill:#c3ac21; stroke:none;" d="M17 17L17 24L18 24L17 17z"/>
<path style="fill:#869033; stroke:none;" d="M9 18L8 21L9 18M22 18L21 21L18 24L19 24L20 22L20 29C25.8945 30.9648 27.9922 22.7984 24 22L24 21L26 21L26 20L22 18M25 18L26 19L25 18M29 18L29 21L30 21L29 18M32 18L31 20L32 18z"/>
<path style="fill:#141308; stroke:none;" d="M5 19L5 22L6 22L5 19z"/>
<path style="fill:#869033; stroke:none;" d="M13 30C17.2649 15.3837 4.67096 23.098 13 30z"/>
<path style="fill:#c3ac21; stroke:none;" d="M24 19L25 20L24 19z"/>
<path style="fill:#869033; stroke:none;" d="M33 19L34 20L33 19z"/>
<path style="fill:#c3ac21; stroke:none;" d="M21 20L22 21L21 20z"/>
<path style="fill:#bebdb9; stroke:none;" d="M1 21L2 22L1 21z"/>
<path style="fill:#c3ac21; stroke:none;" d="M2.33333 21.6667L2.66667 22.3333L2.33333 21.6667M4 21L5 22L4 21M12 21L11 24L12 21z"/>
<path style="fill:#bebdb9; stroke:none;" d="M16 21C16.0642 23.9934 15.9461 25.3456 19 26L16 21z"/>
<path style="fill:#c3ac21; stroke:none;" d="M22 21L21 22L23 26L24 26L22 21M24.6667 21.3333L25.3333 21.6667L24.6667 21.3333z"/>
<path style="fill:#141308; stroke:none;" d="M29 21L29 24L30 24L29 21z"/>
<path style="fill:#869033; stroke:none;" d="M33.3333 21.6667L33.6667 22.3333L33.3333 21.6667M1 22L2 23L1 22M31 22L31 24L33 24L31 22z"/>
<path style="fill:#bebdb9; stroke:none;" d="M3.66667 23.3333L4.33333 23.6667L3.66667 23.3333z"/>
<path style="fill:#141308; stroke:none;" d="M5.33333 23.6667L5.66667 24.3333L5.33333 23.6667z"/>
<path style="fill:#c3ac21; stroke:none;" d="M9 23L10 24L9 23M25 23L26 24L25 23z"/>
<path style="fill:#869033; stroke:none;" d="M1 26L3 25L3 26L4 33L5 33L6 31L8 33L7 36L12 36L15 41L15 38L20 38L20 37L12 39L11 32L8 33L6 30C8.07805 26.9981 3.73319 23.125 1 26z"/>
<path style="fill:#c3ac21; stroke:none;" d="M4 24L5 25L4 24z"/>
<path style="fill:#869033; stroke:none;" d="M29 24L30 25L29 24M33 24L34 25L33 24z"/>
<path style="fill:#c3ac21; stroke:none;" d="M2 25L3 26L2 25z"/>
<path style="fill:#869033; stroke:none;" d="M31 25L33 27L33 25L31 25M15 26L16 30L20 26L15 26M30 26L31 27L30 26z"/>
<path style="fill:#b43f26; stroke:none;" d="M33.3333 26.6667L33.6667 27.3333L33.3333 26.6667z"/>
<path style="fill:#141308; stroke:none;" d="M3 27L4 28L3 27M28 27L29 28L28 27z"/>
<path style="fill:#869033; stroke:none;" d="M30 28L31 30L32 30L33 28L30 28z"/>
<path style="fill:#c3ac21; stroke:none;" d="M18 29L16 33L17 33L18 29z"/>
<path style="fill:#869033; stroke:none;" d="M27 29L28 30L27 29M29 29L28 31L29 29z"/>
<path style="fill:#bebdb9; stroke:none;" d="M6 30L7 31L6 30z"/>
<path style="fill:#c3ac21; stroke:none;" d="M7 30L8 31L7 30z"/>
<path style="fill:#141308; stroke:none;" d="M8 30L10 32L8 30z"/>
<path style="fill:#b43f26; stroke:none;" d="M32 30L33 31L32 30z"/>
<path style="fill:#c3ac21; stroke:none;" d="M5.33333 31.6667L5.66667 32.3333L5.33333 31.6667z"/>
<path style="fill:#bebdb9; stroke:none;" d="M8.33333 31.6667L8.66667 32.3333L8.33333 31.6667z"/>
<path style="fill:#869033; stroke:none;" d="M17 31L15 36L16 36L17 33L18 33L19 36L20 36L17 31z"/>
<path style="fill:#141308; stroke:none;" d="M25 31L26 32L25 31z"/>
<path style="fill:#869033; stroke:none;" d="M26.6667 31.3333L27.3333 31.6667L26.6667 31.3333z"/>
<path style="fill:#141308; stroke:none;" d="M24 32L25 33L24 32z"/>
<path style="fill:#869033; stroke:none;" d="M28 32L28 33L31 33L28 32z"/>
<path style="fill:#bebdb9; stroke:none;" d="M6.33333 33.6667L6.66667 34.3333L6.33333 33.6667z"/>
<path style="fill:#c3ac21; stroke:none;" d="M7 33L8 34L7 33z"/>
<path style="fill:#141308; stroke:none;" d="M12 33L14 38L15 38L15 34L12 33z"/>
<path style="fill:#bebdb9; stroke:none;" d="M15 33L16 34L15 33M17 33L16 37L19 37L17 33z"/>
<path style="fill:#141308; stroke:none;" d="M22 33L23 37L24 37L22 33z"/>
<path style="fill:#869033; stroke:none;" d="M23 33L24 34L23 33M27 33L28 34L27 33z"/>
<path style="fill:#b43f26; stroke:none;" d="M30 33L31 34L30 33z"/>
<path style="fill:#869033; stroke:none;" d="M13 34L14 35L13 34z"/>
<path style="fill:#141308; stroke:none;" d="M20 34L21 40L22 40L20 34z"/>
<path style="fill:#869033; stroke:none;" d="M21 34L22 40L23 40L24 38L21 34M24 34L25 35L24 34M28 34L29 35L28 34z"/>
<path style="fill:#b43f26; stroke:none;" d="M12 35L13 36L12 35M27 35L28 36L27 35z"/>
<path style="fill:#bebdb9; stroke:none;" d="M7 36C7.81352 45.4777 16.6059 45.1331 24 42L23 44L28 36L17 41L16 38L15 38L15 41L7 36z"/>
<path style="fill:#141308; stroke:none;" d="M11.3333 36.6667L11.6667 37.3333L11.3333 36.6667z"/>
<path style="fill:#c3ac21; stroke:none;" d="M15 36L16 37L15 36M17 36L18 37L17 36M19 36L20 37L19 36z"/>
<path style="fill:#b43f26; stroke:none;" d="M21 36L22 37L21 36z"/>
<path style="fill:#869033; stroke:none;" d="M25.6667 36.3333L26.3333 36.6667L25.6667 36.3333M7.33333 37.6667L7.66667 38.3333L7.33333 37.6667z"/>
<path style="fill:#b43f26; stroke:none;" d="M13 37L12 39L14 39L13 37z"/>
<path style="fill:#869033; stroke:none;" d="M27 37L27 40L28 40L27 37z"/>
<path style="fill:#c3ac21; stroke:none;" d="M16 40L20 38L16 40z"/>
<path style="fill:#b43f26; stroke:none;" d="M22 38L23 39L22 38z"/>
<path style="fill:#c3ac21; stroke:none;" d="M14 39L15 40L14 39z"/>
<path style="fill:#869033; stroke:none;" d="M20.3333 39.6667L20.6667 40.3333L20.3333 39.6667M10 41L12 43L10 41M16 41L17 42L16 41M27 41L28 42L27 41M7 42L8 43L7 42M22.6667 42.3333L23.3333 42.6667L22.6667 42.3333M26 42L25 44L27 44L26 42M8 43L9 44L8 43M10 43L11 44L10 43M21 43L22 44L21 43z"/>
</svg>
