<svg width="321" height="327" viewBox="0 0 321 327" fill="none" xmlns="http://www.w3.org/2000/svg">
<path d="M82.2549 67.0408C82.0778 65.5655 82.7491 64.6139 84.1875 64.4443C85.6259 64.2746 86.4963 65.0196 86.6734 66.5244L87.2414 71.3265C87.411 72.8018 86.7398 73.7534 85.3013 73.9231C83.8629 74.0927 82.9925 73.3477 82.8155 71.8429L82.2549 67.0408ZM84.2834 71.7765C84.3645 72.4256 84.667 72.6617 85.1464 72.6101C85.6259 72.5584 85.8841 72.2486 85.7882 71.5995L85.2055 66.5908C85.1243 65.9417 84.7997 65.7056 84.3424 65.7647C83.885 65.8237 83.6047 66.1187 83.7006 66.7679L84.2834 71.7765ZM89.9633 63.8763L91.3206 63.714L87.2709 78.9981L85.9136 79.1604L89.9633 63.8763ZM90.1182 71.5405C89.9412 70.0652 90.6198 69.1062 92.0582 68.9439C93.4966 68.7817 94.367 69.5193 94.5441 71.0167L95.1047 75.8188C95.2817 77.2941 94.6105 78.2457 93.1647 78.4153C91.7189 78.585 90.8558 77.84 90.6788 76.3352L90.1182 71.5405ZM92.1541 76.2688C92.2279 76.9179 92.5303 77.1613 93.0098 77.1023C93.4892 77.0433 93.7474 76.7409 93.6589 76.0918L93.0688 71.0831C92.995 70.4414 92.6705 70.2053 92.2131 70.2569C91.7558 70.3086 91.4755 70.6184 91.5714 71.2602L92.1541 76.2688Z" fill="#263238"/>
<path d="M98.5273 81.7348L81.4433 83.7338C81.055 83.7796 80.6644 83.6693 80.3574 83.4273C80.0503 83.1852 79.8519 82.8312 79.8057 82.4429L77.7551 64.8279C77.7189 64.5001 77.7564 64.1684 77.8649 63.857C77.9734 63.5456 78.1501 63.2623 78.3821 63.028L85.5078 56.013C85.851 55.6727 86.2983 55.4572 86.7784 55.4011C87.2584 55.3449 87.7434 55.4513 88.1559 55.7031L96.7053 60.8667C96.9869 61.0377 97.2257 61.2708 97.4034 61.5483C97.5811 61.8257 97.693 62.1401 97.7306 62.4674L99.796 80.0825C99.8463 80.4697 99.741 80.8611 99.5031 81.1708C99.2653 81.4806 98.9144 81.6834 98.5273 81.7348V81.7348Z" stroke="#263238" stroke-linecap="round" stroke-linejoin="round"/>
<path d="M88.2003 57.9677C88.2268 58.1841 88.1884 58.4035 88.0899 58.598C87.9914 58.7925 87.8372 58.9533 87.6471 59.0599C87.457 59.1666 87.2394 59.2143 87.0221 59.197C86.8047 59.1797 86.5975 59.0981 86.4266 58.9627C86.2557 58.8273 86.129 58.6441 86.0626 58.4364C85.9961 58.2288 85.9929 58.0061 86.0534 57.7966C86.1138 57.5871 86.2352 57.4004 86.4021 57.2601C86.569 57.1198 86.7738 57.0323 86.9905 57.0087C87.2781 56.9755 87.5671 57.0579 87.794 57.2377C88.0208 57.4175 88.167 57.6801 88.2003 57.9677V57.9677Z" stroke="#263238" stroke-linecap="round" stroke-linejoin="round"/>
<path d="M87.1162 45.649C87.1162 45.649 90.4504 58.4841 87.1162 58.1153" stroke="#263238" stroke-linecap="round" stroke-linejoin="round"/>
<path d="M86.2676 55.5334C86.9167 51.9632 90.1845 45.944 90.1845 45.944" stroke="#263238" stroke-linecap="round" stroke-linejoin="round"/>
<path d="M87.1159 58.0931C86.9209 58.0806 86.7346 58.0079 86.5826 57.885C86.4307 57.7622 86.3206 57.5952 86.2676 57.4071" stroke="#263238" stroke-linecap="round" stroke-linejoin="round"/>
<path d="M101.995 50.3921C104.985 52.8086 107.276 55.9788 108.633 59.5758" stroke="#263238" stroke-linecap="round" stroke-linejoin="round"/>
<path d="M67.4653 61.7814C68.3225 58.4838 69.9463 55.4352 72.2046 52.884C74.4629 50.3327 77.2919 48.3509 80.4611 47.0999C83.6303 45.8489 87.0501 45.3641 90.4421 45.6849C93.8342 46.0058 97.1025 47.1232 99.9809 48.9463" stroke="#263238" stroke-linecap="round" stroke-linejoin="round"/>
<path d="M74.1999 83.5273C70.2994 80.141 67.7468 75.465 67.0078 70.3528" stroke="#263238" stroke-linecap="round" stroke-linejoin="round"/>
<path d="M87.5589 88.8383C83.6128 88.6805 79.7856 87.4431 76.4941 85.2607" stroke="#263238" stroke-linecap="round" stroke-linejoin="round"/>
<path d="M109.806 64.0902C110.638 69.7664 109.181 75.5405 105.756 80.1428C102.331 84.745 97.218 87.7985 91.542 88.6318" stroke="#263238" stroke-linecap="round" stroke-linejoin="round"/>
<path d="M33.6513 136.067L60.8105 141.332L57.6472 157.648C57.5855 157.966 57.3999 158.247 57.1312 158.428C56.8626 158.61 56.5328 158.677 56.2146 158.615L31.4481 153.814C31.1299 153.752 30.8492 153.566 30.6677 153.298C30.4863 153.029 30.4191 152.699 30.4808 152.381L33.644 136.065L33.6513 136.067Z" stroke="#263238" stroke-width="0.998248" stroke-linecap="round" stroke-linejoin="round"/>
<path d="M61.7554 141.705L33.1666 136.194L34.0043 131.848C34.0657 131.529 34.2514 131.248 34.5203 131.066C34.7893 130.884 35.1195 130.816 35.4384 130.878L61.6514 135.93C61.9601 135.997 62.2309 136.181 62.4071 136.443C62.5834 136.706 62.6515 137.026 62.5972 137.337L61.7596 141.683L61.7554 141.705Z" stroke="#263238" stroke-linecap="round" stroke-linejoin="round"/>
<path d="M50.5121 133.76L46.6226 133.01L42.1661 156.13L46.0557 156.88L50.5121 133.76Z" stroke="#263238" stroke-linecap="round" stroke-linejoin="round"/>
<path d="M48.5659 133.385C48.5659 133.385 55.3154 128.457 58.4357 129.948C61.5559 131.438 60.0142 135.591 58.4357 135.288" stroke="#263238" stroke-linecap="round" stroke-linejoin="round"/>
<path d="M51.2358 133.894C51.2358 133.894 56.7239 131.165 57.5206 132.419C58.3173 133.673 55.9494 134.831 54.1274 134.477" stroke="#263238" stroke-linecap="round" stroke-linejoin="round"/>
<path d="M48.75 133.046C48.75 133.046 51.5973 127.882 51.2285 126.215H53.1243C53.1243 126.215 53.7439 128.177 51.5309 131.533" stroke="#263238" stroke-linecap="round" stroke-linejoin="round"/>
<path d="M48.566 133.385C48.566 133.385 44.1401 126.304 40.6805 126.532C37.221 126.761 37.1251 131.179 38.6963 131.482" stroke="#263238" stroke-linecap="round" stroke-linejoin="round"/>
<path d="M45.8957 132.869C45.8957 132.869 41.8165 128.288 40.6141 129.144C39.4118 129.999 41.1821 131.961 43.0041 132.308" stroke="#263238" stroke-linecap="round" stroke-linejoin="round"/>
<path d="M48.5213 133.001C48.5213 133.001 47.7836 127.137 48.7647 125.743L46.9944 125.005C46.9944 125.005 45.6961 126.599 46.5075 130.538" stroke="#263238" stroke-linecap="round" stroke-linejoin="round"/>
<path d="M68.6523 125.094C71.6934 128.936 73.6564 133.519 74.3396 138.371" stroke="#263238" stroke-linecap="round" stroke-linejoin="round"/>
<path d="M22.4312 129.52C24.4301 125.655 27.3137 122.317 30.847 119.778C34.3803 117.239 38.4634 115.571 42.7637 114.908C47.064 114.246 51.4599 114.609 55.5934 115.968C59.7268 117.326 63.4809 119.642 66.55 122.726" stroke="#263238" stroke-linecap="round" stroke-linejoin="round"/>
<path d="M24.6439 158.509C20.7463 153.188 18.8879 146.644 19.4066 140.068" stroke="#263238" stroke-linecap="round" stroke-linejoin="round"/>
<path d="M39.8173 168.888C34.9355 167.584 30.5074 164.96 27.019 161.305" stroke="#263238" stroke-linecap="round" stroke-linejoin="round"/>
<path d="M74.5165 144.346C73.9495 151.65 70.5047 158.43 64.9395 163.194C59.3744 167.958 52.1448 170.317 44.8408 169.751" stroke="#263238" stroke-linecap="round" stroke-linejoin="round"/>
<path d="M183.777 70.7955L181.461 69.6152C181.805 68.598 181.921 67.5177 181.8 66.4507C182.538 66.8048 183.32 67.1883 184.013 67.5055C183.976 68.4571 183.917 69.5783 183.777 70.7955Z" stroke="#263238" stroke-linecap="round" stroke-linejoin="round"/>
<path d="M187.148 69.0251C187.883 69.3993 188.668 69.6628 189.479 69.807C190.329 74.3425 189.663 79.0316 187.584 83.1511C186.986 84.3165 180.709 81.1004 181.299 79.9349C182.644 77.0534 183.482 73.9617 183.777 70.7954C183.918 69.5783 183.999 68.4571 184.036 67.5055C185.349 68.1251 186.499 68.6931 187.148 69.0251Z" stroke="#263238" stroke-linecap="round" stroke-linejoin="round"/>
<path d="M194.636 54.3975C196.387 55.2934 197.759 56.788 198.502 58.6096C199.246 60.4312 199.31 62.459 198.685 64.3244C198.06 66.1898 196.787 67.7691 195.096 68.7751C193.405 69.7812 191.41 70.1474 189.472 69.807C188.661 69.6628 187.875 69.3993 187.141 69.0251C186.492 68.6932 185.341 68.1252 184.028 67.5056C183.291 67.1589 182.553 66.8048 181.815 66.4507C180.001 65.6172 178.245 64.85 177.338 64.555L185.275 49.0643C186.927 50.2741 192.777 53.446 194.636 54.3975Z" stroke="#263238" stroke-linecap="round" stroke-linejoin="round"/>
<path d="M177.566 41.7321C179.79 44.5063 182.378 46.9676 185.26 49.0496L177.323 64.5402C173.945 63.4339 170.435 62.7864 166.885 62.6149L163.809 62.4527L175.611 39.3421L177.566 41.7321Z" stroke="#263238" stroke-linecap="round" stroke-linejoin="round"/>
<path d="M160.231 63.0944L174.07 36.0595C174.177 35.8554 174.36 35.7016 174.579 35.6312C174.798 35.5608 175.037 35.5795 175.242 35.6833L176.26 36.2071C176.466 36.3128 176.621 36.4952 176.693 36.7147C176.765 36.9343 176.747 37.1733 176.644 37.3799L175.633 39.3494L163.831 62.46L162.828 64.4295C162.776 64.5313 162.704 64.6217 162.617 64.6957C162.529 64.7697 162.428 64.8258 162.319 64.8607C162.21 64.8957 162.096 64.9088 161.982 64.8994C161.868 64.8899 161.757 64.8581 161.655 64.8057L160.63 64.282C160.523 64.2326 160.428 64.162 160.35 64.0747C160.272 63.9873 160.212 63.8849 160.175 63.7738C160.138 63.6627 160.124 63.5451 160.133 63.4283C160.143 63.3115 160.176 63.1979 160.231 63.0944V63.0944Z" stroke="#263238" stroke-linecap="round" stroke-linejoin="round"/>
<path d="M160.645 46.2391L155.312 43.5098" stroke="#263238" stroke-linecap="round" stroke-linejoin="round"/>
<path d="M166.892 37.6824L163.529 31.7959" stroke="#263238" stroke-linecap="round" stroke-linejoin="round"/>
<path d="M157.362 56.308L150.627 57.0235" stroke="#263238" stroke-linecap="round" stroke-linejoin="round"/>
<path d="M201.945 30.8443C197.289 26.5316 191.564 23.5439 185.363 22.1917" stroke="#263238" stroke-linecap="round" stroke-linejoin="round"/>
<path d="M191.619 89.908C196.792 87.7184 201.375 84.3386 204.995 80.0436C208.616 75.7485 211.171 70.6594 212.453 65.1904C213.736 59.7214 213.709 54.0269 212.375 48.5701C211.042 43.1134 208.439 38.0485 204.778 33.7876" stroke="#263238" stroke-linecap="round" stroke-linejoin="round"/>
<path d="M154.507 84.1469C160.968 89.7002 169.209 92.7474 177.729 92.7331" stroke="#263238" stroke-linecap="round" stroke-linejoin="round"/>
<path d="M142.668 63.6033C143.86 70.0229 146.798 75.9899 151.158 80.8496" stroke="#263238" stroke-linecap="round" stroke-linejoin="round"/>
<path d="M177.728 21.3656C168.264 21.3656 159.186 25.1255 152.494 31.8182C145.801 38.5109 142.041 47.5881 142.041 57.053" stroke="#263238" stroke-linecap="round" stroke-linejoin="round"/>
<path d="M114.527 114.509C111.532 111.831 108.426 113.033 106.84 113.941C106.523 112.126 105.365 108.998 101.411 108.467C97.0885 107.892 93.5478 112.104 94.7059 117.975C95.5468 122.202 98.2466 126.09 99.6924 127.897C99.8621 128.118 100.024 128.31 100.157 128.465H100.895C103.226 128.369 107.917 127.904 111.664 125.795C116.85 122.844 117.772 117.415 114.527 114.509Z" stroke="#263238" stroke-linecap="round" stroke-linejoin="round"/>
<path d="M97.7079 131.216C97.7079 131.216 97.5088 131.578 97.2358 132.212" stroke="#263238" stroke-linecap="round" stroke-linejoin="round"/>
<path d="M96.4834 134.27C95.3032 138.128 94.4918 144.737 100.777 148.743C116.311 158.65 121.541 135.281 109.628 137.383C101.448 138.858 110.1 160.479 122.906 156.119" stroke="#263238" stroke-linecap="round" stroke-linejoin="round" stroke-dasharray="2.98 2.98"/>
<path d="M123.976 155.714C124.3 155.566 124.632 155.404 124.964 155.227" stroke="#263238" stroke-linecap="round" stroke-linejoin="round"/>
<path d="M104.819 298.486C104.819 298.486 96.0486 304.453 92.5152 304.055C92.1271 304.035 91.7587 303.878 91.4751 303.612C89.1737 301.237 87.3222 297.062 87.3222 297.062C87.3222 297.062 88.4213 295.542 91.8071 299.577L93.9536 297.608L89.5277 293.138C89.5277 293.138 92.0284 291.153 96.2772 293.684C96.1297 293.374 93.393 287.413 95.4584 279.299L85.1313 269.334L94.293 261.352L95.0306 260.733C95.0306 260.733 95.606 261.301 96.5059 262.208C97.4058 263.115 98.6525 264.207 100.002 265.395C103.233 268.235 107.143 271.296 108.854 271.296C111.938 271.193 104.819 298.486 104.819 298.486Z" fill="white"/>
<path opacity="0.4" d="M98.0402 294.576C98.0402 294.576 93.0389 299.74 92.5152 304.055C92.1271 304.035 91.7587 303.878 91.4751 303.612C89.1737 301.237 87.3222 297.062 87.3222 297.062C87.3222 297.062 88.4213 295.542 91.8071 299.577L93.9536 297.608L89.5277 293.138C89.5277 293.138 92.0284 291.153 96.2772 293.684C96.1297 293.374 93.393 287.414 95.4584 279.299L85.1313 269.334L94.293 261.352L96.5059 262.186C97.4132 263.042 98.6525 264.185 100.002 265.373C98.0623 268.213 93.9094 274.092 93.9094 274.092L97.5017 278.96C97.5017 278.96 95.2888 291.235 98.0402 294.576Z" fill="#4FAD39"/>
<path d="M104.819 298.486C104.819 298.486 96.0486 304.453 92.5152 304.055C92.1271 304.035 91.7587 303.878 91.4751 303.612C89.1737 301.237 87.3222 297.062 87.3222 297.062C87.3222 297.062 88.4213 295.542 91.8071 299.577L93.9536 297.608L89.5277 293.138C89.5277 293.138 92.0284 291.153 96.2772 293.684C96.1297 293.374 93.393 287.413 95.4584 279.299L85.1313 269.334L94.293 261.352L95.0306 260.733C95.0306 260.733 95.606 261.301 96.5059 262.208C97.4058 263.115 98.6525 264.207 100.002 265.395C103.233 268.235 107.143 271.296 108.854 271.296C111.938 271.193 104.819 298.486 104.819 298.486Z" stroke="#263238" stroke-linecap="round" stroke-linejoin="round"/>
<path d="M93.9829 297.608C94.4691 296.155 95.2558 294.82 96.2918 293.691" stroke="#263238" stroke-linecap="round" stroke-linejoin="round"/>
<path d="M257.586 229.014C256.202 231.032 254.53 232.837 252.622 234.369C236.497 247.721 199.319 254.286 199.319 254.286C199.319 254.286 198.073 256.152 196.155 258.807C192.717 263.58 187.089 270.912 182.501 274.586C180.561 276.142 178.813 277.042 177.477 276.799L184.456 302.565L187.576 313.748C187.576 313.748 155.518 327.763 100.688 311.741C100.688 311.741 100.061 304.586 100.526 303.059C100.526 302.985 100.57 302.912 100.6 302.83C101.158 301.814 101.886 300.901 102.754 300.131C102.754 300.131 102.444 295.528 102.289 290.844C102.112 287.857 102.149 284.862 102.399 281.881C102.79 279.521 104.517 273.811 105.387 271.008L105.896 269.378L103.167 243.826L102.385 236.449L102.34 236.066C102.34 236.014 102.34 235.955 102.34 235.881L101.913 231.935L87.8088 236.243C87.8088 236.243 88.5464 237.895 89.5644 240.211C91.4159 244.453 94.1378 250.907 94.7279 253.489C94.7722 253.7 94.8314 253.907 94.905 254.109C96.2106 257.834 101.182 261.22 101.182 261.22L87.8235 276.828L83.8771 274.069C83.3719 274.443 82.8393 274.779 82.2838 275.073C79.6873 276.482 74.2434 278.554 68.2684 275.39C65.6793 273.934 63.4309 271.942 61.6739 269.548C51.1992 255.945 46.6406 244.814 48.1232 231.78C49.6059 218.746 108.264 178.522 119.904 178.942L137.217 182.763C137.593 182.453 138.603 181.657 139.385 181.694C142.535 181.856 142.616 185.515 142.616 185.515L181.416 191.814C181.416 191.814 185.437 189.8 186.137 189.83C186.644 189.864 187.134 190.024 187.563 190.296C187.992 190.568 188.347 190.943 188.594 191.386C188.594 191.386 198.641 185.367 201.872 186.769C212.508 191.357 265.442 217.079 257.586 229.014Z" fill="#4FAD39"/>
<path opacity="0.2" d="M122.788 292.762C118.379 297.608 112.459 300.819 105.992 301.871C103.949 302.196 102.156 302.521 100.585 302.845C101.143 301.829 101.872 300.915 102.739 300.145C102.739 300.145 102.429 295.542 102.274 290.858C106.825 293.861 114.763 297.328 122.788 292.762Z" fill="black"/>
<path opacity="0.2" d="M105.373 271.045L105.882 269.415L103.152 243.863C107.232 249.712 121.778 269.636 131.803 271.79C142.285 274.033 114.261 278.008 105.373 271.045Z" fill="black"/>
<path opacity="0.2" d="M184.441 302.602C173.487 301.355 158.004 298.596 156.454 292.865C154.042 283.91 165.778 278.54 182.501 274.623C180.561 276.179 178.813 277.079 177.477 276.836L184.441 302.602Z" fill="black"/>
<path opacity="0.2" d="M252.614 234.377C236.489 247.728 199.312 254.293 199.312 254.293C199.312 254.293 198.065 256.159 196.147 258.815C190.678 245.755 189.842 231.217 193.779 217.617C193.779 217.617 196.641 233.108 208.532 236.796C208.532 236.796 199.43 230.017 202.631 213.7C202.631 213.7 205.737 232.879 225.941 238.205C235.744 240.838 245.341 237.976 252.614 234.377Z" fill="black"/>
<path opacity="0.2" d="M102.326 236.117L101.883 231.987L87.7794 236.294C87.7794 236.294 88.517 237.947 89.535 240.263C84.1428 239.71 73.9116 244.689 72.1264 239.26C69.9725 232.68 83.1912 234.945 83.1912 234.945L95.687 227.679C93.3265 217.573 99.3383 209.975 99.3383 209.975L100.482 217.027C101.028 203.624 106.272 196.292 106.272 196.292C101.935 206.892 102.053 233.012 102.326 236.117Z" fill="black"/>
<path opacity="0.2" d="M101.175 261.242L87.8163 276.85L83.8699 274.092C83.3647 274.465 82.8321 274.801 82.2766 275.095C79.68 276.504 74.2362 278.576 68.2612 275.412C72.5912 269.422 81.5389 260.607 92.1684 257.207C89.5591 261.09 87.2083 265.141 85.1313 269.334L87.8753 272.034C87.8753 272.034 94.7207 264.229 101.175 261.242Z" fill="black"/>
<path opacity="0.2" d="M133.61 192.493C133.61 193.872 132.74 209.459 144.099 213.612C155.459 217.765 165.535 210.742 165.535 210.742C165.535 210.742 148.12 227.546 137.505 218.561C126.89 209.577 133.61 192.493 133.61 192.493Z" fill="black"/>
<path d="M100.666 311.771C100.666 311.771 100.054 304.616 100.511 303.096C100.895 301.812 102.724 300.145 102.724 300.145C102.724 300.145 101.758 285.643 102.377 281.903C102.909 278.695 105.874 269.363 105.874 269.363L101.876 231.935L87.772 236.25C87.772 236.25 93.7765 249.528 94.7059 253.467C95.6354 257.406 101.168 261.19 101.168 261.19L87.8089 276.791L83.8625 274.04C83.8625 274.04 72.2076 283.157 61.6814 269.526C51.1551 255.894 46.6333 244.792 48.1086 231.721C49.5839 218.65 108.264 178.47 119.904 178.883L137.217 182.712C137.585 182.402 138.603 181.605 139.378 181.642C142.528 181.804 142.609 185.463 142.609 185.463L181.409 191.763C181.409 191.763 185.437 189.749 186.138 189.778C186.643 189.814 187.132 189.974 187.559 190.246C187.987 190.518 188.34 190.892 188.587 191.335C188.587 191.335 198.633 185.323 201.864 186.717C212.486 191.305 265.413 217.027 257.564 228.962C246.418 245.928 199.29 254.271 199.29 254.271C199.29 254.271 183.615 277.876 177.441 276.784L187.539 313.733" stroke="#263238" stroke-linecap="round" stroke-linejoin="round"/>
<path d="M216.58 231.603C234.387 243.361 248.742 241.192 259.976 226.056C259.976 226.056 269.33 213.995 268.666 200.976C268.002 187.956 264.896 145.541 224.363 156.385C217.687 158.17 202.115 179.023 200.809 184.755C200.205 187.373 193.957 200.703 187.886 214.504" fill="#4FAD39"/>
<path d="M216.58 231.603C234.387 243.361 248.742 241.192 259.976 226.056C259.976 226.056 269.33 213.995 268.666 200.976C268.002 187.956 264.896 145.541 224.363 156.385C217.687 158.17 202.115 179.023 200.809 184.755C200.205 187.373 193.957 200.703 187.886 214.504" stroke="#263238" stroke-linecap="round" stroke-linejoin="round"/>
<path d="M168.404 106.992C168.404 106.992 179.75 105.273 187.628 112.325C197.593 121.243 208.783 145.291 192.85 185.138C192.85 185.138 169.312 169.515 129.139 179.975C129.139 179.975 132.599 170.629 126.528 141.204C123.784 127.889 130.688 97.218 168.404 106.992Z" fill="#263238"/>
<path d="M151.21 206.988C167.999 209.71 185.835 191.121 185.835 191.121C185.835 191.121 176.71 190 175.891 185.714C173.273 172.193 183.806 155.47 183.806 155.47C183.806 155.47 143.044 156.599 150.17 165.797C151.496 167.48 152.58 169.34 153.393 171.322C155.864 177.393 154.131 181.974 152.84 183.125C152.746 183.201 152.645 183.268 152.538 183.324C150.074 184.445 139.946 182.771 139.946 182.771C139.946 182.771 135.889 204.502 151.21 206.988Z" fill="white" stroke="#263238" stroke-linecap="round" stroke-linejoin="round"/>
<path d="M180.059 196.27C180.059 196.27 172.314 199.368 160.976 198.446L155.872 200.946" stroke="#263238" stroke-linecap="round" stroke-linejoin="round"/>
<path d="M150.782 200.555L150.413 197.206C150.413 197.206 142.048 194.588 139.459 189.616" stroke="#263238" stroke-linecap="round" stroke-linejoin="round"/>
<path d="M152.84 183.147C165.321 186.407 171.186 170.4 171.186 170.4C171.186 170.4 161.198 167.45 153.394 171.374C155.865 177.445 154.153 182.026 152.84 183.147Z" fill="#263238"/>
<path d="M184.53 147.068C187.561 130.021 184.19 109.566 158.24 111.263C139.703 112.473 139.857 132.795 141.082 138.866C143.147 149.067 140.189 153.08 143.369 161.652C145.655 167.811 150.959 174.701 157.207 177.282C161.05 178.868 176.607 167.951 177.758 162.957" fill="white"/>
<path d="M184.53 147.068C187.561 130.021 184.19 109.566 158.24 111.263C139.703 112.473 139.857 132.795 141.082 138.866C143.147 149.067 140.189 153.08 143.369 161.652C145.655 167.811 150.959 174.701 157.207 177.282C161.05 178.868 176.607 167.951 177.758 162.957" stroke="#263238" stroke-linecap="round" stroke-linejoin="round"/>
<path d="M151.925 142.045C151.77 143.963 151.542 148.684 147.499 152.195C144.873 154.46 150.892 156.776 150.892 156.776" stroke="#263238" stroke-linecap="round" stroke-linejoin="round"/>
<path d="M147.618 135.281C147.618 135.281 141.894 132.492 138.028 137.095" stroke="#263238" stroke-linecap="round" stroke-linejoin="round"/>
<path d="M157.222 134.905C161.246 133.737 165.54 133.908 169.459 135.391" stroke="#263238" stroke-linecap="round" stroke-linejoin="round"/>
<path d="M163.167 142.967C163.344 144.612 164.451 145.844 165.638 145.711C166.826 145.578 167.645 144.147 167.468 142.502C167.291 140.857 166.184 139.633 164.996 139.758C163.809 139.884 162.99 141.322 163.167 142.967Z" fill="#263238"/>
<path d="M151.173 162.198C155.724 161.569 160.087 159.975 163.971 157.521C163.971 157.521 164.51 164.676 158.52 166.159C153.924 167.302 152.147 162.057 152.147 162.057" stroke="#263238" stroke-linecap="round" stroke-linejoin="round"/>
<path d="M168.006 117.754C168.006 117.754 166.368 137.958 184.197 145.298L192.555 125.876L179.912 111.86L160.873 106.357C132.422 108.135 120.177 125.809 135.97 172.908C135.97 172.93 131.551 116.839 168.006 117.754Z" fill="#263238"/>
<path d="M180.288 146.154C180.037 143.882 185.784 138.099 187.724 141.809C191.036 148.138 188.624 153.611 185.201 155.824C183.667 156.791 181.719 158.605 180.355 156.894" fill="white"/>
<path d="M180.288 146.154C180.037 143.882 185.784 138.099 187.724 141.809C191.036 148.138 188.624 153.611 185.201 155.824C183.667 156.791 181.719 158.605 180.355 156.894" stroke="#263238" stroke-linecap="round" stroke-linejoin="round"/>
<path d="M145.803 143.756C145.988 145.401 147.094 146.633 148.282 146.5C149.469 146.368 150.288 144.937 150.111 143.292C149.934 141.647 148.82 140.415 147.632 140.548C146.445 140.68 145.619 142.074 145.803 143.756Z" fill="#263238"/>
<g opacity="0.2">
<path d="M133.447 140.407C133.233 141.772 133.086 143.159 133.004 144.538" stroke="white" stroke-linecap="round" stroke-linejoin="round"/>
<path d="M165.055 114.081C150.642 113.704 137.246 122.888 134.074 137.309" stroke="white" stroke-linecap="round" stroke-linejoin="round"/>
<path d="M162.481 109.965C162.481 109.965 141.694 105.074 133.904 118.861" stroke="white" stroke-linecap="round" stroke-linejoin="round"/>
<path d="M179.344 133.982C180.597 135.767 182.106 137.357 183.821 138.703" stroke="white" stroke-linecap="round" stroke-linejoin="round"/>
<path d="M171.097 112.657C172.159 119.26 174.392 125.62 177.691 131.438" stroke="white" stroke-linecap="round" stroke-linejoin="round"/>
<path d="M191.98 175.18C191.611 176.832 191.176 178.47 190.689 180.093" stroke="white" stroke-linecap="round" stroke-linejoin="round"/>
<path d="M190.777 147.71C194.148 155.197 193.92 164.514 192.533 172.392" stroke="white" stroke-linecap="round" stroke-linejoin="round"/>
<path d="M188.306 160.722C188.471 163.558 188.033 166.396 187.022 169.051C186.012 171.705 184.451 174.116 182.442 176.124" stroke="white" stroke-linecap="round" stroke-linejoin="round"/>
<path d="M178.724 115.069C182.257 119.849 184.883 124.976 188.977 129.343C193.293 133.938 197.608 139.205 198.419 145.682" stroke="white" stroke-linecap="round" stroke-linejoin="round"/>
<path d="M173.738 110.097C174.75 110.761 175.681 111.541 176.511 112.421" stroke="white" stroke-linecap="round" stroke-linejoin="round"/>
</g>
<path d="M244.84 221.025C244.427 221.114 244.014 221.187 243.586 221.246C232.433 222.84 219.922 213.59 215.703 202.488C212.369 193.717 215.282 183.766 216.876 179.51C217.377 178.175 217.739 177.4 217.739 177.4C224.466 167.811 263.576 186.584 264.034 196.941C264.491 207.297 256.266 218.517 244.84 221.025Z" fill="#263238" stroke="#263238" stroke-linecap="round" stroke-linejoin="round"/>
<path d="M257.078 198.342C257.078 198.342 254.865 214.807 243.586 221.246C232.433 222.84 219.922 213.59 215.703 202.488C212.369 193.717 215.282 183.766 216.876 179.51C230.057 171.979 257.078 198.342 257.078 198.342Z" fill="white"/>
<path opacity="0.4" d="M257.078 198.342C257.078 198.342 254.865 214.807 243.586 221.246C232.433 222.84 219.922 213.59 215.703 202.488C212.369 193.717 215.282 183.766 216.876 179.51C230.057 171.979 257.078 198.342 257.078 198.342Z" fill="#4FAD39"/>
<path d="M257.078 198.342C257.078 198.342 254.865 214.807 243.586 221.246C232.433 222.84 219.922 213.59 215.703 202.488C212.369 193.717 215.282 183.766 216.876 179.51C230.057 171.979 257.078 198.342 257.078 198.342Z" stroke="#263238" stroke-linecap="round" stroke-linejoin="round"/>
<path d="M210.953 207.01C210.953 207.01 223.655 225.244 238.489 226.764C253.323 228.284 262.832 215.788 263.414 206.368" stroke="#263238" stroke-linecap="round" stroke-linejoin="round"/>
<path d="M203.812 124.725C204.926 121.605 212.937 122.652 215.482 132.389C218.026 142.126 228.022 165.797 228.022 165.797C228.022 165.797 267.855 107.221 274.966 104.963C282.077 102.706 279.281 112.856 269.743 126.938C269.743 126.938 278.676 125.367 281.022 126.938C283.367 128.509 282.224 138.003 283.471 141.293C285.566 146.847 280.911 148.02 280.911 148.02C283.194 148.071 285.39 148.907 287.129 150.388C289.689 152.785 288.406 162.692 289.136 165.495C289.866 168.298 284.983 170.658 284.983 170.658C284.983 170.658 296.719 177.054 294.071 178.662C289.601 181.362 287.056 178.595 287.056 178.595C287.056 178.595 269.02 201.241 255.418 206.287C241.816 211.332 215.341 191.283 212.494 180.366C209.647 169.449 213.047 170.12 210.886 151.952C208.725 133.783 203.812 124.725 203.812 124.725Z" fill="white" stroke="#263238" stroke-linecap="round" stroke-linejoin="round"/>
<path d="M261.885 88.7335L209.436 102.405C207.575 102.891 206.46 104.792 206.945 106.653L231.738 201.766C232.223 203.627 234.124 204.742 235.985 204.257L288.435 190.585C290.295 190.1 291.411 188.199 290.926 186.338L266.133 91.2245C265.648 89.3637 263.746 88.2485 261.885 88.7335Z" fill="white" stroke="#263238" stroke-linecap="round" stroke-linejoin="round"/>
<path d="M231.835 99.667C231.863 99.775 231.87 99.8875 231.854 99.998C231.839 100.109 231.802 100.215 231.746 100.311C231.689 100.407 231.614 100.492 231.525 100.559C231.436 100.626 231.335 100.675 231.227 100.703C231.119 100.731 231.006 100.738 230.896 100.723C230.785 100.707 230.679 100.67 230.582 100.614C230.486 100.557 230.402 100.482 230.335 100.393C230.267 100.304 230.218 100.203 230.19 100.095C230.16 99.9868 230.152 99.8739 230.167 99.7627C230.181 99.6515 230.217 99.5443 230.274 99.4474C230.33 99.3505 230.405 99.2658 230.495 99.1984C230.584 99.131 230.686 99.0821 230.795 99.0547C231.014 98.9986 231.247 99.0315 231.441 99.1463C231.636 99.261 231.778 99.4482 231.835 99.667Z" fill="#4FAD39" stroke="#263238" stroke-linecap="round" stroke-linejoin="round"/>
<path d="M242.642 96.8492C242.659 96.917 242.663 96.9876 242.654 97.057C242.644 97.1265 242.621 97.1933 242.585 97.2536C242.549 97.3139 242.502 97.3666 242.446 97.4086C242.39 97.4506 242.326 97.4811 242.258 97.4983C242.156 97.524 242.049 97.5191 241.951 97.4841C241.852 97.4491 241.765 97.3856 241.703 97.3016C241.64 97.2177 241.603 97.117 241.597 97.0123C241.592 96.9076 241.617 96.8035 241.671 96.7132C241.724 96.6229 241.803 96.5505 241.897 96.5049C241.992 96.4594 242.098 96.4429 242.201 96.4574C242.305 96.472 242.403 96.5169 242.481 96.5866C242.559 96.6564 242.615 96.7477 242.642 96.8492Z" fill="#4FAD39" stroke="#263238" stroke-linecap="round" stroke-linejoin="round"/>
<path d="M240.059 98.1796L233.727 99.8116C233.601 99.8442 233.524 99.9732 233.557 100.1L233.59 100.228C233.623 100.355 233.752 100.431 233.878 100.398L240.211 98.7663C240.337 98.7337 240.413 98.6048 240.381 98.4783L240.347 98.3495C240.315 98.2231 240.186 98.147 240.059 98.1796Z" fill="#4FAD39" stroke="#263238" stroke-width="1.0017" stroke-linecap="round" stroke-linejoin="round"/>
<path d="M264.557 92.2093L289.143 186.54C289.28 187.069 289.201 187.631 288.925 188.102C288.648 188.574 288.196 188.917 287.667 189.055L235.892 202.547C235.363 202.684 234.801 202.606 234.329 202.329C233.858 202.052 233.515 201.6 233.376 201.072L208.791 106.741C208.654 106.212 208.732 105.65 209.008 105.179C209.285 104.707 209.737 104.364 210.266 104.226L220.895 101.452C221.236 101.363 221.597 101.38 221.928 101.501C222.259 101.622 222.544 101.842 222.747 102.131L223.521 103.23C223.724 103.518 224.01 103.738 224.341 103.86C224.672 103.981 225.032 103.998 225.373 103.908L248.705 97.8302C249.042 97.742 249.345 97.5541 249.574 97.2908C249.803 97.0276 249.948 96.7014 249.988 96.3549L250.128 95.0198C250.167 94.6726 250.311 94.3454 250.54 94.0818C250.769 93.8182 251.073 93.6308 251.412 93.5445L262.041 90.7709C262.566 90.6326 263.123 90.7059 263.594 90.975C264.064 91.2441 264.41 91.6875 264.557 92.2093Z" fill="#4FAD39" stroke="#263238" stroke-linecap="round" stroke-linejoin="round"/>
<path d="M266.361 145.143C271.172 134.063 266.089 121.181 255.01 116.37C243.93 111.56 231.048 116.642 226.237 127.722C221.426 138.802 226.508 151.683 237.588 156.494C248.668 161.305 261.55 156.223 266.361 145.143Z" fill="white" stroke="#263238" stroke-linecap="round" stroke-linejoin="round"/>
<path d="M237.264 148.994C237.451 149.433 237.794 149.788 238.227 149.99C238.66 150.192 239.153 150.226 239.61 150.085L246.802 148.013C246.818 148.167 246.847 148.32 246.89 148.47C246.999 148.846 247.181 149.196 247.426 149.502C247.67 149.808 247.973 150.062 248.315 150.251C248.658 150.439 249.035 150.559 249.424 150.602C249.813 150.645 250.206 150.611 250.582 150.502C250.958 150.393 251.309 150.211 251.614 149.967C251.92 149.722 252.174 149.42 252.363 149.077C252.552 148.734 252.671 148.358 252.714 147.969C252.757 147.58 252.723 147.186 252.614 146.81C252.569 146.661 252.512 146.516 252.445 146.375L259.629 144.302C260.099 144.177 260.504 143.88 260.765 143.47C261.026 143.06 261.123 142.567 261.038 142.089C260.993 141.829 260.893 141.582 260.746 141.363C260.598 141.144 260.405 140.959 260.181 140.82C259.957 140.68 259.706 140.59 259.444 140.555C259.183 140.519 258.916 140.539 258.663 140.614L258.058 140.245C256.747 139.461 255.782 138.209 255.358 136.741L253.994 132.013C253.432 130.066 252.184 128.388 250.481 127.289C248.778 126.191 246.735 125.746 244.729 126.038C245.073 125.675 245.288 125.208 245.341 124.71C245.394 124.213 245.282 123.711 245.021 123.284C244.761 122.857 244.367 122.527 243.9 122.345C243.434 122.164 242.921 122.141 242.44 122.281C241.959 122.42 241.538 122.714 241.24 123.117C240.943 123.52 240.787 124.009 240.796 124.509C240.804 125.01 240.978 125.494 241.288 125.886C241.599 126.278 242.031 126.557 242.516 126.68C240.645 127.497 239.137 128.968 238.273 130.817C237.41 132.667 237.25 134.768 237.825 136.726L239.204 141.506C239.449 142.341 239.51 143.22 239.383 144.081C239.256 144.942 238.943 145.765 238.466 146.493C238.216 146.568 237.985 146.695 237.787 146.865C237.589 147.034 237.428 147.243 237.315 147.479C237.202 147.714 237.139 147.97 237.13 148.231C237.121 148.492 237.167 148.751 237.264 148.994ZM244.353 124.164C244.426 124.417 244.422 124.685 244.342 124.935C244.263 125.185 244.111 125.406 243.906 125.57C243.7 125.734 243.451 125.833 243.19 125.855C242.928 125.878 242.666 125.822 242.436 125.695C242.206 125.568 242.019 125.376 241.898 125.143C241.777 124.91 241.728 124.646 241.757 124.385C241.787 124.124 241.892 123.878 242.062 123.677C242.231 123.476 242.456 123.33 242.708 123.257C242.875 123.207 243.051 123.192 243.225 123.211C243.399 123.229 243.567 123.283 243.72 123.367C243.873 123.451 244.008 123.565 244.116 123.702C244.225 123.839 244.305 123.996 244.353 124.164Z" fill="#4FAD39" stroke="#263238" stroke-linecap="round" stroke-linejoin="round"/>
<path d="M251.139 146.493L247.967 147.415" stroke="#263238" stroke-linecap="round" stroke-linejoin="round"/>
<path d="M255.831 141.418L241.292 145.623" stroke="#263238" stroke-linecap="round" stroke-linejoin="round"/>
<path d="M271.019 170.799L241.513 178.485C240.669 178.707 239.79 178.761 238.925 178.644C238.06 178.526 237.228 178.239 236.474 177.799C235.72 177.359 235.061 176.775 234.533 176.08C234.005 175.385 233.62 174.593 233.399 173.749C233.176 172.905 233.123 172.025 233.241 171.16C233.359 170.295 233.646 169.462 234.087 168.708C234.528 167.955 235.113 167.295 235.808 166.768C236.504 166.24 237.297 165.855 238.142 165.635L267.648 157.949C269.346 157.511 271.15 157.763 272.663 158.65C274.177 159.537 275.278 160.988 275.725 162.684C276.175 164.384 275.932 166.194 275.05 167.715C274.168 169.236 272.718 170.345 271.019 170.799Z" fill="#263238"/>
<path d="M238.26 169.272C238.361 169.098 238.499 168.949 238.663 168.833C238.827 168.717 239.014 168.638 239.211 168.6C239.402 168.536 239.604 168.514 239.804 168.536C240.004 168.557 240.197 168.622 240.369 168.726C240.709 168.978 240.941 169.35 241.019 169.766L241.07 169.958L240.163 170.194L240.096 169.943C240.069 169.778 239.985 169.627 239.86 169.515C239.802 169.478 239.735 169.455 239.666 169.447C239.597 169.439 239.527 169.447 239.462 169.471C239.394 169.482 239.33 169.51 239.275 169.551C239.22 169.592 239.175 169.645 239.145 169.707C239.09 169.864 239.09 170.036 239.145 170.194C239.204 170.436 239.338 170.653 239.528 170.813C239.771 171.005 240.033 171.171 240.31 171.308C240.55 171.428 240.781 171.564 241.004 171.713C241.198 171.848 241.37 172.012 241.513 172.2C241.677 172.421 241.797 172.671 241.867 172.938C242 173.343 241.974 173.783 241.793 174.17C241.564 174.501 241.223 174.739 240.834 174.841C240.444 174.942 240.03 174.9 239.669 174.723C239.32 174.477 239.081 174.103 239.005 173.683L238.909 173.307L239.816 173.07L239.927 173.506C240.03 173.904 240.244 174.059 240.576 173.97C240.908 173.882 241.026 173.646 240.923 173.233C240.862 172.992 240.728 172.775 240.539 172.613C240.298 172.422 240.035 172.258 239.757 172.126C239.519 172.001 239.288 171.863 239.064 171.713C238.87 171.579 238.698 171.414 238.555 171.226C238.389 171.006 238.269 170.756 238.201 170.489C238.071 170.089 238.092 169.656 238.26 169.272Z" fill="white"/>
<path d="M243.335 172.628C243.438 173.019 243.659 173.174 243.991 173.093C244.323 173.011 244.434 172.761 244.331 172.355L243.106 167.649L244.013 167.413L245.223 172.053C245.356 172.458 245.33 172.898 245.149 173.284C245.047 173.46 244.909 173.611 244.744 173.728C244.578 173.845 244.39 173.925 244.19 173.963C243.998 174.024 243.796 174.045 243.596 174.025C243.395 174.004 243.201 173.943 243.025 173.845C242.682 173.59 242.446 173.217 242.361 172.798L241.151 168.158L242.11 167.907L243.335 172.628Z" fill="white"/>
<path d="M247.282 166.941C247.445 167.053 247.584 167.197 247.691 167.364C247.797 167.532 247.869 167.719 247.901 167.914L247.953 168.128C248.034 168.393 248.052 168.674 248.004 168.947C247.957 169.173 247.835 169.375 247.658 169.522C248.181 169.581 248.536 169.958 248.713 170.636L248.838 171.138C248.904 171.329 248.931 171.532 248.916 171.733C248.9 171.935 248.844 172.132 248.749 172.311C248.638 172.481 248.493 172.627 248.323 172.739C248.153 172.85 247.962 172.926 247.761 172.96L246.286 173.358L244.692 167.258L246.168 166.874C246.534 166.756 246.932 166.78 247.282 166.941ZM246.271 169.485L246.647 169.39C246.727 169.376 246.802 169.346 246.87 169.302C246.937 169.257 246.994 169.199 247.038 169.131C247.106 168.958 247.106 168.766 247.038 168.593L246.95 168.254C246.92 168.083 246.834 167.927 246.706 167.811C246.648 167.77 246.58 167.745 246.51 167.736C246.439 167.727 246.367 167.735 246.3 167.759L245.836 167.877L246.271 169.485ZM247.009 172.237L247.554 172.089C247.624 172.079 247.691 172.053 247.75 172.013C247.808 171.974 247.858 171.922 247.894 171.861C247.952 171.699 247.952 171.521 247.894 171.359L247.754 170.828C247.719 170.62 247.615 170.43 247.459 170.29C247.381 170.246 247.294 170.219 247.205 170.212C247.116 170.204 247.026 170.215 246.942 170.245L246.514 170.363L247.009 172.237Z" fill="white"/>
<path d="M248.521 166.623C248.62 166.449 248.757 166.298 248.922 166.182C249.086 166.066 249.274 165.987 249.472 165.952C249.662 165.887 249.864 165.863 250.064 165.884C250.264 165.904 250.457 165.968 250.63 166.07C250.972 166.325 251.207 166.699 251.287 167.118L251.338 167.309L250.431 167.545L250.365 167.287C250.338 167.122 250.252 166.972 250.121 166.867C250.065 166.829 250 166.804 249.932 166.795C249.864 166.786 249.795 166.793 249.73 166.815C249.662 166.827 249.597 166.854 249.54 166.895C249.484 166.936 249.438 166.989 249.406 167.051C249.351 167.209 249.351 167.38 249.406 167.538C249.462 167.779 249.594 167.996 249.782 168.158C250.028 168.348 250.293 168.513 250.571 168.652C250.852 168.799 251.08 168.94 251.265 169.058C251.456 169.196 251.627 169.36 251.774 169.545C251.937 169.765 252.055 170.016 252.12 170.282C252.26 170.686 252.236 171.128 252.054 171.514C251.951 171.689 251.813 171.839 251.647 171.956C251.482 172.073 251.294 172.154 251.095 172.193C250.902 172.255 250.698 172.276 250.496 172.256C250.294 172.236 250.099 172.174 249.922 172.075C249.579 171.82 249.345 171.446 249.266 171.027L249.162 170.658L250.07 170.415L250.188 170.858C250.291 171.248 250.505 171.403 250.837 171.315C251.169 171.226 251.279 170.99 251.176 170.577C251.118 170.339 250.986 170.125 250.8 169.965C250.556 169.771 250.292 169.605 250.011 169.471C249.775 169.345 249.546 169.207 249.325 169.058C249.127 168.927 248.955 168.762 248.816 168.571C248.644 168.354 248.523 168.102 248.462 167.833C248.332 167.436 248.353 167.006 248.521 166.623Z" fill="white"/>
<path d="M255.455 169.397C255.588 169.802 255.562 170.243 255.381 170.629C255.278 170.802 255.139 170.952 254.974 171.068C254.808 171.183 254.62 171.263 254.422 171.3C254.231 171.365 254.028 171.388 253.826 171.368C253.625 171.348 253.431 171.284 253.257 171.182C252.908 170.936 252.669 170.562 252.593 170.142L251.767 166.97C251.631 166.566 251.655 166.125 251.833 165.738C251.936 165.564 252.074 165.413 252.24 165.296C252.405 165.179 252.593 165.098 252.792 165.06C252.985 164.998 253.189 164.976 253.391 164.996C253.592 165.017 253.788 165.078 253.965 165.178C254.307 165.432 254.542 165.806 254.621 166.225L254.776 166.815L253.869 167.051L253.699 166.395C253.596 165.996 253.382 165.841 253.05 165.93C252.718 166.019 252.607 166.255 252.711 166.668L253.566 169.958C253.67 170.356 253.884 170.511 254.216 170.422C254.547 170.334 254.665 170.098 254.562 169.685L254.334 168.814L255.241 168.578L255.455 169.397Z" fill="white"/>
<path d="M258.28 169.921C258.222 169.769 258.176 169.614 258.14 169.456L257.889 168.497C257.853 168.284 257.746 168.089 257.586 167.944C257.508 167.896 257.419 167.866 257.327 167.856C257.236 167.845 257.143 167.855 257.055 167.885L256.731 167.973L257.373 170.459L256.414 170.71L254.828 164.61L256.303 164.226C256.487 164.143 256.687 164.105 256.889 164.115C257.09 164.125 257.286 164.183 257.461 164.284C257.635 164.385 257.783 164.526 257.892 164.696C258.001 164.865 258.068 165.058 258.088 165.259L258.213 165.746C258.309 165.982 258.331 166.241 258.277 166.489C258.223 166.738 258.095 166.964 257.911 167.14C258.149 167.169 258.367 167.291 258.516 167.479C258.693 167.716 258.819 167.987 258.885 168.276L259.128 169.22C259.172 169.39 259.217 169.53 259.254 169.633C259.296 169.739 259.353 169.838 259.423 169.928L258.449 170.186C258.381 170.106 258.324 170.017 258.28 169.921ZM256.502 167.103L256.871 167.007C256.952 166.991 257.028 166.96 257.097 166.914C257.165 166.869 257.224 166.81 257.269 166.741C257.335 166.571 257.335 166.381 257.269 166.21L257.107 165.605C257.082 165.435 256.999 165.278 256.871 165.163C256.811 165.122 256.742 165.096 256.671 165.087C256.599 165.078 256.526 165.087 256.458 165.111L256.001 165.229L256.502 167.103Z" fill="white"/>
<path d="M259.291 163.444L260.876 169.545L259.918 169.795L258.332 163.673L259.291 163.444Z" fill="white"/>
<path d="M262.602 162.935C262.764 163.047 262.901 163.191 263.006 163.357C263.111 163.523 263.182 163.708 263.215 163.902L263.274 164.123C263.351 164.386 263.369 164.663 263.325 164.934C263.275 165.158 263.153 165.36 262.978 165.51C263.502 165.576 263.849 165.945 264.033 166.631L264.159 167.132C264.224 167.322 264.25 167.524 264.235 167.724C264.22 167.925 264.164 168.12 264.07 168.298C263.96 168.47 263.815 168.617 263.645 168.73C263.475 168.843 263.283 168.919 263.082 168.954L261.606 169.345L259.954 163.26L261.429 162.884C261.812 162.745 262.233 162.764 262.602 162.935ZM261.592 165.48L261.968 165.384C262.127 165.352 262.267 165.259 262.359 165.126C262.427 164.953 262.427 164.761 262.359 164.588L262.27 164.248C262.239 164.076 262.154 163.919 262.027 163.798C261.966 163.759 261.898 163.734 261.826 163.725C261.755 163.716 261.682 163.724 261.614 163.747L261.156 163.872L261.592 165.48ZM262.329 168.224L262.875 168.084C262.945 168.071 263.012 168.043 263.07 168.003C263.129 167.962 263.178 167.909 263.215 167.848C263.275 167.689 263.275 167.513 263.215 167.354L263.082 166.823C263.047 166.613 262.943 166.421 262.787 166.277C262.708 166.235 262.621 166.21 262.532 166.203C262.443 166.197 262.354 166.209 262.27 166.24L261.842 166.351L262.329 168.224Z" fill="white"/>
<path d="M266.468 164.315L266.696 165.192L265.376 165.532L265.841 167.317L267.5 166.889L267.729 167.759L265.11 168.438L263.524 162.338L266.136 161.659L266.364 162.529L264.712 162.965L265.155 164.661L266.468 164.315Z" fill="white"/>
<path d="M268.246 161.106C268.438 161.043 268.642 161.02 268.844 161.039C269.045 161.058 269.241 161.118 269.418 161.216C269.759 161.461 269.992 161.829 270.068 162.242L270.872 165.333C271.011 165.731 270.987 166.169 270.805 166.55C270.701 166.722 270.56 166.87 270.393 166.983C270.227 167.096 270.038 167.172 269.839 167.206L268.319 167.605L266.726 161.504L268.246 161.106ZM269.05 166.483L269.588 166.343C269.657 166.33 269.722 166.302 269.78 166.261C269.837 166.22 269.885 166.168 269.92 166.107C269.975 165.949 269.975 165.778 269.92 165.62L269.094 162.448C269.061 162.284 268.972 162.135 268.843 162.028C268.784 161.994 268.72 161.973 268.652 161.965C268.585 161.958 268.517 161.964 268.452 161.984L267.906 162.124L269.05 166.483Z" fill="white"/>
<path d="M199.312 254.323C199.312 254.323 190.357 233.484 194.886 208.212" stroke="#263238" stroke-linecap="round" stroke-linejoin="round"/>
<path d="M177.463 276.836C177.463 276.836 159.361 282.368 157.546 286.536C155.732 290.703 165.66 287.192 165.66 287.192" stroke="#263238" stroke-linecap="round" stroke-linejoin="round"/>
<path d="M188.594 191.386C188.594 191.386 171.923 207.91 160.77 212.313" stroke="#263238" stroke-linecap="round" stroke-linejoin="round"/>
<path d="M133.971 186.946C133.971 186.946 130.932 209.252 142.27 213.464" stroke="#263238" stroke-linecap="round" stroke-linejoin="round"/>
<path d="M101.883 231.987C101.883 231.987 101.795 202.746 107.6 193.703" stroke="#263238" stroke-linecap="round" stroke-linejoin="round"/>
<path d="M99.7147 202.193C99.7147 202.193 98.0845 220.354 101.751 226.277" stroke="#263238" stroke-linecap="round" stroke-linejoin="round"/>
<path d="M87.7794 236.302C87.7794 236.302 75.0992 231.935 72.4732 237.349C69.8471 242.764 80.0341 237.961 80.0341 237.961" stroke="#263238" stroke-linecap="round" stroke-linejoin="round"/>
<path d="M95.4068 255.259C95.4068 255.259 82.9552 262.274 82.3135 266.287" stroke="#263238" stroke-linecap="round" stroke-linejoin="round"/>
<path d="M115.744 235.859C115.744 235.859 139.577 271.879 152.729 268.574" stroke="#263238" stroke-linecap="round" stroke-linejoin="round"/>
<path d="M132.024 286.381C132.024 286.381 113.339 300.079 110.632 298.921" stroke="#263238" stroke-linecap="round" stroke-linejoin="round"/>
<path opacity="0.2" d="M262.905 227.929C264.166 226.897 265 226.211 265.273 225.997C264.992 226.24 264.181 226.948 262.905 227.929Z" fill="black"/>
</svg>
