<svg width="320" height="273" viewBox="0 0 320 273" fill="none" xmlns="http://www.w3.org/2000/svg">
<path d="M152.091 244.694C184.73 244.694 211.189 240.913 211.189 236.248C211.189 231.584 184.73 227.802 152.091 227.802C119.453 227.802 92.9941 231.584 92.9941 236.248C92.9941 240.913 119.453 244.694 152.091 244.694Z" fill="#2C96CA"/>
<path opacity="0.5" d="M152.091 244.694C184.73 244.694 211.189 240.913 211.189 236.248C211.189 231.584 184.73 227.802 152.091 227.802C119.453 227.802 92.9941 231.584 92.9941 236.248C92.9941 240.913 119.453 244.694 152.091 244.694Z" fill="white"/>
<path d="M281.954 264.542C300.288 264.542 315.15 260.76 315.15 256.096C315.15 251.431 300.288 247.65 281.954 247.65C263.62 247.65 248.757 251.431 248.757 256.096C248.757 260.76 263.62 264.542 281.954 264.542Z" fill="#2C96CA"/>
<path opacity="0.5" d="M281.954 264.542C300.288 264.542 315.15 260.76 315.15 256.096C315.15 251.431 300.288 247.65 281.954 247.65C263.62 247.65 248.757 251.431 248.757 256.096C248.757 260.76 263.62 264.542 281.954 264.542Z" fill="white"/>
<path d="M0.160721 61.6622C-0.00555088 61.061 -0.043339 60.4316 0.0498129 59.8148C0.142965 59.198 0.364968 58.6078 0.701373 58.0825C1.03778 57.5573 1.48104 57.1088 2.00229 56.7662C2.52355 56.4236 3.11112 56.1947 3.72673 56.0942C7.44915 55.5859 12.024 60.583 13.4707 63.6094C13.5958 63.8675 15.0817 68.1842 15.0347 68.1842C14.9878 68.1842 8.43449 68.3328 5.74435 67.1598C3.42175 66.151 0.809798 64.235 0.160721 61.6622ZM95.7783 50.19C95.2309 52.7863 92.6502 54.7726 90.3745 55.8362C88.0988 56.8997 82.7342 57.0874 81.4126 57.1108C80.701 57.9632 79.9424 58.8704 79.1291 59.9027C77.7058 61.7248 76.1261 63.8128 74.5543 66.1588C74.132 66.7923 73.7097 67.4804 73.2796 68.1451C74.2336 67.1754 75.5552 65.8617 75.696 65.7443C78.3158 63.6564 84.611 61.1617 87.7391 63.2341C88.2499 63.5928 88.6793 64.0552 88.9995 64.591C89.3196 65.1268 89.5231 65.7241 89.5969 66.3439C89.6707 66.9637 89.6131 67.5921 89.4277 68.1881C89.2423 68.7842 88.9334 69.3344 88.5211 69.803C86.8398 71.8519 83.6179 72.4228 81.1154 72.3211C78.613 72.2195 73.608 69.8421 72.5132 69.3104C71.5904 70.7962 70.6833 72.3446 69.823 74.0025C68.2439 77.0084 66.9354 80.1489 65.9129 83.3867L66.1006 83.4806C66.8827 82.4796 68.5249 80.4072 68.6813 80.2508C71.0274 77.9048 77.0411 74.7141 80.4116 76.4346C80.9583 76.7355 81.4356 77.1482 81.8121 77.6459C82.1887 78.1436 82.4561 78.715 82.5971 79.323C82.738 79.931 82.7492 80.5618 82.63 81.1744C82.5108 81.787 82.2639 82.3676 81.9053 82.8784C80.4585 85.0993 77.3226 86.0065 74.8671 86.1942C71.9892 86.3975 66.0302 84.1453 65.8113 84.0592C64.8735 87.3164 64.1499 90.6314 63.6451 93.9831C63.2541 96.4543 62.9647 98.9802 62.6988 101.522C63.215 100.802 65.389 98.0809 65.5689 97.901C67.9149 95.5549 73.9286 92.3643 77.2992 94.0848C77.8459 94.3857 78.3231 94.7984 78.6997 95.2961C79.0763 95.7938 79.3437 96.3652 79.4846 96.9732C79.6256 97.5812 79.6368 98.212 79.5176 98.8246C79.3984 99.4372 79.1514 100.018 78.7928 100.529C77.3461 102.75 74.2102 103.657 71.7546 103.844C68.9394 104.04 63.2228 101.913 62.7458 101.733C62.6285 102.882 62.4955 104.032 62.386 105.189C62.0185 108.959 61.6666 112.744 61.2052 116.466C61.0488 117.756 60.8376 119.023 60.6421 120.29C61.4242 119.235 62.9882 117.35 63.1133 117.201C65.4594 114.855 71.4731 111.665 74.8436 113.385C75.3904 113.686 75.8676 114.099 76.2441 114.596C76.6207 115.094 76.8882 115.665 77.0291 116.273C77.17 116.881 77.1812 117.512 77.062 118.125C76.9428 118.737 76.6959 119.318 76.3373 119.829C74.8905 122.05 71.7546 122.957 69.26 123.137C66.7654 123.317 61.9012 121.627 60.5483 121.135C60.1964 123.246 59.7663 125.326 59.3205 127.391C59.0937 128.267 58.9217 129.166 58.6558 129.995C58.3899 130.824 58.1553 131.661 57.8738 132.482C57.3029 134.155 56.7868 135.719 56.2159 137.268C55.9344 138.05 55.6528 138.785 55.3635 139.544C56.0282 138.355 57.1074 136.486 57.2325 136.329C59.2189 133.631 64.6539 129.588 68.1808 130.785C68.7665 130.999 69.3005 131.335 69.748 131.769C70.1956 132.204 70.5466 132.727 70.7782 133.307C71.0099 133.886 71.117 134.507 71.0925 135.13C71.0681 135.754 70.9126 136.365 70.6363 136.924C69.5415 139.34 66.5777 140.717 64.1378 141.272C61.4476 141.882 55.6685 140.709 54.9568 140.56C54.253 142.414 53.557 144.212 52.8689 145.886C50.7027 151.172 48.7007 155.505 47.254 158.508C47.1758 158.68 47.0975 158.828 47.0193 158.992H57.5532L53.9168 229.898C53.7898 232.516 52.6565 234.984 50.7534 236.787C48.8504 238.589 46.3247 239.587 43.7036 239.572C41.1063 239.565 38.6099 238.565 36.7267 236.777C34.8435 234.988 33.7163 232.546 33.5764 229.953L29.9479 159.024H41.248C41.1933 158.531 41.1386 158.015 41.0682 157.46C40.6928 154.183 40.0828 149.499 39.0975 143.923C38.8238 142.312 38.4953 140.615 38.1512 138.871C37.4161 138.965 31.5823 139.7 28.9469 138.871C26.5461 138.136 23.6995 136.525 22.7924 134.054C22.5577 133.476 22.4474 132.855 22.4688 132.231C22.4902 131.607 22.6427 130.995 22.9164 130.435C23.1901 129.874 23.5789 129.377 24.0574 128.977C24.536 128.576 25.0935 128.281 25.6937 128.11C29.3301 127.18 34.4523 131.614 36.2353 134.46C36.3448 134.64 37.4552 136.939 37.9948 138.128C37.7837 137.072 37.5725 136.024 37.3301 134.93C36.9939 133.366 36.5481 131.7 36.204 130.097C35.9694 129.276 35.7426 128.439 35.508 127.602C35.2734 126.765 34.9762 125.96 34.726 125.123C34.3115 123.911 33.8189 122.675 33.334 121.448C31.77 121.886 27.0778 123.09 24.6849 122.746C22.2919 122.402 19.1482 121.236 17.8735 118.914C17.5545 118.377 17.352 117.78 17.2791 117.16C17.2062 116.54 17.2646 115.911 17.4505 115.315C17.6363 114.719 17.9455 114.169 18.3579 113.701C18.7703 113.232 19.2767 112.855 19.8442 112.595C23.3007 111.133 29.0251 114.738 31.2225 117.287C31.2929 117.365 31.6996 117.952 32.1766 118.648C31.6683 117.459 31.16 116.302 30.6126 115.09C29.0485 111.727 27.3203 108.349 25.6155 104.924C25.2636 104.22 24.9195 103.508 24.5676 102.796C23.2303 103.172 18.1863 104.525 15.676 104.157C13.1657 103.79 10.1393 102.648 8.8646 100.325C8.54447 99.7896 8.34103 99.1924 8.26757 98.5726C8.1941 97.9529 8.25228 97.3247 8.4383 96.729C8.62431 96.1333 8.93397 95.5836 9.34702 95.1158C9.76007 94.648 10.2672 94.2727 10.8353 94.0144C14.284 92.5442 20.0162 96.1571 22.2137 98.7065C22.2919 98.8003 22.7767 99.4885 23.3163 100.271C22.417 98.4093 21.5411 96.5481 20.7278 94.6791C19.3235 91.4687 18.1323 88.1692 17.1618 84.8022C16.6926 84.9429 10.8118 86.6477 8.02002 86.2411C5.54102 85.8814 2.48332 84.7318 1.20863 82.4092C0.893129 81.8762 0.692811 81.2829 0.620583 80.6677C0.548354 80.0525 0.605821 79.4291 0.789275 78.8374C0.972729 78.2458 1.2781 77.6992 1.68571 77.2328C2.09333 76.7664 2.59413 76.3906 3.15586 76.1296C6.61239 74.6594 12.3368 78.2723 14.5342 80.8217C14.6907 81.0016 16.4267 83.5431 17.0211 84.4659C17.0177 84.4269 17.0177 84.3876 17.0211 84.3486C16.1498 81.0177 15.5793 77.6153 15.3163 74.1823C15.0604 71.1187 14.9873 68.0425 15.0973 64.9701C15.1599 62.1236 15.3945 59.496 15.6291 57.2203C15.762 55.9691 15.9028 54.8352 16.0514 53.7794L15.9888 53.8185C15.9262 53.8185 14.6672 49.4783 14.6203 49.189C14.065 45.881 14.9487 39.1635 18.2801 37.4587C18.8415 37.1864 19.454 37.0356 20.0777 37.0162C20.7013 36.9968 21.322 37.1092 21.8992 37.3462C22.4764 37.5831 22.9971 37.9392 23.4273 38.3912C23.8575 38.8431 24.1874 39.3808 24.3955 39.969C25.373 42.4323 24.3095 45.5213 23.0035 47.6641C21.6975 49.8068 17.3261 52.9192 16.2391 53.6621C16.1061 54.7648 15.981 55.9456 15.8715 57.2594C15.6916 59.5586 15.5118 62.1549 15.504 64.9936C15.504 65.7756 15.5039 66.5576 15.543 67.3397C15.8011 66.0102 16.1765 64.2116 16.2312 64.0083C17.2635 60.8176 21.1345 55.2653 24.896 55.2653C25.5194 55.2847 26.1318 55.435 26.6933 55.7064C27.2549 55.9777 27.7532 56.3641 28.1558 56.8405C28.5584 57.3168 28.8564 57.8725 29.0304 58.4714C29.2044 59.0704 29.2505 59.6992 29.1658 60.3171C28.8921 62.9525 26.5226 65.2048 24.3799 66.5029C22.2371 67.8011 16.7474 68.5753 15.5665 68.716C15.6134 70.4678 15.7151 72.2586 15.9184 74.1276C16.2592 77.5195 16.9003 80.8745 17.8344 84.1531H18.0455C18.1315 82.894 18.374 80.243 18.4131 80.0319C19.0934 76.7474 22.3232 70.804 26.069 70.3974C26.6909 70.3478 27.3163 70.4296 27.9046 70.6374C28.4928 70.8452 29.0308 71.1744 29.4836 71.6036C29.9364 72.0328 30.2938 72.5524 30.5328 73.1287C30.7718 73.705 30.8869 74.3251 30.8706 74.9487C30.8706 77.5998 28.7748 80.0944 26.7885 81.6194C24.4659 83.3163 18.2567 84.7318 18.0142 84.7787C19.0288 88.0121 20.254 91.1756 21.6819 94.249C22.7064 96.5246 23.8794 98.8082 25.0524 101.06C25.0524 100.169 25.3965 96.7045 25.4512 96.4543C26.1316 93.1698 29.3613 87.2264 33.0994 86.8198C33.7209 86.7691 34.3461 86.8498 34.9344 87.0567C35.5226 87.2636 36.0607 87.592 36.5136 88.0206C36.9666 88.4491 37.3242 88.9683 37.5632 89.5442C37.8022 90.1202 37.9173 90.74 37.901 91.3633C37.901 94.0144 35.813 96.509 33.8267 98.0339C31.5901 99.7544 25.6467 101.162 25.1463 101.248C25.6859 102.272 26.2098 103.305 26.7572 104.329C28.5324 107.676 30.3232 111.023 31.9889 114.386C32.5676 115.551 33.0994 116.732 33.6312 117.889C33.725 116.56 33.9518 114.151 33.9909 113.94C34.6713 110.664 37.901 104.712 41.6391 104.306C42.261 104.256 42.8863 104.338 43.4746 104.546C44.0628 104.754 44.6008 105.083 45.0536 105.512C45.5064 105.941 45.8639 106.461 46.1028 107.037C46.3418 107.613 46.4569 108.233 46.4407 108.857C46.4407 111.508 44.3527 114.003 42.3663 115.528C40.38 117.053 35.3985 118.327 33.9909 118.656C34.8668 120.603 35.6879 122.566 36.4073 124.521C36.6967 125.373 37.0486 126.226 37.2832 127.063L38.0652 129.542C38.5188 131.254 38.9489 132.842 39.3243 134.453C39.5276 135.235 39.6918 136.017 39.8717 136.799C39.77 135.446 39.6449 133.287 39.6527 133.092C39.8248 129.745 42.1239 123.371 45.7525 122.41C46.3623 122.258 46.9975 122.237 47.6159 122.349C48.2343 122.461 48.8218 122.704 49.3394 123.06C49.857 123.416 50.293 123.879 50.6184 124.416C50.9437 124.954 51.1511 125.555 51.2266 126.179C51.2788 126.502 51.2998 126.829 51.2892 127.156C52.773 129.711 53.5805 132.602 53.6352 135.555C53.6352 135.766 53.2833 138.3 53.08 139.583C53.4866 138.589 53.862 137.596 54.2843 136.556C54.8708 135.055 55.4495 133.428 56.0126 131.864C56.2706 131.082 56.5365 130.222 56.7946 129.393C57.0527 128.564 57.256 127.727 57.4906 126.89C57.819 125.647 58.0927 124.349 58.3665 123.051C56.8024 122.55 52.2432 120.978 50.4368 119.367C48.6303 117.756 46.6518 115.051 46.8629 112.407C46.8939 111.784 47.0554 111.175 47.3371 110.618C47.6188 110.062 48.0143 109.571 48.4981 109.177C48.9818 108.783 49.5429 108.496 50.145 108.333C50.7471 108.17 51.3767 108.135 51.993 108.231C55.6841 108.912 58.4681 115.082 58.9061 118.398C58.9061 118.499 58.9061 119.18 58.9061 120.063C59.1407 118.789 59.3753 117.522 59.5629 116.224C60.1025 112.548 60.5326 108.779 60.9862 105.017C61.0722 104.235 61.1817 103.453 61.2756 102.671C59.9618 102.249 55.0194 100.591 53.1113 98.902C51.2032 97.2128 49.3263 94.5852 49.5453 91.9498C49.5741 91.3265 49.7338 90.7163 50.0142 90.1588C50.2946 89.6014 50.6893 89.1093 51.1725 88.7146C51.6558 88.3199 52.2168 88.0314 52.8189 87.868C53.4211 87.7045 54.051 87.6698 54.6675 87.766C58.3665 88.4464 61.1504 94.6243 61.5806 97.9323C61.5806 98.0496 61.5806 98.902 61.6275 99.856C61.9012 97.8072 62.2062 95.7739 62.5581 93.7641C63.157 90.3246 63.9825 86.9285 65.0293 83.5979C64.5679 83.4493 58.7184 81.6272 56.6147 79.7503C54.7457 78.0768 52.8298 75.4336 53.0409 72.7903C53.0718 72.1674 53.2334 71.5579 53.515 71.0013C53.7967 70.4448 54.1923 69.9538 54.676 69.56C55.1597 69.1662 55.7209 68.8785 56.323 68.7156C56.925 68.5527 57.5547 68.5182 58.1709 68.6144C61.8621 69.2947 64.6461 75.4649 65.084 78.7806C65.084 79.0152 65.1622 82.0886 65.1387 83.1912V83.0739C66.2528 79.8294 67.6502 76.6892 69.3147 73.6897C70.7957 70.9898 72.4329 68.3787 74.218 65.8695C75.8446 63.5234 77.479 61.4902 78.9101 59.6993C79.6921 58.7296 80.4742 57.8616 81.1623 57.0561H81.0763C81.0137 57.0561 82.3823 52.7003 82.4996 52.4344C83.8603 49.3767 88.2943 44.2544 92.0324 44.6611C92.6602 44.7384 93.2642 44.9492 93.8038 45.2793C94.3435 45.6094 94.8062 46.0511 95.161 46.5748C95.5158 47.0985 95.7545 47.692 95.8609 48.3156C95.9674 48.9391 95.9392 49.5782 95.7783 50.19ZM52.7125 140.294C52.079 139.981 47.1523 137.542 45.2285 135.461C43.5689 136.379 41.8558 137.196 40.0985 137.909C40.5364 139.841 40.9431 141.733 41.2871 143.508C42.4054 149.115 43.1171 153.823 43.5706 157.131C43.6723 157.835 43.7505 158.468 43.8287 159.039H44.079L44.861 157.436C46.3546 154.496 48.427 150.257 50.687 145.065C51.3752 143.54 52.0477 141.937 52.7125 140.294ZM72.3881 68.6065C72.4506 68.6456 73.5846 64.2272 73.6315 63.9144C74.0929 60.5908 73.0293 53.9046 69.651 52.2701C69.0778 52.0157 68.4572 51.8855 67.83 51.8881C67.2028 51.8908 66.5833 52.0262 66.0123 52.2855C65.4412 52.5448 64.9316 52.9221 64.5168 53.3926C64.1021 53.863 63.7917 54.416 63.606 55.015C62.6988 57.5019 63.8484 60.5596 65.17 62.6632C66.8045 65.0953 72.3881 68.6065 72.3881 68.6065Z" fill="#2C96CA"/>
<path opacity="0.3" d="M0.160721 61.6622C-0.00555088 61.061 -0.043339 60.4316 0.0498129 59.8148C0.142965 59.198 0.364968 58.6078 0.701373 58.0825C1.03778 57.5573 1.48104 57.1088 2.00229 56.7662C2.52355 56.4236 3.11112 56.1947 3.72673 56.0942C7.44915 55.5859 12.024 60.583 13.4707 63.6094C13.5958 63.8675 15.0817 68.1842 15.0347 68.1842C14.9878 68.1842 8.43449 68.3328 5.74435 67.1598C3.42175 66.151 0.809798 64.235 0.160721 61.6622ZM95.7783 50.19C95.2309 52.7863 92.6502 54.7726 90.3745 55.8362C88.0988 56.8997 82.7342 57.0874 81.4126 57.1108C80.701 57.9632 79.9424 58.8704 79.1291 59.9027C77.7058 61.7248 76.1261 63.8128 74.5543 66.1588C74.132 66.7923 73.7097 67.4804 73.2796 68.1451C74.2336 67.1754 75.5552 65.8617 75.696 65.7443C78.3158 63.6564 84.611 61.1617 87.7391 63.2341C88.2499 63.5928 88.6793 64.0552 88.9995 64.591C89.3196 65.1268 89.5231 65.7241 89.5969 66.3439C89.6707 66.9637 89.6131 67.5921 89.4277 68.1881C89.2423 68.7842 88.9334 69.3344 88.5211 69.803C86.8398 71.8519 83.6179 72.4228 81.1154 72.3211C78.613 72.2195 73.608 69.8421 72.5132 69.3104C71.5904 70.7962 70.6833 72.3446 69.823 74.0025C68.2439 77.0084 66.9354 80.1489 65.9129 83.3867L66.1006 83.4806C66.8827 82.4796 68.5249 80.4072 68.6813 80.2508C71.0274 77.9048 77.0411 74.7141 80.4116 76.4346C80.9583 76.7355 81.4356 77.1482 81.8121 77.6459C82.1887 78.1436 82.4561 78.715 82.5971 79.323C82.738 79.931 82.7492 80.5618 82.63 81.1744C82.5108 81.787 82.2639 82.3676 81.9053 82.8784C80.4585 85.0993 77.3226 86.0065 74.8671 86.1942C71.9892 86.3975 66.0302 84.1453 65.8113 84.0592C64.8735 87.3164 64.1499 90.6314 63.6451 93.9831C63.2541 96.4543 62.9647 98.9802 62.6988 101.522C63.215 100.802 65.389 98.0809 65.5689 97.901C67.9149 95.5549 73.9286 92.3643 77.2992 94.0848C77.8459 94.3857 78.3231 94.7984 78.6997 95.2961C79.0763 95.7938 79.3437 96.3652 79.4846 96.9732C79.6256 97.5812 79.6368 98.212 79.5176 98.8246C79.3984 99.4372 79.1514 100.018 78.7928 100.529C77.3461 102.75 74.2102 103.657 71.7546 103.844C68.9394 104.04 63.2228 101.913 62.7458 101.733C62.6285 102.882 62.4955 104.032 62.386 105.189C62.0185 108.959 61.6666 112.744 61.2052 116.466C61.0488 117.756 60.8376 119.023 60.6421 120.29C61.4242 119.235 62.9882 117.35 63.1133 117.201C65.4594 114.855 71.4731 111.665 74.8436 113.385C75.3904 113.686 75.8676 114.099 76.2441 114.596C76.6207 115.094 76.8882 115.665 77.0291 116.273C77.17 116.881 77.1812 117.512 77.062 118.125C76.9428 118.737 76.6959 119.318 76.3373 119.829C74.8905 122.05 71.7546 122.957 69.26 123.137C66.7654 123.317 61.9012 121.627 60.5483 121.135C60.1964 123.246 59.7663 125.326 59.3205 127.391C59.0937 128.267 58.9217 129.166 58.6558 129.995C58.3899 130.824 58.1553 131.661 57.8738 132.482C57.3029 134.155 56.7868 135.719 56.2159 137.268C55.9344 138.05 55.6528 138.785 55.3635 139.544C56.0282 138.355 57.1074 136.486 57.2325 136.329C59.2189 133.631 64.6539 129.588 68.1808 130.785C68.7665 130.999 69.3005 131.335 69.748 131.769C70.1956 132.204 70.5466 132.727 70.7782 133.307C71.0099 133.886 71.117 134.507 71.0925 135.13C71.0681 135.754 70.9126 136.365 70.6363 136.924C69.5415 139.34 66.5777 140.717 64.1378 141.272C61.4476 141.882 55.6685 140.709 54.9568 140.56C54.253 142.414 53.557 144.212 52.8689 145.886C50.7027 151.172 48.7007 155.505 47.254 158.508C47.1758 158.68 47.0975 158.828 47.0193 158.992H57.5532L53.9168 229.898C53.7898 232.516 52.6565 234.984 50.7534 236.787C48.8504 238.589 46.3247 239.587 43.7036 239.572C41.1063 239.565 38.6099 238.565 36.7267 236.777C34.8435 234.988 33.7163 232.546 33.5764 229.953L29.9479 159.024H41.248C41.1933 158.531 41.1386 158.015 41.0682 157.46C40.6928 154.183 40.0828 149.499 39.0975 143.923C38.8238 142.312 38.4953 140.615 38.1512 138.871C37.4161 138.965 31.5823 139.7 28.9469 138.871C26.5461 138.136 23.6995 136.525 22.7924 134.054C22.5577 133.476 22.4474 132.855 22.4688 132.231C22.4902 131.607 22.6427 130.995 22.9164 130.435C23.1901 129.874 23.5789 129.377 24.0574 128.977C24.536 128.576 25.0935 128.281 25.6937 128.11C29.3301 127.18 34.4523 131.614 36.2353 134.46C36.3448 134.64 37.4552 136.939 37.9948 138.128C37.7837 137.072 37.5725 136.024 37.3301 134.93C36.9939 133.366 36.5481 131.7 36.204 130.097C35.9694 129.276 35.7426 128.439 35.508 127.602C35.2734 126.765 34.9762 125.96 34.726 125.123C34.3115 123.911 33.8189 122.675 33.334 121.448C31.77 121.886 27.0778 123.09 24.6849 122.746C22.2919 122.402 19.1482 121.236 17.8735 118.914C17.5545 118.377 17.352 117.78 17.2791 117.16C17.2062 116.54 17.2646 115.911 17.4505 115.315C17.6363 114.719 17.9455 114.169 18.3579 113.701C18.7703 113.232 19.2767 112.855 19.8442 112.595C23.3007 111.133 29.0251 114.738 31.2225 117.287C31.2929 117.365 31.6996 117.952 32.1766 118.648C31.6683 117.459 31.16 116.302 30.6126 115.09C29.0485 111.727 27.3203 108.349 25.6155 104.924C25.2636 104.22 24.9195 103.508 24.5676 102.796C23.2303 103.172 18.1863 104.525 15.676 104.157C13.1657 103.79 10.1393 102.648 8.8646 100.325C8.54447 99.7896 8.34103 99.1924 8.26757 98.5726C8.1941 97.9529 8.25228 97.3247 8.4383 96.729C8.62431 96.1333 8.93397 95.5836 9.34702 95.1158C9.76007 94.648 10.2672 94.2727 10.8353 94.0144C14.284 92.5442 20.0162 96.1571 22.2137 98.7065C22.2919 98.8003 22.7767 99.4885 23.3163 100.271C22.417 98.4093 21.5411 96.5481 20.7278 94.6791C19.3235 91.4687 18.1323 88.1692 17.1618 84.8022C16.6926 84.9429 10.8118 86.6477 8.02002 86.2411C5.54102 85.8814 2.48332 84.7318 1.20863 82.4092C0.893129 81.8762 0.692811 81.2829 0.620583 80.6677C0.548354 80.0525 0.605821 79.4291 0.789275 78.8374C0.972729 78.2458 1.2781 77.6992 1.68571 77.2328C2.09333 76.7664 2.59413 76.3906 3.15586 76.1296C6.61239 74.6594 12.3368 78.2723 14.5342 80.8217C14.6907 81.0016 16.4267 83.5431 17.0211 84.4659C17.0177 84.4269 17.0177 84.3876 17.0211 84.3486C16.1498 81.0177 15.5793 77.6153 15.3163 74.1823C15.0604 71.1187 14.9873 68.0425 15.0973 64.9701C15.1599 62.1236 15.3945 59.496 15.6291 57.2203C15.762 55.9691 15.9028 54.8352 16.0514 53.7794L15.9888 53.8185C15.9262 53.8185 14.6672 49.4783 14.6203 49.189C14.065 45.881 14.9487 39.1635 18.2801 37.4587C18.8415 37.1864 19.454 37.0356 20.0777 37.0162C20.7013 36.9968 21.322 37.1092 21.8992 37.3462C22.4764 37.5831 22.9971 37.9392 23.4273 38.3912C23.8575 38.8431 24.1874 39.3808 24.3955 39.969C25.373 42.4323 24.3095 45.5213 23.0035 47.6641C21.6975 49.8068 17.3261 52.9192 16.2391 53.6621C16.1061 54.7648 15.981 55.9456 15.8715 57.2594C15.6916 59.5586 15.5118 62.1549 15.504 64.9936C15.504 65.7756 15.5039 66.5576 15.543 67.3397C15.8011 66.0102 16.1765 64.2116 16.2312 64.0083C17.2635 60.8176 21.1345 55.2653 24.896 55.2653C25.5194 55.2847 26.1318 55.435 26.6933 55.7064C27.2549 55.9777 27.7532 56.3641 28.1558 56.8405C28.5584 57.3168 28.8564 57.8725 29.0304 58.4714C29.2044 59.0704 29.2505 59.6992 29.1658 60.3171C28.8921 62.9525 26.5226 65.2048 24.3799 66.5029C22.2371 67.8011 16.7474 68.5753 15.5665 68.716C15.6134 70.4678 15.7151 72.2586 15.9184 74.1276C16.2592 77.5195 16.9003 80.8745 17.8344 84.1531H18.0455C18.1315 82.894 18.374 80.243 18.4131 80.0319C19.0934 76.7474 22.3232 70.804 26.069 70.3974C26.6909 70.3478 27.3163 70.4296 27.9046 70.6374C28.4928 70.8452 29.0308 71.1744 29.4836 71.6036C29.9364 72.0328 30.2938 72.5524 30.5328 73.1287C30.7718 73.705 30.8869 74.3251 30.8706 74.9487C30.8706 77.5998 28.7748 80.0944 26.7885 81.6194C24.4659 83.3163 18.2567 84.7318 18.0142 84.7787C19.0288 88.0121 20.254 91.1756 21.6819 94.249C22.7064 96.5246 23.8794 98.8082 25.0524 101.06C25.0524 100.169 25.3965 96.7045 25.4512 96.4543C26.1316 93.1698 29.3613 87.2264 33.0994 86.8198C33.7209 86.7691 34.3461 86.8498 34.9344 87.0567C35.5226 87.2636 36.0607 87.592 36.5136 88.0206C36.9666 88.4491 37.3242 88.9683 37.5632 89.5442C37.8022 90.1202 37.9173 90.74 37.901 91.3633C37.901 94.0144 35.813 96.509 33.8267 98.0339C31.5901 99.7544 25.6467 101.162 25.1463 101.248C25.6859 102.272 26.2098 103.305 26.7572 104.329C28.5324 107.676 30.3232 111.023 31.9889 114.386C32.5676 115.551 33.0994 116.732 33.6312 117.889C33.725 116.56 33.9518 114.151 33.9909 113.94C34.6713 110.664 37.901 104.712 41.6391 104.306C42.261 104.256 42.8863 104.338 43.4746 104.546C44.0628 104.754 44.6008 105.083 45.0536 105.512C45.5064 105.941 45.8639 106.461 46.1028 107.037C46.3418 107.613 46.4569 108.233 46.4407 108.857C46.4407 111.508 44.3527 114.003 42.3663 115.528C40.38 117.053 35.3985 118.327 33.9909 118.656C34.8668 120.603 35.6879 122.566 36.4073 124.521C36.6967 125.373 37.0486 126.226 37.2832 127.063L38.0652 129.542C38.5188 131.254 38.9489 132.842 39.3243 134.453C39.5276 135.235 39.6918 136.017 39.8717 136.799C39.77 135.446 39.6449 133.287 39.6527 133.092C39.8248 129.745 42.1239 123.371 45.7525 122.41C46.3623 122.258 46.9975 122.237 47.6159 122.349C48.2343 122.461 48.8218 122.704 49.3394 123.06C49.857 123.416 50.293 123.879 50.6184 124.416C50.9437 124.954 51.1511 125.555 51.2266 126.179C51.2788 126.502 51.2998 126.829 51.2892 127.156C52.773 129.711 53.5805 132.602 53.6352 135.555C53.6352 135.766 53.2833 138.3 53.08 139.583C53.4866 138.589 53.862 137.596 54.2843 136.556C54.8708 135.055 55.4495 133.428 56.0126 131.864C56.2706 131.082 56.5365 130.222 56.7946 129.393C57.0527 128.564 57.256 127.727 57.4906 126.89C57.819 125.647 58.0927 124.349 58.3665 123.051C56.8024 122.55 52.2432 120.978 50.4368 119.367C48.6303 117.756 46.6518 115.051 46.8629 112.407C46.8939 111.784 47.0554 111.175 47.3371 110.618C47.6188 110.062 48.0143 109.571 48.4981 109.177C48.9818 108.783 49.5429 108.496 50.145 108.333C50.7471 108.17 51.3767 108.135 51.993 108.231C55.6841 108.912 58.4681 115.082 58.9061 118.398C58.9061 118.499 58.9061 119.18 58.9061 120.063C59.1407 118.789 59.3753 117.522 59.5629 116.224C60.1025 112.548 60.5326 108.779 60.9862 105.017C61.0722 104.235 61.1817 103.453 61.2756 102.671C59.9618 102.249 55.0194 100.591 53.1113 98.902C51.2032 97.2128 49.3263 94.5852 49.5453 91.9498C49.5741 91.3265 49.7338 90.7163 50.0142 90.1588C50.2946 89.6014 50.6893 89.1093 51.1725 88.7146C51.6558 88.3199 52.2168 88.0314 52.8189 87.868C53.4211 87.7045 54.051 87.6698 54.6675 87.766C58.3665 88.4464 61.1504 94.6243 61.5806 97.9323C61.5806 98.0496 61.5806 98.902 61.6275 99.856C61.9012 97.8072 62.2062 95.7739 62.5581 93.7641C63.157 90.3246 63.9825 86.9285 65.0293 83.5979C64.5679 83.4493 58.7184 81.6272 56.6147 79.7503C54.7457 78.0768 52.8298 75.4336 53.0409 72.7903C53.0718 72.1674 53.2334 71.5579 53.515 71.0013C53.7967 70.4448 54.1923 69.9538 54.676 69.56C55.1597 69.1662 55.7209 68.8785 56.323 68.7156C56.925 68.5527 57.5547 68.5182 58.1709 68.6144C61.8621 69.2947 64.6461 75.4649 65.084 78.7806C65.084 79.0152 65.1622 82.0886 65.1387 83.1912V83.0739C66.2528 79.8294 67.6502 76.6892 69.3147 73.6897C70.7957 70.9898 72.4329 68.3787 74.218 65.8695C75.8446 63.5234 77.479 61.4902 78.9101 59.6993C79.6921 58.7296 80.4742 57.8616 81.1623 57.0561H81.0763C81.0137 57.0561 82.3823 52.7003 82.4996 52.4344C83.8603 49.3767 88.2943 44.2544 92.0324 44.6611C92.6602 44.7384 93.2642 44.9492 93.8038 45.2793C94.3435 45.6094 94.8062 46.0511 95.161 46.5748C95.5158 47.0985 95.7545 47.692 95.8609 48.3156C95.9674 48.9391 95.9392 49.5782 95.7783 50.19ZM52.7125 140.294C52.079 139.981 47.1523 137.542 45.2285 135.461C43.5689 136.379 41.8558 137.196 40.0985 137.909C40.5364 139.841 40.9431 141.733 41.2871 143.508C42.4054 149.115 43.1171 153.823 43.5706 157.131C43.6723 157.835 43.7505 158.468 43.8287 159.039H44.079L44.861 157.436C46.3546 154.496 48.427 150.257 50.687 145.065C51.3752 143.54 52.0477 141.937 52.7125 140.294ZM72.3881 68.6065C72.4506 68.6456 73.5846 64.2272 73.6315 63.9144C74.0929 60.5908 73.0293 53.9046 69.651 52.2701C69.0778 52.0157 68.4572 51.8855 67.83 51.8881C67.2028 51.8908 66.5833 52.0262 66.0123 52.2855C65.4412 52.5448 64.9316 52.9221 64.5168 53.3926C64.1021 53.863 63.7917 54.416 63.606 55.015C62.6988 57.5019 63.8484 60.5596 65.17 62.6632C66.8045 65.0953 72.3881 68.6065 72.3881 68.6065Z" fill="white"/>
<path d="M272.233 242.903C269.401 244.97 266.416 246.818 263.303 248.432C259.619 250.129 258.908 250.129 259.048 251.122C259.189 252.115 263.443 253.671 271.24 251.834C279.037 249.996 282.72 250.41 283.854 246.727C284.988 243.044 283.15 244.037 280.882 244.037C277.981 243.811 275.094 243.433 272.233 242.903Z" fill="#2E353A" stroke="#2E353A" stroke-linecap="round" stroke-linejoin="round"/>
<path d="M283.431 247.705C280.108 248.581 274.118 250.051 269.113 250.833C265.826 251.428 262.449 251.278 259.228 250.395C259.141 250.491 259.079 250.606 259.047 250.732C259.016 250.858 259.016 250.989 259.048 251.114C259.189 252.108 263.443 253.664 271.24 251.826C278.262 250.176 281.938 250.34 283.431 247.705Z" fill="white" stroke="#2E353A" stroke-linecap="round" stroke-linejoin="round"/>
<path d="M310.49 175.219C310.49 175.219 310.779 180.185 307.362 186.989C303.944 193.792 293.919 194.355 291.228 194.355C288.538 194.355 289.383 191.524 289.383 191.524L289.805 188.967L285.27 187.833C285.27 187.833 273.226 203.857 273.226 205.132C273.226 206.406 285.676 235.669 286.388 239.071C287.099 242.473 287.522 243.325 285.958 244.6C284.799 245.418 283.468 245.958 282.067 246.179C280.666 246.4 279.234 246.296 277.879 245.875C275.774 245.216 273.734 244.363 271.787 243.325C271.708 242.052 271.708 240.775 271.787 239.501C271.928 238.227 274.055 239.22 273.062 237.093C272.069 234.966 271.498 234.395 270.935 232.979C270.372 231.564 256.96 209.214 257.531 203.966C258.102 198.719 270.677 180.506 270.677 180.083C271.207 178.755 271.821 177.463 272.515 176.212C272.515 176.212 273.078 174.367 274.501 174.085C275.924 173.804 297.602 174.085 303.131 173.382C308.66 172.678 311.35 172.951 310.49 175.219Z" fill="#2C96CA" stroke="#2E353A" stroke-linecap="round" stroke-linejoin="round"/>
<path d="M275.15 215.462L275.956 217.175" stroke="#2E353A" stroke-width="0.75" stroke-linecap="round" stroke-linejoin="round"/>
<path d="M277.684 196.013L271.569 204.005C271.569 204.005 263.748 204.952 266.094 205.108C268.441 205.264 270.787 205.264 270.787 205.264C270.787 205.264 268.745 205.89 269.223 206.203C269.772 206.422 270.36 206.528 270.951 206.516L274.29 213.616" stroke="#2E353A" stroke-width="0.75" stroke-linecap="round" stroke-linejoin="round"/>
<path d="M265.735 115.543C265.735 115.543 263.756 116.638 260.777 118.335C257.797 120.032 256.085 120.885 255.678 122.308C255.271 123.731 246.599 141.483 246.599 141.483C246.599 141.483 250 143.469 253.121 144.885C255.492 145.859 257.962 146.573 260.487 147.012L263.326 141.061C263.326 141.061 268.8 151.399 271.146 155.09C275.322 161.683 273.977 165.726 273.414 167.993C272.851 170.261 271.287 174.515 271.709 175.079C272.132 175.642 283.189 180.607 290.282 180.185C297.375 179.763 309.528 179.106 310.38 178.113C311.233 177.12 311.373 171.395 311.373 170.965C311.373 170.535 310.122 159.485 308.847 152.822C307.573 146.159 300.628 128.298 298.361 123.481C296.093 118.664 293.966 117.1 288.194 115.121C282.423 113.143 273.875 112.712 270.333 113.135C266.79 113.557 265.735 115.543 265.735 115.543Z" fill="#2E353A" stroke="#2E353A" stroke-linecap="round" stroke-linejoin="round"/>
<path d="M289.594 134.554L298.376 137.377L291.01 138.159" stroke="white" stroke-width="0.75" stroke-linecap="round" stroke-linejoin="round"/>
<path d="M275.174 156.975C275.174 156.975 283.635 163.872 293.989 163.872" stroke="white" stroke-width="0.75" stroke-linecap="round" stroke-linejoin="round"/>
<path d="M277.997 163.247C277.997 163.247 285.035 166.539 292.261 165.444" stroke="white" stroke-width="0.75" stroke-linecap="round" stroke-linejoin="round"/>
<path d="M259.807 132.365L263.326 141.061L255.889 130.324" stroke="white" stroke-width="0.75" stroke-linecap="round" stroke-linejoin="round"/>
<path d="M265.133 116.537C264.941 118.135 264.894 119.747 264.992 121.354C265.133 124.333 266.126 126.46 265.273 128.588C264.421 130.715 265.422 131.716 266.266 130.715C267.111 129.714 268.534 125.89 268.824 125.186C269.113 124.482 275.08 123.199 275.909 123.199C276.738 123.199 279.451 127.454 280.726 128.017C282.001 128.58 281.719 127.454 280.867 125.186C280.014 122.918 279.029 115.02 277.043 112.564C275.056 110.108 267.15 110.726 265.133 116.537Z" fill="white" stroke="#2E353A" stroke-linecap="round" stroke-linejoin="round"/>
<path d="M266.587 119.086C265.805 118.812 270.693 126.32 272.679 130.144C274.665 133.968 276.503 132.982 276.792 130.003C277.082 127.024 275.799 117.1 275.799 117.1C275.799 117.1 270.693 120.509 266.587 119.086Z" fill="white" stroke="#2E353A" stroke-linecap="round" stroke-linejoin="round"/>
<path d="M276.738 126.437C274.909 127.221 272.885 127.429 270.935 127.031C271.6 128.173 272.217 129.26 272.679 130.159C274.665 133.983 276.503 132.998 276.792 130.018C276.853 128.825 276.835 127.628 276.738 126.437Z" fill="#2C96CA" stroke="#2E353A" stroke-linecap="round" stroke-linejoin="round"/>
<path d="M280.898 179.239V196.764" stroke="#2E353A" stroke-width="4" stroke-linecap="round" stroke-linejoin="round"/>
<path d="M295.929 183.188C295.848 183.196 295.767 183.196 295.686 183.188L269.324 180.06C268.802 179.977 268.332 179.695 268.012 179.274C267.693 178.852 267.549 178.323 267.611 177.798C267.672 177.272 267.935 176.791 268.343 176.455C268.751 176.119 269.274 175.953 269.801 175.994L296.163 179.122C296.695 179.164 297.188 179.414 297.538 179.816C297.889 180.218 298.068 180.741 298.037 181.273C298.006 181.806 297.768 182.305 297.374 182.664C296.98 183.024 296.461 183.214 295.929 183.196V183.188Z" fill="white" stroke="#2E353A" stroke-linecap="round" stroke-linejoin="round"/>
<path d="M296.046 182.539C296.75 182.539 297.32 181.867 297.32 181.037C297.32 180.208 296.75 179.536 296.046 179.536C295.342 179.536 294.771 180.208 294.771 181.037C294.771 181.867 295.342 182.539 296.046 182.539Z" fill="white" stroke="#2E353A" stroke-width="0.75" stroke-linecap="round" stroke-linejoin="round"/>
<path d="M272.108 256.471L287.913 264.252C288.004 264.293 288.102 264.314 288.202 264.314C288.302 264.314 288.4 264.293 288.491 264.252L297.977 260.741C298.113 260.691 298.23 260.602 298.315 260.485C298.399 260.368 298.447 260.229 298.452 260.084C298.457 259.94 298.419 259.798 298.343 259.675C298.267 259.552 298.156 259.455 298.024 259.396L283.213 252.538C283.061 252.467 282.89 252.451 282.728 252.491L272.265 255.111C272.118 255.145 271.987 255.223 271.887 255.335C271.787 255.447 271.724 255.587 271.707 255.736C271.69 255.885 271.719 256.035 271.791 256.167C271.863 256.299 271.974 256.405 272.108 256.471Z" fill="white" stroke="#2E353A" stroke-linecap="round" stroke-linejoin="round"/>
<path d="M284.683 259.06H281.555C280.844 259.058 280.163 258.774 279.661 258.272C279.158 257.769 278.875 257.088 278.873 256.377L276.91 199.055C276.91 198.41 277.166 197.792 277.622 197.336C278.078 196.879 278.697 196.623 279.342 196.623H282.978C283.623 196.623 284.242 196.879 284.698 197.336C285.154 197.792 285.41 198.41 285.41 199.055L287.373 256.377C287.373 256.73 287.304 257.08 287.168 257.406C287.033 257.732 286.835 258.028 286.585 258.277C286.335 258.526 286.038 258.723 285.712 258.858C285.386 258.992 285.036 259.061 284.683 259.06Z" fill="white" stroke="#2E353A" stroke-linecap="round" stroke-linejoin="round"/>
<path d="M292.362 257.073C289.984 259.307 287.475 261.396 284.847 263.33C281.719 265.457 281.445 265.175 282.157 266.591C282.869 268.006 284.988 268.858 290.947 267.584C296.906 266.309 298.884 265.316 302.145 263.47C305.406 261.625 306.392 261.625 305.547 260.491C304.703 259.357 292.362 257.073 292.362 257.073Z" fill="#2E353A" stroke="#2E353A" stroke-linecap="round" stroke-linejoin="round"/>
<path d="M302.145 263.455C305.399 261.609 306.392 261.609 305.547 260.475C305.323 260.266 305.056 260.109 304.765 260.014C300.444 262.568 295.868 264.664 291.111 266.27C285.011 268.108 282.04 265.98 282.04 265.98L281.969 266.098C282.031 266.253 282.102 266.404 282.18 266.551C282.884 267.967 285.011 268.819 290.97 267.545C296.929 266.27 298.884 265.3 302.145 263.455Z" fill="white" stroke="#2E353A" stroke-linecap="round" stroke-linejoin="round"/>
<path d="M314.775 143.751C313.761 141.531 312.863 139.26 312.085 136.947C309.707 138.081 302.442 144.165 302.442 144.165L308.824 152.807C308.824 152.807 302.732 161.597 299.893 166.562C297.807 169.951 295.227 173.008 292.237 175.634L285.269 175.548C284.962 175.743 284.702 176.006 284.511 176.316C284.32 176.626 284.202 176.976 284.167 177.339C284.167 178.433 282.931 182.289 283.478 182.977C284.026 183.665 287.334 183.798 287.334 183.798C287.334 183.798 292.698 184.353 293.66 182.977C293.66 182.977 292.01 181.186 292.143 180.365C292.276 179.544 293.934 178.989 293.934 178.989L295.733 178.856C295.733 178.856 296.35 179.286 296.867 176.51C298.259 175.587 303.318 172.193 305.993 169.518C309.121 166.39 318.325 156.052 319.029 154.066C319.733 152.079 316.62 147.864 314.775 143.751Z" fill="white" stroke="#2E353A" stroke-linecap="round" stroke-linejoin="round"/>
<path d="M314.118 142.242C312.734 138.996 312.085 136.947 312.085 136.947C309.708 138.081 302.443 144.165 302.443 144.165L305.477 148.271C308.874 147.127 311.873 145.035 314.118 142.242Z" fill="#2C96CA" stroke="#2E353A" stroke-linecap="round" stroke-linejoin="round"/>
<path d="M294.505 133.546L302.02 146.84L306.415 143.86C308.897 142.021 311.095 139.826 312.937 137.346C309.885 132.511 306.474 127.913 302.732 123.59C296.773 116.787 293.942 116.365 291.393 116.505" fill="#2E353A"/>
<path d="M294.505 133.546L302.02 146.84L306.415 143.86C308.897 142.021 311.095 139.826 312.937 137.346C309.885 132.511 306.474 127.913 302.732 123.59C296.773 116.787 293.942 116.365 291.393 116.505" stroke="#2E353A" stroke-linecap="round" stroke-linejoin="round"/>
<path d="M276.19 179.692C276.19 179.137 273.844 173.366 273.844 173.366L266.806 169.495C263.905 163.661 259.447 154.324 258.681 152.682C258.109 151.542 257.633 150.357 257.258 149.139L258.454 146.59C256.638 146.187 254.863 145.616 253.152 144.885C251.83 144.29 250.47 143.594 249.336 142.984C248.71 145.377 247.639 149.499 248.045 151.548C248.452 153.596 257.703 165.311 262.325 171.231C262.325 171.231 264.257 179.419 265.086 180.654L265.915 181.89C265.915 181.89 267.283 183.407 267.971 183.266C268.562 183.08 269.119 182.8 269.621 182.437C270.11 182.597 270.629 182.645 271.138 182.578C271.809 182.289 272.416 181.869 272.921 181.343C272.921 181.343 273.61 182.125 275.268 181.757C276.925 181.389 276.19 180.24 276.19 179.692Z" fill="white" stroke="#2E353A" stroke-linecap="round" stroke-linejoin="round"/>
<path d="M248.475 146.386C251.128 148.183 254.181 149.3 257.367 149.639C257.265 149.334 257.226 149.178 257.226 149.178L258.423 146.629C256.606 146.226 254.831 145.655 253.121 144.924C251.799 144.33 250.438 143.634 249.304 143.024C249.054 143.931 248.71 145.135 248.475 146.386Z" fill="#2C96CA" stroke="#2E353A" stroke-linecap="round" stroke-linejoin="round"/>
<path d="M147.047 183.923V179.137" stroke="#2E353A" stroke-width="6" stroke-linecap="round" stroke-linejoin="round"/>
<path d="M281.109 247.681L275.189 248.667C275.189 248.667 271.576 249.652 270.919 252.936C269.34 260.843 261.16 263.814 254.184 265.378C244.313 267.661 234.299 269.267 224.209 270.188C208.819 271.556 193.187 271.298 177.945 268.624C169.194 267.06 155.853 265.37 149.331 258.708C148.781 258.204 148.366 257.569 148.127 256.862C147.603 254.938 149.386 253.187 151.106 252.17C154.266 250.478 157.634 249.209 161.124 248.393C170.078 245.937 181.261 245.468 189.605 241.574C192.045 240.44 193.515 238.625 191.028 236.436C183.286 229.577 147.047 228.365 147.047 215.47V183.923" stroke="#2E353A" stroke-width="3" stroke-linecap="round" stroke-linejoin="round"/>
<path d="M259.408 109.389C259.128 107.906 258.639 106.471 257.953 105.127C256.984 103.477 254.317 100.818 253.832 98.2999C253.347 95.7818 257.085 92.8257 257.085 92.8257C257.085 92.8257 255.044 92.8257 255.521 91.9499C255.998 91.074 258.337 91.465 258.337 91.465C258.178 91.0091 258.139 90.52 258.224 90.0448C258.309 89.5696 258.515 89.1242 258.821 88.7514C259.885 87.4924 260.276 89.9166 260.276 89.9166C261.422 87.5693 263.202 85.5892 265.414 84.2001C268.902 82.159 275.111 84.9821 275.791 86.7182C276.472 88.4542 274.829 87.8599 274.829 87.8599C274.829 87.8599 283.166 91.6371 283.744 97.2441C284.323 102.851 279.482 101.897 279.482 101.897C279.482 101.897 279.772 105.197 279.091 106.363C278.411 107.528 278.122 107.927 274.728 105.197C271.334 102.468 264.358 103.453 263.967 105.588C263.576 107.723 262.403 110.914 260.675 110.531C258.946 110.147 259.408 109.389 259.408 109.389Z" fill="#2E353A" stroke="#2E353A" stroke-linecap="round" stroke-linejoin="round"/>
<path d="M264.202 96.6184C264.202 96.6184 260.847 93.725 264.507 93.1228C268.166 92.5207 269.527 99.0583 273.336 100.427C275.688 101.22 278.258 101.057 280.491 99.9733" stroke="white" stroke-width="0.5" stroke-linecap="round" stroke-linejoin="round"/>
<path d="M263.631 96.1102C263.631 96.1102 259.791 93.6077 260.12 91.9342C260.448 90.2607 266.642 88.0867 269.981 90.0965C273.32 92.1062 273.492 96.2822 277.668 97.2832C281.844 98.2842 281.18 95.946 280.679 95.2734" stroke="white" stroke-width="0.5" stroke-linecap="round" stroke-linejoin="round"/>
<path d="M256.28 98.9567C255.607 98.1199 255.443 94.9449 258.118 94.4444C260.792 93.9439 262.966 96.7905 262.966 96.7905C262.458 97.1189 259.455 97.9557 258.954 100.466C258.454 102.976 260.956 102.968 259.791 105.158" stroke="white" stroke-width="0.5" stroke-linecap="round" stroke-linejoin="round"/>
<path d="M259.893 109.451C259.893 109.451 259.752 109.272 259.541 109.053C259.025 108.521 257.571 108.138 257.125 109.201C256.499 110.71 258.204 113.573 259.471 113.948C259.817 114.064 260.187 114.092 260.547 114.031C260.907 113.969 261.247 113.82 261.535 113.596C261.535 113.596 265.023 120.634 269.41 122.284C273.797 123.934 275.964 118.742 277.348 115.246C278.732 111.751 278.224 110.484 278.224 110.484C278.224 110.484 280.57 111.039 281.297 108.278C282.024 105.518 280.859 104.462 280.108 104.587C279.401 104.785 278.725 105.08 278.099 105.463L276.972 102.452C276.972 102.452 274.838 103.711 271.201 102.327C267.565 100.943 265.805 97.5647 264.945 97.8149C264.085 98.0652 264.163 100.317 264.163 100.317C264.163 100.317 262.536 99.4415 261.911 100.192C261.285 100.943 262.912 101.827 262.161 104.587C261.41 107.348 260.519 108.192 260.519 108.192C260.519 108.192 261.144 109.444 260.644 109.444L259.893 109.451Z" fill="white" stroke="#2E353A" stroke-linecap="round" stroke-linejoin="round"/>
<path d="M267.15 107.614C267.267 108.145 267.111 108.622 266.814 108.685C266.517 108.748 266.172 108.38 266.032 107.848C265.891 107.316 266.071 106.839 266.376 106.777C266.681 106.714 267.04 107.09 267.15 107.614Z" fill="#2E353A"/>
<path d="M273.164 106.926C273.164 107.465 272.945 107.919 272.632 107.927C272.319 107.934 272.061 107.504 272.046 106.965C272.03 106.425 272.257 105.979 272.57 105.972C272.882 105.964 273.141 106.386 273.164 106.926Z" fill="#2E353A"/>
<path d="M263.983 105.917C264.201 105.394 264.551 104.937 265 104.592C265.448 104.246 265.979 104.023 266.54 103.946" stroke="#2E353A" stroke-linecap="round" stroke-linejoin="round"/>
<path d="M271.506 103.586C272.068 103.451 272.657 103.482 273.202 103.677C273.746 103.871 274.222 104.22 274.572 104.681" stroke="#2E353A" stroke-linecap="round" stroke-linejoin="round"/>
<path d="M272.522 114.754C272.522 114.754 268.221 116.357 266.102 113.362" stroke="#2E353A" stroke-linecap="round" stroke-linejoin="round"/>
<path d="M267.479 114.683C267.479 114.683 267.627 117.6 269.16 118.187C270.693 118.773 271.42 115.059 271.42 115.059C270.095 115.254 268.743 115.125 267.479 114.683Z" fill="#2E353A" stroke="#2E353A" stroke-linecap="round" stroke-linejoin="round"/>
<path d="M267.831 116.458C267.917 116.825 268.08 117.17 268.311 117.468C268.542 117.766 268.834 118.011 269.168 118.186C269.95 118.491 270.552 117.608 270.927 116.701C269.94 116.322 268.865 116.238 267.831 116.458Z" fill="white" stroke="#2E353A" stroke-linecap="round" stroke-linejoin="round"/>
<path d="M271.287 104.603C270.827 106.172 270.8 107.837 271.209 109.42C271.944 111.688 273.039 111.766 272.601 112.048C272.163 112.329 270.255 112.705 269.825 112.345" fill="white"/>
<path d="M271.287 104.603C270.827 106.172 270.8 107.837 271.209 109.42C271.944 111.688 273.039 111.766 272.601 112.048C272.163 112.329 270.255 112.705 269.825 112.345" stroke="#2E353A" stroke-linecap="round" stroke-linejoin="round"/>
<path d="M289.102 186.003C289.102 186.003 281.039 205.272 280.773 209.527C280.507 213.781 292.66 250.129 292.941 251.693C293.223 253.257 290.963 252.968 290.963 254.524C290.992 255.603 291.231 256.665 291.667 257.652C291.807 258.074 303.006 261.476 304.851 261.617C306.697 261.758 307.542 261.335 307.542 260.053C307.542 258.77 306.697 254.806 306.697 254.383C306.697 253.961 308.965 251.255 308.113 247.439C307.26 243.623 299.33 219.45 298.337 216.893C297.344 214.336 296.21 211.654 296.21 211.654C296.646 211.015 296.937 210.289 297.063 209.527C297.149 208.867 297.149 208.2 297.063 207.54C297.063 207.54 309.348 187.857 309.364 181.734" fill="#2C96CA"/>
<path d="M289.102 186.003C289.102 186.003 281.039 205.272 280.773 209.527C280.507 213.781 292.66 250.129 292.941 251.693C293.223 253.257 290.963 252.968 290.963 254.524C290.992 255.603 291.231 256.665 291.667 257.652C291.807 258.074 303.006 261.476 304.851 261.617C306.697 261.758 307.542 261.335 307.542 260.053C307.542 258.77 306.697 254.806 306.697 254.383C306.697 253.961 308.965 251.255 308.113 247.439C307.26 243.623 299.33 219.45 298.337 216.893C297.344 214.336 296.21 211.654 296.21 211.654C296.646 211.015 296.937 210.289 297.063 209.527C297.149 208.867 297.149 208.2 297.063 207.54C297.063 207.54 309.348 187.857 309.364 181.734" stroke="#2E353A" stroke-linecap="round" stroke-linejoin="round"/>
<path d="M297.704 226.754C300.91 236.811 304.695 248.784 304.961 250.567C305.43 253.695 304.492 254.336 304.804 255.9C305.117 257.464 305.743 259.662 305.743 259.662" stroke="#2E353A" stroke-width="0.75" stroke-linecap="round" stroke-linejoin="round"/>
<path d="M304.797 184.048C302.357 190 297.868 200.979 296.976 203.239C295.717 206.367 293.52 208.885 293.997 209.198C294.474 209.511 295.717 209.511 294.779 210.606C293.841 211.701 293.215 212.021 293.215 212.49C293.215 212.655 294.654 217.143 296.515 222.985" stroke="#2E353A" stroke-width="0.75" stroke-linecap="round" stroke-linejoin="round"/>
<path d="M306.368 180.177L305.586 182.14" stroke="#2E353A" stroke-width="0.75" stroke-linecap="round" stroke-linejoin="round"/>
<path d="M285.293 183.399C285.293 183.399 285.747 178.371 286.208 177.761" stroke="#2E353A" stroke-width="0.75" stroke-linecap="round" stroke-linejoin="round"/>
<path d="M288.953 177.792C288.953 177.792 286.935 184.259 287.334 183.845" stroke="#2E353A" stroke-width="0.75" stroke-linecap="round" stroke-linejoin="round"/>
<path d="M290.478 178.215L289.563 183.094C289.563 183.094 289.406 183.556 290.783 183.704" stroke="#2E353A" stroke-width="0.75" stroke-linecap="round" stroke-linejoin="round"/>
<path d="M272.89 181.342L272.03 180.349" stroke="#2E353A" stroke-width="0.75" stroke-linecap="round" stroke-linejoin="round"/>
<path d="M269.59 182.437L268.824 181.874" stroke="#2E353A" stroke-width="0.75" stroke-linecap="round" stroke-linejoin="round"/>
<path d="M267.94 183.266L266.845 181.569" stroke="#2E353A" stroke-width="0.75" stroke-linecap="round" stroke-linejoin="round"/>
<path d="M220.558 163.458C225.462 158.142 229.761 152.299 233.375 146.034" stroke="#2E353A" stroke-linecap="round" stroke-linejoin="round"/>
<path d="M157.214 194.371C179.754 192.545 200.94 182.873 217.085 167.039" stroke="#2E353A" stroke-linecap="round" stroke-linejoin="round"/>
<path d="M134.879 193.644C138.016 194.115 141.174 194.428 144.342 194.582" stroke="#2E353A" stroke-linecap="round" stroke-linejoin="round"/>
<path d="M105.296 182.484C107.303 183.527 109.339 184.499 111.403 185.401" stroke="#2E353A" stroke-linecap="round" stroke-linejoin="round"/>
<path d="M53.6118 105.158C54.9911 120.364 59.9313 135.032 68.0327 147.974C76.134 160.916 87.1687 171.768 100.244 179.653" stroke="#2E353A" stroke-linecap="round" stroke-linejoin="round"/>
<path d="M203.885 18.2601C190.078 8.71129 174.034 2.90029 157.315 1.39282C140.595 -0.11466 123.771 2.73276 108.478 9.65784" stroke="#2E353A" stroke-linecap="round" stroke-linejoin="round"/>
<path d="M238.106 58.5731C237.141 56.3834 236.099 54.2407 234.978 52.1449" stroke="#2E353A" stroke-linecap="round" stroke-linejoin="round"/>
<path d="M200.679 165.123C205.911 161.237 210.693 156.778 214.935 151.829" stroke="#2E353A" stroke-linecap="round" stroke-linejoin="round"/>
<path d="M139.368 182.007C159.66 184.134 180.054 179.078 197.003 167.72" stroke="#2E353A" stroke-linecap="round" stroke-linejoin="round"/>
<path d="M119.677 177.651C122.357 178.574 125.102 179.374 127.912 180.052" stroke="#2E353A" stroke-linecap="round" stroke-linejoin="round"/>
<path d="M64.4976 120.071C65.0867 122.026 65.741 123.955 66.4604 125.858" stroke="#2E353A" stroke-linecap="round" stroke-linejoin="round"/>
<path d="M81.8661 37.9827C72.9166 48.4536 66.5582 60.8846 63.3057 74.2695C60.0533 87.6544 59.998 101.617 63.1445 115.027" stroke="#2E353A" stroke-linecap="round" stroke-linejoin="round"/>
<path d="M185.281 15.523C171.538 9.15467 156.38 6.45567 141.283 7.68914C126.187 8.92261 111.668 14.0465 99.1412 22.5612" stroke="#2E353A" stroke-linecap="round" stroke-linejoin="round"/>
<path d="M229.871 62.929C222.693 44.7015 209.63 29.3951 192.757 19.4409" stroke="#2E353A" stroke-linecap="round" stroke-linejoin="round"/>
<path d="M233.649 75.0348C233.164 72.9311 232.593 70.8588 231.952 68.8177" stroke="#2E353A" stroke-linecap="round" stroke-linejoin="round"/>
<path d="M230.051 95.8443C230.051 94.812 230.974 93.7641 230.935 92.7162C230.896 91.6683 229.895 90.7064 229.825 89.6898C229.754 88.6732 230.607 87.5471 230.481 86.5617C230.356 85.5764 229.293 84.6379 229.144 83.6213C228.996 82.6047 229.754 81.4317 229.559 80.4229C229.363 79.414 228.237 78.5929 227.995 77.5919C227.752 76.591 228.433 75.3632 228.174 74.37C227.916 73.3769 226.712 72.6496 226.407 71.6642C226.102 70.6789 226.681 69.4042 226.345 68.4423C226.008 67.4804 224.78 66.8313 224.382 65.8773C223.983 64.9232 224.483 63.6016 224.077 62.6632C223.67 61.7248 222.372 61.1773 221.926 60.2546C221.48 59.3318 221.856 57.9789 221.379 57.0717C220.902 56.1646 219.572 55.7267 219.033 54.8352C218.493 53.9437 218.798 52.5751 218.251 51.7071C217.703 50.839 216.342 50.495 215.764 49.6504C215.185 48.8058 215.357 47.4138 214.747 46.5849C214.137 45.7559 212.761 45.5213 212.12 44.7158C211.478 43.9103 211.549 42.5184 210.876 41.7363C210.204 40.9543 208.812 40.8214 208.116 40.0706C207.42 39.3199 207.381 37.9201 206.653 37.1928C205.926 36.4655 204.526 36.4108 203.775 35.7304C203.025 35.0501 202.884 33.6424 202.11 32.9699C201.336 32.2973 199.928 32.3677 199.13 31.7265C198.333 31.0852 198.082 29.7089 197.261 29.0989C196.44 28.4889 195.048 28.661 194.196 28.0823C193.343 27.5036 193.007 26.1429 192.131 25.5954C191.255 25.048 189.895 25.3296 189.003 24.8134C188.112 24.2973 187.674 22.9757 186.767 22.4674C185.859 21.959 184.506 22.3657 183.584 21.9199C182.661 21.4742 182.121 20.1839 181.175 19.7694C180.229 19.3549 178.923 19.8398 177.961 19.4644C176.999 19.089 176.397 17.8456 175.396 17.5015C174.395 17.1574 173.159 17.744 172.174 17.439C171.189 17.134 170.461 15.9453 169.468 15.6794C168.475 15.4135 167.255 16.0861 166.246 15.8515C165.237 15.6169 164.432 14.4908 163.415 14.2874C162.399 14.0841 161.241 14.8583 160.217 14.7019C159.192 14.5455 158.309 13.482 157.284 13.3646C156.26 13.2473 155.149 14.0997 154.156 14.0215C153.163 13.9433 152.154 12.9502 151.122 12.9111C150.09 12.872 149.058 13.8026 147.994 13.8026C146.93 13.8026 145.922 12.872 144.866 12.9111C143.81 12.9502 142.856 13.9512 141.832 14.0215C140.807 14.0919 139.697 13.2395 138.704 13.3646C137.71 13.4898 136.78 14.5533 135.771 14.7019C134.762 14.8505 133.581 14.0919 132.573 14.2874C131.564 14.4829 130.743 15.609 129.742 15.8515C128.741 16.0939 127.513 15.4135 126.52 15.6794C125.527 15.9453 124.791 17.134 123.814 17.439C122.836 17.744 121.554 17.1653 120.584 17.5015C119.614 17.8378 119.02 19.0656 118.027 19.4644C117.034 19.8632 115.751 19.3627 114.813 19.7694C113.874 20.176 113.327 21.4742 112.404 21.9199C111.481 22.3657 110.129 21.9903 109.221 22.4674C108.314 22.9444 107.869 24.2738 106.985 24.8134C106.101 25.353 104.717 25.0558 103.857 25.5954C102.997 26.135 102.645 27.4958 101.8 28.0744C100.955 28.6531 99.5635 28.4811 98.7345 29.0911C97.9056 29.701 97.671 31.0774 96.8655 31.7265C96.06 32.3756 94.668 32.2895 93.886 32.9621C93.104 33.6346 92.971 35.0266 92.2203 35.7226C91.4696 36.4186 90.0697 36.4577 89.3425 37.185C88.6152 37.9123 88.5604 39.3121 87.8801 40.0628C87.1997 40.8135 85.8156 40.9387 85.143 41.7207C84.4705 42.5027 84.5409 43.8947 83.8996 44.7002C83.2584 45.5057 81.882 45.7403 81.272 46.5692C80.662 47.3982 80.8341 48.7823 80.2554 49.6269C79.6767 50.4715 78.316 50.8156 77.7686 51.6914C77.2212 52.5673 77.5027 53.928 76.9866 54.8195C76.4704 55.711 75.141 56.149 74.6405 57.0639C74.14 57.9789 74.5388 59.3161 74.0931 60.2389C73.6473 61.1617 72.357 61.7091 71.9425 62.6475C71.5281 63.586 72.0129 64.8998 71.6375 65.8616C71.2622 66.8235 70.0109 67.4257 69.6747 68.4267C69.3384 69.4276 69.9093 70.6632 69.6121 71.6486C69.3149 72.6339 68.1106 73.3612 67.8447 74.3544C67.5789 75.3475 68.2514 76.5753 68.0246 77.5763C67.7978 78.5773 66.6639 79.3906 66.4606 80.4072C66.2572 81.4238 67.0393 82.589 66.8829 83.6057C66.7265 84.6223 65.6629 85.5138 65.5456 86.5461C65.4283 87.5783 66.2807 88.6732 66.2025 89.6742C66.1243 90.6751 65.1233 91.6683 65.092 92.7006C65.0607 93.7328 65.9757 94.7729 65.9757 95.8286C65.9757 96.8844 65.0529 97.901 65.092 98.9567C65.1311 100.012 66.1321 100.967 66.2025 101.991C66.2729 103.015 65.4205 104.126 65.5456 105.119C65.6707 106.112 66.7343 107.043 66.8829 108.052C67.0314 109.06 66.2729 110.249 66.4606 111.258C66.6482 112.267 67.79 113.08 68.0246 114.081C68.2592 115.082 67.5789 116.318 67.8447 117.303C68.1106 118.288 69.3071 119.031 69.6121 120.009C69.9171 120.986 69.3384 122.269 69.6747 123.238C70.0109 124.208 71.2387 124.842 71.6375 125.803C72.0364 126.765 71.5359 128.071 71.9425 129.01C72.3492 129.948 73.6473 130.496 74.0931 131.418C74.5388 132.341 74.1556 133.694 74.6405 134.601C75.1253 135.508 76.447 135.954 76.9866 136.846C77.5261 137.737 77.2212 139.106 77.7686 139.974C78.316 140.842 79.6767 141.186 80.2554 142.03C80.8341 142.875 80.662 144.267 81.272 145.096C81.882 145.925 83.2584 146.159 83.8996 146.965C84.5409 147.77 84.4705 149.17 85.143 149.944C85.8156 150.719 87.2075 150.859 87.9035 151.618C88.5995 152.376 88.6387 153.768 89.3659 154.496C90.0932 155.223 91.493 155.278 92.2438 155.95C92.9945 156.623 93.1353 158.046 93.9095 158.711C94.6837 159.376 96.0835 159.313 96.889 159.954C97.6944 160.596 97.9369 161.972 98.758 162.582C99.5791 163.192 100.971 163.02 101.824 163.598C102.676 164.177 103.012 165.538 103.888 166.085C104.764 166.633 106.125 166.351 107.016 166.867C107.908 167.383 108.346 168.713 109.253 169.213C110.16 169.714 111.505 169.315 112.436 169.761C113.366 170.207 113.898 171.497 114.844 171.911C115.79 172.326 117.096 171.841 118.058 172.216C119.02 172.592 119.622 173.843 120.623 174.179C121.624 174.515 122.86 173.945 123.845 174.242C124.831 174.539 125.558 175.743 126.551 176.009C127.544 176.275 128.764 175.602 129.773 175.829C130.782 176.056 131.587 177.19 132.604 177.393C133.62 177.597 134.778 176.815 135.802 176.971C136.827 177.127 137.71 178.191 138.735 178.308C139.759 178.426 140.87 177.573 141.863 177.651C142.856 177.73 143.865 178.731 144.897 178.77C145.929 178.809 146.962 177.878 148.025 177.878C149.089 177.878 150.105 178.801 151.153 178.77C152.201 178.738 153.163 177.73 154.18 177.651C155.196 177.573 156.322 178.433 157.308 178.308C158.293 178.183 159.232 177.12 160.248 176.971C161.265 176.822 162.438 177.581 163.447 177.393C164.455 177.206 165.277 176.064 166.278 175.829C167.279 175.595 168.506 176.275 169.499 176.009C170.493 175.743 171.228 174.547 172.205 174.242C173.183 173.937 174.465 174.515 175.435 174.179C176.405 173.843 177.038 172.615 177.992 172.216C178.946 171.818 180.268 172.326 181.206 171.911C182.145 171.497 182.692 170.207 183.615 169.761C184.538 169.315 185.891 169.698 186.798 169.213C187.705 168.729 188.151 167.407 189.034 166.867C189.918 166.328 191.294 166.633 192.162 166.085C193.03 165.538 193.375 164.177 194.219 163.598C195.064 163.02 196.456 163.192 197.285 162.582C198.114 161.972 198.348 160.596 199.154 159.954C199.959 159.313 201.351 159.383 202.133 158.711C202.915 158.038 203.048 156.646 203.799 155.95C204.55 155.254 205.949 155.215 206.677 154.488C207.404 153.761 207.459 152.369 208.139 151.61C208.819 150.852 210.227 150.719 210.9 149.944C211.572 149.17 211.502 147.77 212.143 146.965C212.784 146.159 214.161 145.925 214.771 145.096C215.381 144.267 215.209 142.883 215.787 142.03C216.366 141.178 217.727 140.842 218.274 139.974C218.821 139.106 218.54 137.729 219.056 136.846C219.572 135.962 220.894 135.516 221.402 134.609C221.91 133.702 221.504 132.357 221.95 131.426C222.395 130.496 223.686 129.964 224.1 129.018C224.515 128.071 224.03 126.765 224.405 125.803C224.78 124.842 226.024 124.239 226.368 123.246C226.712 122.253 226.126 121.002 226.431 120.017C226.736 119.031 227.932 118.312 228.198 117.311C228.464 116.31 227.791 115.098 228.018 114.089C228.245 113.08 229.379 112.275 229.582 111.266C229.785 110.257 229.011 109.084 229.168 108.059C229.324 107.035 230.388 106.151 230.505 105.127C230.622 104.102 229.77 102.992 229.848 101.999C229.926 101.006 230.919 99.9968 230.958 98.9645C230.998 97.9323 230.051 96.8766 230.051 95.8443Z" fill="#2C96CA" stroke="#2E353A" stroke-width="2" stroke-linecap="round" stroke-linejoin="round"/>
<path d="M123.462 17.7596L124.909 21.8104" stroke="#2E353A" stroke-width="2" stroke-linecap="round" stroke-linejoin="round"/>
<path d="M117.957 19.9336L119.263 23.1164" stroke="#2E353A" stroke-width="2" stroke-linecap="round" stroke-linejoin="round"/>
<path d="M218.72 54.9681C216.353 56.9971 213.662 58.6124 210.759 59.7463" stroke="#2E353A" stroke-width="2" stroke-linecap="round" stroke-linejoin="round"/>
<path d="M221.613 60.3248C220.536 61.0068 219.424 61.6332 218.282 62.2017" stroke="#2E353A" stroke-width="2" stroke-linecap="round" stroke-linejoin="round"/>
<path d="M101.456 163.716C101.456 163.716 104.928 159.806 105.507 156.912" stroke="#2E353A" stroke-width="2" stroke-linecap="round" stroke-linejoin="round"/>
<path d="M91.7509 155.724C91.7509 155.724 94.6522 152.111 95.2309 151.532" stroke="#2E353A" stroke-width="2" stroke-linecap="round" stroke-linejoin="round"/>
<path d="M166.168 175.415L165.011 169.049" stroke="#2E353A" stroke-width="2" stroke-linecap="round" stroke-linejoin="round"/>
<path d="M172.534 174.117L171.666 170.496" stroke="#2E353A" stroke-width="2" stroke-linecap="round" stroke-linejoin="round"/>
<path d="M199.028 159.782L194.109 154.277" stroke="#2E353A" stroke-width="2" stroke-linecap="round" stroke-linejoin="round"/>
<path d="M222.192 131.403L214.809 127.5" stroke="#2E353A" stroke-width="2" stroke-linecap="round" stroke-linejoin="round"/>
<path d="M66.5619 95.9382L72.7868 96.0789" stroke="#2E353A" stroke-width="2" stroke-linecap="round" stroke-linejoin="round"/>
<path d="M75.3911 96.2274L78.4332 96.3682" stroke="#2E353A" stroke-width="2" stroke-linecap="round" stroke-linejoin="round"/>
<path d="M74.5232 131.841C75.2505 131.551 79.9973 130.276 79.9973 130.276" stroke="#2E353A" stroke-width="2" stroke-linecap="round" stroke-linejoin="round"/>
<path d="M166.215 15.9767C165.777 16.8525 164.901 21.8965 164.901 21.8965" stroke="#2E353A" stroke-width="2" stroke-linecap="round" stroke-linejoin="round"/>
<path d="M171.908 17.9473L171.251 21.2396" stroke="#2E353A" stroke-width="2" stroke-linecap="round" stroke-linejoin="round"/>
<path d="M194.477 28.6844L192.725 30.874" stroke="#2E353A" stroke-width="2" stroke-linecap="round" stroke-linejoin="round"/>
<path d="M80.1068 49.7206L84.4861 52.1293" stroke="#2E353A" stroke-width="2" stroke-linecap="round" stroke-linejoin="round"/>
<path d="M87.1216 53.4432L90.625 55.4139" stroke="#2E353A" stroke-width="2" stroke-linecap="round" stroke-linejoin="round"/>
<path d="M171.204 71.9378C171.204 71.9378 169.867 69.8655 163.11 65.6034C156.353 61.3414 138.867 57.2906 131.978 53.5682C125.088 49.7284 117.409 42.4869 114.727 39.007C112.044 35.527 112.459 32.8994 110.3 32.6882C108.142 32.4771 105.984 33.4703 104.482 37.9903C102.981 42.5104 104.818 53.8341 106.046 57.314C107.274 60.794 110.879 62.9993 113.17 63.9221C115.462 64.8449 120.584 67.277 120.576 69.4588C120.568 71.6406 120.294 72.0708 119.348 72.235C118.402 72.3992 97.6003 75.4804 94.394 76.411C91.1877 77.3416 89.8035 83.1833 90.7185 87.7894C91.6335 92.3955 95.262 93.8422 94.1672 97.111C93.0724 100.38 91.1877 104.212 93.0489 108.552C94.9101 112.892 98.4057 112.22 97.045 115.59C95.6843 118.961 95.6687 122.902 97.4048 125.436C99.1409 127.97 101.432 129.612 101.417 132.685C101.401 135.758 106.766 142.523 110.136 143.485C111.802 143.985 126.926 145.643 141.651 145.792C156.369 146.167 170.688 145.01 170.664 145.01C170.842 120.637 171.022 96.2795 171.204 71.9378Z" fill="white" stroke="#2E353A" stroke-width="3" stroke-linecap="round" stroke-linejoin="round"/>
<path d="M200.592 142.726C191.834 144.051 183.044 145.025 174.223 145.651C173.652 145.676 173.083 145.581 172.552 145.372C172.02 145.163 171.539 144.845 171.139 144.438C170.738 144.031 170.428 143.544 170.228 143.01C170.027 142.475 169.942 141.904 169.976 141.334C170.065 119.328 170.154 97.3327 170.242 75.3475C170.22 74.7696 170.315 74.1931 170.52 73.6523C170.725 73.1116 171.036 72.6176 171.436 72.1996C171.836 71.7816 172.316 71.4482 172.847 71.2192C173.378 70.9902 173.949 70.8703 174.528 70.8665C183.349 71.1168 192.139 71.4739 200.897 71.9379C202.039 72.0187 203.107 72.5278 203.889 73.3632C204.67 74.1985 205.107 75.2983 205.112 76.4423C205.019 96.8739 204.927 117.321 204.839 137.784C204.804 138.97 204.364 140.107 203.591 141.007C202.818 141.907 201.759 142.514 200.592 142.726Z" fill="#2E353A" stroke="#2E353A" stroke-width="3" stroke-linecap="round" stroke-linejoin="round"/>
<path d="M181.011 137.776C181.032 137.347 180.963 136.918 180.808 136.517C180.653 136.115 180.416 135.751 180.112 135.448C179.807 135.144 179.443 134.908 179.041 134.754C178.64 134.6 178.21 134.532 177.781 134.554C176.876 134.652 176.04 135.083 175.437 135.765C174.834 136.446 174.507 137.328 174.52 138.238C174.494 138.669 174.56 139.101 174.712 139.506C174.865 139.91 175.102 140.278 175.407 140.585C175.712 140.891 176.078 141.13 176.482 141.284C176.886 141.439 177.318 141.507 177.75 141.483C178.653 141.372 179.484 140.933 180.085 140.25C180.686 139.566 181.016 138.686 181.011 137.776Z" fill="white" stroke="#2E353A" stroke-width="3" stroke-linecap="round" stroke-linejoin="round"/>
<path d="M170.931 63.8832C179.603 63.8832 186.634 56.8528 186.634 48.1802C186.634 39.5077 179.603 32.4773 170.931 32.4773C162.258 32.4773 155.228 39.5077 155.228 48.1802C155.228 56.8528 162.258 63.8832 170.931 63.8832Z" fill="white"/>
<path d="M197.399 71.4272C199.677 69.149 199.677 65.4552 197.399 63.1769C195.12 60.8986 191.427 60.8986 189.148 63.1769C186.87 65.4552 186.87 69.149 189.148 71.4272C191.427 73.7055 195.12 73.7055 197.399 71.4272Z" fill="white"/>
<path opacity="0.2" d="M142.152 175.172C143.137 175.243 144.076 176.212 145.077 176.252C146.078 176.291 147.079 175.391 148.072 175.391C149.065 175.391 150.082 176.283 151.075 176.252C152.068 176.22 153.014 175.243 154 175.172C154.985 175.102 156.064 175.954 157.05 175.806C158.035 175.657 158.911 174.664 159.888 174.515C160.866 174.367 162.008 175.102 163.016 174.922C164.025 174.742 164.784 173.64 165.746 173.421C166.708 173.202 167.904 173.851 168.874 173.593C169.843 173.335 170.539 172.185 171.486 171.888C172.432 171.591 173.667 172.154 174.614 171.825C175.56 171.497 176.178 170.261 177.093 169.933C178.008 169.604 179.29 170.035 180.221 169.636C181.151 169.237 181.652 167.993 182.567 167.556C183.482 167.118 184.764 167.493 185.64 167.032C186.516 166.57 186.946 165.28 187.806 164.787C188.667 164.294 189.996 164.553 190.833 164.005C191.67 163.458 192.006 162.16 192.827 161.604C193.648 161.049 194.985 161.213 195.783 160.619C196.581 160.025 196.815 158.695 197.589 158.077C198.364 157.46 199.717 157.53 200.467 156.881C201.218 156.232 201.351 154.887 202.078 154.214C202.806 153.542 204.158 153.503 204.862 152.799C205.566 152.095 205.597 150.75 206.27 150.023C206.942 149.295 208.295 149.162 208.944 148.404C209.593 147.645 209.523 146.308 210.141 145.526C210.759 144.744 212.088 144.517 212.682 143.72C213.277 142.922 213.105 141.585 213.668 140.764C214.231 139.942 215.537 139.614 216.061 138.769C216.585 137.925 216.327 136.603 216.843 135.743C217.359 134.883 218.626 134.46 219.087 133.585C219.549 132.709 219.189 131.403 219.619 130.511C220.049 129.62 221.3 129.096 221.699 128.165C222.098 127.235 221.629 125.991 221.996 125.037C222.364 124.083 223.56 123.473 223.889 122.558C224.217 121.643 223.654 120.392 223.951 119.43C224.249 118.468 225.398 117.78 225.656 116.818C225.914 115.856 225.257 114.675 225.484 113.69C225.711 112.705 226.798 111.938 226.986 110.961C227.173 109.983 226.43 108.857 226.579 107.833C226.728 106.808 227.76 105.979 227.869 104.994C227.979 104.009 227.158 102.937 227.236 101.936C227.314 100.935 228.276 100.012 228.307 99.0115C228.338 98.0105 227.447 97.0095 227.447 96.0163C227.447 95.0232 228.346 94.0065 228.307 93.0134C228.268 92.0202 227.306 91.074 227.236 90.0886C227.165 89.1033 227.979 88.0241 227.869 87.0387C227.76 86.0534 226.72 85.1775 226.579 84.2C226.438 83.2225 227.165 82.0807 226.986 81.0719C226.806 80.0631 225.703 79.3046 225.484 78.3427C225.44 78.1294 225.426 77.9107 225.445 77.6936C170.391 124.615 101.886 120.994 70.6911 116.138C70.6775 116.34 70.696 116.543 70.7458 116.74C71.0039 117.702 72.1535 118.406 72.4506 119.352C72.7478 120.298 72.1848 121.534 72.5132 122.48C72.8417 123.426 74.0772 124.044 74.4057 124.951C74.7341 125.858 74.304 127.149 74.7029 128.079C75.1017 129.01 76.3451 129.518 76.783 130.425C77.221 131.332 76.8456 132.623 77.307 133.499C77.7684 134.374 79.0587 134.805 79.5514 135.665C80.0441 136.525 79.786 137.847 80.3334 138.683C80.8808 139.52 82.179 139.856 82.7342 140.677C83.2894 141.499 83.1252 142.836 83.7196 143.641C84.3139 144.447 85.6433 144.666 86.2611 145.448C86.8789 146.23 86.8085 147.567 87.4576 148.326C88.1067 149.084 89.4518 149.209 90.1243 149.937C90.7968 150.664 90.8359 152.017 91.5398 152.721C92.2436 153.424 93.5886 153.448 94.3159 154.128C95.0432 154.809 95.1761 156.146 95.9347 156.795C96.6933 157.444 98.0305 157.374 98.8125 157.991C99.5946 158.609 99.8213 159.946 100.619 160.533C101.417 161.119 102.754 160.955 103.575 161.518C104.396 162.081 104.725 163.387 105.569 163.919C106.414 164.451 107.735 164.177 108.596 164.701C109.456 165.225 109.878 166.476 110.754 166.946C111.63 167.415 112.936 167.039 113.827 167.477C114.719 167.915 115.243 169.151 116.173 169.55C117.104 169.948 118.347 169.479 119.301 169.847C120.256 170.214 120.866 171.411 121.78 171.739C122.695 172.068 123.947 171.513 124.909 171.802C125.87 172.091 126.559 173.249 127.52 173.507C128.482 173.765 129.663 173.116 130.649 173.335C131.634 173.554 132.408 174.648 133.386 174.836C134.363 175.024 135.489 174.281 136.475 174.429C137.46 174.578 138.328 175.61 139.313 175.72C140.299 175.829 141.151 175.102 142.152 175.172Z" fill="black"/>
</svg>
