<svg width="278" height="274" viewBox="0 0 278 274" fill="none" xmlns="http://www.w3.org/2000/svg">
<path opacity="0.16" d="M141.152 273.655C191.66 273.655 232.605 268.66 232.605 262.5C232.605 256.339 191.66 251.344 141.152 251.344C90.6444 251.344 49.6997 256.339 49.6997 262.5C49.6997 268.66 90.6444 273.655 141.152 273.655Z" fill="black"/>
<path opacity="0.07" d="M232.891 29.5664C226.643 23.9734 219.863 19.0033 212.65 14.7268L153.136 104.158L234.006 30.5919C233.642 30.2461 233.273 29.9182 232.891 29.5664ZM179.632 1.78306C170.352 -0.149432 160.814 -0.514189 151.413 0.703918L153.136 104.152L179.632 1.78306ZM117.256 14.0948C111.572 18.0866 106.37 22.7243 101.755 27.9149C100.141 29.7234 98.4816 31.5359 96.7765 33.3524L153.142 104.164L117.256 14.0948ZM68.4326 59.5379C64.5677 62.5327 60.5541 65.3305 56.4071 67.9206C47.4818 73.4415 37.853 77.5375 28.8205 84.5787L153.136 104.164L68.4326 59.5379ZM0.226232 141.892C-0.864832 158.032 2.19372 175.501 8.11409 191.3L153.136 104.164L0.226232 141.892ZM153.136 104.164L49.6043 241.191C64.6646 247.749 82.7715 248.942 101.534 247.499L153.136 104.164ZM153.136 104.164L158.061 238.478C168.703 237.34 181.701 237.691 195.163 237.113L153.136 104.164ZM269.361 197.233L153.136 104.164L243.629 226.155C254.164 220.258 263.22 211.202 269.361 197.233ZM274.28 116.965L153.136 104.164L277.822 149.315C277.324 138.468 276.141 127.663 274.28 116.965ZM254.659 57.5346L153.136 104.164L265.313 81.699C262.446 73.3597 258.882 65.2764 254.659 57.5346Z" fill="black"/>
<path d="M258.212 188.677C258.212 188.677 251.779 186.501 249.865 185.171C247.952 183.842 243.057 178.929 241.918 175.143C240.936 171.648 240.283 168.069 239.968 164.453C239.682 161.52 238.454 160.762 236.653 163.034C234.853 165.306 234.269 168.996 234.763 171.381C235.258 173.766 236.749 176.49 236.552 176.967C236.355 177.444 236.075 178.386 236.075 178.386C236.075 178.386 230.304 177.725 227.09 176.967C223.877 176.21 221.319 175.924 221.128 177.438C220.937 178.953 221.599 181.32 221.79 182.93C221.981 184.539 224.437 191.634 225.671 193.238C226.546 194.486 227.56 195.63 228.694 196.648C229.451 197.215 229.451 197.686 231.252 197.876C232.777 198.013 234.294 198.234 235.795 198.538C236.457 198.729 237.119 199.391 240.243 199.295C242.206 199.228 244.163 199.039 246.103 198.729L255.47 202.223L258.212 188.677Z" fill="white" stroke="#263238" stroke-width="0.75" stroke-miterlimit="10"/>
<path d="M255.184 186.876L251.302 203.719L257.646 206.271L260.859 188.772L255.184 186.876Z" fill="white" stroke="#263238" stroke-width="0.75" stroke-miterlimit="10"/>
<path d="M271.162 190.096L258.779 187.067L254.236 207.124L271.09 214.988L271.162 213.468V190.096Z" fill="#263238" stroke="#263238" stroke-width="0.75" stroke-miterlimit="10"/>
<path d="M235.693 179.215C235.693 179.215 234.841 184.337 234.841 185.529C234.841 186.721 237.488 190.072 238.418 190.257" stroke="#263238" stroke-width="0.75" stroke-miterlimit="10"/>
<path d="M233.797 192.087C233.797 192.087 235.127 192.558 234.745 193.697C234.364 194.836 231.526 196.44 230.202 197.197C228.879 197.954 228.414 197.859 226.893 197.006C226 196.512 225.324 195.702 224.997 194.735C225.951 194.711 226.901 194.617 227.841 194.454L233.797 192.087Z" fill="white" stroke="#263238" stroke-width="0.75" stroke-miterlimit="10"/>
<path d="M222.917 189.619C222.917 189.619 222.917 193.971 223.96 194.353C224.956 194.737 226.016 194.93 227.084 194.919C227.746 194.824 232.194 193.31 233.046 192.743C233.899 192.177 234.751 190.955 234.28 189.81L233.803 188.677C232.366 188.923 230.91 189.049 229.451 189.053C227.066 189.053 223.113 188.296 222.827 188.582C222.541 188.868 222.917 189.619 222.917 189.619Z" fill="white" stroke="#263238" stroke-width="0.75" stroke-miterlimit="10"/>
<path d="M221.486 183.74C221.297 183.861 221.144 184.031 221.045 184.231C220.945 184.432 220.902 184.656 220.919 184.879C220.919 185.732 219.787 188.284 221.11 189.136C222.434 189.989 226.595 190.651 227.448 190.651C228.3 190.651 233.315 188.862 233.786 188.665C234.257 188.468 234.263 186.769 234.072 186.107C233.881 185.446 232.182 185.255 232.182 185.255C232.182 185.255 224.908 185.082 221.486 183.74Z" fill="white" stroke="#263238" stroke-width="0.75" stroke-miterlimit="10"/>
<path d="M223.96 177.981C223.96 177.981 226.989 180.253 227.537 180.443L232.176 182.053C232.176 182.053 232.772 182.333 232.772 183.472C232.762 183.963 232.575 184.433 232.247 184.797C231.919 185.162 231.47 185.396 230.983 185.457C230.041 185.648 226.631 186.215 225.403 185.744C223.729 184.916 222.117 183.967 220.58 182.906C219.727 182.31 219.632 181.576 220.103 180.521C220.512 179.501 220.86 178.458 221.146 177.397" fill="white"/>
<path d="M223.96 177.981C223.96 177.981 226.989 180.253 227.537 180.443L232.176 182.053C232.176 182.053 232.772 182.333 232.772 183.472C232.762 183.963 232.575 184.433 232.247 184.797C231.919 185.162 231.47 185.396 230.983 185.457C230.041 185.648 226.631 186.215 225.403 185.744C223.729 184.916 222.117 183.967 220.58 182.906C219.727 182.31 219.632 181.576 220.103 180.521C220.512 179.501 220.86 178.458 221.146 177.397" stroke="#263238" stroke-width="0.75" stroke-miterlimit="10"/>
<path d="M239.372 42.3671C239.372 42.3671 232.867 44.3406 230.56 44.3644C228.253 44.3883 221.384 43.2495 218.26 40.8289C215.418 38.5689 212.795 36.0457 210.426 33.2928C208.488 31.0689 207.046 31.1703 206.903 34.0619C206.759 36.9535 208.447 40.2863 210.211 41.9378C211.976 43.5893 214.796 44.9189 214.922 45.4316C215.047 45.9444 215.363 46.8625 215.363 46.8625C215.363 46.8625 210.283 49.6826 207.224 50.9346C204.166 52.1867 201.924 53.4506 202.652 54.7921C203.379 56.1336 205.293 57.6718 206.384 58.8702C207.475 60.0686 213.604 64.403 215.542 64.9992C216.98 65.5014 218.47 65.8394 219.983 66.0068C220.931 66.0068 221.176 66.4123 222.78 65.5239C224.097 64.7437 225.459 64.041 226.858 63.4193C227.508 63.1868 228.432 63.3418 230.912 61.4458C232.471 60.2473 233.955 58.9531 235.354 57.5705L245.012 54.965L239.372 42.3671Z" fill="white" stroke="#263238" stroke-width="0.75" stroke-miterlimit="10"/>
<path d="M235.854 42.6652L242.502 58.6198L249.144 57.01L241.572 40.9004L235.854 42.6652Z" fill="white" stroke="#263238" stroke-width="0.75" stroke-miterlimit="10"/>
<path d="M250.724 35.9875L238.889 40.7274L246.866 59.6809L265.146 56.2706L264.323 54.9947L250.724 35.9875Z" fill="#263238" stroke="#263238" stroke-width="0.75" stroke-miterlimit="10"/>
<path d="M215.524 47.8044C215.524 47.8044 217.807 52.4549 218.505 53.4565C219.203 54.4581 223.275 55.6088 224.181 55.2094" stroke="#263238" stroke-width="0.75" stroke-miterlimit="10"/>
<path d="M221.486 59.341C221.486 59.341 222.839 58.9535 223.191 60.0982C223.543 61.2429 222.172 64.2001 221.534 65.5893C220.896 66.9784 220.46 67.1752 218.731 67.3779C217.718 67.4981 216.696 67.232 215.87 66.6326C216.632 66.0597 217.349 65.4299 218.016 64.7486L221.486 59.341Z" fill="white" stroke="#263238" stroke-width="0.75" stroke-miterlimit="10"/>
<path d="M211.213 63.6695C211.213 63.6695 213.741 67.211 214.79 66.9128C215.824 66.6451 216.799 66.186 217.664 65.5594C218.147 65.0944 220.884 61.2787 221.241 60.3188C221.599 59.3589 221.581 57.8683 220.538 57.2185L219.494 56.5686C218.468 57.6069 217.357 58.5581 216.174 59.4125C214.248 60.7838 210.575 62.483 210.51 62.8765C210.444 63.27 211.213 63.6695 211.213 63.6695Z" fill="white" stroke="#263238" stroke-width="0.75" stroke-miterlimit="10"/>
<path d="M206.64 59.7285C206.558 59.937 206.533 60.1639 206.569 60.3854C206.604 60.6068 206.699 60.8144 206.843 60.9865C207.338 61.6781 207.898 64.4147 209.472 64.3372C211.046 64.2597 214.838 62.3757 215.512 61.8808C216.186 61.3859 219.232 57.0038 219.512 56.5745C219.793 56.1453 218.791 54.7859 218.254 54.3328C217.718 53.8797 216.221 54.7442 216.221 54.7442C216.221 54.7442 210.158 58.8222 206.64 59.7285Z" fill="white" stroke="#263238" stroke-width="0.75" stroke-miterlimit="10"/>
<path d="M205.287 53.5996C205.287 53.5996 209.067 53.683 209.639 53.5101C210.212 53.3372 214.349 52.121 214.349 52.121C214.349 52.121 214.975 52.0196 215.637 52.9437C215.916 53.3494 216.039 53.8425 215.982 54.3315C215.925 54.8205 215.692 55.2723 215.327 55.6028C214.671 56.3123 212.233 58.7508 210.957 59.0847C209.111 59.3854 207.246 59.5527 205.376 59.5855C204.357 59.5855 203.838 59.0549 203.588 57.934C203.326 56.8685 203.001 55.8193 202.616 54.792" fill="white"/>
<path d="M205.287 53.5996C205.287 53.5996 209.067 53.683 209.639 53.5101C210.212 53.3372 214.349 52.121 214.349 52.121C214.349 52.121 214.975 52.0196 215.637 52.9437C215.916 53.3494 216.039 53.8425 215.982 54.3315C215.925 54.8205 215.692 55.2723 215.327 55.6028C214.671 56.3123 212.233 58.7508 210.957 59.0847C209.111 59.3854 207.246 59.5527 205.376 59.5855C204.357 59.5855 203.838 59.0549 203.588 57.934C203.326 56.8685 203.001 55.8193 202.616 54.792" stroke="#263238" stroke-width="0.75" stroke-miterlimit="10"/>
<path d="M31.1995 186.537C31.1995 186.537 37.6326 184.361 39.5464 183.037C41.4602 181.713 46.3372 176.789 47.47 173.009C48.4697 169.516 49.1364 165.937 49.4614 162.319C49.7416 159.385 50.9757 158.628 52.7703 160.9C54.5649 163.171 55.1552 166.862 54.6603 169.247C54.1655 171.631 52.6749 174.356 52.8717 174.827C53.0684 175.298 53.3427 176.246 53.3427 176.246C53.3427 176.246 59.114 175.584 62.3335 174.827C65.5531 174.07 68.1049 173.784 68.2956 175.298C68.4864 176.813 67.8187 179.179 67.6339 180.789C67.449 182.399 64.9807 189.494 63.7525 191.104C62.8766 192.351 61.8603 193.493 60.7238 194.508C59.9666 195.104 59.9666 195.551 58.172 195.736C56.6469 195.876 55.1304 196.097 53.6289 196.398C52.9671 196.589 52.3053 197.251 49.1812 197.155C47.2158 197.088 45.2564 196.899 43.3145 196.589L33.948 200.089L31.1995 186.537Z" fill="white" stroke="#263238" stroke-width="0.75" stroke-miterlimit="10"/>
<path d="M34.2283 184.736L38.1036 201.579L31.7659 204.137L28.5464 186.632L34.2283 184.736Z" fill="white" stroke="#263238" stroke-width="0.75" stroke-miterlimit="10"/>
<path d="M18.2439 187.956L30.6272 184.927L35.1703 204.983L18.3214 212.847L18.2439 211.327V187.956Z" fill="#263238" stroke="#263238" stroke-width="0.75" stroke-miterlimit="10"/>
<path d="M53.7183 177.075C53.7183 177.075 54.5709 182.184 54.5709 183.412C54.5709 184.641 51.9178 187.956 50.9937 188.146" stroke="#263238" stroke-width="0.75" stroke-miterlimit="10"/>
<path d="M55.6083 189.941C55.6083 189.941 54.2848 190.418 54.6604 191.551C55.036 192.684 57.8799 194.293 59.2035 195.051C60.5271 195.808 60.9921 195.712 62.5184 194.86C63.4114 194.37 64.0864 193.561 64.4084 192.594C63.4565 192.571 62.5078 192.475 61.5704 192.308L55.6083 189.941Z" fill="white" stroke="#263238" stroke-width="0.75" stroke-miterlimit="10"/>
<path d="M66.4713 187.485C66.4713 187.485 66.4713 191.837 65.4339 192.213C64.4403 192.61 63.3797 192.812 62.3097 192.809C61.6479 192.713 57.2002 191.205 56.3476 190.633C55.4951 190.06 54.6425 188.844 55.1195 187.699L55.5905 186.567C57.0282 186.813 58.4841 186.938 59.9428 186.942C62.3276 186.942 66.2805 186.185 66.5667 186.471C66.8529 186.757 66.4713 187.485 66.4713 187.485Z" fill="white" stroke="#263238" stroke-width="0.75" stroke-miterlimit="10"/>
<path d="M67.9081 181.618C68.1049 181.731 68.2655 181.897 68.3711 182.098C68.4767 182.298 68.5229 182.525 68.5043 182.751C68.5043 183.603 69.643 186.155 68.3195 187.008C66.9959 187.86 62.7986 188.51 61.946 188.51C61.0934 188.51 56.0793 186.721 55.6083 186.525C55.1373 186.328 55.1373 184.629 55.328 183.967C55.5188 183.305 57.218 183.12 57.218 183.12C57.218 183.12 64.5037 182.942 67.9081 181.618Z" fill="white" stroke="#263238" stroke-width="0.75" stroke-miterlimit="10"/>
<path d="M65.4519 175.846C65.4519 175.846 62.4231 178.112 61.8746 178.303C61.3261 178.494 57.2361 179.913 57.2361 179.913C57.2361 179.913 56.6399 180.199 56.6399 181.332C56.6491 181.822 56.8351 182.293 57.1636 182.658C57.4922 183.023 57.9413 183.257 58.4285 183.317C59.3765 183.508 62.7809 184.074 64.015 183.603C65.6962 182.775 67.3143 181.824 68.8562 180.759C69.7088 180.193 69.8042 179.436 69.3272 178.374C68.9207 177.354 68.5743 176.311 68.2898 175.25" fill="white"/>
<path d="M65.4519 175.846C65.4519 175.846 62.4231 178.112 61.8746 178.303C61.3261 178.494 57.2361 179.913 57.2361 179.913C57.2361 179.913 56.6399 180.199 56.6399 181.332C56.6491 181.822 56.8351 182.293 57.1636 182.658C57.4922 183.023 57.9413 183.257 58.4285 183.317C59.3765 183.508 62.7809 184.074 64.015 183.603C65.6962 182.775 67.3143 181.824 68.8562 180.759C69.7088 180.193 69.8042 179.436 69.3272 178.374C68.9207 177.354 68.5743 176.311 68.2898 175.25" stroke="#263238" stroke-width="0.75" stroke-miterlimit="10"/>
<path d="M38.1931 48.0312C38.1931 48.0312 44.6918 50.0046 47.0051 50.0285C49.3184 50.0523 56.1748 48.9136 59.3049 46.4929C62.1476 44.233 64.7706 41.7097 67.1391 38.9569C69.0768 36.733 70.5196 36.8343 70.6568 39.726C70.7939 42.6176 69.1126 45.9504 67.3538 47.6019C65.5949 49.2534 62.7629 50.5829 62.6437 51.0957C62.5245 51.6084 62.2025 52.5266 62.2025 52.5266C62.2025 52.5266 67.2822 55.3407 70.3408 56.5987C73.3993 57.8567 75.6411 59.1087 74.9137 60.4502C74.1863 61.7917 72.2725 63.3299 71.1814 64.5283C70.0903 65.7267 63.9613 70.0671 62.0236 70.6633C60.5857 71.1654 59.0957 71.5035 57.5819 71.6709C56.6339 71.6709 56.3895 72.0763 54.7856 71.182C53.465 70.4079 52.1037 69.7053 50.7076 69.0774C50.0577 68.8508 49.1336 68.9999 46.6474 67.1099C45.0905 65.9105 43.6091 64.6162 42.2116 63.2345L32.553 60.6291L38.1931 48.0312Z" fill="white" stroke="#263238" stroke-width="0.75" stroke-miterlimit="10"/>
<path d="M41.7046 48.3292L35.0568 64.2838L28.415 62.674L35.9869 46.5645L41.7046 48.3292Z" fill="white" stroke="#263238" stroke-width="0.75" stroke-miterlimit="10"/>
<path d="M26.8352 41.6516L38.6699 46.3915L30.6926 65.345L12.4128 61.9347L13.2356 60.6528L26.8352 41.6516Z" fill="#263238" stroke="#263238" stroke-width="0.75" stroke-miterlimit="10"/>
<path d="M62.0176 53.4387C62.0176 53.4387 59.7341 58.0892 59.0365 59.0848C58.3389 60.0805 54.2668 61.2371 53.3606 60.8735" stroke="#263238" stroke-width="0.75" stroke-miterlimit="10"/>
<path d="M56.0674 65.0053C56.0674 65.0053 54.714 64.6178 54.3622 65.7625C54.0105 66.9072 55.3817 69.8644 56.0197 71.2476C56.6576 72.6308 57.0929 72.8335 58.8219 73.0363C59.8353 73.1529 60.8558 72.8871 61.6837 72.291C60.9217 71.718 60.2042 71.0882 59.5373 70.407L56.0674 65.0053Z" fill="white" stroke="#263238" stroke-width="0.75" stroke-miterlimit="10"/>
<path d="M66.3461 69.3335C66.3461 69.3335 63.8122 72.875 62.7688 72.5769C61.733 72.3112 60.7575 71.8498 59.8951 71.2176C59.4122 70.7585 56.6756 66.9368 56.3178 65.9828C55.9601 65.0289 55.984 63.5264 57.0273 62.8825L58.0707 62.2327C59.0946 63.2717 60.2057 64.2211 61.3916 65.0706C63.3173 66.4479 66.99 68.1471 67.0556 68.5406C67.1212 68.9341 66.3461 69.3335 66.3461 69.3335Z" fill="white" stroke="#263238" stroke-width="0.75" stroke-miterlimit="10"/>
<path d="M70.9131 65.3866C70.9977 65.5944 71.0241 65.8213 70.9895 66.043C70.9548 66.2646 70.8604 66.4726 70.7163 66.6446C70.2215 67.3362 69.6551 70.0728 68.087 69.9953C66.519 69.9178 62.7211 68.0338 62.0474 67.5389C61.3737 67.0441 58.3211 62.6619 58.0469 62.2327C57.7726 61.8034 58.7623 60.444 59.3049 59.9909C59.8474 59.5378 61.3379 60.3963 61.3379 60.3963C61.3379 60.3963 67.3716 64.4983 70.9131 65.3866Z" fill="white" stroke="#263238" stroke-width="0.75" stroke-miterlimit="10"/>
<path d="M72.2724 59.2637C72.2724 59.2637 68.4865 59.3472 67.9141 59.1743C67.3418 59.0014 63.21 57.7792 63.21 57.7792C63.21 57.7792 62.6138 57.6838 61.9222 58.6079C61.6437 59.0133 61.521 59.5057 61.5769 59.9943C61.6328 60.483 61.8634 60.935 62.2263 61.267C62.8881 61.9705 65.3266 64.415 66.6025 64.7489C68.448 65.0506 70.3132 65.216 72.183 65.2437C73.2025 65.2795 73.7212 64.719 73.9418 63.5982C74.2041 62.5308 74.5286 61.4797 74.9136 60.4502" fill="white"/>
<path d="M72.2724 59.2637C72.2724 59.2637 68.4865 59.3472 67.9141 59.1743C67.3418 59.0014 63.21 57.7792 63.21 57.7792C63.21 57.7792 62.6138 57.6838 61.9222 58.6079C61.6437 59.0133 61.521 59.5057 61.5769 59.9943C61.6328 60.483 61.8634 60.935 62.2263 61.267C62.8881 61.9705 65.3266 64.415 66.6025 64.7489C68.448 65.0506 70.3132 65.216 72.183 65.2437C73.2025 65.2795 73.7212 64.719 73.9418 63.5982C74.2041 62.5308 74.5286 61.4797 74.9136 60.4502" stroke="#263238" stroke-width="0.75" stroke-miterlimit="10"/>
<path d="M125.496 134.464C125.496 134.464 121.323 152.743 121.156 161.341C120.989 169.938 121.466 200.923 121.627 207.571C121.788 214.219 124.709 235.796 124.709 237.739C124.709 239.683 125.198 243.415 125.198 243.415L123.898 250.391C122.626 251.374 121.269 252.242 119.844 252.984C116.922 254.606 113.518 256.717 112.546 257.849C112.428 257.986 112.344 258.148 112.302 258.324C112.259 258.5 112.26 258.683 112.303 258.858C112.346 259.033 112.431 259.196 112.55 259.331C112.669 259.467 112.819 259.572 112.988 259.638C114.144 260.091 115.362 260.366 116.601 260.455C119.355 260.616 123.898 260.616 126.331 259.966C128.763 259.316 130.713 257.211 131.846 256.389L132.984 255.578L133.145 257.366C133.691 257.286 134.233 257.177 134.767 257.038C135.957 256.696 137.101 256.207 138.171 255.584C138.171 255.584 138.332 252.823 138.332 251.202C138.332 249.58 137.522 246.658 137.361 246.015C137.2 245.371 137.361 239.522 136.878 237.578C136.395 235.635 136.067 236.117 135.739 232.552C135.411 228.987 138.332 195.241 138.171 194.27C138.01 193.298 142.297 164.066 142.297 164.066C142.297 164.066 150.495 202.223 153.089 209.527C155.682 216.83 156.982 230.936 156.982 231.914C156.982 232.892 158.443 244.399 159.092 246.026C159.742 247.654 161.525 252.674 161.525 252.674C161.525 252.674 164.118 256.567 165.251 258.511C166.384 260.455 170.283 262.088 173.199 262.565C176.114 263.042 178.392 263.215 178.565 259.322C178.738 255.429 177.271 252.835 174.832 251.053C172.394 249.27 171.917 247.648 171.917 247.648C172.093 245.267 172.093 242.875 171.917 240.494C171.589 237.733 169.806 235.623 169.645 229.947C169.484 224.271 168.346 194.425 167.374 189.72C166.402 185.016 165.12 153.548 165.281 149.178C165.442 144.808 164.87 132.598 164.87 132.598L125.377 132.15L125.496 134.464Z" fill="#263238" stroke="#263238" stroke-width="0.75" stroke-miterlimit="10"/>
<path d="M140.998 69.1129C140.998 69.1129 134.97 72.6902 130.701 74.8008C126.432 76.9113 121.221 78.1395 120.691 79.3379C120.16 80.5363 110.949 100.164 109.214 102.829C107.479 105.494 103.341 110.705 104.14 113.638C104.939 116.571 108.278 120.578 110.412 120.315C112.546 120.053 116.821 118.843 118.556 115.778C120.291 112.714 124.429 102.829 124.429 102.829C124.429 102.829 125.097 112.04 124.959 116.577C124.822 121.114 124.828 124.853 124.56 127.118C124.292 129.384 123.093 132.192 123.624 132.991C124.155 133.79 124.816 134.595 125.496 134.463C126.176 134.332 136.174 134.195 139.209 134.326C142.244 134.458 156.159 134.326 159.098 134.463C162.038 134.601 164.572 133.128 164.834 132.591C165.096 132.055 165.639 131.256 165.371 128.323C165.102 125.389 165.639 116.446 166.438 112.976C167.237 109.506 172.042 96.157 172.042 96.157C172.042 96.157 184.724 106.167 187.395 106.966C190.066 107.765 197.268 106.567 199.671 103.633C202.073 100.7 202.872 98.4226 201.406 96.4253C199.939 94.428 194.597 92.5559 188.992 86.5461C183.388 80.5363 181.242 77.7401 177.384 75.868C173.527 73.9959 165.639 71.4679 163.767 70.6631C161.895 69.8582 161.382 69.4706 160.19 68.9281C158.997 68.3855 156.183 67.3302 150.978 67.1931C147.56 67.1936 144.172 67.8452 140.998 69.1129Z" fill="#4FAD39" stroke="#263238" stroke-width="0.75" stroke-miterlimit="10"/>
<path d="M121.734 93.3728C121.919 94.0167 124.423 102.829 124.423 102.829L120.726 95.5013" stroke="#263238" stroke-width="0.75" stroke-miterlimit="10"/>
<path d="M172.066 96.1571C171.512 96.1571 166.265 93.176 166.265 93.176" stroke="#263238" stroke-width="0.75" stroke-miterlimit="10"/>
<path d="M163.594 92.8242C163.594 92.8242 165.71 95.5847 167.553 96.1332" stroke="#263238" stroke-width="0.75" stroke-miterlimit="10"/>
<path d="M140.246 77.299L141.922 83.6248C141.922 83.6248 136.615 110.15 135.781 114.628C135.272 117.333 134.93 120.067 134.755 122.814L139.406 132.025L145.272 122.068C145.272 122.068 144.712 109.506 144.527 99.4601C144.342 89.414 144.712 84.5549 144.616 84.2925C144.521 84.0302 150.483 79.6361 150.483 79.6361C150.483 79.6361 153.923 75.8204 154.108 75.1705C154.293 74.5206 151.693 75.3553 151.127 75.9158C150.493 76.4522 149.742 76.8325 148.934 77.0261C148.127 77.2198 147.285 77.2213 146.477 77.0307C144.056 76.5657 140.89 73.8708 140.425 75.1705C140.147 75.8444 140.084 76.5881 140.246 77.299Z" fill="#263238" stroke="#263238" stroke-width="0.75" stroke-miterlimit="10"/>
<path d="M144.247 66.5077C143.967 66.6925 141.737 67.2529 140.992 69.1131C140.246 70.9733 136.431 79.5348 135.316 80.93C134.201 82.3251 135.966 81.7647 137.456 80.8346C138.947 79.9045 140.246 76.2795 141.081 77.8535C141.916 79.4275 144.342 80.0834 144.342 80.0834C144.342 80.0834 149.362 79.1533 150.483 78.408C151.247 77.8749 151.963 77.2764 152.624 76.6194C152.624 76.6194 156.904 83.0406 158.109 83.595C159.313 84.1495 159.51 83.2254 159.599 82.1999C160.04 78.4619 160.756 74.7614 161.74 71.1283C162.932 67.1277 160.625 65.822 159.134 64.1526C157.644 62.4832 155.968 63.5922 154.299 63.777C152.63 63.9618 144.247 66.5077 144.247 66.5077Z" fill="#4FAD39" stroke="#263238" stroke-width="0.75" stroke-miterlimit="10"/>
<path d="M141.695 37.8537C141.695 37.8537 138.786 42.2716 139.31 43.3448C139.835 44.418 139.847 45.825 139.31 46.5762C138.905 47.0701 138.609 47.6442 138.441 48.2608C138.274 48.8774 138.239 49.5224 138.338 50.1535C138.553 51.9839 137.48 61.243 139.096 62.3221C140.135 62.9981 141.254 63.5409 142.428 63.9379C142.428 63.9379 144.259 79.4393 144.909 79.0101C145.559 78.5808 154.83 69.0832 155.903 67.0322C156.976 64.9812 158.288 62.0837 158.288 62.0837C158.288 62.0837 161.948 55.0842 164.101 52.1747C166.253 49.2651 168.733 43.8873 167.982 41.0851C167.231 38.283 163.349 36.238 161.519 34.7295C159.689 33.2211 160.875 29.781 158.288 28.058C155.7 26.3349 152.582 25.9056 150.537 26.6569C148.492 27.4081 148.385 29.0417 145.904 27.4081C143.424 25.7745 141.063 24.1826 137.295 26.013C133.527 27.8433 132.77 34.3003 135.029 36.0233C137.289 37.7464 141.695 37.8537 141.695 37.8537Z" fill="white" stroke="#263238" stroke-width="0.75" stroke-miterlimit="10"/>
<path d="M161.507 34.7295C159.677 33.2271 160.863 29.781 158.276 28.058C155.688 26.3349 152.57 25.9056 150.525 26.6569C148.48 27.4081 148.373 29.0417 145.892 27.4081C143.412 25.7745 141.051 24.1826 137.283 26.013C133.515 27.8433 132.758 34.3003 135.017 36.0233C137.277 37.7464 141.695 37.8537 141.695 37.8537C141.695 37.8537 144.927 36.3453 147.061 35.1648C149.195 33.9843 154.06 35.916 154.919 36.6732C155.778 37.4304 154.49 36.8878 154.275 38.283C154.06 39.6781 156.749 41.9496 157.936 43.0526C159.122 44.1556 157.721 44.883 157.399 46.2841C157.077 47.6852 158.365 48.2218 159.122 47.6852C159.879 47.1486 162.24 44.1079 163.105 45.8548C163.969 47.6017 165.257 50.1595 162.89 51.9898C160.523 53.8202 158.794 53.3909 158.794 53.3909C158.794 53.3909 158.025 58.0533 160.261 58.417C161.422 56.2811 162.693 54.2074 164.071 52.2045C166.229 49.3009 168.703 43.9171 167.952 41.115C167.201 38.3128 163.337 36.238 161.507 34.7295Z" fill="#263238" stroke="#263238" stroke-width="0.75" stroke-miterlimit="10"/>
<path d="M147.508 43.5595C148.195 43.3031 148.929 43.1934 149.661 43.2375" stroke="#263238" stroke-width="0.5" stroke-miterlimit="10"/>
<path d="M141.999 44.6208C141.468 44.7333 140.954 44.9179 140.473 45.1694" stroke="#263238" stroke-width="0.5" stroke-miterlimit="10"/>
<path d="M142.035 41.6814C142.418 42.4143 142.53 43.2589 142.351 44.0662C141.999 45.2587 138.666 47.8641 138.708 48.3709C138.75 48.8776 140.664 49.9389 140.628 50.3682C140.592 50.7974 140.473 51.5069 140.473 51.5069" stroke="#263238" stroke-width="0.75" stroke-miterlimit="10"/>
<path d="M149.32 45.05C149.709 45.05 150.024 44.663 150.024 44.1855C150.024 43.7081 149.709 43.321 149.32 43.321C148.932 43.321 148.617 43.7081 148.617 44.1855C148.617 44.663 148.932 45.05 149.32 45.05Z" fill="#263238" stroke="#263238" stroke-width="0.5" stroke-miterlimit="10"/>
<path d="M147.949 45.5984C148.896 45.2021 149.905 44.976 150.93 44.9307" stroke="#263238" stroke-width="0.75" stroke-miterlimit="10"/>
<path d="M145.463 40.4113C145.463 40.4113 147.77 38.2709 149.559 38.7002C151.347 39.1295 152.027 40.8525 151.741 40.8585C151.455 40.8645 150.549 39.5349 149.571 39.4335C148.593 39.3322 147.895 39.7972 147.049 40.2265C146.202 40.6558 145.683 40.9539 145.463 40.4113Z" fill="#263238" stroke="#263238" stroke-width="0.5" stroke-miterlimit="10"/>
<path d="M142.19 42.1107C142.163 41.9652 142.106 41.8269 142.023 41.7048C141.939 41.5827 141.831 41.4795 141.705 41.4019C141.579 41.3244 141.439 41.2741 141.292 41.2545C141.145 41.2348 140.996 41.2462 140.854 41.2879C139.799 41.4489 139 43.3687 139.322 43.3448C139.644 43.321 139.996 42.1107 140.819 41.9974C141.641 41.8841 142.19 43.1719 142.19 42.1107Z" fill="#263238" stroke="#263238" stroke-width="0.5" stroke-miterlimit="10"/>
<path d="M140.401 53.9394C140.401 53.9394 142.088 53.7427 144.282 53.4684C146.476 53.1942 149.565 52.7649 150.078 51.1969C150.37 50.4371 150.502 49.6252 150.465 48.812" stroke="#263238" stroke-width="0.75" stroke-miterlimit="10"/>
<path d="M149.279 48.6928C149.921 48.6402 150.568 48.6804 151.199 48.812" stroke="#263238" stroke-width="0.75" stroke-miterlimit="10"/>
<path d="M158.317 56.4316C158.009 57.885 157.155 59.1651 155.932 60.0089C153.977 61.255 139.614 62.6799 140.091 62.8588C140.568 63.0376 142.434 63.932 142.434 63.932L142.995 69.0296C145.257 67.0271 147.772 65.3312 150.477 63.9856C155.235 61.5173 158.204 60.7005 158.317 56.4316Z" fill="#263238" stroke="#263238" stroke-width="0.5" stroke-miterlimit="10"/>
<path d="M166.33 126.051C166.33 126.051 163.659 125.92 162.992 125.789C162.324 125.658 160.189 123.648 159.253 123.786C158.317 123.923 156.588 125.789 155.921 127.363C155.253 128.937 154.985 129.748 154.985 129.748C154.985 129.748 152.6 131.882 153.792 133.325C154.985 134.768 156.332 134.261 156.332 134.261C156.332 134.261 157.131 135.596 158.198 135.728C158.99 135.815 159.786 135.861 160.583 135.865C161.274 136.076 161.996 136.167 162.717 136.133C163.288 136.008 163.831 135.782 164.321 135.465C164.887 135.531 165.458 135.387 165.925 135.06C166.414 134.672 168.781 132.252 170.003 131.006L170.724 130.26L166.33 126.051Z" fill="white" stroke="#263238" stroke-width="0.75" stroke-miterlimit="10"/>
<path d="M188.617 98.5599C188.617 98.5599 183.68 104.033 182.058 106.698C179.474 110.765 176.668 114.686 173.652 118.443C171.786 120.578 165.245 125.789 165.245 125.789C165.245 125.789 167.243 130.058 168.715 130.725C169.572 131.12 170.464 131.431 171.38 131.655L176.746 127.655C176.746 127.655 186.882 119.904 192.248 115.51C197.614 111.116 205.06 105.231 205.597 102.698C206.133 100.164 205.728 98.8282 203.063 96.8249C201.404 95.5972 199.555 94.6505 197.59 94.0227" fill="#4FAD39"/>
<path d="M188.617 98.5599C188.617 98.5599 183.68 104.033 182.058 106.698C179.474 110.765 176.668 114.686 173.652 118.443C171.786 120.578 165.245 125.789 165.245 125.789C165.245 125.789 167.243 130.058 168.715 130.725C169.572 131.12 170.464 131.431 171.38 131.655L176.746 127.655C176.746 127.655 186.882 119.904 192.248 115.51C197.614 111.116 205.06 105.231 205.597 102.698C206.133 100.164 205.728 98.8282 203.063 96.8249C201.404 95.5972 199.555 94.6505 197.59 94.0227" stroke="#263238" stroke-width="0.75" stroke-miterlimit="10"/>
<path d="M169.401 122.45C169.401 122.45 170.593 128.323 174.737 128.323" stroke="#263238" stroke-width="0.75" stroke-miterlimit="10"/>
<path d="M111.246 79.2068C111.246 79.2068 111.795 83.899 112.075 86.0155C112.155 87.0822 112.469 88.1182 112.993 89.0503C112.993 89.0503 108.671 98.7089 108.486 98.9891C108.301 99.2693 103.794 107.73 103.055 108.737C102.315 109.745 100.574 112.97 101.677 114.997C102.78 117.024 104.527 121.162 106.829 121.252C109.13 121.341 112.349 119.964 114.579 118.676C116.809 117.388 117.525 116.559 117.709 112.881C117.894 109.202 117.799 102.578 118.449 99.0785C119.099 95.5788 119.552 91.924 120.011 90.5229C120.47 89.1218 123.141 89.6047 124.059 89.0503C124.977 88.4958 125.806 87.3034 127.463 86.5641C128.901 86.0175 130.464 85.8914 131.971 86.2004C132.525 86.3852 133.533 85.5565 133.259 84.5429C132.984 83.5294 131.142 82.9808 129.3 83.1597C127.457 83.3386 125.806 83.899 125.347 83.6248C124.888 83.3505 124.429 78.4675 124.429 78.4675C124.429 78.4675 117.87 79.022 115.593 79.1114C113.315 79.2009 111.246 79.2068 111.246 79.2068Z" fill="white" stroke="#263238" stroke-width="0.75" stroke-miterlimit="10"/>
<path d="M121.364 75.6177C121.364 75.6177 121.46 81.693 121.46 82.2416C121.461 82.3695 121.488 82.4958 121.541 82.6126C121.593 82.7294 121.669 82.8342 121.763 82.9203C121.858 83.0065 121.969 83.0723 122.09 83.1134C122.211 83.1546 122.34 83.1704 122.467 83.1597C122.932 83.0703 124.125 83.5294 124.405 82.1521C124.685 80.7749 125.228 76.9055 124.953 75.9873C124.679 75.0692 122.193 74.6995 121.364 75.6177Z" fill="white" stroke="#263238" stroke-width="0.75" stroke-miterlimit="10"/>
<path d="M121.364 75.6178C121.364 75.6178 118.425 74.8844 117.596 75.3435C116.767 75.8026 118.055 82.337 118.145 82.8856C118.234 83.4341 119.528 83.7143 120.076 83.5295C120.625 83.3446 121.46 82.9809 121.46 82.2416C121.46 81.5023 121.364 75.6178 121.364 75.6178Z" fill="white" stroke="#263238" stroke-width="0.75" stroke-miterlimit="10"/>
<path d="M116.952 75.5282C116.952 75.5282 115.021 75.1586 114.466 75.8025C113.912 76.4464 113.733 77.3646 113.912 79.022C114.155 80.6533 114.652 82.2365 115.384 83.7142C115.754 84.2687 116.952 84.3581 117.686 84.0838C118.419 83.8096 118.145 82.8914 118.145 82.8914C118.145 82.8914 117.775 82.5218 117.686 79.6719C117.596 76.822 117.596 75.3494 117.596 75.3494L116.952 75.5282Z" fill="white" stroke="#263238" stroke-width="0.75" stroke-miterlimit="10"/>
<path d="M113.733 76.6313C113.363 76.7208 111.062 76.8162 110.972 77.7343C110.883 78.6525 111.706 82.981 112.075 83.4401C112.445 83.8991 113.453 83.7143 113.822 83.5295C114.192 83.3447 114.836 83.0704 114.74 82.5159C114.645 81.9615 113.733 76.6313 113.733 76.6313Z" fill="white" stroke="#263238" stroke-width="0.75" stroke-miterlimit="10"/>
<path d="M114.466 94.8455C113.805 94.7402 113.183 94.4651 112.661 94.0471C112.138 93.629 111.733 93.0824 111.485 92.4607C110.221 95.2748 108.611 98.8342 108.504 99.019C108.319 99.2933 103.812 107.759 103.073 108.767C102.333 109.775 100.592 113 101.695 115.027C102.798 117.054 104.545 121.192 106.847 121.281C109.148 121.371 112.368 119.994 114.597 118.706C116.827 117.418 117.543 116.589 117.727 112.911C117.912 109.232 117.817 102.608 118.467 99.1084C118.777 97.3914 119.063 95.6385 119.301 94.1241C117.749 94.6645 116.109 94.9092 114.466 94.8455Z" fill="#4FAD39" stroke="#263238" stroke-width="0.75" stroke-miterlimit="10"/>
<path d="M118.699 84.7278C118.699 84.7278 117.131 86.105 116.952 87.3034C116.859 88.0692 117.02 88.8443 117.411 89.5094" fill="white"/>
<path d="M118.699 84.7278C118.699 84.7278 117.131 86.105 116.952 87.3034C116.859 88.0692 117.02 88.8443 117.411 89.5094" stroke="#263238" stroke-width="0.75" stroke-miterlimit="10"/>
</svg>
