<svg width="127" height="29" viewBox="0 0 127 29" fill="none" xmlns="http://www.w3.org/2000/svg">
<path d="M7.488 1.624L4.656 7.084V10H2.976V7.084L0.132 1.624H2.028L3.828 5.452L5.616 1.624H7.488ZM11.4089 10.108C10.7689 10.108 10.1929 9.968 9.68091 9.688C9.16891 9.4 8.76491 8.996 8.46891 8.476C8.18091 7.956 8.03691 7.356 8.03691 6.676C8.03691 5.996 8.18491 5.396 8.48091 4.876C8.78491 4.356 9.19691 3.956 9.71691 3.676C10.2369 3.388 10.8169 3.244 11.4569 3.244C12.0969 3.244 12.6769 3.388 13.1969 3.676C13.7169 3.956 14.1249 4.356 14.4209 4.876C14.7249 5.396 14.8769 5.996 14.8769 6.676C14.8769 7.356 14.7209 7.956 14.4089 8.476C14.1049 8.996 13.6889 9.4 13.1609 9.688C12.6409 9.968 12.0569 10.108 11.4089 10.108ZM11.4089 8.644C11.7129 8.644 11.9969 8.572 12.2609 8.428C12.5329 8.276 12.7489 8.052 12.9089 7.756C13.0689 7.46 13.1489 7.1 13.1489 6.676C13.1489 6.044 12.9809 5.56 12.6449 5.224C12.3169 4.88 11.9129 4.708 11.4329 4.708C10.9529 4.708 10.5489 4.88 10.2209 5.224C9.90091 5.56 9.74091 6.044 9.74091 6.676C9.74091 7.308 9.89691 7.796 10.2089 8.14C10.5289 8.476 10.9289 8.644 11.4089 8.644ZM22.3853 3.352V10H20.6933V9.16C20.4773 9.448 20.1933 9.676 19.8413 9.844C19.4973 10.004 19.1213 10.084 18.7133 10.084C18.1933 10.084 17.7333 9.976 17.3333 9.76C16.9333 9.536 16.6173 9.212 16.3853 8.788C16.1613 8.356 16.0493 7.844 16.0493 7.252V3.352H17.7293V7.012C17.7293 7.54 17.8613 7.948 18.1253 8.236C18.3893 8.516 18.7493 8.656 19.2053 8.656C19.6693 8.656 20.0333 8.516 20.2973 8.236C20.5613 7.948 20.6933 7.54 20.6933 7.012V3.352H22.3853ZM25.7228 4.384C25.9388 4.032 26.2188 3.756 26.5628 3.556C26.9148 3.356 27.3148 3.256 27.7628 3.256V5.02H27.3188C26.7908 5.02 26.3908 5.144 26.1188 5.392C25.8548 5.64 25.7228 6.072 25.7228 6.688V10H24.0428V3.352H25.7228V4.384ZM34.2978 10.108C33.7538 10.108 33.2658 10.012 32.8338 9.82C32.4018 9.62 32.0578 9.352 31.8018 9.016C31.5538 8.68 31.4178 8.308 31.3938 7.9H33.0858C33.1178 8.156 33.2418 8.368 33.4578 8.536C33.6818 8.704 33.9578 8.788 34.2858 8.788C34.6058 8.788 34.8538 8.724 35.0298 8.596C35.2138 8.468 35.3058 8.304 35.3058 8.104C35.3058 7.888 35.1938 7.728 34.9698 7.624C34.7538 7.512 34.4058 7.392 33.9258 7.264C33.4298 7.144 33.0218 7.02 32.7018 6.892C32.3898 6.764 32.1178 6.568 31.8858 6.304C31.6618 6.04 31.5498 5.684 31.5498 5.236C31.5498 4.868 31.6538 4.532 31.8618 4.228C32.0778 3.924 32.3818 3.684 32.7738 3.508C33.1738 3.332 33.6418 3.244 34.1778 3.244C34.9698 3.244 35.6018 3.444 36.0738 3.844C36.5458 4.236 36.8058 4.768 36.8538 5.44H35.2458C35.2218 5.176 35.1098 4.968 34.9098 4.816C34.7178 4.656 34.4578 4.576 34.1298 4.576C33.8258 4.576 33.5898 4.632 33.4218 4.744C33.2618 4.856 33.1818 5.012 33.1818 5.212C33.1818 5.436 33.2938 5.608 33.5178 5.728C33.7418 5.84 34.0898 5.956 34.5618 6.076C35.0418 6.196 35.4378 6.32 35.7498 6.448C36.0618 6.576 36.3298 6.776 36.5538 7.048C36.7858 7.312 36.9058 7.664 36.9138 8.104C36.9138 8.488 36.8058 8.832 36.5898 9.136C36.3818 9.44 36.0778 9.68 35.6778 9.856C35.2858 10.024 34.8258 10.108 34.2978 10.108ZM41.2448 10.108C40.6048 10.108 40.0288 9.968 39.5168 9.688C39.0048 9.4 38.6008 8.996 38.3048 8.476C38.0168 7.956 37.8728 7.356 37.8728 6.676C37.8728 5.996 38.0208 5.396 38.3168 4.876C38.6208 4.356 39.0328 3.956 39.5528 3.676C40.0728 3.388 40.6528 3.244 41.2928 3.244C41.9328 3.244 42.5128 3.388 43.0328 3.676C43.5528 3.956 43.9608 4.356 44.2568 4.876C44.5608 5.396 44.7128 5.996 44.7128 6.676C44.7128 7.356 44.5568 7.956 44.2448 8.476C43.9408 8.996 43.5248 9.4 42.9968 9.688C42.4768 9.968 41.8928 10.108 41.2448 10.108ZM41.2448 8.644C41.5488 8.644 41.8328 8.572 42.0968 8.428C42.3688 8.276 42.5848 8.052 42.7448 7.756C42.9048 7.46 42.9848 7.1 42.9848 6.676C42.9848 6.044 42.8168 5.56 42.4808 5.224C42.1528 4.88 41.7488 4.708 41.2688 4.708C40.7888 4.708 40.3848 4.88 40.0568 5.224C39.7368 5.56 39.5768 6.044 39.5768 6.676C39.5768 7.308 39.7328 7.796 40.0448 8.14C40.3648 8.476 40.7648 8.644 41.2448 8.644ZM47.6252 1.12V10H45.9452V1.12H47.6252ZM55.561 3.352V10H53.869V9.16C53.653 9.448 53.369 9.676 53.017 9.844C52.673 10.004 52.297 10.084 51.889 10.084C51.369 10.084 50.909 9.976 50.509 9.76C50.109 9.536 49.793 9.212 49.561 8.788C49.337 8.356 49.225 7.844 49.225 7.252V3.352H50.905V7.012C50.905 7.54 51.037 7.948 51.301 8.236C51.565 8.516 51.925 8.656 52.381 8.656C52.845 8.656 53.209 8.516 53.473 8.236C53.737 7.948 53.869 7.54 53.869 7.012V3.352H55.561ZM59.1746 4.732V7.948C59.1746 8.172 59.2266 8.336 59.3306 8.44C59.4426 8.536 59.6266 8.584 59.8826 8.584H60.6626V10H59.6066C58.1906 10 57.4826 9.312 57.4826 7.936V4.732H56.6906V3.352H57.4826V1.708H59.1746V3.352H60.6626V4.732H59.1746ZM62.723 2.56C62.427 2.56 62.179 2.468 61.979 2.284C61.787 2.092 61.691 1.856 61.691 1.576C61.691 1.296 61.787 1.064 61.979 0.879999C62.179 0.687999 62.427 0.592 62.723 0.592C63.019 0.592 63.263 0.687999 63.455 0.879999C63.655 1.064 63.755 1.296 63.755 1.576C63.755 1.856 63.655 2.092 63.455 2.284C63.263 2.468 63.019 2.56 62.723 2.56ZM63.551 3.352V10H61.871V3.352H63.551ZM68.1628 10.108C67.5228 10.108 66.9468 9.968 66.4348 9.688C65.9228 9.4 65.5188 8.996 65.2228 8.476C64.9348 7.956 64.7908 7.356 64.7908 6.676C64.7908 5.996 64.9388 5.396 65.2348 4.876C65.5388 4.356 65.9508 3.956 66.4708 3.676C66.9908 3.388 67.5708 3.244 68.2108 3.244C68.8508 3.244 69.4308 3.388 69.9508 3.676C70.4708 3.956 70.8788 4.356 71.1748 4.876C71.4788 5.396 71.6308 5.996 71.6308 6.676C71.6308 7.356 71.4748 7.956 71.1628 8.476C70.8588 8.996 70.4428 9.4 69.9148 9.688C69.3948 9.968 68.8108 10.108 68.1628 10.108ZM68.1628 8.644C68.4668 8.644 68.7508 8.572 69.0148 8.428C69.2868 8.276 69.5028 8.052 69.6628 7.756C69.8228 7.46 69.9028 7.1 69.9028 6.676C69.9028 6.044 69.7348 5.56 69.3988 5.224C69.0708 4.88 68.6668 4.708 68.1868 4.708C67.7068 4.708 67.3028 4.88 66.9748 5.224C66.6548 5.56 66.4948 6.044 66.4948 6.676C66.4948 7.308 66.6508 7.796 66.9628 8.14C67.2828 8.476 67.6828 8.644 68.1628 8.644ZM76.5472 3.256C77.3392 3.256 77.9792 3.508 78.4672 4.012C78.9552 4.508 79.1992 5.204 79.1992 6.1V10H77.5192V6.328C77.5192 5.8 77.3872 5.396 77.1232 5.116C76.8592 4.828 76.4992 4.684 76.0432 4.684C75.5792 4.684 75.2112 4.828 74.9392 5.116C74.6752 5.396 74.5432 5.8 74.5432 6.328V10H72.8632V3.352H74.5432V4.18C74.7672 3.892 75.0512 3.668 75.3952 3.508C75.7472 3.34 76.1312 3.256 76.5472 3.256ZM86.6081 10.108C85.9681 10.108 85.3921 9.968 84.8801 9.688C84.3681 9.4 83.9641 8.996 83.6681 8.476C83.3801 7.956 83.2361 7.356 83.2361 6.676C83.2361 5.996 83.3841 5.396 83.6801 4.876C83.9841 4.356 84.3961 3.956 84.9161 3.676C85.4361 3.388 86.0161 3.244 86.6561 3.244C87.2961 3.244 87.8761 3.388 88.3961 3.676C88.9161 3.956 89.3241 4.356 89.6201 4.876C89.9241 5.396 90.0761 5.996 90.0761 6.676C90.0761 7.356 89.9201 7.956 89.6081 8.476C89.3041 8.996 88.8881 9.4 88.3601 9.688C87.8401 9.968 87.2561 10.108 86.6081 10.108ZM86.6081 8.644C86.9121 8.644 87.1961 8.572 87.4601 8.428C87.7321 8.276 87.9481 8.052 88.1081 7.756C88.2681 7.46 88.3481 7.1 88.3481 6.676C88.3481 6.044 88.1801 5.56 87.8441 5.224C87.5161 4.88 87.1121 4.708 86.6321 4.708C86.1521 4.708 85.7481 4.88 85.4201 5.224C85.1001 5.56 84.9401 6.044 84.9401 6.676C84.9401 7.308 85.0961 7.796 85.4081 8.14C85.7281 8.476 86.1281 8.644 86.6081 8.644ZM94.3565 4.732H93.1925V10H91.4885V4.732H90.7325V3.352H91.4885V3.016C91.4885 2.2 91.7205 1.6 92.1845 1.216C92.6485 0.832 93.3485 0.652 94.2845 0.676V2.092C93.8765 2.084 93.5925 2.152 93.4325 2.296C93.2725 2.44 93.1925 2.7 93.1925 3.076V3.352H94.3565V4.732ZM99.9846 8.668H102.745V10H98.3046V1.624H99.9846V8.668ZM103.38 6.652C103.38 5.98 103.512 5.384 103.776 4.864C104.048 4.344 104.412 3.944 104.868 3.664C105.332 3.384 105.848 3.244 106.416 3.244C106.912 3.244 107.344 3.344 107.712 3.544C108.088 3.744 108.388 3.996 108.612 4.3V3.352H110.304V10H108.612V9.028C108.396 9.34 108.096 9.6 107.712 9.808C107.336 10.008 106.9 10.108 106.404 10.108C105.844 10.108 105.332 9.964 104.868 9.676C104.412 9.388 104.048 8.984 103.776 8.464C103.512 7.936 103.38 7.332 103.38 6.652ZM108.612 6.676C108.612 6.268 108.532 5.92 108.372 5.632C108.212 5.336 107.996 5.112 107.724 4.96C107.452 4.8 107.16 4.72 106.848 4.72C106.536 4.72 106.248 4.796 105.984 4.948C105.72 5.1 105.504 5.324 105.336 5.62C105.176 5.908 105.096 6.252 105.096 6.652C105.096 7.052 105.176 7.404 105.336 7.708C105.504 8.004 105.72 8.232 105.984 8.392C106.256 8.552 106.544 8.632 106.848 8.632C107.16 8.632 107.452 8.556 107.724 8.404C107.996 8.244 108.212 8.02 108.372 7.732C108.532 7.436 108.612 7.084 108.612 6.676ZM115.629 3.256C116.421 3.256 117.061 3.508 117.549 4.012C118.037 4.508 118.281 5.204 118.281 6.1V10H116.601V6.328C116.601 5.8 116.469 5.396 116.205 5.116C115.941 4.828 115.581 4.684 115.125 4.684C114.661 4.684 114.293 4.828 114.021 5.116C113.757 5.396 113.625 5.8 113.625 6.328V10H111.945V3.352H113.625V4.18C113.849 3.892 114.133 3.668 114.477 3.508C114.829 3.34 115.213 3.256 115.629 3.256ZM119.447 6.652C119.447 5.98 119.579 5.384 119.843 4.864C120.115 4.344 120.483 3.944 120.947 3.664C121.411 3.384 121.927 3.244 122.495 3.244C122.927 3.244 123.339 3.34 123.731 3.532C124.123 3.716 124.435 3.964 124.667 4.276V1.12H126.371V10H124.667V9.016C124.459 9.344 124.167 9.608 123.791 9.808C123.415 10.008 122.979 10.108 122.483 10.108C121.923 10.108 121.411 9.964 120.947 9.676C120.483 9.388 120.115 8.984 119.843 8.464C119.579 7.936 119.447 7.332 119.447 6.652ZM124.679 6.676C124.679 6.268 124.599 5.92 124.439 5.632C124.279 5.336 124.063 5.112 123.791 4.96C123.519 4.8 123.227 4.72 122.915 4.72C122.603 4.72 122.315 4.796 122.051 4.948C121.787 5.1 121.571 5.324 121.403 5.62C121.243 5.908 121.163 6.252 121.163 6.652C121.163 7.052 121.243 7.404 121.403 7.708C121.571 8.004 121.787 8.232 122.051 8.392C122.323 8.552 122.611 8.632 122.915 8.632C123.227 8.632 123.519 8.556 123.791 8.404C124.063 8.244 124.279 8.02 124.439 7.732C124.599 7.436 124.679 7.084 124.679 6.676ZM2.508 19.624V28H0.828V19.624H2.508ZM7.85184 21.256C8.64384 21.256 9.28384 21.508 9.77184 22.012C10.2598 22.508 10.5038 23.204 10.5038 24.1V28H8.82384V24.328C8.82384 23.8 8.69184 23.396 8.42784 23.116C8.16384 22.828 7.80384 22.684 7.34784 22.684C6.88384 22.684 6.51584 22.828 6.24384 23.116C5.97984 23.396 5.84784 23.8 5.84784 24.328V28H4.16784V21.352H5.84784V22.18C6.07184 21.892 6.35584 21.668 6.69984 21.508C7.05184 21.34 7.43584 21.256 7.85184 21.256ZM14.8734 26.452L16.5534 21.352H18.3414L15.8814 28H13.8414L11.3934 21.352H13.1934L14.8734 26.452ZM25.465 24.532C25.465 24.772 25.449 24.988 25.417 25.18H20.557C20.597 25.66 20.765 26.036 21.061 26.308C21.357 26.58 21.721 26.716 22.153 26.716C22.777 26.716 23.221 26.448 23.485 25.912H25.297C25.105 26.552 24.737 27.08 24.193 27.496C23.649 27.904 22.981 28.108 22.189 28.108C21.549 28.108 20.973 27.968 20.461 27.688C19.957 27.4 19.561 26.996 19.273 26.476C18.993 25.956 18.853 25.356 18.853 24.676C18.853 23.988 18.993 23.384 19.273 22.864C19.553 22.344 19.945 21.944 20.449 21.664C20.953 21.384 21.533 21.244 22.189 21.244C22.821 21.244 23.385 21.38 23.881 21.652C24.385 21.924 24.773 22.312 25.045 22.816C25.325 23.312 25.465 23.884 25.465 24.532ZM23.725 24.052C23.717 23.62 23.561 23.276 23.257 23.02C22.953 22.756 22.581 22.624 22.141 22.624C21.725 22.624 21.373 22.752 21.085 23.008C20.805 23.256 20.633 23.604 20.569 24.052H23.725ZM29.2353 28.108C28.6913 28.108 28.2033 28.012 27.7713 27.82C27.3393 27.62 26.9953 27.352 26.7393 27.016C26.4913 26.68 26.3553 26.308 26.3313 25.9H28.0233C28.0553 26.156 28.1793 26.368 28.3953 26.536C28.6193 26.704 28.8953 26.788 29.2233 26.788C29.5433 26.788 29.7913 26.724 29.9673 26.596C30.1513 26.468 30.2433 26.304 30.2433 26.104C30.2433 25.888 30.1313 25.728 29.9073 25.624C29.6913 25.512 29.3433 25.392 28.8633 25.264C28.3673 25.144 27.9593 25.02 27.6393 24.892C27.3273 24.764 27.0553 24.568 26.8233 24.304C26.5993 24.04 26.4873 23.684 26.4873 23.236C26.4873 22.868 26.5913 22.532 26.7993 22.228C27.0153 21.924 27.3193 21.684 27.7113 21.508C28.1113 21.332 28.5793 21.244 29.1153 21.244C29.9073 21.244 30.5393 21.444 31.0113 21.844C31.4833 22.236 31.7433 22.768 31.7913 23.44H30.1833C30.1593 23.176 30.0473 22.968 29.8473 22.816C29.6553 22.656 29.3953 22.576 29.0673 22.576C28.7633 22.576 28.5273 22.632 28.3593 22.744C28.1993 22.856 28.1193 23.012 28.1193 23.212C28.1193 23.436 28.2313 23.608 28.4553 23.728C28.6793 23.84 29.0273 23.956 29.4993 24.076C29.9793 24.196 30.3753 24.32 30.6873 24.448C30.9993 24.576 31.2673 24.776 31.4913 25.048C31.7233 25.312 31.8433 25.664 31.8513 26.104C31.8513 26.488 31.7433 26.832 31.5273 27.136C31.3193 27.44 31.0153 27.68 30.6153 27.856C30.2233 28.024 29.7633 28.108 29.2353 28.108ZM35.1863 22.732V25.948C35.1863 26.172 35.2383 26.336 35.3423 26.44C35.4543 26.536 35.6383 26.584 35.8943 26.584H36.6743V28H35.6183C34.2023 28 33.4943 27.312 33.4943 25.936V22.732H32.7023V21.352H33.4943V19.708H35.1863V21.352H36.6743V22.732H35.1863ZM46.1387 21.256C46.9547 21.256 47.6107 21.508 48.1067 22.012C48.6107 22.508 48.8627 23.204 48.8627 24.1V28H47.1827V24.328C47.1827 23.808 47.0507 23.412 46.7867 23.14C46.5227 22.86 46.1627 22.72 45.7067 22.72C45.2507 22.72 44.8867 22.86 44.6147 23.14C44.3507 23.412 44.2187 23.808 44.2187 24.328V28H42.5387V24.328C42.5387 23.808 42.4067 23.412 42.1427 23.14C41.8787 22.86 41.5187 22.72 41.0627 22.72C40.5987 22.72 40.2307 22.86 39.9587 23.14C39.6947 23.412 39.5627 23.808 39.5627 24.328V28H37.8827V21.352H39.5627V22.156C39.7787 21.876 40.0547 21.656 40.3907 21.496C40.7347 21.336 41.1107 21.256 41.5187 21.256C42.0387 21.256 42.5027 21.368 42.9107 21.592C43.3187 21.808 43.6347 22.12 43.8587 22.528C44.0747 22.144 44.3867 21.836 44.7947 21.604C45.2107 21.372 45.6587 21.256 46.1387 21.256ZM56.6369 24.532C56.6369 24.772 56.6209 24.988 56.5889 25.18H51.7289C51.7689 25.66 51.9369 26.036 52.2329 26.308C52.5289 26.58 52.8929 26.716 53.3249 26.716C53.9489 26.716 54.3929 26.448 54.6569 25.912H56.4689C56.2769 26.552 55.9089 27.08 55.3649 27.496C54.8209 27.904 54.1529 28.108 53.3609 28.108C52.7209 28.108 52.1449 27.968 51.6329 27.688C51.1289 27.4 50.7329 26.996 50.4449 26.476C50.1649 25.956 50.0249 25.356 50.0249 24.676C50.0249 23.988 50.1649 23.384 50.4449 22.864C50.7249 22.344 51.1169 21.944 51.6209 21.664C52.1249 21.384 52.7049 21.244 53.3609 21.244C53.9929 21.244 54.5569 21.38 55.0529 21.652C55.5569 21.924 55.9449 22.312 56.2169 22.816C56.4969 23.312 56.6369 23.884 56.6369 24.532ZM54.8969 24.052C54.8889 23.62 54.7329 23.276 54.4289 23.02C54.1249 22.756 53.7529 22.624 53.3129 22.624C52.8969 22.624 52.5449 22.752 52.2569 23.008C51.9769 23.256 51.8049 23.604 51.7409 24.052H54.8969ZM61.5472 21.256C62.3392 21.256 62.9792 21.508 63.4672 22.012C63.9552 22.508 64.1992 23.204 64.1992 24.1V28H62.5192V24.328C62.5192 23.8 62.3872 23.396 62.1232 23.116C61.8592 22.828 61.4992 22.684 61.0432 22.684C60.5792 22.684 60.2112 22.828 59.9392 23.116C59.6752 23.396 59.5432 23.8 59.5432 24.328V28H57.8632V21.352H59.5432V22.18C59.7672 21.892 60.0512 21.668 60.3952 21.508C60.7472 21.34 61.1312 21.256 61.5472 21.256ZM67.7528 22.732V25.948C67.7528 26.172 67.8048 26.336 67.9088 26.44C68.0208 26.536 68.2048 26.584 68.4608 26.584H69.2408V28H68.1848C66.7688 28 66.0608 27.312 66.0608 25.936V22.732H65.2688V21.352H66.0608V19.708H67.7528V21.352H69.2408V22.732H67.7528Z" fill="#4FAD39"/>
<path d="M7.488 1.624L4.656 7.084V10H2.976V7.084L0.132 1.624H2.028L3.828 5.452L5.616 1.624H7.488ZM11.4089 10.108C10.7689 10.108 10.1929 9.968 9.68091 9.688C9.16891 9.4 8.76491 8.996 8.46891 8.476C8.18091 7.956 8.03691 7.356 8.03691 6.676C8.03691 5.996 8.18491 5.396 8.48091 4.876C8.78491 4.356 9.19691 3.956 9.71691 3.676C10.2369 3.388 10.8169 3.244 11.4569 3.244C12.0969 3.244 12.6769 3.388 13.1969 3.676C13.7169 3.956 14.1249 4.356 14.4209 4.876C14.7249 5.396 14.8769 5.996 14.8769 6.676C14.8769 7.356 14.7209 7.956 14.4089 8.476C14.1049 8.996 13.6889 9.4 13.1609 9.688C12.6409 9.968 12.0569 10.108 11.4089 10.108ZM11.4089 8.644C11.7129 8.644 11.9969 8.572 12.2609 8.428C12.5329 8.276 12.7489 8.052 12.9089 7.756C13.0689 7.46 13.1489 7.1 13.1489 6.676C13.1489 6.044 12.9809 5.56 12.6449 5.224C12.3169 4.88 11.9129 4.708 11.4329 4.708C10.9529 4.708 10.5489 4.88 10.2209 5.224C9.90091 5.56 9.74091 6.044 9.74091 6.676C9.74091 7.308 9.89691 7.796 10.2089 8.14C10.5289 8.476 10.9289 8.644 11.4089 8.644ZM22.3853 3.352V10H20.6933V9.16C20.4773 9.448 20.1933 9.676 19.8413 9.844C19.4973 10.004 19.1213 10.084 18.7133 10.084C18.1933 10.084 17.7333 9.976 17.3333 9.76C16.9333 9.536 16.6173 9.212 16.3853 8.788C16.1613 8.356 16.0493 7.844 16.0493 7.252V3.352H17.7293V7.012C17.7293 7.54 17.8613 7.948 18.1253 8.236C18.3893 8.516 18.7493 8.656 19.2053 8.656C19.6693 8.656 20.0333 8.516 20.2973 8.236C20.5613 7.948 20.6933 7.54 20.6933 7.012V3.352H22.3853ZM25.7228 4.384C25.9388 4.032 26.2188 3.756 26.5628 3.556C26.9148 3.356 27.3148 3.256 27.7628 3.256V5.02H27.3188C26.7908 5.02 26.3908 5.144 26.1188 5.392C25.8548 5.64 25.7228 6.072 25.7228 6.688V10H24.0428V3.352H25.7228V4.384ZM34.2978 10.108C33.7538 10.108 33.2658 10.012 32.8338 9.82C32.4018 9.62 32.0578 9.352 31.8018 9.016C31.5538 8.68 31.4178 8.308 31.3938 7.9H33.0858C33.1178 8.156 33.2418 8.368 33.4578 8.536C33.6818 8.704 33.9578 8.788 34.2858 8.788C34.6058 8.788 34.8538 8.724 35.0298 8.596C35.2138 8.468 35.3058 8.304 35.3058 8.104C35.3058 7.888 35.1938 7.728 34.9698 7.624C34.7538 7.512 34.4058 7.392 33.9258 7.264C33.4298 7.144 33.0218 7.02 32.7018 6.892C32.3898 6.764 32.1178 6.568 31.8858 6.304C31.6618 6.04 31.5498 5.684 31.5498 5.236C31.5498 4.868 31.6538 4.532 31.8618 4.228C32.0778 3.924 32.3818 3.684 32.7738 3.508C33.1738 3.332 33.6418 3.244 34.1778 3.244C34.9698 3.244 35.6018 3.444 36.0738 3.844C36.5458 4.236 36.8058 4.768 36.8538 5.44H35.2458C35.2218 5.176 35.1098 4.968 34.9098 4.816C34.7178 4.656 34.4578 4.576 34.1298 4.576C33.8258 4.576 33.5898 4.632 33.4218 4.744C33.2618 4.856 33.1818 5.012 33.1818 5.212C33.1818 5.436 33.2938 5.608 33.5178 5.728C33.7418 5.84 34.0898 5.956 34.5618 6.076C35.0418 6.196 35.4378 6.32 35.7498 6.448C36.0618 6.576 36.3298 6.776 36.5538 7.048C36.7858 7.312 36.9058 7.664 36.9138 8.104C36.9138 8.488 36.8058 8.832 36.5898 9.136C36.3818 9.44 36.0778 9.68 35.6778 9.856C35.2858 10.024 34.8258 10.108 34.2978 10.108ZM41.2448 10.108C40.6048 10.108 40.0288 9.968 39.5168 9.688C39.0048 9.4 38.6008 8.996 38.3048 8.476C38.0168 7.956 37.8728 7.356 37.8728 6.676C37.8728 5.996 38.0208 5.396 38.3168 4.876C38.6208 4.356 39.0328 3.956 39.5528 3.676C40.0728 3.388 40.6528 3.244 41.2928 3.244C41.9328 3.244 42.5128 3.388 43.0328 3.676C43.5528 3.956 43.9608 4.356 44.2568 4.876C44.5608 5.396 44.7128 5.996 44.7128 6.676C44.7128 7.356 44.5568 7.956 44.2448 8.476C43.9408 8.996 43.5248 9.4 42.9968 9.688C42.4768 9.968 41.8928 10.108 41.2448 10.108ZM41.2448 8.644C41.5488 8.644 41.8328 8.572 42.0968 8.428C42.3688 8.276 42.5848 8.052 42.7448 7.756C42.9048 7.46 42.9848 7.1 42.9848 6.676C42.9848 6.044 42.8168 5.56 42.4808 5.224C42.1528 4.88 41.7488 4.708 41.2688 4.708C40.7888 4.708 40.3848 4.88 40.0568 5.224C39.7368 5.56 39.5768 6.044 39.5768 6.676C39.5768 7.308 39.7328 7.796 40.0448 8.14C40.3648 8.476 40.7648 8.644 41.2448 8.644ZM47.6252 1.12V10H45.9452V1.12H47.6252ZM55.561 3.352V10H53.869V9.16C53.653 9.448 53.369 9.676 53.017 9.844C52.673 10.004 52.297 10.084 51.889 10.084C51.369 10.084 50.909 9.976 50.509 9.76C50.109 9.536 49.793 9.212 49.561 8.788C49.337 8.356 49.225 7.844 49.225 7.252V3.352H50.905V7.012C50.905 7.54 51.037 7.948 51.301 8.236C51.565 8.516 51.925 8.656 52.381 8.656C52.845 8.656 53.209 8.516 53.473 8.236C53.737 7.948 53.869 7.54 53.869 7.012V3.352H55.561ZM59.1746 4.732V7.948C59.1746 8.172 59.2266 8.336 59.3306 8.44C59.4426 8.536 59.6266 8.584 59.8826 8.584H60.6626V10H59.6066C58.1906 10 57.4826 9.312 57.4826 7.936V4.732H56.6906V3.352H57.4826V1.708H59.1746V3.352H60.6626V4.732H59.1746ZM62.723 2.56C62.427 2.56 62.179 2.468 61.979 2.284C61.787 2.092 61.691 1.856 61.691 1.576C61.691 1.296 61.787 1.064 61.979 0.879999C62.179 0.687999 62.427 0.592 62.723 0.592C63.019 0.592 63.263 0.687999 63.455 0.879999C63.655 1.064 63.755 1.296 63.755 1.576C63.755 1.856 63.655 2.092 63.455 2.284C63.263 2.468 63.019 2.56 62.723 2.56ZM63.551 3.352V10H61.871V3.352H63.551ZM68.1628 10.108C67.5228 10.108 66.9468 9.968 66.4348 9.688C65.9228 9.4 65.5188 8.996 65.2228 8.476C64.9348 7.956 64.7908 7.356 64.7908 6.676C64.7908 5.996 64.9388 5.396 65.2348 4.876C65.5388 4.356 65.9508 3.956 66.4708 3.676C66.9908 3.388 67.5708 3.244 68.2108 3.244C68.8508 3.244 69.4308 3.388 69.9508 3.676C70.4708 3.956 70.8788 4.356 71.1748 4.876C71.4788 5.396 71.6308 5.996 71.6308 6.676C71.6308 7.356 71.4748 7.956 71.1628 8.476C70.8588 8.996 70.4428 9.4 69.9148 9.688C69.3948 9.968 68.8108 10.108 68.1628 10.108ZM68.1628 8.644C68.4668 8.644 68.7508 8.572 69.0148 8.428C69.2868 8.276 69.5028 8.052 69.6628 7.756C69.8228 7.46 69.9028 7.1 69.9028 6.676C69.9028 6.044 69.7348 5.56 69.3988 5.224C69.0708 4.88 68.6668 4.708 68.1868 4.708C67.7068 4.708 67.3028 4.88 66.9748 5.224C66.6548 5.56 66.4948 6.044 66.4948 6.676C66.4948 7.308 66.6508 7.796 66.9628 8.14C67.2828 8.476 67.6828 8.644 68.1628 8.644ZM76.5472 3.256C77.3392 3.256 77.9792 3.508 78.4672 4.012C78.9552 4.508 79.1992 5.204 79.1992 6.1V10H77.5192V6.328C77.5192 5.8 77.3872 5.396 77.1232 5.116C76.8592 4.828 76.4992 4.684 76.0432 4.684C75.5792 4.684 75.2112 4.828 74.9392 5.116C74.6752 5.396 74.5432 5.8 74.5432 6.328V10H72.8632V3.352H74.5432V4.18C74.7672 3.892 75.0512 3.668 75.3952 3.508C75.7472 3.34 76.1312 3.256 76.5472 3.256ZM86.6081 10.108C85.9681 10.108 85.3921 9.968 84.8801 9.688C84.3681 9.4 83.9641 8.996 83.6681 8.476C83.3801 7.956 83.2361 7.356 83.2361 6.676C83.2361 5.996 83.3841 5.396 83.6801 4.876C83.9841 4.356 84.3961 3.956 84.9161 3.676C85.4361 3.388 86.0161 3.244 86.6561 3.244C87.2961 3.244 87.8761 3.388 88.3961 3.676C88.9161 3.956 89.3241 4.356 89.6201 4.876C89.9241 5.396 90.0761 5.996 90.0761 6.676C90.0761 7.356 89.9201 7.956 89.6081 8.476C89.3041 8.996 88.8881 9.4 88.3601 9.688C87.8401 9.968 87.2561 10.108 86.6081 10.108ZM86.6081 8.644C86.9121 8.644 87.1961 8.572 87.4601 8.428C87.7321 8.276 87.9481 8.052 88.1081 7.756C88.2681 7.46 88.3481 7.1 88.3481 6.676C88.3481 6.044 88.1801 5.56 87.8441 5.224C87.5161 4.88 87.1121 4.708 86.6321 4.708C86.1521 4.708 85.7481 4.88 85.4201 5.224C85.1001 5.56 84.9401 6.044 84.9401 6.676C84.9401 7.308 85.0961 7.796 85.4081 8.14C85.7281 8.476 86.1281 8.644 86.6081 8.644ZM94.3565 4.732H93.1925V10H91.4885V4.732H90.7325V3.352H91.4885V3.016C91.4885 2.2 91.7205 1.6 92.1845 1.216C92.6485 0.832 93.3485 0.652 94.2845 0.676V2.092C93.8765 2.084 93.5925 2.152 93.4325 2.296C93.2725 2.44 93.1925 2.7 93.1925 3.076V3.352H94.3565V4.732ZM99.9846 8.668H102.745V10H98.3046V1.624H99.9846V8.668ZM103.38 6.652C103.38 5.98 103.512 5.384 103.776 4.864C104.048 4.344 104.412 3.944 104.868 3.664C105.332 3.384 105.848 3.244 106.416 3.244C106.912 3.244 107.344 3.344 107.712 3.544C108.088 3.744 108.388 3.996 108.612 4.3V3.352H110.304V10H108.612V9.028C108.396 9.34 108.096 9.6 107.712 9.808C107.336 10.008 106.9 10.108 106.404 10.108C105.844 10.108 105.332 9.964 104.868 9.676C104.412 9.388 104.048 8.984 103.776 8.464C103.512 7.936 103.38 7.332 103.38 6.652ZM108.612 6.676C108.612 6.268 108.532 5.92 108.372 5.632C108.212 5.336 107.996 5.112 107.724 4.96C107.452 4.8 107.16 4.72 106.848 4.72C106.536 4.72 106.248 4.796 105.984 4.948C105.72 5.1 105.504 5.324 105.336 5.62C105.176 5.908 105.096 6.252 105.096 6.652C105.096 7.052 105.176 7.404 105.336 7.708C105.504 8.004 105.72 8.232 105.984 8.392C106.256 8.552 106.544 8.632 106.848 8.632C107.16 8.632 107.452 8.556 107.724 8.404C107.996 8.244 108.212 8.02 108.372 7.732C108.532 7.436 108.612 7.084 108.612 6.676ZM115.629 3.256C116.421 3.256 117.061 3.508 117.549 4.012C118.037 4.508 118.281 5.204 118.281 6.1V10H116.601V6.328C116.601 5.8 116.469 5.396 116.205 5.116C115.941 4.828 115.581 4.684 115.125 4.684C114.661 4.684 114.293 4.828 114.021 5.116C113.757 5.396 113.625 5.8 113.625 6.328V10H111.945V3.352H113.625V4.18C113.849 3.892 114.133 3.668 114.477 3.508C114.829 3.34 115.213 3.256 115.629 3.256ZM119.447 6.652C119.447 5.98 119.579 5.384 119.843 4.864C120.115 4.344 120.483 3.944 120.947 3.664C121.411 3.384 121.927 3.244 122.495 3.244C122.927 3.244 123.339 3.34 123.731 3.532C124.123 3.716 124.435 3.964 124.667 4.276V1.12H126.371V10H124.667V9.016C124.459 9.344 124.167 9.608 123.791 9.808C123.415 10.008 122.979 10.108 122.483 10.108C121.923 10.108 121.411 9.964 120.947 9.676C120.483 9.388 120.115 8.984 119.843 8.464C119.579 7.936 119.447 7.332 119.447 6.652ZM124.679 6.676C124.679 6.268 124.599 5.92 124.439 5.632C124.279 5.336 124.063 5.112 123.791 4.96C123.519 4.8 123.227 4.72 122.915 4.72C122.603 4.72 122.315 4.796 122.051 4.948C121.787 5.1 121.571 5.324 121.403 5.62C121.243 5.908 121.163 6.252 121.163 6.652C121.163 7.052 121.243 7.404 121.403 7.708C121.571 8.004 121.787 8.232 122.051 8.392C122.323 8.552 122.611 8.632 122.915 8.632C123.227 8.632 123.519 8.556 123.791 8.404C124.063 8.244 124.279 8.02 124.439 7.732C124.599 7.436 124.679 7.084 124.679 6.676ZM2.508 19.624V28H0.828V19.624H2.508ZM7.85184 21.256C8.64384 21.256 9.28384 21.508 9.77184 22.012C10.2598 22.508 10.5038 23.204 10.5038 24.1V28H8.82384V24.328C8.82384 23.8 8.69184 23.396 8.42784 23.116C8.16384 22.828 7.80384 22.684 7.34784 22.684C6.88384 22.684 6.51584 22.828 6.24384 23.116C5.97984 23.396 5.84784 23.8 5.84784 24.328V28H4.16784V21.352H5.84784V22.18C6.07184 21.892 6.35584 21.668 6.69984 21.508C7.05184 21.34 7.43584 21.256 7.85184 21.256ZM14.8734 26.452L16.5534 21.352H18.3414L15.8814 28H13.8414L11.3934 21.352H13.1934L14.8734 26.452ZM25.465 24.532C25.465 24.772 25.449 24.988 25.417 25.18H20.557C20.597 25.66 20.765 26.036 21.061 26.308C21.357 26.58 21.721 26.716 22.153 26.716C22.777 26.716 23.221 26.448 23.485 25.912H25.297C25.105 26.552 24.737 27.08 24.193 27.496C23.649 27.904 22.981 28.108 22.189 28.108C21.549 28.108 20.973 27.968 20.461 27.688C19.957 27.4 19.561 26.996 19.273 26.476C18.993 25.956 18.853 25.356 18.853 24.676C18.853 23.988 18.993 23.384 19.273 22.864C19.553 22.344 19.945 21.944 20.449 21.664C20.953 21.384 21.533 21.244 22.189 21.244C22.821 21.244 23.385 21.38 23.881 21.652C24.385 21.924 24.773 22.312 25.045 22.816C25.325 23.312 25.465 23.884 25.465 24.532ZM23.725 24.052C23.717 23.62 23.561 23.276 23.257 23.02C22.953 22.756 22.581 22.624 22.141 22.624C21.725 22.624 21.373 22.752 21.085 23.008C20.805 23.256 20.633 23.604 20.569 24.052H23.725ZM29.2353 28.108C28.6913 28.108 28.2033 28.012 27.7713 27.82C27.3393 27.62 26.9953 27.352 26.7393 27.016C26.4913 26.68 26.3553 26.308 26.3313 25.9H28.0233C28.0553 26.156 28.1793 26.368 28.3953 26.536C28.6193 26.704 28.8953 26.788 29.2233 26.788C29.5433 26.788 29.7913 26.724 29.9673 26.596C30.1513 26.468 30.2433 26.304 30.2433 26.104C30.2433 25.888 30.1313 25.728 29.9073 25.624C29.6913 25.512 29.3433 25.392 28.8633 25.264C28.3673 25.144 27.9593 25.02 27.6393 24.892C27.3273 24.764 27.0553 24.568 26.8233 24.304C26.5993 24.04 26.4873 23.684 26.4873 23.236C26.4873 22.868 26.5913 22.532 26.7993 22.228C27.0153 21.924 27.3193 21.684 27.7113 21.508C28.1113 21.332 28.5793 21.244 29.1153 21.244C29.9073 21.244 30.5393 21.444 31.0113 21.844C31.4833 22.236 31.7433 22.768 31.7913 23.44H30.1833C30.1593 23.176 30.0473 22.968 29.8473 22.816C29.6553 22.656 29.3953 22.576 29.0673 22.576C28.7633 22.576 28.5273 22.632 28.3593 22.744C28.1993 22.856 28.1193 23.012 28.1193 23.212C28.1193 23.436 28.2313 23.608 28.4553 23.728C28.6793 23.84 29.0273 23.956 29.4993 24.076C29.9793 24.196 30.3753 24.32 30.6873 24.448C30.9993 24.576 31.2673 24.776 31.4913 25.048C31.7233 25.312 31.8433 25.664 31.8513 26.104C31.8513 26.488 31.7433 26.832 31.5273 27.136C31.3193 27.44 31.0153 27.68 30.6153 27.856C30.2233 28.024 29.7633 28.108 29.2353 28.108ZM35.1863 22.732V25.948C35.1863 26.172 35.2383 26.336 35.3423 26.44C35.4543 26.536 35.6383 26.584 35.8943 26.584H36.6743V28H35.6183C34.2023 28 33.4943 27.312 33.4943 25.936V22.732H32.7023V21.352H33.4943V19.708H35.1863V21.352H36.6743V22.732H35.1863ZM46.1387 21.256C46.9547 21.256 47.6107 21.508 48.1067 22.012C48.6107 22.508 48.8627 23.204 48.8627 24.1V28H47.1827V24.328C47.1827 23.808 47.0507 23.412 46.7867 23.14C46.5227 22.86 46.1627 22.72 45.7067 22.72C45.2507 22.72 44.8867 22.86 44.6147 23.14C44.3507 23.412 44.2187 23.808 44.2187 24.328V28H42.5387V24.328C42.5387 23.808 42.4067 23.412 42.1427 23.14C41.8787 22.86 41.5187 22.72 41.0627 22.72C40.5987 22.72 40.2307 22.86 39.9587 23.14C39.6947 23.412 39.5627 23.808 39.5627 24.328V28H37.8827V21.352H39.5627V22.156C39.7787 21.876 40.0547 21.656 40.3907 21.496C40.7347 21.336 41.1107 21.256 41.5187 21.256C42.0387 21.256 42.5027 21.368 42.9107 21.592C43.3187 21.808 43.6347 22.12 43.8587 22.528C44.0747 22.144 44.3867 21.836 44.7947 21.604C45.2107 21.372 45.6587 21.256 46.1387 21.256ZM56.6369 24.532C56.6369 24.772 56.6209 24.988 56.5889 25.18H51.7289C51.7689 25.66 51.9369 26.036 52.2329 26.308C52.5289 26.58 52.8929 26.716 53.3249 26.716C53.9489 26.716 54.3929 26.448 54.6569 25.912H56.4689C56.2769 26.552 55.9089 27.08 55.3649 27.496C54.8209 27.904 54.1529 28.108 53.3609 28.108C52.7209 28.108 52.1449 27.968 51.6329 27.688C51.1289 27.4 50.7329 26.996 50.4449 26.476C50.1649 25.956 50.0249 25.356 50.0249 24.676C50.0249 23.988 50.1649 23.384 50.4449 22.864C50.7249 22.344 51.1169 21.944 51.6209 21.664C52.1249 21.384 52.7049 21.244 53.3609 21.244C53.9929 21.244 54.5569 21.38 55.0529 21.652C55.5569 21.924 55.9449 22.312 56.2169 22.816C56.4969 23.312 56.6369 23.884 56.6369 24.532ZM54.8969 24.052C54.8889 23.62 54.7329 23.276 54.4289 23.02C54.1249 22.756 53.7529 22.624 53.3129 22.624C52.8969 22.624 52.5449 22.752 52.2569 23.008C51.9769 23.256 51.8049 23.604 51.7409 24.052H54.8969ZM61.5472 21.256C62.3392 21.256 62.9792 21.508 63.4672 22.012C63.9552 22.508 64.1992 23.204 64.1992 24.1V28H62.5192V24.328C62.5192 23.8 62.3872 23.396 62.1232 23.116C61.8592 22.828 61.4992 22.684 61.0432 22.684C60.5792 22.684 60.2112 22.828 59.9392 23.116C59.6752 23.396 59.5432 23.8 59.5432 24.328V28H57.8632V21.352H59.5432V22.18C59.7672 21.892 60.0512 21.668 60.3952 21.508C60.7472 21.34 61.1312 21.256 61.5472 21.256ZM67.7528 22.732V25.948C67.7528 26.172 67.8048 26.336 67.9088 26.44C68.0208 26.536 68.2048 26.584 68.4608 26.584H69.2408V28H68.1848C66.7688 28 66.0608 27.312 66.0608 25.936V22.732H65.2688V21.352H66.0608V19.708H67.7528V21.352H69.2408V22.732H67.7528Z" fill="url(#paint0_linear_173_5000)" fill-opacity="0.2"/>
<defs>
<linearGradient id="paint0_linear_173_5000" x1="85" y1="13.465" x2="85" y2="-3" gradientUnits="userSpaceOnUse">
<stop stop-color="#964B00"/>
<stop offset="1" stop-color="#964B00" stop-opacity="0"/>
</linearGradient>
</defs>
</svg>
