<svg width="20" height="20" viewBox="0 0 20 20" fill="none" xmlns="http://www.w3.org/2000/svg">
<path d="M3.33341 14.9999V14.4583C3.33341 14.1749 3.46675 13.9083 3.67508 13.7833C5.08341 12.9416 6.69175 12.4999 8.33341 12.4999C8.35841 12.4999 8.37508 12.4999 8.40008 12.5083C8.48341 11.9249 8.65008 11.3666 8.89175 10.8583C8.70841 10.8416 8.52508 10.8333 8.33341 10.8333C6.31675 10.8333 4.43341 11.3916 2.82508 12.3499C2.09175 12.7833 1.66675 13.5999 1.66675 14.4583V16.6666H9.38341C9.03341 16.1666 8.75841 15.5999 8.57508 14.9999H3.33341ZM8.33341 9.99992C10.1751 9.99992 11.6667 8.50825 11.6667 6.66659C11.6667 4.82492 10.1751 3.33325 8.33341 3.33325C6.49175 3.33325 5.00008 4.82492 5.00008 6.66659C5.00008 8.50825 6.49175 9.99992 8.33341 9.99992ZM8.33341 4.99992C9.25008 4.99992 10.0001 5.74992 10.0001 6.66659C10.0001 7.58325 9.25008 8.33325 8.33341 8.33325C7.41675 8.33325 6.66675 7.58325 6.66675 6.66659C6.66675 5.74992 7.41675 4.99992 8.33341 4.99992ZM17.2917 13.3333C17.2917 13.1499 17.2667 12.9833 17.2417 12.8083L18.1917 11.9666L17.3584 10.5249L16.1501 10.9333C15.8834 10.7083 15.5834 10.5333 15.2501 10.4083L15.0001 9.16659H13.3334L13.0834 10.4083C12.7501 10.5333 12.4501 10.7083 12.1834 10.9333L10.9751 10.5249L10.1417 11.9666L11.0917 12.8083C11.0667 12.9833 11.0417 13.1499 11.0417 13.3333C11.0417 13.5166 11.0667 13.6833 11.0917 13.8583L10.1417 14.6999L10.9751 16.1416L12.1834 15.7333C12.4501 15.9583 12.7501 16.1333 13.0834 16.2583L13.3334 17.4999H15.0001L15.2501 16.2583C15.5834 16.1333 15.8834 15.9583 16.1501 15.7333L17.3584 16.1416L18.1917 14.6999L17.2417 13.8583C17.2667 13.6833 17.2917 13.5166 17.2917 13.3333ZM14.1667 14.9999C13.2501 14.9999 12.5001 14.2499 12.5001 13.3333C12.5001 12.4166 13.2501 11.6666 14.1667 11.6666C15.0834 11.6666 15.8334 12.4166 15.8334 13.3333C15.8334 14.2499 15.0834 14.9999 14.1667 14.9999Z" fill="#828282"/>
</svg>
