<svg width="261" height="250" viewBox="0 0 261 250" fill="none" xmlns="http://www.w3.org/2000/svg">
<path d="M187.996 214.315C188.548 214.415 189.074 214.625 189.542 214.933C190.011 215.241 190.413 215.64 190.724 216.107C191.34 217.05 191.734 218.12 191.874 219.237C192.201 221.377 191.591 223.801 190.772 225.807C188.606 224.737 187.477 222.201 186.99 220.869C186.214 218.761 186.091 214.486 187.996 214.315Z" fill="#EBEBEB"/>
<path d="M193.741 228.658C193.461 228.097 193.333 227.471 193.372 226.845C193.41 226.218 193.614 225.613 193.961 225.09C194.318 224.574 194.775 224.134 195.304 223.796C195.833 223.458 196.424 223.229 197.042 223.121C197.321 223.041 197.614 223.023 197.901 223.069C198.187 223.114 198.46 223.221 198.701 223.383C198.899 223.569 199.043 223.805 199.119 224.065C199.194 224.326 199.198 224.603 199.129 224.865C198.987 225.391 198.709 225.869 198.321 226.251C197.064 227.615 195.598 228.707 193.741 228.658" fill="#EBEBEB"/>
<path d="M193.233 235.646C193.201 235.5 193.183 235.351 193.18 235.202C193.153 234.886 193.116 234.479 193.073 233.987C192.923 232.648 192.988 231.293 193.265 229.975C193.565 228.651 194.214 227.432 195.143 226.444C195.429 226.149 195.748 225.891 196.095 225.673C196.188 225.612 196.285 225.557 196.384 225.507C196.449 225.475 196.486 225.459 196.491 225.465C195.701 225.979 195.021 226.646 194.493 227.427C193.964 228.208 193.598 229.087 193.415 230.012C193.143 231.317 193.066 232.654 193.185 233.982C193.212 234.517 193.233 234.907 193.239 235.196C193.249 235.346 193.248 235.496 193.233 235.646V235.646Z" fill="#E0E0E0"/>
<path d="M188.375 217.525C188.405 217.583 188.428 217.644 188.445 217.707L188.626 218.242C188.776 218.702 188.985 219.365 189.242 220.195C189.745 221.842 190.413 224.132 191.098 226.679C191.783 229.226 192.339 231.547 192.703 233.233C192.896 234.073 193.046 234.757 193.147 235.228C193.19 235.453 193.227 235.635 193.254 235.763C193.269 235.826 193.278 235.891 193.281 235.956C193.257 235.895 193.238 235.832 193.222 235.769C193.19 235.63 193.142 235.453 193.088 235.234C192.965 234.747 192.799 234.073 192.596 233.249C192.184 231.574 191.606 229.263 190.922 226.716C190.237 224.17 189.589 221.901 189.113 220.221L188.546 218.253C188.482 218.033 188.434 217.857 188.396 217.718C188.383 217.654 188.376 217.59 188.375 217.525Z" fill="#E0E0E0"/>
<path d="M191.056 230.75C190.502 229.548 189.67 228.494 188.628 227.678C187.585 226.861 186.364 226.304 185.064 226.053C184.406 225.93 183.593 225.957 183.229 226.524C182.865 227.091 183.186 227.84 183.587 228.386C184.444 229.504 185.612 230.342 186.946 230.796C188.279 231.249 189.717 231.297 191.077 230.932" fill="#EBEBEB"/>
<path d="M185.888 227.947C186.027 227.954 186.165 227.975 186.3 228.011C186.462 228.037 186.623 228.072 186.781 228.118C186.963 228.172 187.183 228.22 187.407 228.305C187.632 228.391 187.889 228.477 188.146 228.6C188.423 228.723 188.692 228.862 188.953 229.017C189.556 229.369 190.116 229.789 190.623 230.269C191.123 230.75 191.565 231.289 191.939 231.874C192.101 232.13 192.248 232.397 192.377 232.671C192.496 232.907 192.6 233.15 192.688 233.399C192.767 233.603 192.835 233.812 192.891 234.025C192.941 234.18 192.978 234.339 193.003 234.501C193.04 234.637 193.061 234.777 193.068 234.918C193.036 234.918 192.939 234.33 192.586 233.441C192.493 233.197 192.384 232.96 192.26 232.73C192.128 232.461 191.979 232.2 191.816 231.949C191.443 231.367 191.007 230.829 190.516 230.344C190.015 229.876 189.469 229.46 188.884 229.103C188.606 228.947 188.349 228.798 188.087 228.68C187.825 228.562 187.589 228.466 187.37 228.375C186.471 228.075 185.877 227.979 185.888 227.947Z" fill="#E0E0E0"/>
<path d="M225.13 194.728C223.887 193.522 222.708 192.251 221.599 190.919C220.424 189.647 219.315 188.315 218.277 186.928C220.698 189.405 222.986 192.008 225.13 194.728Z" fill="#E0E0E0"/>
<path d="M227.286 194.686C226.5 193.302 225.798 191.873 225.184 190.405C224.483 188.971 223.867 187.498 223.338 185.992C224.12 187.376 224.82 188.805 225.435 190.272C226.137 191.706 226.755 193.18 227.286 194.686V194.686Z" fill="#E0E0E0"/>
<path d="M230.149 186.388C230.234 186.388 229.678 188.164 229.416 190.406C229.154 192.647 229.261 194.477 229.175 194.482C229.067 194.092 229.017 193.689 229.025 193.284C228.981 192.311 229.019 191.335 229.138 190.368C229.254 189.403 229.449 188.45 229.721 187.517C229.809 187.122 229.953 186.742 230.149 186.388Z" fill="#E0E0E0"/>
<path d="M132.986 241.75C132.609 241.455 132.261 241.123 131.948 240.76C131.263 240.059 130.445 239.219 129.546 238.289L127.138 235.817C126.789 235.489 126.468 235.131 126.181 234.747C126.577 235.017 126.945 235.327 127.277 235.672C127.925 236.272 128.802 237.122 129.744 238.091C130.685 239.059 131.509 239.958 132.092 240.621C132.426 240.967 132.726 241.346 132.986 241.75V241.75Z" fill="#E0E0E0"/>
<path d="M136.56 241.927C135.533 240.551 134.58 239.122 133.703 237.647C132.748 236.218 131.872 234.739 131.076 233.217C132.105 234.592 133.06 236.021 133.938 237.497C134.892 238.925 135.767 240.403 136.56 241.927Z" fill="#E0E0E0"/>
<path d="M140.45 232.885C140.356 233.349 140.231 233.807 140.075 234.255C139.448 236.44 139.124 238.701 139.112 240.974C139.137 241.447 139.128 241.921 139.085 242.392C138.969 241.929 138.911 241.452 138.914 240.974C138.815 238.674 139.145 236.375 139.888 234.196C140.016 233.736 140.205 233.295 140.45 232.885V232.885Z" fill="#E0E0E0"/>
<path d="M229.291 66.5572C239.201 62.5554 243.99 51.2777 239.989 41.3679C235.987 31.4581 224.709 26.6687 214.799 30.6705C204.889 34.6723 200.1 45.9499 204.102 55.8598C208.104 65.7696 219.381 70.559 229.291 66.5572Z" fill="#E0E0E0"/>
<path d="M229.294 64.4227C239.203 60.4208 243.993 49.1432 239.991 39.2334C235.989 29.3236 224.712 24.5342 214.802 28.536C204.892 32.5378 200.103 43.8154 204.104 53.7253C208.106 63.6351 219.384 68.4245 229.294 64.4227Z" fill="#EBEBEB"/>
<path d="M222.049 59.4576C229.208 59.4576 235.012 53.6538 235.012 46.4944C235.012 39.3351 229.208 33.5312 222.049 33.5312C214.889 33.5312 209.085 39.3351 209.085 46.4944C209.085 53.6538 214.889 59.4576 222.049 59.4576Z" fill="white"/>
<path d="M226.769 50.7208C229.109 48.1116 228.89 44.1001 226.281 41.7607C223.672 39.4213 219.66 39.6399 217.321 42.2491C214.981 44.8582 215.2 48.8698 217.809 51.2092C220.418 53.5486 224.43 53.3299 226.769 50.7208Z" fill="#EBEBEB"/>
<path d="M237.612 30.1072L237.083 25.977L241.288 21.4776L241.587 25.9342L237.612 30.1072Z" fill="#EBEBEB"/>
<path d="M246.632 26.8223L242.368 26.4745L238.093 30.5834L242.368 31.0435L246.632 26.8223Z" fill="#EBEBEB"/>
<path d="M241.972 24.8321L235.188 31.7069L224.418 42.621C223.589 43.4556 222.765 44.2956 221.941 45.1302C221.117 45.9648 222.38 47.1525 223.167 46.3554L229.956 39.4752L240.725 28.5664C241.549 27.7247 242.375 26.8883 243.203 26.0573C243.984 25.2601 242.758 24.0349 241.972 24.8321Z" fill="#E0E0E0"/>
<path d="M170.795 28.6681C171.116 26.3194 167.799 24.388 165.306 24.1794C164.113 24.0884 162.877 24.2703 161.754 23.8744C159.309 23.0237 158.335 19.8726 155.954 18.8668C154.172 18.1124 152.123 18.7812 150.395 19.6532C148.667 20.5253 146.961 21.6167 145.045 21.7397C143.365 21.8467 141.541 21.2047 140.075 22.0447C139.005 22.6546 138.406 23.9119 137.4 24.6555C136.394 25.3992 135.126 25.5383 133.901 25.6078C132.676 25.6774 131.413 25.6827 130.295 26.1963C129.177 26.7099 128.262 27.8816 128.492 29.0854L170.795 28.6681Z" fill="#EBEBEB"/>
<path d="M52.5162 41.5081C52.8212 39.2879 49.6967 37.4688 47.3427 37.2762C46.2246 37.1853 45.0582 37.3565 43.9989 36.9873C41.6984 36.1848 40.7889 33.2423 38.5312 32.2686C36.8566 31.5624 34.9252 32.1883 33.2988 33.0069C31.6724 33.8255 30.0888 34.858 28.243 34.9757C26.638 35.0774 24.9474 34.4889 23.5617 35.2593C22.5345 35.8371 21.9942 37.0248 21.0418 37.7256C20.0895 38.4265 18.9018 38.5549 17.7462 38.6191C16.5906 38.6833 15.4029 38.694 14.3489 39.1541C13.295 39.6142 12.4336 40.7591 12.6476 41.8773L52.5162 41.5081Z" fill="#EBEBEB"/>
<path d="M97.6757 13.4792C97.9165 11.7351 95.4554 10.3066 93.6097 10.1568C92.7269 10.0819 91.812 10.221 90.9774 9.92677C89.1691 9.29546 88.4469 6.96284 86.6974 6.21918C85.3813 5.68417 83.8619 6.15498 82.5832 6.80234C81.3045 7.44969 80.0419 8.2522 78.6135 8.34315C77.3669 8.4234 76.0187 7.9633 74.9326 8.5732C74.1194 9.02261 73.6968 9.95887 72.9477 10.5099C72.1703 10.9886 71.271 11.232 70.3583 11.2108C69.4475 11.188 68.5403 11.3349 67.6833 11.6441C66.8594 12.024 66.1746 12.896 66.3458 13.7842L97.6757 13.4792Z" fill="#F5F5F5"/>
<path d="M56.951 77.5033C57.1918 75.7645 54.7308 74.3307 52.885 74.1809C52.0022 74.1114 51.0874 74.2451 50.2528 73.9562C48.4444 73.3249 47.7222 70.987 45.9727 70.2433C44.6566 69.7083 43.1372 70.1844 41.8585 70.8265C40.5799 71.4685 39.3119 72.2817 37.8834 72.3726C36.6422 72.4529 35.294 71.9874 34.2079 72.5973C33.3947 73.0467 32.9721 73.983 32.2231 74.534C31.4397 75.0105 30.5339 75.2467 29.6176 75.2135C28.7062 75.1898 27.7986 75.3387 26.9426 75.6522C26.1187 76.0267 25.4339 76.9041 25.6051 77.7922L56.951 77.5033Z" fill="#F5F5F5"/>
<path d="M214.441 7.49254C214.681 5.74842 212.22 4.31461 210.375 4.17015C209.492 4.09525 208.577 4.22901 207.742 3.9401C205.934 3.3088 205.212 0.976172 203.462 0.232514C202.146 -0.302491 200.627 0.168314 199.348 0.81032C198.07 1.45233 196.807 2.26553 195.378 2.35649C194.132 2.43674 192.784 1.97663 191.698 2.58119C190.884 3.03594 190.462 3.96685 189.713 4.51791C188.925 5.00518 188.012 5.25072 187.086 5.22412C186.175 5.20129 185.268 5.34825 184.411 5.65747C183.587 6.03732 182.902 6.90938 183.073 7.79749L214.441 7.49254Z" fill="#F5F5F5"/>
<path d="M182.806 58.2218C183.047 56.4776 180.586 55.0492 178.74 54.8994C177.857 54.8298 176.942 54.9636 176.108 54.6693C174.299 54.0434 173.577 51.7054 171.828 50.9617C170.506 50.4267 168.987 50.8975 167.708 51.5449C166.43 52.1922 165.167 52.9948 163.738 53.0857C162.492 53.166 161.144 52.7059 160.058 53.3158C159.25 53.7652 158.822 54.7014 158.078 55.2525C157.3 55.7297 156.401 55.973 155.489 55.9533C154.578 55.9313 153.671 56.0782 152.814 56.3867C151.99 56.7665 151.305 57.6386 151.476 58.5267L182.806 58.2218Z" fill="#F5F5F5"/>
<path d="M66.3081 105.136L90.8916 79.7236L97.7825 82.0563L121.884 122.503L136.142 129.795L148.34 165.26L110.901 163.324L66.3081 105.136Z" fill="#E0E0E0"/>
<path d="M260.323 151.056C260.35 151.125 202.281 173.339 130.638 200.656C58.9954 227.974 0.867075 250.075 0.834974 250C0.802874 249.925 58.867 227.722 130.536 200.405C202.206 173.087 260.297 150.981 260.323 151.056Z" fill="#263238"/>
<path d="M212.103 21.2797C210.945 21.5303 209.761 21.6434 208.577 21.6167C206.848 21.6051 205.185 20.9467 203.917 19.771C202.537 18.4014 201.825 16.3041 200.311 15.1164C198.958 14.0464 196.86 14.0999 195.4 14.9827V24.6128C196.138 24.035 197.508 22.8633 199.6 23.8905C200.424 24.2971 201.167 24.7412 201.964 25.2173C204.201 26.5602 206.501 26.4532 208.855 25.3992C210.24 24.7138 211.463 23.7396 212.44 22.5423C213.125 21.7933 212.584 21.178 212.103 21.2797Z" fill="#4FAD39"/>
<path d="M195.4 13.0834C195.475 13.0834 195.539 17.8984 195.539 23.8102C195.539 29.722 195.475 34.5103 195.4 34.5103C195.325 34.5103 195.261 29.6953 195.261 23.8102C195.261 17.9252 195.32 13.0834 195.4 13.0834Z" fill="#263238"/>
<path d="M251.634 94.1527L238.173 88.2623L201.354 35.3717L191.473 31.7979L151.326 75.8555L140.177 81.9546L98.291 125.525L87.4785 135.482L145.243 194.728L260.767 150.708V113.151L251.634 94.1527Z" fill="#EBEBEB"/>
<path d="M201.354 35.3717L191.473 31.7979L170.848 54.4286L192.179 37.0998L198.166 45.601C198.38 45.5314 200.669 41.9362 200.669 41.9362C200.669 41.9362 211.369 49.7901 211.241 49.5761C211.113 49.3621 201.354 35.3717 201.354 35.3717Z" fill="white"/>
<path d="M98.4785 125.879L146.083 88.8187L165.456 84.3407L180.163 44.2046L151.326 75.8555L140.177 81.9546L98.4785 125.879Z" fill="#E0E0E0"/>
<path d="M238.174 88.2623L248.574 97.7747L260.767 113.151L251.635 94.1527L238.174 88.2623Z" fill="#E0E0E0"/>
<path d="M98.4785 125.879L98.6658 125.67L99.2329 125.06L101.458 122.69L109.917 113.734L140.091 81.8743L151.241 75.7485H151.209L183.352 40.4382C186.048 37.4742 188.714 34.5478 191.35 31.6587L191.409 31.5892L191.5 31.6213L201.381 35.2005H201.419L201.446 35.2326L238.233 88.1499L238.19 88.1178L251.64 94.0029H251.667V94.0297L257.878 107.02C258.584 108.518 259.13 109.668 259.483 110.449C259.66 110.834 259.799 111.128 259.895 111.326L260.029 111.631C260.029 111.631 259.97 111.535 259.874 111.337L259.446 110.465L257.782 107.052L251.511 94.0939L251.549 94.1313L238.083 88.2463H238.056C228.426 74.395 215.586 56.0443 201.205 35.3824L201.269 35.4305L191.388 31.8567L191.537 31.8192L183.576 40.6682L151.417 75.9411L140.236 82.0616L140.268 82.0348L110.045 113.825L101.539 122.738L99.2864 125.081L98.7086 125.681L98.4785 125.879Z" fill="#263238"/>
<path d="M71.402 84.3354C69.9733 84.6438 68.5137 84.7856 67.0524 84.758C64.9238 84.7379 62.879 83.9253 61.3171 82.4789C59.6158 80.7936 58.7438 78.1989 56.8766 76.749C55.2074 75.4329 52.6287 75.5024 50.8257 76.5832V88.4656C51.7405 87.7487 53.4258 86.3256 55.9992 87.5775C57.0157 88.0751 57.9359 88.6208 58.915 89.1825C61.6649 90.8357 64.5004 90.7019 67.3948 89.4072C68.4648 88.9257 69.9682 87.9627 71.8139 85.8869C72.6539 84.9667 71.9959 84.223 71.402 84.3354Z" fill="#4FAD39"/>
<path d="M50.8256 74.2452C50.9059 74.2452 50.9701 80.157 50.9701 87.4545C50.9701 94.7519 50.9059 100.658 50.8256 100.658C50.7454 100.658 50.6865 94.7466 50.6865 87.4545C50.6865 80.1623 50.7507 74.2452 50.8256 74.2452Z" fill="#263238"/>
<path d="M108.852 150.072L97.708 143.523L57.5559 96.2393L47.6743 100.075L20.2553 159.573L6.79992 165.892L0 186.521L0.97906 249.518L38.6488 235.437L145.842 194.498L108.852 150.072Z" fill="#EBEBEB"/>
<path d="M20.2554 159.573L25.6054 156.358L31.0411 145.594L35.3907 148.878L48.707 104.131L58.0535 96.7529L57.556 96.2393L47.6744 100.075L20.2554 159.573Z" fill="#E0E0E0"/>
<path d="M47.6745 100.075L57.5561 96.2393L78.1805 120.529C78.1805 120.529 61.1834 105.516 60.9641 105.516C60.9641 105.516 59.2895 111.145 59.0755 111.07C58.8615 110.995 48.9104 101.065 48.9104 101.065L44.8711 106.185L47.6745 100.075Z" fill="white"/>
<path d="M145.842 194.52C145.842 194.52 145.602 194.252 145.152 193.723L143.167 191.363C141.429 189.293 138.887 186.254 135.645 182.38L108.761 150.146L108.793 150.173L97.6438 143.635C87.5108 131.715 76.0617 118.233 63.9813 104.013L57.4542 96.3248L57.6094 96.3676L47.7225 100.204L47.7974 100.129C37.1454 123.22 27.6544 143.833 20.3463 159.616V159.648H20.3142L6.83202 165.967L6.87482 165.918L1.82972 181.113C1.24121 182.867 0.786458 184.221 0.481505 185.141L0.128401 186.174C0.0481506 186.409 0 186.521 0 186.521C0 186.521 0.0321005 186.404 0.107001 186.168C0.181902 185.933 0.294253 185.585 0.438705 185.125L1.74947 181.086C2.90508 177.549 4.59035 172.392 6.72502 165.87V165.838H6.75177L20.2018 159.498L20.159 159.546L47.5513 100.016V99.9682H47.6048L57.4863 96.1269L57.6147 96.0787L57.6789 96.1536L64.1793 103.804L97.815 143.448H97.7829L108.927 150.002L135.736 182.279L143.216 191.31L145.174 193.685L145.842 194.52Z" fill="#263238"/>
<path d="M43.9399 208.895L47.7544 192.551L64.9067 166.603L78.4638 163.286L96.6272 183.413L112.8 187.5L137.582 197.842L34.3579 237.218L36.1609 223.517L43.9399 208.895Z" fill="#F5F5F5"/>
<path d="M43.9404 208.89C43.9404 208.89 43.7746 209.222 43.4429 209.864L41.9555 212.71L36.2149 223.549C35.712 227.439 35.1128 232.05 34.4334 237.251L34.3157 237.16L133.602 199.228L137.518 197.735V197.992L112.737 187.65L96.5689 183.552H96.5315V183.52L78.3787 163.388L78.4911 163.42L64.934 166.699L64.9982 166.657L47.8139 192.588L44.9462 204.738C44.6145 206.108 44.3684 207.151 44.1972 207.857C44.026 208.564 43.9351 208.927 43.9351 208.927C43.9351 208.927 44.0046 208.569 44.1651 207.857C44.3256 207.146 44.5664 206.103 44.8767 204.722C45.5187 201.962 46.4817 197.874 47.6855 192.567L64.8056 166.598V166.566H64.8484L78.4001 163.238H78.4643L78.5125 163.286L96.7026 183.402L96.6705 183.285L112.844 187.372L137.636 197.73L137.957 197.864L137.631 197.992L133.709 199.485L34.3906 237.32L34.2515 237.374V237.229C34.9416 232.029 35.5569 227.417 36.0758 223.533V223.506L41.8646 212.683C42.5333 211.453 43.0416 210.511 43.384 209.869C43.7264 209.227 43.9404 208.89 43.9404 208.89Z" fill="#263238"/>
<path d="M219.421 155.759C219.849 156.102 220.243 156.485 220.598 156.904C221.496 157.874 222.335 158.895 223.113 159.964C223.888 161.03 224.603 162.139 225.253 163.286C225.549 163.749 225.795 164.242 225.986 164.757C225.656 164.322 225.356 163.864 225.087 163.388C224.552 162.537 223.776 161.371 222.867 160.13C221.957 158.888 221.08 157.802 220.433 157.032C220.067 156.631 219.729 156.206 219.421 155.759Z" fill="#263238"/>
<path d="M224.215 150.928C224.428 151.561 224.606 152.206 224.75 152.859C225.066 154.057 225.532 155.7 226.12 157.497C226.709 159.295 227.297 160.9 227.725 162.056C227.988 162.673 228.215 163.306 228.405 163.95C228.294 163.805 228.205 163.644 228.142 163.473C227.993 163.163 227.789 162.703 227.543 162.131C227.056 160.986 226.436 159.386 225.842 157.583C225.248 155.78 224.815 154.116 224.547 152.907C224.413 152.297 224.312 151.805 224.258 151.463C224.219 151.287 224.204 151.107 224.215 150.928V150.928Z" fill="#263238"/>
<path d="M232.294 154.025C232.331 154.025 232.069 154.475 231.796 155.229C231.45 156.21 231.253 157.238 231.213 158.279C231.213 159.504 231.128 160.633 231.176 161.424C231.229 161.857 231.256 162.293 231.256 162.73C231.099 162.316 231.005 161.882 230.978 161.44C230.901 160.385 230.887 159.325 230.935 158.268C230.973 157.197 231.203 156.143 231.614 155.154C231.76 154.735 231.992 154.35 232.294 154.025Z" fill="#263238"/>
<path d="M80.7108 220.5C79.9039 219.593 79.0177 218.761 78.0626 218.012C77.0457 217.341 75.9715 216.761 74.8525 216.278C75.2223 216.303 75.5847 216.394 75.9225 216.546C76.7436 216.854 77.5192 217.271 78.2284 217.787C78.9406 218.297 79.5796 218.902 80.1277 219.585C80.3726 219.854 80.5698 220.164 80.7108 220.5V220.5Z" fill="#263238"/>
<path d="M80.716 209.361C80.7642 209.361 80.6679 209.955 80.6518 210.907C80.6381 212.146 80.8021 213.38 81.1387 214.572C81.4831 215.763 82.0005 216.896 82.6742 217.937C83.2092 218.734 83.5837 219.184 83.5462 219.216C83.4298 219.136 83.3253 219.041 83.2359 218.932C82.9718 218.656 82.7286 218.361 82.5083 218.049C81.0308 215.968 80.3062 213.445 80.4539 210.896C80.4785 210.515 80.5285 210.136 80.6037 209.762C80.6183 209.623 80.6562 209.487 80.716 209.361V209.361Z" fill="#263238"/>
<path d="M86.2426 212.175C86.161 212.466 86.061 212.752 85.943 213.031C85.7213 213.722 85.6199 214.446 85.6434 215.171C85.6674 215.888 85.8159 216.596 86.0821 217.263C86.2209 217.532 86.339 217.811 86.4352 218.098C86.4084 218.098 86.1623 217.857 85.9002 217.343C85.5712 216.676 85.3887 215.946 85.3652 215.203C85.3383 214.45 85.4733 213.7 85.7611 213.004C85.8522 212.693 86.0174 212.408 86.2426 212.175Z" fill="#263238"/>
<path d="M31.0886 212.603C31.7054 212.547 32.327 212.617 32.9163 212.807C33.5056 212.997 34.0503 213.305 34.518 213.71C35.4508 214.53 36.1829 215.554 36.6581 216.701C37.6371 218.879 37.696 221.628 37.4124 224.004C34.8016 223.517 32.8542 221.136 31.9447 219.863C30.5055 217.851 29.1252 213.341 31.094 212.603" fill="#4FAD39"/>
<path d="M41.4038 226.192C40.9412 225.678 40.6227 225.051 40.4808 224.375C40.339 223.698 40.3787 222.996 40.596 222.34C40.8208 221.689 41.1731 221.089 41.6324 220.575C42.0917 220.062 42.6488 219.645 43.271 219.349C43.5429 219.182 43.8482 219.077 44.1653 219.041C44.4824 219.005 44.8036 219.039 45.1061 219.141C45.3712 219.28 45.5937 219.488 45.7501 219.743C45.9064 219.998 45.9908 220.291 45.9942 220.591C45.9983 221.191 45.8432 221.782 45.5448 222.303C44.6085 224.116 43.3673 225.705 41.3824 226.197" fill="#4FAD39"/>
<path d="M42.9016 233.762C42.8272 233.616 42.7646 233.464 42.7144 233.308L42.2543 232.05C41.6969 230.674 41.3681 229.215 41.2806 227.733C41.213 226.237 41.5454 224.751 42.2436 223.426C42.4649 223.041 42.7287 222.682 43.03 222.356C43.1317 222.238 43.228 222.158 43.2868 222.099C43.3457 222.04 43.3831 222.014 43.3885 222.019C42.9935 222.481 42.6458 222.981 42.3506 223.512C41.6987 224.828 41.3896 226.287 41.4518 227.754C41.5436 229.218 41.8519 230.661 42.3666 232.034C42.5485 232.569 42.6876 233.008 42.7786 233.313C42.8326 233.459 42.8738 233.609 42.9016 233.762V233.762Z" fill="#263238"/>
<path d="M32.4692 215.92C32.5158 215.974 32.5587 216.031 32.5976 216.091C32.6832 216.225 32.8009 216.391 32.94 216.599C33.2343 217.043 33.6516 217.669 34.1652 218.493C35.1871 220.098 36.5674 222.335 38.0333 224.844C39.4992 227.353 40.7832 229.659 41.682 231.328C42.1368 232.163 42.4952 232.848 42.752 233.318L43.0249 233.853C43.0613 233.916 43.09 233.982 43.1105 234.051C43.0665 233.997 43.0288 233.938 42.9981 233.875L42.6932 233.34C42.4203 232.858 42.0512 232.19 41.5911 231.376C40.6655 229.712 39.3708 227.428 37.9049 224.919C36.439 222.41 35.0319 220.2 34.0368 218.595L32.8598 216.674C32.7314 216.46 32.6297 216.284 32.5441 216.139C32.509 216.07 32.4838 215.996 32.4692 215.92V215.92Z" fill="#263238"/>
<path d="M39.1622 229.199C38.22 228.079 37.0239 227.202 35.6735 226.639C34.323 226.075 32.8576 225.844 31.3993 225.962C30.661 226.026 29.7943 226.288 29.5856 227C29.377 227.711 29.928 228.412 30.5112 228.872C31.7453 229.808 33.2286 230.359 34.7745 230.454C36.3205 230.549 37.8601 230.185 39.1997 229.407" fill="#4FAD39"/>
<path d="M32.8491 227.733C32.9984 227.699 33.1508 227.681 33.3039 227.679C33.4814 227.659 33.6601 227.65 33.8389 227.653C34.0777 227.64 34.317 227.64 34.5558 227.653C34.848 227.669 35.1392 227.701 35.4278 227.749C35.7597 227.797 36.0884 227.865 36.4123 227.952C37.1555 228.149 37.8735 228.431 38.5523 228.792C39.2268 229.163 39.8553 229.612 40.4248 230.13C40.8832 230.557 41.3006 231.026 41.6714 231.531C41.8372 231.745 41.9496 231.959 42.0673 232.136C42.1641 232.289 42.2516 232.448 42.3294 232.612C42.4069 232.746 42.4697 232.888 42.5167 233.035C42.4846 233.035 42.2064 232.452 41.5697 231.606C41.4033 231.376 41.2247 231.154 41.0347 230.943C40.8146 230.698 40.5806 230.466 40.3338 230.247C39.7693 229.746 39.1501 229.31 38.4881 228.947C37.8219 228.59 37.1187 228.307 36.3909 228.102C36.0538 228.016 35.7328 227.936 35.4225 227.888C35.1413 227.835 34.8573 227.797 34.5718 227.776C33.5072 227.69 32.8491 227.77 32.8491 227.733Z" fill="#263238"/>
<path d="M253.33 76.0856C250.294 76.7434 247.192 77.0451 244.085 76.9844C239.677 76.8025 235.172 75.3793 231.887 72.1426C228.265 68.558 226.404 63.0475 222.439 59.9444C218.887 57.1517 213.398 57.2694 209.572 59.5913V84.8436C211.509 83.3295 215.099 80.2639 220.567 82.9604C222.733 84.0304 224.686 85.1806 226.773 86.4326C232.62 89.9475 238.65 89.6426 244.813 86.9087C247.114 85.8869 250.281 83.8431 254.208 79.4186C255.995 77.4338 254.593 75.8448 253.33 76.0856Z" fill="#4FAD39"/>
<path d="M209.904 170.177V59.2864C209.904 57.799 209.936 56.3064 209.904 54.8137V54.6265C209.894 54.5451 209.854 54.4702 209.793 54.416C209.731 54.3617 209.652 54.3318 209.57 54.3318C209.488 54.3318 209.408 54.3617 209.347 54.416C209.285 54.4702 209.246 54.5451 209.235 54.6265V165.169C209.235 166.748 209.235 168.331 209.235 169.909V170.177C209.246 170.258 209.285 170.333 209.347 170.387C209.408 170.442 209.488 170.472 209.57 170.472C209.652 170.472 209.731 170.442 209.793 170.387C209.854 170.333 209.894 170.258 209.904 170.177V170.177Z" fill="#263238"/>
<path d="M108.665 58.3181L108.06 54.5249C109.976 51.4085 110.657 47.688 109.97 44.0948C109.282 40.5016 107.275 37.2956 104.344 35.107C101.412 32.9185 97.7678 31.9056 94.1273 32.2676C90.4868 32.6295 87.1134 34.3401 84.6702 37.0631C82.227 39.7861 80.8907 43.3245 80.9239 46.9827C80.9572 50.641 82.3577 54.1545 84.85 56.8326C87.3424 59.5107 90.7464 61.1596 94.3928 61.4553C98.0393 61.751 101.664 60.672 104.556 58.4305V58.4305L108.665 58.3181Z" fill="white"/>
<path d="M108.665 58.3181H108.408L107.627 58.3555L104.551 58.4786C104.544 58.4793 104.536 58.4785 104.529 58.4761C104.522 58.4738 104.515 58.47 104.51 58.4649C104.504 58.4599 104.5 58.4537 104.497 58.4468C104.494 58.44 104.492 58.4326 104.492 58.4251C104.489 58.4128 104.489 58.3999 104.492 58.3876V58.3876L104.572 58.4625C102.694 59.947 100.477 60.9432 98.1202 61.3622C96.5752 61.6319 94.9976 61.6589 93.4443 61.4425C91.6771 61.1844 89.9713 60.608 88.4099 59.7412C86.6898 58.7678 85.1774 57.4664 83.9586 55.9105C82.6287 54.2292 81.6878 52.2742 81.2033 50.186C80.6926 47.9625 80.6926 45.6523 81.2033 43.4289C81.7534 41.0969 82.875 38.9385 84.4669 37.1479C85.2699 36.2303 86.1806 35.413 87.1793 34.7136C87.6876 34.3926 88.1959 34.0663 88.7202 33.7881L89.528 33.4082L89.9293 33.2209L90.3466 33.0711C92.5066 32.2688 94.8222 31.9741 97.1144 32.2098C99.2671 32.4401 101.341 33.1513 103.181 34.291C104.882 35.3309 106.358 36.6985 107.526 38.3142C108.568 39.7686 109.339 41.4 109.799 43.1292C109.885 43.5412 109.971 43.9478 110.051 44.3491C110.131 44.7503 110.147 45.1462 110.195 45.5368C110.27 46.2907 110.281 47.0495 110.227 47.8052C110.073 50.1828 109.338 52.4864 108.087 54.5142V54.4767C108.269 55.7019 108.408 56.6542 108.505 57.3122C108.547 57.6225 108.585 57.8472 108.606 58.0398C108.628 58.2325 108.638 58.2806 108.638 58.2806C108.638 58.2806 108.638 58.1897 108.585 58.0238C108.531 57.8579 108.51 57.6012 108.457 57.2855C108.344 56.6381 108.184 55.6805 107.975 54.4928C107.973 54.4804 107.973 54.4677 107.975 54.4553C109.197 52.4359 109.911 50.1504 110.056 47.7945C110.104 47.0473 110.088 46.2973 110.008 45.5528C109.96 45.173 109.938 44.7771 109.858 44.3812C109.778 43.9853 109.692 43.5894 109.601 43.1827C108.632 39.561 106.299 36.455 103.09 34.5157C101.282 33.3993 99.2445 32.7062 97.1304 32.488C94.8796 32.2564 92.6056 32.5475 90.4857 33.3387L90.0791 33.4831L89.6832 33.6704L88.8914 34.0449C88.3564 34.3177 87.8802 34.6387 87.3773 34.9544C86.3944 35.6412 85.4965 36.4421 84.7023 37.3405C83.1387 39.0976 82.0357 41.2153 81.4922 43.5038C80.9817 45.6826 80.9707 47.9488 81.4601 50.1325C81.9245 52.185 82.8381 54.109 84.1352 55.7661C85.329 57.3003 86.8122 58.5854 88.5008 59.5486C90.0368 60.4081 91.7149 60.9844 93.455 61.2499C94.9874 61.4718 96.5451 61.4538 98.0721 61.1964C100.408 60.7931 102.611 59.8293 104.492 58.3876C104.503 58.3775 104.517 58.3718 104.532 58.3718C104.547 58.3718 104.561 58.3775 104.572 58.3876C104.581 58.3973 104.585 58.4096 104.585 58.4224C104.585 58.4351 104.581 58.4475 104.572 58.4572L104.53 58.3662L107.568 58.3074H108.366L108.665 58.3181Z" fill="#263238"/>
<path d="M103.625 32.9481H87.575C87.5215 33.0872 86.4515 48.0032 95.6001 48.2867C104.759 47.9978 103.689 33.0819 103.625 32.9481Z" fill="#4FAD39"/>
<path d="M104.647 31.4822H86.5582C86.1563 31.4822 85.8306 31.808 85.8306 32.2098V32.6378C85.8306 33.0397 86.1563 33.3655 86.5582 33.3655H104.647C105.049 33.3655 105.374 33.0397 105.374 32.6378V32.2098C105.374 31.808 105.049 31.4822 104.647 31.4822Z" fill="#4FAD39"/>
<path d="M90.5871 45.7187C87.6927 44.959 85.7399 42.8511 84.9481 39.6143C84.59 38.1049 84.4816 36.547 84.6271 35.0025L84.686 34.5424H88.8001V35.6124H85.6383C85.5722 36.8884 85.6875 38.1674 85.9807 39.411C86.6869 42.2679 88.3293 44.0548 90.8546 44.7182L90.5871 45.7187Z" fill="#4FAD39"/>
<path d="M100.597 45.7187L100.33 44.7022C102.871 44.0388 104.513 42.2412 105.214 39.3522C105.501 38.1257 105.614 36.8651 105.551 35.6071H102.389V34.5532H106.504L106.562 35.0133C106.708 36.558 106.597 38.1161 106.236 39.625C105.45 42.8511 103.497 44.959 100.597 45.7187Z" fill="#4FAD39"/>
<path d="M97.2051 49.1641C96.9154 48.1157 96.7361 47.0398 96.6701 45.9541H94.5301C94.4641 47.0398 94.2848 48.1157 93.9951 49.1641C92.802 53.9792 88.5273 54.252 88.5273 54.252V55.6163H102.651V54.252C102.651 54.252 98.3982 53.9899 97.2051 49.1641Z" fill="#4FAD39"/>
<path d="M104.16 33.3012C104.16 33.3761 100.362 33.4403 95.6859 33.4403C91.01 33.4403 87.2114 33.3761 87.2114 33.3012C87.2114 33.2263 91.0046 33.1621 95.6859 33.1621C100.367 33.1621 104.16 33.2263 104.16 33.3012Z" fill="#263238"/>
<path d="M102.02 43.6482C101.965 43.8609 101.888 44.0671 101.79 44.2635C101.527 44.8037 101.202 45.3118 100.822 45.7776C100.245 46.4688 99.5379 47.0396 98.7406 47.4575C97.7558 47.9595 96.6625 48.2112 95.5573 48.1904C94.4512 48.196 93.3617 47.9218 92.3901 47.3933C91.6103 46.9468 90.9267 46.3504 90.3784 45.6385C90.0066 45.1677 89.6806 44.6625 89.4047 44.1297C89.2919 43.9421 89.2038 43.7407 89.1426 43.5305C89.1907 43.4984 89.5813 44.3598 90.5282 45.5154C91.0836 46.1829 91.7562 46.7431 92.5131 47.1686C93.4493 47.6711 94.4947 47.9357 95.5573 47.939C96.6191 47.9575 97.6699 47.7228 98.6229 47.2542C99.3989 46.8523 100.092 46.3078 100.667 45.6492C101.178 45.0253 101.632 44.3555 102.02 43.6482Z" fill="#263238"/>
<path opacity="0.3" d="M96.0335 37.2282L96.5685 38.357C96.6027 38.4259 96.6533 38.4852 96.7158 38.53C96.7783 38.5748 96.8508 38.6035 96.9269 38.6138L98.1735 38.7957C98.2604 38.8083 98.3421 38.8448 98.4093 38.9014C98.4766 38.9579 98.5266 39.0321 98.5539 39.1155C98.5812 39.199 98.5846 39.2885 98.5637 39.3738C98.5428 39.4591 98.4984 39.5368 98.4356 39.5983L97.5529 40.4382C97.4976 40.4912 97.4565 40.5571 97.4331 40.6299C97.4098 40.7028 97.405 40.7803 97.4191 40.8555L97.6331 42.0967C97.6471 42.1839 97.6365 42.2732 97.6027 42.3547C97.5688 42.4361 97.513 42.5066 97.4414 42.5582C97.3698 42.6098 97.2853 42.6405 97.1973 42.6469C97.1093 42.6533 97.0212 42.6351 96.943 42.5943L95.8302 42.0058C95.7621 41.9714 95.687 41.9536 95.6108 41.9536C95.5346 41.9536 95.4595 41.9714 95.3915 42.0058L94.2787 42.5943C94.2004 42.6351 94.1123 42.6533 94.0243 42.6469C93.9363 42.6405 93.8518 42.6098 93.7802 42.5582C93.7086 42.5066 93.6528 42.4361 93.6189 42.3547C93.5851 42.2732 93.5745 42.1839 93.5885 42.0967L93.8025 40.8555C93.8167 40.7803 93.8118 40.7028 93.7885 40.6299C93.7651 40.5571 93.724 40.4912 93.6687 40.4382L92.7646 39.5555C92.7018 39.494 92.6575 39.4163 92.6366 39.331C92.6157 39.2457 92.619 39.1562 92.6463 39.0727C92.6736 38.9893 92.7237 38.9151 92.7909 38.8586C92.8581 38.802 92.9398 38.7655 93.0267 38.7529L94.2733 38.571C94.3495 38.5608 94.422 38.532 94.4845 38.4872C94.5469 38.4424 94.5975 38.3831 94.6318 38.3142L95.1668 37.1854C95.2069 37.1019 95.2708 37.0321 95.3504 36.9847C95.43 36.9374 95.5218 36.9145 95.6143 36.9191C95.7068 36.9237 95.796 36.9554 95.8705 37.0104C95.9451 37.0654 96.0018 37.1411 96.0335 37.2282V37.2282Z" fill="black"/>
<path d="M102.4 54.3109C102.4 54.3858 99.2703 54.45 95.413 54.45C91.5556 54.45 88.4258 54.3858 88.4258 54.3109C88.4258 54.236 91.5502 54.1718 95.413 54.1718C99.2757 54.1718 102.4 54.2307 102.4 54.3109Z" fill="#263238"/>
<path d="M169.372 103.703C169.543 103.703 171.512 103.505 171.919 102.948C172.029 102.754 172.091 102.535 172.099 102.311C172.106 102.088 172.059 101.866 171.962 101.664C172.353 101.348 172.626 100.908 172.737 100.418C172.748 99.9092 172.596 99.4106 172.304 98.9945L172.497 98.3579C172.595 98.1392 172.631 97.8975 172.601 97.6596C172.571 97.4216 172.476 97.1967 172.325 97.0096C171.919 96.7249 171.61 96.3212 171.443 95.854C171.25 95.1585 169.078 94.8696 168.024 94.661C166.97 94.4523 165.558 94.1527 164.477 95.4635C163.027 97.2236 160.577 100 160.577 100L162.642 105.639C162.642 105.639 163.567 106.174 165.627 105.677C166.996 105.279 168.27 104.607 169.372 103.703V103.703Z" fill="#FFBF9D"/>
<path d="M168.163 102.6L182.48 180.615L183.068 180.417L169.731 101.284L168.163 102.6Z" fill="#455A64"/>
<path d="M167.157 99.567C167.157 99.567 166.119 96.5709 164.926 95.3993C163.733 94.2276 162.663 93.7087 163.958 92.8366C165.252 91.9646 168.511 90.6966 168.874 91.681C169.238 92.6654 168.783 92.216 168.644 93.0132C168.505 93.8103 170.003 97.2665 170.437 98.6842C170.87 100.102 172.512 104.569 171.919 104.933C171.496 105.185 169.393 105.415 168.243 105.527C168.145 105.536 168.045 105.526 167.951 105.496C167.857 105.466 167.77 105.418 167.695 105.353C167.62 105.289 167.558 105.21 167.515 105.121C167.471 105.032 167.446 104.936 167.441 104.837L167.157 99.567Z" fill="#263238"/>
<path d="M174.401 100.097C174.198 98.935 173.705 97.8433 172.968 96.9223C172.231 96.0013 171.274 95.2807 170.186 94.8269C167.511 93.7568 167.874 94.1795 167.874 94.1795L167.575 95.3084C171.015 95.1586 172.39 98.0262 172.807 98.6361C173.342 99.4011 173.717 101.236 173.01 101.654C172.304 102.071 170.731 101.247 170.731 101.247L169.838 101.91C169.838 101.91 172.31 103.317 173.428 103.312C174.546 103.307 174.781 102.14 174.401 100.097Z" fill="#263238"/>
<path d="M176.729 138.703C176.737 138.95 176.672 139.194 176.541 139.405C176.411 139.615 176.221 139.782 175.996 139.884C175.77 139.987 175.519 140.02 175.275 139.98C175.031 139.94 174.804 139.829 174.623 139.66C174.442 139.491 174.315 139.272 174.259 139.031C174.202 138.79 174.218 138.538 174.305 138.306C174.392 138.074 174.545 137.873 174.746 137.728C174.947 137.584 175.187 137.502 175.434 137.494C175.766 137.483 176.088 137.605 176.33 137.831C176.573 138.058 176.716 138.371 176.729 138.703V138.703Z" fill="#455A64"/>
<path d="M181.052 163.591C181.051 163.8 180.99 164.005 180.874 164.18C180.759 164.354 180.595 164.491 180.403 164.573C180.21 164.656 179.998 164.68 179.792 164.643C179.586 164.606 179.395 164.509 179.244 164.365C179.092 164.22 178.986 164.035 178.939 163.831C178.892 163.627 178.906 163.414 178.979 163.217C179.051 163.021 179.18 162.851 179.349 162.727C179.518 162.603 179.719 162.532 179.928 162.521C180.073 162.514 180.218 162.536 180.354 162.587C180.49 162.637 180.614 162.715 180.72 162.815C180.825 162.915 180.908 163.035 180.965 163.169C181.022 163.302 181.052 163.446 181.052 163.591Z" fill="#455A64"/>
<path d="M171.726 99.1069C171.026 99.3576 170.299 99.5246 169.56 99.6044C169.217 99.6419 168.875 99.6579 168.532 99.7275C168.19 99.781 167.866 99.9189 167.591 100.129C167.453 100.233 167.34 100.366 167.259 100.519C167.178 100.671 167.13 100.839 167.12 101.011C167.115 101.185 167.163 101.356 167.259 101.5C167.355 101.645 167.493 101.756 167.655 101.819C167.495 101.904 167.369 102.041 167.298 102.208C167.228 102.375 167.218 102.561 167.27 102.734C167.328 102.906 167.424 103.063 167.551 103.192C167.678 103.322 167.832 103.421 168.003 103.483C168.346 103.607 168.708 103.667 169.073 103.66C169.611 103.679 170.149 103.637 170.678 103.537C171.142 103.467 171.571 103.248 171.898 102.911C172.052 102.738 172.141 102.516 172.149 102.285C172.157 102.053 172.083 101.826 171.94 101.643C172.231 101.407 172.422 101.071 172.475 100.701" fill="#FFBF9D"/>
<path d="M167.318 99.46C167.125 99.3761 166.963 99.2352 166.853 99.0564C166.743 98.8775 166.69 98.6692 166.702 98.4595C166.761 97.978 167.237 97.6624 167.692 97.4858C168.796 97.1298 169.952 96.9651 171.111 96.999L171.673 97.336C171.796 97.5626 171.886 97.8059 171.94 98.0583C171.966 98.1842 171.964 98.3144 171.933 98.4393C171.903 98.5642 171.845 98.6808 171.764 98.7805C171.58 98.9465 171.354 99.0577 171.111 99.1015C170.397 99.3458 169.657 99.5091 168.907 99.5884C168.374 99.6567 167.833 99.613 167.318 99.46V99.46Z" fill="#FFBF9D"/>
<path d="M171.962 101.664C171.574 101.609 171.181 101.593 170.79 101.616C170.068 101.616 169.067 101.616 167.965 101.664H167.553H167.43C167.378 101.678 167.329 101.706 167.291 101.744C167.231 101.808 167.187 101.885 167.163 101.969C167.116 102.236 167.131 102.511 167.206 102.772C167.265 103.018 167.414 103.233 167.623 103.376C167.795 103.495 167.987 103.58 168.19 103.628C168.473 103.702 168.765 103.734 169.057 103.724C169.265 103.724 169.378 103.697 169.372 103.681C169.367 103.665 168.918 103.681 168.244 103.462C168.053 103.423 167.877 103.334 167.734 103.203C167.591 103.072 167.486 102.904 167.43 102.718C167.367 102.497 167.356 102.265 167.398 102.039C167.404 101.994 167.425 101.953 167.457 101.921C167.495 101.894 167.457 101.921 167.564 101.921H167.976C169.078 101.889 170.073 101.841 170.795 101.798C171.188 101.795 171.579 101.75 171.962 101.664Z" fill="#FF9A6C"/>
<path d="M172.304 98.9946C171.975 98.9856 171.646 99.0162 171.325 99.0855C170.726 99.1711 169.891 99.3102 168.971 99.4707H168.896C168.422 99.4779 167.959 99.6108 167.553 99.8559C167.383 99.9636 167.243 100.114 167.149 100.293C167.056 100.471 167.01 100.671 167.018 100.872C167.036 101.135 167.127 101.387 167.28 101.6C167.387 101.744 167.467 101.809 167.478 101.798C167.489 101.787 167.441 101.702 167.366 101.552C167.255 101.342 167.196 101.109 167.194 100.872C167.197 100.705 167.242 100.54 167.327 100.395C167.411 100.25 167.531 100.128 167.676 100.043C168.051 99.8337 168.472 99.7215 168.901 99.7168H169.019C169.934 99.551 170.763 99.3851 171.357 99.2567C171.682 99.2086 172 99.1205 172.304 98.9946V98.9946Z" fill="#FF9A6C"/>
<path d="M172.325 97.0097C171.851 97.145 171.391 97.3241 170.95 97.5447H170.988C170.201 97.5447 169.137 97.5447 167.97 97.5447H167.221H167.163L167.13 97.5822C166.949 97.7856 166.804 98.0192 166.702 98.2723C166.602 98.5173 166.589 98.7892 166.665 99.0427C166.7 99.1613 166.761 99.2707 166.844 99.3631C166.926 99.4556 167.027 99.5288 167.141 99.5777C167.312 99.6477 167.492 99.691 167.676 99.7061C167.942 99.7286 168.21 99.7178 168.473 99.674C168.655 99.6419 168.757 99.6098 168.752 99.5938C168.746 99.5777 168.34 99.6312 167.682 99.5456C167.377 99.5028 166.938 99.3958 166.831 99.0106C166.799 98.7869 166.822 98.5587 166.898 98.346C166.975 98.1333 167.102 97.9427 167.27 97.7908L167.184 97.8283H167.938C169.105 97.8283 170.164 97.7962 170.956 97.7641H171.036C171.488 97.5527 171.92 97.3002 172.325 97.0097V97.0097Z" fill="#FF9A6C"/>
<path d="M162.204 99.7222C162.204 99.7222 164.847 95.7685 164.975 95.7043C165.103 95.6401 169.335 95.0944 170.325 95.5224C171.315 95.9504 172.465 96.5603 172.465 96.5603C172.465 96.5603 172.609 97.6303 170.924 97.7266C169.239 97.8229 167.489 97.7641 167.489 97.7641L166.569 99.1123C166.569 99.1123 166.944 102.718 163.75 103.735" fill="#FFBF9D"/>
<path d="M163.734 103.735C163.87 103.699 164.004 103.657 164.135 103.606C164.295 103.551 164.449 103.48 164.595 103.392C164.791 103.29 164.977 103.17 165.151 103.034C165.623 102.623 165.99 102.106 166.221 101.525C166.528 100.765 166.66 99.946 166.607 99.1283V99.1925L167.537 97.8496L167.452 97.8978C168.265 97.8978 169.126 97.8978 170.031 97.8978C170.496 97.899 170.961 97.8669 171.422 97.8015C171.669 97.7526 171.903 97.6504 172.106 97.5019C172.323 97.3428 172.472 97.1078 172.524 96.8438C172.537 96.7534 172.537 96.6614 172.524 96.571V96.5121H172.465L171.293 95.945L170.721 95.6668C170.534 95.5673 170.338 95.4832 170.138 95.4153C169.731 95.3305 169.316 95.2946 168.902 95.3083C168.5 95.3083 168.115 95.3083 167.735 95.3458C166.976 95.3993 166.264 95.4742 165.595 95.5598L165.098 95.6347H164.975H164.9L164.83 95.6989C164.771 95.7738 164.729 95.8273 164.681 95.8969L164.172 96.6352C163.53 97.5768 163.027 98.3525 162.68 98.8875L162.289 99.5081C162.241 99.5788 162.2 99.6541 162.166 99.7328C162.226 99.6724 162.28 99.6061 162.327 99.5349L162.755 98.9357L164.301 96.7261L164.836 95.9985L164.975 95.822C164.975 95.822 164.975 95.822 164.975 95.7792C165.002 95.8327 165.002 95.8166 165.002 95.8166H165.034H165.146L165.633 95.7471C166.296 95.6668 167.013 95.6026 167.773 95.5598C168.153 95.5598 168.538 95.5224 168.928 95.5224C169.322 95.5145 169.715 95.5504 170.1 95.6294C170.284 95.6985 170.463 95.7808 170.635 95.8754L171.202 96.1537L172.363 96.7154L172.304 96.6298C172.314 96.6954 172.314 96.7621 172.304 96.8278C172.246 97.036 172.125 97.2216 171.959 97.3601C171.793 97.4986 171.589 97.5835 171.373 97.6035C170.927 97.6683 170.476 97.7005 170.025 97.6998C169.132 97.6998 168.27 97.6998 167.463 97.6998H167.404L167.372 97.7426C167.056 98.2134 166.746 98.6628 166.457 99.0962V99.1229V99.1604C166.513 99.9483 166.397 100.739 166.114 101.477C165.895 102.043 165.547 102.551 165.098 102.959C164.675 103.27 164.217 103.531 163.734 103.735V103.735Z" fill="#FF9A6C"/>
<path d="M160.903 98.909L145.27 101.247L140.953 86.3577L135.726 108.635L138.936 110.818C139.928 111.489 141.057 111.932 142.24 112.117C143.424 112.302 144.634 112.224 145.784 111.888L163.562 107.073L160.903 98.909Z" fill="#4FAD39"/>
<path d="M135.191 77.8351L136.689 77.9046L137.534 78.2524C140.17 82.9531 141.675 88.2026 141.932 93.5856L142.183 99.353L142.098 135.68L129.793 133.979L128.236 123.428L135.191 77.8351Z" fill="#4FAD39"/>
<path opacity="0.3" d="M141.729 133.09C141.729 133.09 141.729 120.983 141.82 116.388C141.911 111.792 140.504 95.1586 140.504 95.1586C140.504 95.1586 135.33 129.04 135.512 129.094C135.694 129.147 141.729 133.09 141.729 133.09Z" fill="black"/>
<path d="M140.15 85.8388C140.189 85.9212 140.219 86.0072 140.241 86.0956C140.294 86.2989 140.364 86.545 140.444 86.8446C140.605 87.508 140.803 88.4496 140.979 89.6694C141.343 92.0663 141.589 95.4101 141.766 99.1016C141.942 102.793 142.017 106.132 142.113 108.55C142.167 109.727 142.21 110.69 142.242 111.412C142.242 111.722 142.269 111.979 142.279 112.188C142.289 112.279 142.289 112.37 142.279 112.461C142.249 112.375 142.23 112.284 142.226 112.193C142.226 111.985 142.172 111.728 142.14 111.417C142.071 110.743 141.996 109.77 141.921 108.56C141.776 106.142 141.659 102.798 141.493 99.1123C141.327 95.4261 141.102 92.093 140.792 89.6962C140.642 88.4978 140.476 87.5562 140.353 86.8714L140.193 86.1063C140.164 86.02 140.15 85.9297 140.15 85.8388V85.8388Z" fill="#263238"/>
<path d="M118.157 197.195L117.301 203.888L117.408 204.749C117.408 204.749 128.215 206.862 128.643 208.724L108.944 211.934L108.184 207.413L109.254 196.387L118.157 197.195Z" fill="#263238"/>
<path d="M111.179 204.91C111 204.998 110.859 205.149 110.784 205.335C110.709 205.52 110.705 205.727 110.773 205.915C110.853 206.1 111.002 206.245 111.187 206.322C111.373 206.399 111.581 206.401 111.768 206.327C111.959 206.233 112.108 206.072 112.186 205.874C112.264 205.676 112.266 205.456 112.191 205.257C112.087 205.077 111.918 204.944 111.718 204.886C111.519 204.828 111.304 204.85 111.121 204.947" fill="#E0E0E0"/>
<path d="M108.938 211.961L108.735 210.356L127.701 207.895C127.701 207.895 128.642 208.136 128.642 208.767L108.938 211.961Z" fill="#455A64"/>
<path d="M117.712 204.615C117.712 204.712 117.252 204.835 116.829 205.22C116.407 205.605 116.219 206.054 116.123 206.028C116.027 206.001 116.08 205.429 116.605 204.958C117.129 204.487 117.717 204.524 117.712 204.615Z" fill="white"/>
<path d="M119.917 205.134C119.954 205.225 119.563 205.455 119.307 205.915C119.05 206.375 119.018 206.819 118.921 206.83C118.825 206.841 118.675 206.295 119.012 205.76C119.349 205.225 119.901 205.043 119.917 205.134Z" fill="white"/>
<path d="M121.495 207.413C121.409 207.451 121.195 206.991 121.361 206.424C121.527 205.857 121.934 205.573 121.987 205.648C122.041 205.723 121.81 206.049 121.687 206.515C121.564 206.98 121.586 207.392 121.495 207.413Z" fill="white"/>
<path d="M169.046 179.251L169.099 185.997L169.324 186.837C169.324 186.837 180.318 187.474 180.987 189.261L161.904 195.103L160.539 190.732L160.101 179.663L169.046 179.251Z" fill="#263238"/>
<path d="M163.171 187.816C163.001 187.929 162.88 188.101 162.83 188.299C162.781 188.497 162.807 188.706 162.904 188.886C163.009 189.057 163.176 189.181 163.371 189.231C163.565 189.282 163.771 189.256 163.947 189.159C164.123 189.04 164.249 188.86 164.3 188.653C164.352 188.447 164.325 188.229 164.225 188.041C164.096 187.874 163.907 187.765 163.698 187.735C163.49 187.705 163.278 187.757 163.107 187.88" fill="#E0E0E0"/>
<path d="M161.904 195.103L161.486 193.541L179.939 188.528C179.939 188.528 180.902 188.635 181.009 189.261L161.904 195.103Z" fill="#455A64"/>
<path d="M169.608 186.645C169.608 186.741 169.18 186.923 168.81 187.361C168.441 187.8 168.318 188.271 168.222 188.26C168.126 188.25 168.099 187.666 168.554 187.142C169.008 186.618 169.597 186.554 169.608 186.645Z" fill="white"/>
<path d="M171.86 186.858C171.908 186.944 171.555 187.228 171.357 187.714C171.159 188.201 171.196 188.651 171.105 188.677C171.014 188.704 170.79 188.191 171.046 187.607C171.303 187.024 171.833 186.773 171.86 186.858Z" fill="white"/>
<path d="M173.711 188.908C173.631 188.95 173.358 188.528 173.444 187.944C173.529 187.361 173.898 187.024 173.979 187.088C174.059 187.153 173.856 187.511 173.791 187.993C173.727 188.474 173.818 188.87 173.711 188.908Z" fill="white"/>
<path d="M125.882 77.8404L124.961 57.7242C124.566 52.7273 127.15 48.3349 132.157 48.0941H132.617C134.87 48.111 137.033 48.9753 138.676 50.5149C140.32 52.0545 141.324 54.1566 141.488 56.4028C141.803 60.7363 142.098 65.5246 142.05 67.8519C141.953 72.6669 137.138 73.3678 137.138 73.3678C137.138 73.3678 137.208 76.2943 137.256 77.7013L138.497 80.9595L134.511 80.1302L125.882 77.8404Z" fill="#FFBF9D"/>
<path d="M137.138 73.357C134.925 73.3337 132.764 72.6785 130.911 71.4684C130.911 71.4684 132.393 75.0958 137.192 74.6785L137.138 73.357Z" fill="#FF9A6C"/>
<path d="M139.909 60.5758C139.909 60.7546 139.839 60.9264 139.714 61.0544C139.589 61.1824 139.419 61.2564 139.24 61.2606C139.153 61.2671 139.066 61.2561 138.983 61.2282C138.9 61.2004 138.824 61.1562 138.759 61.0984C138.694 61.0405 138.64 60.9701 138.603 60.8914C138.565 60.8126 138.544 60.7271 138.54 60.64C138.538 60.4602 138.607 60.287 138.733 60.1579C138.858 60.0287 139.029 59.954 139.208 59.9498C139.296 59.944 139.383 59.9557 139.466 59.9842C139.549 60.0126 139.625 60.0573 139.69 60.1156C139.755 60.1739 139.808 60.2446 139.846 60.3236C139.884 60.4026 139.905 60.4884 139.909 60.5758Z" fill="#263238"/>
<path d="M140.45 58.5107C140.364 58.5963 139.845 58.2057 139.107 58.2057C138.369 58.2057 137.823 58.5642 137.743 58.4732C137.662 58.3823 137.791 58.2753 138.032 58.1041C138.346 57.8882 138.72 57.7743 139.102 57.7777C139.487 57.7766 139.862 57.9005 140.172 58.1308C140.418 58.3074 140.493 58.4679 140.45 58.5107Z" fill="#263238"/>
<path d="M133.163 60.6828C133.163 60.8616 133.093 61.0334 132.968 61.1614C132.843 61.2894 132.673 61.3634 132.494 61.3676C132.407 61.3741 132.319 61.3632 132.236 61.3353C132.153 61.3075 132.077 61.2635 132.011 61.2057C131.945 61.1479 131.891 61.0775 131.853 60.9988C131.815 60.92 131.793 60.8344 131.788 60.747C131.788 60.5676 131.858 60.3952 131.983 60.2664C132.107 60.1375 132.278 60.0624 132.457 60.0568C132.545 60.0503 132.633 60.0614 132.716 60.0895C132.799 60.1177 132.876 60.1622 132.942 60.2206C133.008 60.279 133.061 60.3499 133.099 60.4293C133.137 60.5087 133.159 60.5949 133.163 60.6828V60.6828Z" fill="#263238"/>
<path d="M133.2 58.6284C133.115 58.7194 132.601 58.3288 131.863 58.3234C131.124 58.3181 130.579 58.6873 130.499 58.5963C130.418 58.5054 130.547 58.393 130.782 58.2218C131.098 58.009 131.471 57.8953 131.852 57.8954C132.237 57.898 132.611 58.0215 132.922 58.2485C133.168 58.4197 133.243 58.5856 133.2 58.6284Z" fill="#263238"/>
<path d="M135.811 64.3209C136.201 64.2047 136.603 64.1364 137.009 64.1176C137.202 64.1176 137.379 64.0641 137.411 63.9303C137.425 63.7443 137.384 63.5583 137.293 63.3953L136.758 61.9508C135.998 59.9017 135.453 58.2057 135.538 58.2057C136.142 59.3835 136.652 60.6071 137.063 61.8652L137.598 63.315C137.715 63.5443 137.749 63.8071 137.694 64.0587C137.665 64.1249 137.622 64.1839 137.567 64.2311C137.513 64.2783 137.448 64.3127 137.379 64.3316C137.274 64.3602 137.166 64.3746 137.058 64.3744C136.641 64.4112 136.222 64.3932 135.811 64.3209V64.3209Z" fill="#263238"/>
<path d="M133.463 56.3118C133.356 56.499 132.644 56.3118 131.772 56.2743C130.9 56.2369 130.167 56.376 130.081 56.1834C130.044 56.0871 130.194 55.9212 130.499 55.7714C130.906 55.5894 131.35 55.5034 131.797 55.5201C132.243 55.5368 132.679 55.6557 133.072 55.8677C133.372 56.0443 133.505 56.2262 133.463 56.3118Z" fill="#263238"/>
<path d="M140.498 56.3332C140.348 56.5044 139.744 56.3332 139.022 56.3332C138.299 56.3332 137.684 56.4563 137.545 56.2797C137.481 56.1941 137.577 56.0283 137.845 55.8624C138.213 55.6658 138.626 55.5681 139.043 55.5789C139.46 55.5794 139.869 55.6942 140.225 55.9106C140.482 56.0818 140.568 56.253 140.498 56.3332Z" fill="#263238"/>
<path d="M125.325 61.3035C125.245 61.2714 122.029 60.303 122.115 63.5933C122.201 66.8836 125.48 66.1239 125.48 66.0276C125.48 65.9313 125.325 61.3035 125.325 61.3035Z" fill="#FFBF9D"/>
<path d="M124.442 64.7917C124.442 64.7917 124.384 64.8291 124.287 64.8773C124.22 64.9067 124.147 64.9219 124.073 64.9219C124 64.9219 123.927 64.9067 123.859 64.8773C123.645 64.7461 123.469 64.5609 123.349 64.3402C123.229 64.1196 123.168 63.8712 123.174 63.62C123.16 63.3385 123.208 63.0573 123.314 62.7961C123.341 62.6919 123.394 62.5963 123.468 62.5178C123.542 62.4393 123.634 62.3805 123.736 62.3467C123.802 62.3259 123.873 62.3296 123.936 62.3572C123.999 62.3848 124.049 62.4343 124.079 62.4965C124.121 62.5874 124.105 62.6516 124.121 62.657C124.137 62.6623 124.191 62.5981 124.159 62.4644C124.14 62.3827 124.093 62.3105 124.025 62.2611C123.98 62.2284 123.929 62.205 123.875 62.1921C123.821 62.1793 123.764 62.1773 123.709 62.1862C123.573 62.2165 123.447 62.2818 123.344 62.3757C123.241 62.4695 123.164 62.5886 123.121 62.7212C122.989 63.0092 122.928 63.3249 122.944 63.6414C122.935 63.9351 123.013 64.2249 123.168 64.4744C123.323 64.7238 123.549 64.9217 123.816 65.0431C123.907 65.0688 124.003 65.073 124.096 65.0553C124.189 65.0377 124.276 64.9987 124.351 64.9415C124.437 64.8666 124.453 64.797 124.442 64.7917Z" fill="#FF9A6C"/>
<path d="M133.505 64.8558C133.617 64.8558 133.65 65.5995 134.318 66.1131C134.987 66.6267 135.784 66.509 135.795 66.616C135.806 66.723 135.618 66.7712 135.26 66.7926C134.818 66.8145 134.382 66.68 134.029 66.4127C133.858 66.2853 133.714 66.125 133.606 65.9413C133.498 65.7575 133.427 65.554 133.398 65.3427C133.377 65.0484 133.457 64.8558 133.505 64.8558Z" fill="#263238"/>
<path d="M147.977 51.8445C147.916 51.6516 147.782 51.4903 147.603 51.3951C147.213 51.2314 146.787 51.1724 146.367 51.2239C145.318 51.2265 144.283 50.9905 143.339 50.5337C143.662 50.369 143.956 50.1541 144.211 49.8971C144.479 49.6327 144.671 49.3004 144.765 48.9358C144.859 48.5712 144.853 48.1878 144.746 47.8266C144.728 47.7584 144.695 47.6952 144.649 47.6422C144.602 47.5893 144.544 47.5479 144.479 47.5216C144.265 47.4574 144.083 47.6714 143.944 47.8426C143.76 48.1045 143.508 48.3118 143.217 48.4427C142.925 48.5736 142.603 48.6232 142.285 48.5863C141.845 48.5731 141.414 48.4558 141.028 48.2439C141.012 48.231 140.998 48.2167 140.985 48.2011L140.45 47.7036C139.468 46.6715 138.294 45.841 136.994 45.2586C135.069 44.6046 133.003 44.4899 131.018 44.9269C129.354 45.403 127.883 46.794 127.685 48.5114C126.732 47.741 125.32 47.7784 124.186 48.2653H124.159C122.896 48.7522 122.201 50.1111 121.853 51.4165C121.853 51.4914 121.821 51.5609 121.8 51.6358C121.388 52.3332 120.813 52.9205 120.125 53.3479C120.002 53.4228 119.863 53.5137 119.852 53.6528C119.842 53.7919 119.965 53.9096 120.077 53.9899C120.39 54.2002 120.747 54.3373 121.12 54.3911C121.012 54.7031 120.878 55.0055 120.719 55.2953C120.58 55.5414 120.414 55.8303 120.548 56.0871C120.607 56.1798 120.693 56.2521 120.794 56.2942C120.896 56.3364 121.008 56.3462 121.115 56.3225C121.327 56.2699 121.526 56.1733 121.698 56.0389L121.297 57.0715C121.76 57.1379 122.233 57.0958 122.677 56.9484C122.977 58.1576 123.212 60.3992 123.56 61.2285C124.437 61.2285 124.63 61.1215 125.09 61.2606C125.662 61.4371 125.47 62.4483 126.203 62.1487C126.577 61.9935 127.123 60.5437 127.241 60.1638C128.023 57.5832 128.24 54.8643 127.877 52.1922C128.395 51.6176 129.018 51.1473 129.712 50.8066L129.659 50.8601C130.991 50.3625 132.5 49.8703 133.789 50.4749C134.79 50.9403 135.394 51.9568 136.154 52.7594C136.795 53.4928 137.584 54.0823 138.469 54.4889C139.354 54.8956 140.316 55.1102 141.29 55.1187C141.509 56.5632 141.622 58.9387 141.723 60.2922L142.82 57.553C142.911 57.3925 142.981 57.232 143.055 57.0715V57.018C143.163 56.7534 143.285 56.4945 143.419 56.2422V56.2422C143.579 56.3705 143.781 56.4361 143.986 56.4269C144.19 56.4176 144.385 56.3342 144.533 56.1921C144.681 56.0501 144.772 55.859 144.79 55.6546C144.807 55.4503 144.75 55.2465 144.628 55.0813C144.511 54.9265 144.37 54.7911 144.211 54.68C144.381 54.8357 144.589 54.945 144.814 54.9975C145.039 55.05 145.273 55.0438 145.495 54.9796C145.715 54.9033 145.903 54.7576 146.032 54.5646C146.162 54.3715 146.225 54.1416 146.212 53.9096C146.191 53.7557 146.131 53.6098 146.037 53.486C145.944 53.3622 145.82 53.2649 145.677 53.2034C146.275 53.239 146.87 53.0936 147.384 52.7861C147.78 52.5935 148.1 52.2671 147.977 51.8445Z" fill="#263238"/>
<path d="M129.247 49.0303C129.08 49.1714 128.923 49.3233 128.776 49.4851C128.407 49.9505 128.163 50.5033 128.07 51.0901C127.995 51.494 127.963 51.9046 127.973 52.3153C127.973 52.7593 128.027 53.2301 128.075 53.733C128.131 54.2554 128.155 54.7807 128.145 55.306C128.135 55.5878 128.105 55.8686 128.054 56.1459C128.019 56.4402 127.908 56.7204 127.733 56.9591C127.652 57.0557 127.547 57.1289 127.428 57.1712C127.31 57.2136 127.182 57.2234 127.059 57.1999C126.82 57.1624 126.602 57.0455 126.438 56.8682C126.171 56.5156 126.003 56.0982 125.951 55.6591H126.047C125.921 56.0246 125.741 56.3691 125.512 56.6809C125.283 56.9702 124.952 57.1615 124.587 57.2159C124.417 57.2357 124.245 57.2079 124.089 57.1357C123.946 57.0655 123.826 56.9536 123.747 56.8147C123.671 56.6848 123.633 56.5369 123.635 56.3867C123.639 56.2491 123.69 56.1171 123.779 56.0122L123.833 56.055C123.555 56.3903 123.208 56.6622 122.816 56.8521C122.714 56.9034 122.608 56.9481 122.5 56.9859L122.351 57.0233C122.384 57.0021 122.42 56.9859 122.458 56.9752L122.768 56.8254C123.145 56.6239 123.478 56.3493 123.747 56.0175L123.8 56.0603C123.726 56.1648 123.685 56.2902 123.685 56.4188C123.685 56.5474 123.726 56.6727 123.8 56.7772C123.872 56.903 123.98 57.0039 124.111 57.0661C124.253 57.1254 124.407 57.1475 124.56 57.1303C124.906 57.0709 125.215 56.8789 125.422 56.5953C125.646 56.2904 125.826 55.9554 125.957 55.6002L126.021 55.4451L126.058 55.6109C126.108 56.0305 126.269 56.4293 126.524 56.7665C126.665 56.9217 126.853 57.0268 127.059 57.0661C127.164 57.0846 127.272 57.075 127.373 57.0384C127.473 57.0018 127.562 56.9394 127.631 56.8575C127.793 56.6332 127.896 56.372 127.931 56.0978C127.977 55.8271 128.006 55.5536 128.016 55.2792C128.028 54.7558 128.006 54.2323 127.952 53.7116C127.909 53.2141 127.866 52.7379 127.866 52.2885C127.862 51.8723 127.897 51.4566 127.973 51.0473C128.075 50.447 128.334 49.8841 128.723 49.4155C128.874 49.2586 129.052 49.1284 129.247 49.0303V49.0303Z" fill="#455A64"/>
<path d="M144.243 53.3853L144.205 53.4174L144.082 53.5084C144.022 53.5602 143.955 53.6051 143.884 53.6421C143.793 53.7044 143.697 53.7581 143.596 53.8026C142.956 54.1099 142.25 54.2533 141.541 54.2199C140.489 54.175 139.472 53.8256 138.615 53.2141C137.577 52.4564 136.705 51.4952 136.052 50.3893C135.688 49.8168 135.394 49.223 135.068 48.6826C134.767 48.151 134.392 47.6647 133.955 47.2381C133.564 46.8536 133.082 46.5755 132.553 46.4303C132.314 46.3682 132.067 46.3447 131.82 46.3607C131.591 46.3772 131.366 46.4258 131.151 46.5052C130.78 46.6393 130.442 46.8529 130.162 47.1311C129.944 47.3384 129.763 47.5807 129.627 47.848C129.52 48.0802 129.443 48.3246 129.396 48.5756V48.5221C129.396 48.4847 129.396 48.4365 129.396 48.3777C129.434 48.1936 129.491 48.0141 129.568 47.8427C129.703 47.5668 129.884 47.3154 130.103 47.099C130.387 46.8115 130.73 46.5888 131.109 46.4463C131.328 46.3628 131.559 46.3106 131.793 46.2912C132.05 46.2704 132.309 46.292 132.558 46.3554C133.106 46.5017 133.607 46.7852 134.014 47.1793C134.458 47.6092 134.838 48.1011 135.142 48.6398C135.474 49.1748 135.774 49.7794 136.132 50.3465C136.778 51.4392 137.636 52.3908 138.657 53.1446C139.498 53.7507 140.495 54.1017 141.53 54.1557C142.227 54.1967 142.922 54.0682 143.558 53.7812C143.794 53.662 144.022 53.5299 144.243 53.3853V53.3853Z" fill="#455A64"/>
<path d="M144.634 51.2614C144.581 51.3088 144.524 51.35 144.462 51.3844C144.3 51.4886 144.13 51.5798 143.954 51.6573C143.695 51.7732 143.426 51.868 143.152 51.9408C142.812 52.0227 142.467 52.0763 142.119 52.1013C141.771 52.1158 141.421 52.0997 141.076 52.0532C140.794 52.0097 140.517 51.9435 140.247 51.8552C140.062 51.7996 139.883 51.728 139.712 51.6412C139.588 51.5824 139.524 51.5449 139.53 51.5342C139.535 51.5235 139.808 51.6466 140.268 51.7803C140.536 51.8563 140.81 51.9117 141.086 51.9462C141.425 51.9882 141.767 52.0025 142.108 51.989C142.45 51.964 142.79 51.9139 143.125 51.8392C143.396 51.7703 143.662 51.6845 143.922 51.5824C144.366 51.4005 144.623 51.24 144.634 51.2614Z" fill="#455A64"/>
<path d="M115.931 141.415L111.967 166.239C111.967 166.239 106.82 197.045 106.686 203.251L119.976 203.503C119.976 203.503 123.838 174.216 126.396 169.91C128.953 165.603 134.394 131.271 134.394 131.271L115.931 141.415Z" fill="#263238"/>
<path d="M135.779 128.714C135.779 128.714 162.492 142.977 164.584 146.369C166.676 149.761 170.79 185.264 170.79 185.264L158.854 189.512L152.915 157.08L124.148 146.38C124.148 146.38 116.449 143.288 112.844 139.762C109.238 136.236 110.227 129.741 110.227 129.741L112.715 126.531L136.999 122.299L135.779 128.714Z" fill="#263238"/>
<path d="M118.178 144.438C118.285 144.504 118.4 144.556 118.52 144.593L119.521 144.978L123.223 146.359L135.421 150.933C140.188 152.72 144.516 154.314 147.651 155.427C149.224 155.989 150.497 156.427 151.396 156.722L152.413 157.059C152.53 157.105 152.652 157.137 152.777 157.155C152.667 157.095 152.552 157.045 152.434 157.005L151.434 156.62L147.731 155.24L135.523 150.649C130.756 148.857 126.428 147.268 123.292 146.15C121.719 145.615 120.446 145.149 119.547 144.855L118.531 144.524C118.415 144.487 118.297 144.458 118.178 144.438V144.438Z" fill="#455A64"/>
<path d="M135.918 128.816C134.835 128.617 133.763 128.36 132.708 128.045C130.948 127.596 129.498 127.35 129.498 127.275C130.607 127.29 131.709 127.457 132.772 127.772C133.857 128.001 134.912 128.351 135.918 128.816V128.816Z" fill="#455A64"/>
<path d="M138.288 79.5418L137.218 76.9042L136.769 77.573L136.352 76.8828L124.919 71.7574L123.956 74.1436L120.21 75.5827C119.04 76.0332 118.005 76.7771 117.205 77.7431C116.404 78.7091 115.866 79.8646 115.642 81.0986L114.245 97.946L114.283 100.674L113.887 109.989C114.245 110.599 109.521 117.645 109.382 120.154C109.243 122.663 111.779 124.739 111.779 124.739L136.956 126.649C136.956 126.649 138.229 126.836 139.283 124.509C140.204 122.471 140.129 108.502 140.129 108.502C140.129 108.502 140.188 101.012 140.434 95.8969C140.455 92.8174 140.193 89.7425 139.653 86.7109L138.288 79.5418Z" fill="#EBEBEB"/>
<path d="M123.463 73.9135L124.485 72.2496C124.485 72.2496 129.611 75.8395 130.905 79.5043C132.2 83.1691 132.195 99.353 131.526 103.852C130.798 108.71 130.376 114.499 122.672 122.636C113.812 131.999 117.108 141.832 115.337 142.539C115.337 142.539 101.726 138.178 101.962 136.654C103.032 129.137 112.362 112.305 112.442 112.086L113.807 96.999L113.651 79.1405C115.791 77.696 116.91 76.5083 118.905 75.8502L123.463 73.9135Z" fill="#4FAD39"/>
<path opacity="0.3" d="M124.507 89.3537L112.967 105.971L113.48 100.311L124.507 89.3537Z" fill="black"/>
<path d="M129.718 111.059C129.736 110.922 129.763 110.786 129.798 110.652C129.857 110.358 129.943 109.978 130.044 109.497C130.242 108.491 130.51 107.03 130.697 105.217C130.788 104.307 130.863 103.307 130.874 102.231C130.874 101.086 130.812 99.9407 130.686 98.8019C130.467 96.3837 130.232 93.7301 129.98 90.9427C129.798 88.8027 129.616 86.7857 129.445 84.8811V84.8436V84.8062L130.649 82.4789L130.734 82.6555L129.418 82.3184H129.376V82.2863C127.642 79.7557 126.166 77.6585 125.149 76.1979C124.614 75.4703 124.223 74.9032 123.929 74.5234C123.785 74.3308 123.667 74.1917 123.592 74.0954C123.517 73.9991 123.464 73.9616 123.469 73.9563C123.474 73.9509 124.202 74.6785 125.267 76.0963C126.331 77.5141 127.824 79.6113 129.574 82.1258L129.504 82.0777L130.82 82.4094L130.975 82.4468L130.9 82.5859L129.707 84.9239V84.849C129.878 86.7536 130.06 88.7973 130.242 90.9106C130.483 93.7033 130.713 96.3569 130.927 98.7805C131.045 99.9269 131.098 101.079 131.088 102.231C131.088 103.301 130.981 104.318 130.879 105.233C130.711 106.673 130.461 108.102 130.13 109.513C130.012 110.016 129.911 110.401 129.836 110.658C129.811 110.795 129.772 110.93 129.718 111.059V111.059Z" fill="#263238"/>
<path d="M112.993 119.084C112.993 119.084 112.924 119.164 112.79 119.282L112.186 119.785L109.981 121.566L109.944 121.385L117.145 123.525L117.017 123.551L117.059 123.514L120.104 120.839L120.157 121.064L115.021 119.678L113.534 119.255C113.35 119.211 113.171 119.15 112.999 119.073C113.179 119.091 113.358 119.123 113.534 119.17L115.021 119.517C116.294 119.822 118.108 120.272 120.232 120.807L120.473 120.871L120.286 121.031L117.252 123.706L117.209 123.744L117.15 123.797H117.081L109.896 121.604L109.698 121.545L109.864 121.422L112.159 119.699C112.426 119.479 112.704 119.274 112.993 119.084V119.084Z" fill="#263238"/>
<path d="M138.695 81.3822C138.663 81.3822 138.497 81.0505 138.107 80.5315L137.39 79.6113C137.073 79.2154 136.805 78.7825 136.593 78.3219L136.817 78.3487L135.592 79.9537C135.271 80.3764 134.961 80.7776 134.672 81.1628L134.602 81.2484L134.506 81.2003C133.404 80.6653 132.446 80.2426 131.778 79.9109C131.401 79.7589 131.043 79.567 130.708 79.3385C131.094 79.4427 131.47 79.5824 131.831 79.7558C132.521 80.0447 133.49 80.462 134.602 80.9595L134.442 80.997L135.351 79.7879L136.593 78.1828L136.732 78.0063L136.817 78.2096C137.223 78.9882 137.693 79.7309 138.224 80.4299C138.442 80.7135 138.602 81.0371 138.695 81.3822V81.3822Z" fill="#263238"/>
<path d="M136.753 78.3647C136.772 78.4039 136.787 78.4452 136.796 78.4878L136.892 78.8516C136.973 79.1726 137.085 79.6488 137.219 80.2587C137.481 81.4892 137.823 83.2761 138.192 85.4964C138.374 86.6038 138.562 87.8183 138.727 89.1291C138.818 89.7818 138.92 90.4612 138.979 91.1674C139.038 91.8736 139.059 92.6012 139.07 93.3449C139.097 94.8322 139.07 96.3944 139.022 98.0101C138.973 99.6259 138.909 101.3 138.786 103.012C138.545 106.436 138.128 109.679 137.748 112.643C137.368 115.606 136.983 118.239 136.518 120.443C136.052 122.647 135.544 124.397 135.186 125.6C135.004 126.2 134.854 126.67 134.752 126.981L134.629 127.334C134.619 127.377 134.603 127.418 134.581 127.457C134.573 127.414 134.573 127.371 134.581 127.328L134.677 126.965C134.768 126.622 134.897 126.157 135.057 125.568C135.384 124.359 135.865 122.604 136.298 120.405C136.732 118.207 137.112 115.558 137.475 112.61C137.839 109.663 138.251 106.426 138.487 102.98C138.61 101.274 138.679 99.6045 138.727 97.9888C138.776 96.373 138.813 94.8162 138.792 93.3342C138.792 92.5959 138.759 91.8736 138.711 91.1942C138.663 90.5147 138.562 89.8192 138.476 89.1665C138.305 87.8557 138.128 86.6413 137.941 85.5285C137.604 83.3135 137.288 81.5213 137.058 80.2854C136.94 79.6916 136.85 79.2154 136.785 78.8677L136.716 78.4985C136.72 78.4521 136.733 78.4068 136.753 78.3647V78.3647Z" fill="#263238"/>
<path d="M100.18 134.776C100.307 135.481 100.35 136.2 100.308 136.916C100.196 137.665 98.9333 140.313 98.9333 140.313C98.9333 140.313 98.2217 140.361 98.3983 138.59C98.4711 137.733 98.6215 136.884 98.8477 136.054L100.18 134.776Z" fill="#FFBF9D"/>
<path d="M88.8701 148.402C88.8701 148.402 88.5865 137.51 90.9352 135.974C93.2839 134.439 96.6705 133.187 97.8368 134.663C99.2843 136.542 100.373 138.671 101.047 140.944C101.566 143.071 101.915 145.236 102.09 147.418L99.1797 147.487C99.1797 147.487 97.8742 136.787 96.7882 135.305C95.7021 133.823 91.4649 135.707 91.2402 137.681C91.0155 139.655 91.1118 148.343 91.1118 148.343L88.8701 148.402Z" fill="#455A64"/>
<path d="M80.9359 164.886C80.4704 160.44 79.577 150.617 79.1864 146.3C79.1346 145.734 79.304 145.17 79.6591 144.726C80.0142 144.282 80.5274 143.993 81.091 143.919L107.445 140.516C108.011 140.444 108.583 140.593 109.041 140.933C109.499 141.273 109.807 141.778 109.901 142.341L112.876 160.456C112.923 160.745 112.911 161.041 112.843 161.327C112.774 161.612 112.649 161.88 112.475 162.116C112.301 162.352 112.082 162.552 111.83 162.702C111.578 162.852 111.299 162.951 111.009 162.992L83.429 166.833C83.1365 166.875 82.8386 166.858 82.5531 166.781C82.2677 166.705 82.0005 166.572 81.7677 166.391C81.5348 166.209 81.3411 165.982 81.1982 165.723C81.0553 165.465 80.966 165.18 80.9359 164.886V164.886Z" fill="#455A64"/>
<path d="M97.9704 139.751L100.185 134.861L100.084 128.933L93.5085 128.147L91.0849 133.604C91.0849 133.604 90.8763 136.547 91.0849 137.215C91.2936 137.884 92.3047 137.879 92.3047 137.879C92.4545 138.794 93.8188 139.061 93.8188 139.061C94.1238 140.056 95.3757 139.773 95.3757 139.773C95.3757 139.773 95.8839 140.896 96.2905 141.014C96.4734 141.045 96.6614 141.015 96.8255 140.928C97.3387 140.69 97.7462 140.271 97.9704 139.751V139.751Z" fill="#FFBF9D"/>
<path d="M92.3903 136.402C92.4545 136.402 92.4813 136.728 92.4545 137.124C92.4278 137.52 92.3475 137.836 92.278 137.831C92.2084 137.825 92.187 137.499 92.2138 137.108C92.2405 136.718 92.3261 136.397 92.3903 136.402Z" fill="#FF9A6C"/>
<path d="M93.9957 136.996C94.0257 137.354 94.0005 137.715 93.9208 138.066C93.9151 138.42 93.8593 138.771 93.755 139.109C93.579 138.406 93.6645 137.662 93.9957 137.017V136.996Z" fill="#FF9A6C"/>
<path d="M95.7073 137.916C95.7715 137.943 95.6591 138.339 95.5521 138.831C95.4451 139.323 95.3756 139.725 95.306 139.725C95.204 139.417 95.204 139.085 95.306 138.778C95.4291 138.264 95.6484 137.889 95.7073 137.916Z" fill="#FF9A6C"/>
<path d="M99.4574 136.381C99.2915 137.044 99.051 137.687 98.7405 138.296C98.5003 138.934 98.1879 139.543 97.8096 140.11C98.2053 138.799 98.7586 137.542 99.4574 136.365V136.381Z" fill="#FF9A6C"/>
<path d="M92.7273 135.37C92.7273 135.402 92.6684 135.455 92.5293 135.471C92.3498 135.493 92.1686 135.447 92.0211 135.343C91.8722 135.24 91.7672 135.086 91.7268 134.909C91.6947 134.776 91.7268 134.695 91.7536 134.69C91.7803 134.685 91.898 134.968 92.1602 135.15C92.4223 135.332 92.7112 135.305 92.7273 135.37Z" fill="#FF9A6C"/>
<path d="M94.4235 136.445C94.4235 136.477 94.3486 136.52 94.2042 136.53C94.0132 136.53 93.8268 136.472 93.6692 136.365C93.5083 136.258 93.3863 136.102 93.3214 135.921C93.2733 135.781 93.2893 135.691 93.3214 135.685C93.3535 135.68 93.498 135.963 93.8029 136.167C94.1079 136.37 94.4182 136.381 94.4235 136.445Z" fill="#FF9A6C"/>
<path d="M98.072 137.568C98.1041 137.568 98.1576 137.761 97.9222 137.911C97.7847 137.978 97.6352 138.016 97.4825 138.023C97.3298 138.031 97.1773 138.007 97.0341 137.954C96.7449 137.858 96.495 137.67 96.3225 137.419C96.1941 137.231 96.1781 137.087 96.2048 137.076C96.4598 137.348 96.7674 137.564 97.109 137.713C97.3464 137.797 97.6034 137.808 97.8473 137.745C98.0131 137.702 98.0399 137.568 98.072 137.568Z" fill="#FF9A6C"/>
<path d="M110.891 160.242C110.891 160.242 110.891 160.194 110.848 160.092C110.805 159.99 110.795 159.825 110.752 159.632L110.399 157.872C110.099 156.32 109.676 154.127 109.152 151.382C108.89 150.013 108.617 148.515 108.307 146.904C108.152 146.096 107.996 145.262 107.836 144.406C107.793 144.192 107.756 143.972 107.713 143.758L107.649 143.437C107.632 143.345 107.589 143.26 107.526 143.191C107.466 143.119 107.389 143.064 107.302 143.031C107.215 142.999 107.12 142.989 107.028 143.004L106.349 143.095L94.4501 144.641L82.5516 146.171C82.3397 146.18 82.1304 146.222 81.931 146.294C81.8499 146.341 81.7816 146.407 81.7321 146.486C81.6826 146.565 81.6536 146.656 81.6474 146.749C81.6474 147.161 81.7063 147.626 81.7331 148.054C81.7973 148.927 81.8561 149.772 81.915 150.59C82.0291 152.228 82.1343 153.745 82.2306 155.143C82.4179 157.909 82.5677 160.156 82.6747 161.735C82.7228 162.494 82.7549 163.093 82.7817 163.527V163.992C82.7876 164.046 82.7876 164.099 82.7817 164.153C82.7759 164.099 82.7759 164.046 82.7817 163.992L82.7335 163.532C82.6907 163.099 82.6426 162.5 82.573 161.74C82.4446 160.167 82.2627 157.92 82.038 155.154C81.9256 153.763 81.808 152.244 81.6849 150.606C81.6207 149.788 81.5565 148.943 81.4869 148.076C81.4602 147.632 81.412 147.215 81.396 146.728C81.4056 146.594 81.4476 146.465 81.5185 146.351C81.5893 146.237 81.6869 146.142 81.8026 146.075C81.9163 146.012 82.0421 145.973 82.1718 145.963L82.5142 145.92L94.418 144.368L106.301 142.838L106.98 142.753C107.181 142.727 107.384 142.777 107.549 142.893C107.715 143.009 107.833 143.182 107.879 143.379L107.943 143.71C107.98 143.93 108.018 144.144 108.061 144.358C108.216 145.219 108.371 146.054 108.515 146.861C108.81 148.466 109.083 149.975 109.329 151.35C109.815 154.079 110.211 156.299 110.49 157.85C110.618 158.605 110.72 159.199 110.789 159.621C110.821 159.814 110.843 159.964 110.864 160.087C110.879 160.137 110.888 160.189 110.891 160.242V160.242Z" fill="#263238"/>
<path d="M98.2477 146.965L92.0457 147.729C91.8932 147.748 91.7848 147.887 91.8035 148.039L91.9461 149.197C91.9649 149.349 92.1037 149.458 92.2562 149.439L98.4582 148.675C98.6107 148.656 98.7191 148.518 98.7003 148.365L98.5578 147.207C98.539 147.055 98.4002 146.947 98.2477 146.965Z" fill="#263238"/>
<path d="M121.992 91.7988L106.054 107.64L101.774 129.955L92.144 128.805L95.6751 106.87C96.2309 103.399 97.6125 100.113 99.7037 97.2879L111.65 81.0987C112.439 79.9501 113.482 78.9982 114.697 78.3164C115.912 77.6346 117.268 77.2412 118.659 77.1664C120.307 77.1466 121.9 77.7549 123.116 78.8677C125.523 81.4625 125.32 84.8918 125.256 85.9351" fill="#4FAD39"/>
<path d="M125.24 85.9137C125.297 85.481 125.32 85.0446 125.31 84.6083C125.303 83.3511 125.049 82.1074 124.561 80.9489C124.202 80.1092 123.692 79.3422 123.057 78.6858C122.248 77.9694 121.268 77.4737 120.211 77.2466C118.985 76.9845 117.712 77.0509 116.519 77.4392C115.177 77.8474 113.947 78.5595 112.924 79.5204C112.376 80.0334 111.885 80.6037 111.458 81.2217L110.067 83.0942L107.119 87.0693L100.619 95.8327C100.052 96.6085 99.4528 97.3735 98.9071 98.2028C97.2223 100.779 96.0909 103.678 95.5847 106.715C94.9213 110.845 94.2311 115.12 93.5249 119.496C93.022 122.647 92.5245 125.745 92.0376 128.762V128.907H92.1821L101.812 130.052H101.941V129.929C103.546 121.556 104.99 113.98 106.221 107.608L106.188 107.667L117.745 96.0788L120.906 92.8688L121.725 92.0395C121.907 91.8469 121.993 91.7453 121.993 91.7453C121.993 91.7453 121.891 91.8309 121.704 92.0128L120.864 92.8688L117.654 96.0093L105.98 107.549V107.587C104.744 113.953 103.305 121.497 101.652 129.891L101.801 129.784L92.1713 128.629L92.2944 128.789C92.7813 125.766 93.2788 122.669 93.7871 119.523C94.4879 115.141 95.1727 110.866 95.8361 106.736C96.1707 104.72 96.7847 102.761 97.6605 100.915C98.0834 100.021 98.5678 99.1579 99.1104 98.3312C99.6454 97.5126 100.239 96.7262 100.806 95.9665C103.091 92.8741 105.258 89.937 107.285 87.1817L110.222 83.2012L111.608 81.3234C112.026 80.7166 112.505 80.1537 113.037 79.6434C114.036 78.6998 115.238 77.9987 116.552 77.5944C117.713 77.2026 118.958 77.1287 120.157 77.3804C121.2 77.5941 122.169 78.0774 122.966 78.7821C123.595 79.4201 124.102 80.167 124.464 80.9863C124.96 82.131 125.229 83.3611 125.256 84.6083C125.256 85.031 125.256 85.3573 125.256 85.5767C125.256 85.796 125.24 85.9137 125.24 85.9137Z" fill="#263238"/>
</svg>
